<svg width="7" height="11" viewBox="0 0 7 11" fill="none" xmlns="http://www.w3.org/2000/svg">
<path id="chevron-left" fill-rule="evenodd" clip-rule="evenodd" d="M0.1875 4.71093L4.73436 0.164062C4.84374 0.0546873 4.97655 0 5.1328 0C5.28905 0 5.42186 0.0546873 5.53124 0.164062L6.04686 0.679686C6.15624 0.789061 6.21483 0.921873 6.22264 1.07812C6.23045 1.23437 6.17967 1.36718 6.0703 1.47656L2.43749 5.10936L6.0703 8.74217C6.17967 8.85154 6.23045 8.98435 6.22264 9.1406C6.21483 9.29685 6.15624 9.42966 6.04686 9.53904L5.53124 10.0547C5.42186 10.164 5.28905 10.2187 5.1328 10.2187C4.97655 10.2187 4.84374 10.164 4.73436 10.0547L0.1875 5.5078C0.0625 5.39842 0 5.26561 0 5.10936C0 4.95311 0.0625 4.8203 0.1875 4.71093Z" fill="#2C3138"/>
</svg>
