<svg width="94" height="54" viewBox="0 0 94 54" fill="none" xmlns="http://www.w3.org/2000/svg">
<g id="Group 6">
<g id="Rectangle" filter="url(#filter0_d)">
<rect x="2" y="1" width="90" height="50" rx="1.5" fill="white"/>
<rect x="2" y="1" width="90" height="50" rx="1.5" stroke="#E5E5E5"/>
</g>
<g id="zulutrade">
<g id="Group">
<path id="Path" fill-rule="evenodd" clip-rule="evenodd" d="M22 31.2162V29.7578H33.1865V31.2162H28.5219V42.2075H26.6603V31.2162H22Z" fill="#3D3D3D"/>
<path id="Path_2" fill-rule="evenodd" clip-rule="evenodd" d="M33.9236 32.7896V34.7756H33.9622C34.3675 34.0099 34.8651 33.4459 35.4506 33.0813C36.0382 32.7167 37.2907 32.4722 38.1914 32.4979V34.1386C37.5244 34.1386 36.4478 34.2973 35.9782 34.4667C35.5085 34.6362 35.1289 34.8849 34.8415 35.2152C34.552 35.5433 34.3461 35.9423 34.2131 36.4076C34.0823 36.8773 34.018 37.4135 34.018 38.0204V42.2111H32.3516V32.7896H33.9236Z" fill="#3D3D3D"/>
<path id="Shape" fill-rule="evenodd" clip-rule="evenodd" d="M46.2265 42.0771C46.486 42.3023 46.8355 42.4139 47.2773 42.4139C47.7985 42.4139 48.206 42.3345 48.5041 42.1758V40.9727C48.3025 41.0327 48.1309 41.0627 47.9829 41.0627C47.717 41.0627 47.5604 40.9769 47.5133 40.8075C47.4661 40.6359 47.4425 40.37 47.4425 40.0054V35.1585C47.4425 34.6138 47.3288 34.1699 47.1015 33.8289C46.872 33.49 46.5718 33.2262 46.1986 33.0375C45.8254 32.8509 45.4094 32.7244 44.9483 32.6643C44.4872 32.6042 44.0239 32.5742 43.5564 32.5742C42.9816 32.5742 42.4347 32.63 41.9136 32.7394C41.3903 32.8488 40.9292 33.0289 40.5303 33.2776C40.1292 33.5243 39.8075 33.8503 39.5673 34.2513C39.3271 34.6524 39.1963 35.1435 39.1684 35.7269H40.8713C40.9099 35.0363 41.1715 34.5645 41.6519 34.3157C42.1345 34.0669 42.735 33.9425 43.4556 33.9425C43.7215 33.9425 43.9917 33.9597 44.2663 33.9961C44.5408 34.0326 44.7874 34.1055 45.0083 34.2148C45.2292 34.3243 45.4072 34.4808 45.5488 34.6888C45.6882 34.8947 45.7589 35.1693 45.7589 35.5081C45.7589 35.8019 45.6646 36.025 45.478 36.175C45.2893 36.3295 45.0362 36.4432 44.7166 36.5225C44.3949 36.6019 44.0261 36.6619 43.6057 36.7048C43.1854 36.7455 42.7414 36.8099 42.2739 36.8957C41.8321 36.9664 41.4032 37.0587 40.9828 37.168C40.5625 37.2774 40.1893 37.4383 39.8612 37.6506C39.5352 37.8629 39.2714 38.1396 39.0698 38.4785C38.8703 38.8194 38.7695 39.257 38.7695 39.791C38.7695 40.2649 38.8596 40.6681 39.0398 41.0027C39.2199 41.3351 39.4687 41.6096 39.7818 41.822C40.0949 42.0342 40.4595 42.1865 40.8734 42.2766C41.2852 42.3667 41.727 42.4139 42.1945 42.4139C42.9151 42.4139 43.5843 42.3023 44.2062 42.0771C44.826 41.8519 45.3686 41.4852 45.8361 40.9748C45.8361 41.4852 45.967 41.8519 46.2265 42.0771ZM43.8051 37.8313C44.1868 37.7885 44.5493 37.7348 44.8967 37.6662C45.2441 37.5997 45.5251 37.4925 45.7374 37.3445V38.9315C45.7374 39.1481 45.6773 39.384 45.5572 39.6328C45.4371 39.8816 45.2506 40.1132 44.9975 40.3256C44.7444 40.54 44.4163 40.7159 44.0152 40.8553C43.6163 40.9947 43.1338 41.0654 42.574 41.0654C42.321 41.0654 42.0722 41.0397 41.8234 40.9926C41.5746 40.9453 41.3623 40.866 41.1822 40.7566C41.002 40.6472 40.8562 40.5035 40.7425 40.3277C40.6289 40.1497 40.5731 39.9352 40.5731 39.68C40.5731 39.2918 40.6696 38.9851 40.8626 38.7599C41.0535 38.5348 41.3044 38.3632 41.6111 38.241C41.9199 38.1208 42.2652 38.0308 42.6534 37.9772C43.0394 37.9214 43.4255 37.8742 43.8051 37.8313Z" fill="#3D3D3D"/>
<path id="Shape_2" fill-rule="evenodd" clip-rule="evenodd" d="M57.4354 34.321V29.6328H59.1961V42.2197H57.4332V40.9866H57.3925C57.1029 41.4905 56.6461 41.8552 56.0242 42.0782C55.4022 42.3012 54.7202 42.4128 53.9717 42.4128C53.1439 42.4128 52.4212 42.2841 51.8057 42.0246C51.1923 41.7651 50.6819 41.4177 50.2722 40.9844C49.8648 40.5491 49.5581 40.0429 49.35 39.4681C49.142 38.8912 49.0391 38.2822 49.0391 37.6345C49.0391 36.9911 49.1377 36.3777 49.3393 35.803C49.5388 35.2261 49.8412 34.7242 50.2508 34.2953C50.6561 33.8663 51.1708 33.5232 51.7842 33.2723C52.4019 33.0192 53.116 32.8927 53.931 32.8927C54.2077 32.8927 54.5058 32.9163 54.8232 32.9634C55.1406 33.0106 55.458 33.09 55.7754 33.2015C56.0928 33.313 56.3931 33.461 56.6783 33.6433C56.9635 33.8256 57.2016 34.0508 57.3946 34.321H57.4354ZM56.7137 39.9192C56.9947 39.6039 57.1963 39.2458 57.3228 38.8447C57.4493 38.4437 57.5115 38.0383 57.5029 37.6287C57.5029 37.1912 57.4343 36.7709 57.3035 36.3633C57.1727 35.958 56.9625 35.5977 56.6751 35.2889C56.3899 34.98 56.0167 34.7291 55.562 34.5404C55.1031 34.3517 54.5519 34.2573 53.9042 34.2573C53.2716 34.2573 52.7354 34.356 52.2936 34.549C51.8497 34.742 51.4979 34.9994 51.232 35.321C50.9682 35.6406 50.7773 36.0095 50.6594 36.4213C50.5414 36.8331 50.4835 37.2577 50.4835 37.6931C50.4835 38.1048 50.5543 38.5101 50.6937 38.9048C50.8331 39.2994 51.0476 39.6533 51.3349 39.9621C51.6223 40.2731 51.9891 40.5175 52.4394 40.702C52.8877 40.8864 53.4131 40.9765 54.0179 40.9765C54.6506 40.9765 55.1867 40.88 55.6307 40.6848C56.0725 40.4875 56.4349 40.2344 56.7137 39.9192Z" fill="#3D3D3D"/>
<path id="Shape_3" fill-rule="evenodd" clip-rule="evenodd" d="M65.4063 42.41C66.5837 42.41 67.5573 42.1418 68.3316 41.6078C69.1079 41.0739 69.6076 40.276 69.8328 39.223H68.1514C68.0034 39.8428 67.701 40.3039 67.2399 40.6085C66.7788 40.913 66.1891 41.0631 65.4685 41.0631C64.9066 41.0631 64.4176 40.9773 64.0058 40.8079C63.594 40.6364 63.253 40.4111 62.985 40.1238C62.7169 39.8385 62.5239 39.5082 62.4038 39.1393C62.2837 38.7705 62.23 38.3759 62.2429 37.9641H69.9937C70.0215 37.3915 69.9636 36.7888 69.8242 36.1583C69.6848 35.5278 69.4296 34.9445 69.0629 34.4104C68.694 33.8764 68.2093 33.4368 67.6002 33.0893C66.9933 32.7419 66.2298 32.5703 65.3076 32.5703C64.602 32.5703 63.95 32.6926 63.356 32.9349C62.7598 33.1794 62.2451 33.5182 61.8118 33.9557C61.3786 34.3932 61.0419 34.9101 60.8017 35.5042C60.5615 36.0983 60.4414 36.7545 60.4414 37.4708C60.4671 38.1871 60.583 38.8477 60.791 39.4568C60.9969 40.0659 61.3078 40.587 61.7218 41.0245C62.1335 41.462 62.644 41.803 63.253 42.0453C63.86 42.2877 64.5784 42.41 65.4063 42.41ZM67.2999 34.7097C67.5594 34.9478 67.7674 35.2287 67.9197 35.559C68.0741 35.8849 68.1642 36.2324 68.192 36.5948H62.2449C62.2728 36.2324 62.3586 35.8871 62.5066 35.5654C62.6524 35.2416 62.854 34.9606 63.1071 34.7161C63.358 34.4738 63.6625 34.2829 64.0164 34.1436C64.3681 34.0042 64.7649 33.9333 65.2067 33.9333C65.6335 33.9333 66.0238 34.0042 66.3777 34.1436C66.7315 34.2829 67.0382 34.4738 67.2999 34.7097Z" fill="#3D3D3D"/>
</g>
<g id="Group_2">
<g id="Group_3">
<path id="Path_3" fill-rule="evenodd" clip-rule="evenodd" d="M51.1289 24.4855V11H55.6541V24.4855H51.1289Z" fill="#CB5D27"/>
<path id="Path_4" fill-rule="evenodd" clip-rule="evenodd" d="M65.508 24.5748V23.1057C65.3771 23.2129 65.2056 23.3523 64.9911 23.5261C64.7766 23.6976 64.5021 23.8649 64.1697 24.0258C63.8351 24.1866 63.4384 24.3239 62.973 24.4354C62.5098 24.549 61.9607 24.6048 61.3302 24.6048C61.0214 24.6048 60.7168 24.5876 60.4187 24.5512C60.1206 24.5147 59.8289 24.4547 59.5437 24.3732C58.8896 24.1823 58.3813 23.9142 58.0167 23.5711C57.6543 23.2258 57.3883 22.8698 57.2232 22.5009C57.0559 22.132 56.9551 21.7803 56.9208 21.4479C56.8843 21.1155 56.8672 20.8581 56.8672 20.6801V14.3984H61.401L61.3945 19.6507C61.3945 19.9252 61.12 20.2018 61.1608 20.5C61.2015 20.7981 61.3538 21.0704 61.6154 21.3214C61.8299 21.523 62.0851 21.6645 62.3832 21.7417C62.6813 21.8189 62.9494 21.8575 63.1853 21.8575C63.4706 21.8575 63.7708 21.8103 64.0882 21.7138C64.4035 21.6195 64.663 21.4522 64.8646 21.2141C65.1134 20.9396 65.2656 20.6329 65.3192 20.2941C65.3729 19.9552 65.4007 19.655 65.4007 19.3933V14.3984H69.9088V24.5726H65.508V24.5748Z" fill="#CB5D27"/>
<path id="Path_5" fill-rule="evenodd" clip-rule="evenodd" d="M45.8947 24.5705V23.1057C45.7639 23.2129 45.5923 23.3523 45.3778 23.5261C45.1634 23.6976 44.8888 23.8649 44.5564 24.0258C44.2219 24.1866 43.8251 24.3239 43.3597 24.4354C42.8965 24.549 42.3474 24.6048 41.7169 24.6048C41.4081 24.6048 41.1035 24.5876 40.8054 24.5512C40.5073 24.5147 40.2157 24.4547 39.9304 24.3732C39.2763 24.1823 38.9503 23.7512 38.5879 23.4059C38.2254 23.0607 37.7751 22.8676 37.6099 22.4988C37.4426 22.1299 37.3418 21.7782 37.3075 21.4457C37.2711 21.1133 37.2539 20.856 37.2539 20.678V14.3984H41.777L41.7813 19.6786C41.7813 19.9531 41.5067 20.2018 41.5475 20.5C41.5882 20.7981 41.7405 21.0704 42.0022 21.3214C42.2166 21.523 42.4718 21.6645 42.7699 21.7417C43.068 21.8189 43.3361 21.8575 43.572 21.8575C43.8573 21.8575 44.1575 21.8103 44.4749 21.7138C44.7902 21.6195 45.0475 21.4522 45.2513 21.2141C45.5022 20.9396 45.6523 20.6329 45.706 20.2941C45.7596 19.9552 45.7853 19.655 45.7853 19.3933V14.3984H50.2934V24.5812L45.8947 24.5705Z" fill="#CB5D27"/>
<path id="Path_6" fill-rule="evenodd" clip-rule="evenodd" d="M36.7103 11.5037C36.6845 11.4779 36.6845 11.4522 36.6845 11.4265C36.6588 11.4007 36.6331 11.375 36.5816 11.375H22.7358C22.6843 11.375 22.6843 11.4007 22.6586 11.4265C22.6071 11.4522 22.6071 11.4779 22.6071 11.5037V14.5555C22.6071 14.5812 22.6071 14.607 22.6586 14.6327C22.6843 14.6585 22.6843 14.6842 22.7358 14.6842H29.9117L22.1117 21.8023C22.1117 21.828 22.0859 21.8537 22.0859 21.8795C22.0859 21.8795 22.0859 21.8795 22.0859 21.9309V24.6932C22.0859 24.719 22.0859 24.7447 22.1117 24.7705C22.1374 24.7962 22.1889 24.8219 22.2146 24.8219L32.451 24.8262C32.1379 25.1651 32.0435 25.3109 31.7561 25.624C31.7047 25.6498 31.7047 25.6755 31.7047 25.7012C31.7047 25.7527 31.7047 25.7784 31.7561 25.8042L33.8793 27.9553C33.9051 27.9553 33.9566 27.981 33.9823 27.981C34.008 27.981 34.0338 27.9553 34.0852 27.9553L38.604 23.2885C38.604 23.2628 38.604 23.237 38.6297 23.1834C38.604 23.1577 38.604 23.1319 38.604 23.1062L33.9244 18.2915C33.8986 18.2657 33.8729 18.2657 33.8472 18.2657C33.8472 18.24 33.8214 18.24 33.7957 18.2657C33.77 18.2657 33.7442 18.2657 33.7185 18.2915L31.7561 20.3182C31.7047 20.3696 31.7047 20.3696 31.7047 20.4211C31.7047 20.4469 31.7047 20.5005 31.7561 20.5005L32.5883 21.4098H28.4834L36.6824 14.0279V14.0022C36.6824 13.9765 36.6824 13.9765 36.7081 13.9507L36.7103 11.5037Z" fill="#CB5D27"/>
</g>
<g id="Group_4">
<path id="Path_7" fill-rule="evenodd" clip-rule="evenodd" d="M51.4219 24.4864V11.1875H55.6533V24.4864H51.4219Z" fill="#FF7200"/>
<path id="Path_8" fill-rule="evenodd" clip-rule="evenodd" d="M65.8066 24.5817V23.295C65.6758 23.4022 65.5042 23.5416 65.2897 23.7153C65.0753 23.8869 64.8008 24.0542 64.4683 24.215C64.1338 24.3759 63.737 24.5131 63.2716 24.6246C62.8084 24.7383 62.2594 24.7941 61.6288 24.7941C61.32 24.7941 61.0155 24.7769 60.7195 24.7405C60.4214 24.704 60.1297 24.6439 59.8445 24.5624C59.1904 24.3716 58.6821 24.1035 58.3175 23.7603C57.9551 23.4151 57.6891 23.0591 57.524 22.6902C57.3567 22.3213 57.2559 21.9696 57.2216 21.6371C57.1851 21.3047 57.168 21.0474 57.168 20.8694V14.5898H61.3994V19.8335C61.3994 20.108 61.4208 20.3933 61.4615 20.6914C61.5023 20.9895 61.6546 21.2618 61.9162 21.5128C62.1307 21.7144 62.3859 21.8559 62.684 21.9331C62.9821 22.0103 63.2502 22.0489 63.4882 22.0489C63.7735 22.0489 64.0737 22.0017 64.3911 21.9052C64.7064 21.8109 64.9638 21.6436 65.1675 21.4055C65.4163 21.131 65.5685 20.8243 65.6222 20.4855C65.6758 20.1466 65.7015 19.8464 65.7015 19.5847V14.5898H69.9136V24.5817H65.8066Z" fill="#FF7200"/>
<path id="Path_9" fill-rule="evenodd" clip-rule="evenodd" d="M46.1933 24.5817V23.295C46.0625 23.4022 45.8909 23.5416 45.6765 23.7153C45.462 23.8869 45.1875 24.0542 44.8551 24.215C44.5205 24.3759 44.1237 24.5131 43.6583 24.6246C43.1951 24.7383 42.6461 24.7941 42.0156 24.7941C41.7067 24.7941 41.4022 24.7769 41.1062 24.7405C40.8081 24.704 40.5164 24.6439 40.2312 24.5624C39.5771 24.3716 39.0688 24.1035 38.7042 23.7603C38.3418 23.4151 38.0758 23.0591 37.9107 22.6902C37.7434 22.3213 37.6426 21.9696 37.6083 21.6371C37.5718 21.3047 37.5547 21.0474 37.5547 20.8694V14.5898H41.7861V19.8335C41.7861 20.108 41.8075 20.3933 41.8483 20.6914C41.889 20.9895 42.0413 21.2618 42.3029 21.5128C42.5174 21.7144 42.7726 21.8559 43.0707 21.9331C43.3688 22.0103 43.6369 22.0489 43.8728 22.0489C44.1581 22.0489 44.4583 22.0017 44.7757 21.9052C45.091 21.8109 45.3483 21.6436 45.5521 21.4055C45.803 21.131 45.9531 20.8243 46.0067 20.4855C46.0604 20.1466 46.0861 19.8464 46.0861 19.5847V14.5898H50.2982V24.5817H46.1933Z" fill="#FF7200"/>
<path id="Path_10" fill-rule="evenodd" clip-rule="evenodd" d="M36.7094 11.6912C36.6837 11.6654 36.6837 11.6397 36.6837 11.614C36.658 11.5882 36.6322 11.5625 36.5808 11.5625H23.0287C22.9773 11.5625 22.9773 11.5882 22.9515 11.614C22.9001 11.6397 22.9001 11.6654 22.9001 11.6912V14.5521C22.9001 14.5779 22.9001 14.6036 22.9515 14.6293C22.9773 14.6551 22.9773 14.6808 23.0287 14.6808H30.4149L22.4046 21.9898C22.4046 22.0155 22.3789 22.0412 22.3789 22.067C22.3789 22.067 22.3789 22.067 22.3789 22.1184V24.692C22.3789 24.7178 22.3789 24.7435 22.4046 24.7692C22.4304 24.795 22.4818 24.8207 22.5076 24.8207H32.9349C32.6217 25.1596 32.3365 25.4963 32.0513 25.8094C31.9998 25.8351 31.9998 25.8609 31.9998 25.8866C31.9998 25.9381 31.9998 25.9638 32.0513 25.9895L33.9235 27.9133C33.9493 27.9133 34.0007 27.939 34.0265 27.939C34.0522 27.939 34.0779 27.9133 34.1294 27.9133L38.6032 23.283C38.6032 23.2573 38.6032 23.2315 38.6289 23.1779C38.6032 23.1522 38.6032 23.1264 38.6032 23.1007L34.1316 18.5047C34.1058 18.479 34.0801 18.479 34.0544 18.479C34.0544 18.4532 34.0286 18.4532 34.0029 18.479C33.9772 18.479 33.9514 18.479 33.9257 18.5047L32.0534 20.5078C32.0019 20.5593 32.0019 20.5593 32.0019 20.6108C32.0019 20.6365 32.0019 20.6901 32.0534 20.6901L32.8855 21.5994H28.7764L36.6837 14.2133V14.1875C36.6837 14.1618 36.6837 14.1618 36.7094 14.1361V11.6912Z" fill="#FF7200"/>
</g>
</g>
</g>
</g>
<defs>
<filter id="filter0_d" x="0.5" y="0.5" width="93" height="53" filterUnits="userSpaceOnUse" color-interpolation-filters="sRGB">
<feFlood flood-opacity="0" result="BackgroundImageFix"/>
<feColorMatrix in="SourceAlpha" type="matrix" values="0 0 0 0 0 0 0 0 0 0 0 0 0 0 0 0 0 0 127 0"/>
<feOffset dy="1"/>
<feGaussianBlur stdDeviation="0.5"/>
<feColorMatrix type="matrix" values="0 0 0 0 0 0 0 0 0 0 0 0 0 0 0 0 0 0 0.0636889 0"/>
<feBlend mode="normal" in2="BackgroundImageFix" result="effect1_dropShadow"/>
<feBlend mode="normal" in="SourceGraphic" in2="effect1_dropShadow" result="shape"/>
</filter>
</defs>
</svg>
