<svg width="94" height="54" viewBox="0 0 94 54" fill="none" xmlns="http://www.w3.org/2000/svg">
<g id="Group 6">
<g id="Rectangle" filter="url(#filter0_d)">
<rect x="2" y="1" width="90" height="50" rx="1.5" fill="white"/>
<rect x="2" y="1" width="90" height="50" rx="1.5" stroke="#E5E5E5"/>
</g>
<g id="instaforex">
<path id="Vector" d="M21.162 20.2695H22.7669V21.4134C23.1976 21.4754 23.6105 21.5882 24.002 21.744L24.5745 20.7534L25.9641 21.5552L25.3903 22.5471C25.7259 22.8118 26.0287 23.1145 26.2934 23.4502L27.2852 22.8764L28.0871 24.266L27.0965 24.8385C27.2523 25.2299 27.3638 25.6441 27.4271 26.0735H28.5709V27.6785H27.4271C27.365 28.1079 27.2523 28.5221 27.0965 28.9135L28.0871 29.486L27.2852 30.8756L26.2934 30.3018C26.0287 30.6375 25.7259 30.9402 25.3903 31.2049L25.9641 32.1968L24.5745 32.9986L24.002 32.008L23.983 32.0156V27.2554L25.4397 26.4143V24.6282L22.8417 26.1305H22.7935V26.1597L22.7897 26.1622L22.7935 26.1698V32.3412L22.7695 32.345V33.4888H21.1633V32.345L21.1456 32.3424V26.1673L21.1494 26.1597L21.1456 26.1571V26.128H21.0974L18.4981 24.627V26.413L19.9549 27.2541V32.0207L19.9283 32.0118L19.3557 33.0024L17.9674 32.2006L18.5412 31.2087C18.2055 30.944 17.9028 30.6413 17.6381 30.3056L16.6462 30.8794L15.8406 29.4886L16.8312 28.916C16.6754 28.5246 16.5639 28.1104 16.5006 27.681H15.3555V26.0748H16.4993C16.5614 25.6441 16.6741 25.2312 16.8299 24.8398L15.8393 24.2672L16.6412 22.8777L17.633 23.4515C17.8977 23.1158 18.2005 22.8131 18.5361 22.5483L17.9649 21.5565L19.3544 20.7547L19.927 21.7452C20.3184 21.5894 20.7326 21.478 21.162 21.4146V20.2695ZM21.9664 22.9828C21.3254 22.9828 20.8073 23.5009 20.8073 24.1406C20.8073 24.7815 21.3254 25.2996 21.9664 25.2996C22.6073 25.2996 23.1254 24.7815 23.1254 24.1406C23.1241 23.5034 22.6048 22.9828 21.9664 22.9828Z" fill="#EC1C24"/>
<path id="Vector_2" d="M32.3944 22.3569H31.4862V21.4778H32.4096L32.3944 22.3569ZM32.3501 30.1205H31.457V23.8073H32.3501V30.1205ZM34.3717 24.5686C34.4794 24.314 34.658 24.124 34.9063 23.996C35.1545 23.8694 35.4357 23.8048 35.7486 23.8048H36.9203C37.4764 23.8048 37.8881 23.9606 38.1515 24.2722C38.415 24.5838 38.5467 25.0639 38.5467 25.7073V30.1167H37.6829V25.8581C37.6829 25.1259 37.3358 24.7598 36.6429 24.7598H35.6333C34.8328 24.7598 34.4325 25.1893 34.4325 26.0493V30.1218H33.5686V23.8073H34.3603L34.3717 24.5686ZM39.8502 30.1205V29.168H42.7801C43.0828 29.168 43.3349 29.0996 43.5337 28.964C43.7339 28.8272 43.834 28.6169 43.834 28.3345C43.834 28.0507 43.7478 27.8367 43.5781 27.6897C43.4083 27.5428 43.1664 27.4706 42.8523 27.4706H41.4171C40.2353 27.4706 39.6437 26.8448 39.6437 25.5946C39.6437 25.0081 39.8071 24.5635 40.1339 24.2608C40.462 23.958 40.8977 23.806 41.445 23.806H44.3774V24.7738H41.331C40.7939 24.7738 40.5253 25.0373 40.5253 25.5655C40.5253 25.8885 40.595 26.1266 40.7369 26.2837C40.8787 26.4395 41.1207 26.518 41.4627 26.518H42.8244C43.4983 26.518 43.9809 26.67 44.2748 26.9728C44.5686 27.2755 44.7143 27.7303 44.7143 28.3345C44.7143 28.9298 44.537 29.377 44.1861 29.6746C43.8352 29.9723 43.3805 30.1218 42.8244 30.1218H39.8514V30.1205H39.8502ZM48.0989 30.1205H47.952C47.2097 30.1205 46.665 29.9419 46.3179 29.586C45.9709 29.23 45.7986 28.6942 45.7986 27.9823V21.5652H46.7512V23.8225H48.1293V24.7016H46.7233V28.0419C46.7233 28.7943 47.1818 29.1692 48.1015 29.1692L48.0989 30.1205ZM53.6509 30.1205H50.4867C49.9584 30.1205 49.5341 29.9647 49.2124 29.6531C48.8893 29.3415 48.7285 28.8918 48.7285 28.3053C48.7285 27.7189 48.8931 27.2692 49.2263 26.9576C49.5594 26.646 50.0116 26.4902 50.588 26.4902H52.7566V25.9176C52.7566 25.5363 52.6755 25.2501 52.5146 25.0537C52.3538 24.8586 52.0865 24.7598 51.7166 24.7598H49.182V23.8086H51.7014C52.4044 23.8086 52.9073 24.0036 53.2101 24.395C53.5128 24.7852 53.6648 25.3185 53.6648 25.9911L53.6509 30.1205ZM52.7578 29.1692V27.4402H50.4145C50.17 27.4402 49.9774 27.5099 49.8356 27.6517C49.6937 27.7936 49.624 28.0153 49.624 28.318C49.624 28.6207 49.7026 28.8374 49.8584 28.9691C50.0142 29.1008 50.2004 29.1667 50.4145 29.1667L52.7578 29.1692ZM57.1368 24.6281H55.7308V30.1218H54.8517V23.996C54.8517 22.3151 55.594 21.4766 57.0786 21.4766H57.166V22.4443C56.2476 22.4443 55.7789 22.8737 55.7599 23.7338H57.1381V24.6281H57.1368ZM60.9154 23.8073C62.058 23.8073 62.6292 24.452 62.6292 25.7403V28.1419C62.6292 28.8057 62.481 29.3022 62.1821 29.629C61.8844 29.9571 61.4461 30.1193 60.8711 30.1193H59.3333C58.7468 30.1193 58.3149 29.9558 58.0374 29.629C57.7588 29.301 57.6207 28.8057 57.6207 28.1419V25.7415C57.6207 24.452 58.2072 23.8086 59.3789 23.8086H60.9167V23.8073H60.9154ZM59.5676 24.7598C58.8646 24.7598 58.5137 25.1652 58.5137 25.9771V27.9836C58.5137 28.3839 58.5948 28.6815 58.7557 28.8766C58.9165 29.0717 59.1787 29.1705 59.5398 29.1705H60.6823C61.3942 29.1705 61.7527 28.755 61.7527 27.9253V25.9303C61.7527 25.1487 61.4107 24.7586 60.7267 24.7586L59.5676 24.7598ZM67.1716 24.7598H65.9265C65.5262 24.7598 65.2209 24.8739 65.0119 25.1044C64.8029 25.3349 64.6965 25.6719 64.6965 26.1228V30.1231H63.8326V23.8073H64.6243L64.6547 24.6129C64.7231 24.3393 64.8941 24.1366 65.1664 24.0062C65.44 23.8744 65.796 23.8073 66.2368 23.8073H67.1742V24.7598H67.1716ZM71.4341 23.8073C72.0104 23.8073 72.431 23.9631 72.6944 24.2747C72.9579 24.5863 73.0896 25.0563 73.0896 25.6807V27.3794H69.1337V28.2002C69.1819 28.5232 69.2604 28.7614 69.3681 28.9184C69.4757 29.0742 69.6847 29.1528 69.9976 29.1528H72.8692V30.1205H70.0268C69.4605 30.1205 69.021 29.9761 68.7081 29.6873C68.3965 29.3985 68.2407 28.9615 68.2407 28.3763V25.7238C68.2407 24.4444 68.8753 23.8048 70.1446 23.8048H71.4341V23.8073ZM72.2257 25.7251C72.2257 25.4135 72.1649 25.1753 72.0421 25.0145C71.9205 24.8536 71.7165 24.7725 71.4353 24.7725H70.0863C69.4517 24.7725 69.1337 25.0892 69.1337 25.7251V26.5459H72.2245L72.2257 25.7251ZM78.6416 23.8073L76.9569 26.9576L78.5833 30.1218H77.5294L76.3869 27.7037L75.2747 30.1218H74.1904L75.8599 27.0754L74.2056 23.8086H75.2316L76.4033 26.3572L77.6206 23.8086H78.6416V23.8073Z" fill="#231F20"/>
<path id="Vector_3" d="M31.457 34.182V31.1888H31.8446V34.182H31.457ZM32.4793 34.182V32.0147H32.8023V32.3225C32.9581 32.0843 33.1835 31.9653 33.4762 31.9653C33.6041 31.9653 33.7206 31.9881 33.8283 32.0349C33.936 32.0831 34.0158 32.1439 34.069 32.2211C34.1222 32.2971 34.1602 32.3871 34.1817 32.4922C34.1944 32.5606 34.2007 32.6797 34.2007 32.8494V34.1832H33.841V32.8633C33.841 32.7151 33.827 32.6024 33.7992 32.5277C33.7713 32.4529 33.7206 32.3947 33.651 32.3503C33.58 32.306 33.4977 32.2845 33.4014 32.2845C33.2481 32.2845 33.1164 32.3339 33.0049 32.4327C32.8947 32.5315 32.8403 32.7215 32.8403 32.9976V34.1807L32.4793 34.182ZM34.606 33.5347L34.9607 33.4777C34.9797 33.6234 35.0367 33.7348 35.1267 33.8134C35.2179 33.8906 35.3433 33.9286 35.5092 33.9286C35.6751 33.9286 35.7967 33.8932 35.8753 33.8248C35.9563 33.7564 35.9943 33.6753 35.9943 33.5828C35.9943 33.4992 35.9576 33.4346 35.8879 33.3865C35.8398 33.3536 35.7169 33.313 35.5219 33.2611C35.2597 33.1927 35.076 33.1344 34.9747 33.0837C34.8733 33.0343 34.7948 32.9659 34.7428 32.8773C34.6896 32.7899 34.663 32.6923 34.663 32.5872C34.663 32.4897 34.6846 32.3997 34.7276 32.3199C34.7707 32.2363 34.8303 32.1679 34.905 32.1147C34.9607 32.0729 35.0367 32.0362 35.133 32.0071C35.2305 31.9767 35.3331 31.9627 35.4433 31.9627C35.608 31.9627 35.7549 31.9868 35.8816 32.0362C36.0083 32.0843 36.0995 32.1502 36.1603 32.2351C36.2198 32.3199 36.2616 32.4314 36.2832 32.572L35.9335 32.6214C35.9171 32.5099 35.8715 32.4225 35.7942 32.3605C35.7182 32.2984 35.6093 32.2667 35.4699 32.2667C35.3053 32.2667 35.1875 32.2946 35.1178 32.3503C35.0481 32.4061 35.0114 32.4707 35.0114 32.5467C35.0114 32.5948 35.0253 32.6379 35.0557 32.6759C35.0861 32.7164 35.1317 32.7468 35.1925 32.7734C35.2293 32.7873 35.3344 32.8177 35.5092 32.8671C35.7638 32.9368 35.9399 32.9938 36.0399 33.0369C36.1413 33.0812 36.2198 33.1458 36.2781 33.2294C36.3351 33.3143 36.3642 33.4182 36.3642 33.5436C36.3642 33.6652 36.3275 33.7817 36.2604 33.8894C36.1907 33.997 36.0906 34.0819 35.9576 34.1402C35.8259 34.1984 35.6764 34.2288 35.5117 34.2288C35.2356 34.2288 35.0266 34.1706 34.8822 34.0515C34.7378 33.9375 34.6453 33.764 34.606 33.5347ZM37.5739 33.8526L37.6259 34.1782C37.5258 34.1997 37.4346 34.2111 37.3548 34.2111C37.223 34.2111 37.123 34.1908 37.0508 34.1478C36.9798 34.106 36.9292 34.0502 36.9 33.9818C36.8696 33.9134 36.8557 33.769 36.8557 33.5486V32.3009H36.5922V32.0147H36.8557V31.4776L37.2129 31.2572V32.0147H37.5727V32.3009H37.2129V33.5676C37.2129 33.6728 37.2192 33.7386 37.2306 33.7703C37.2433 33.8007 37.2648 33.8235 37.2927 33.8412C37.3218 33.8577 37.3624 33.8678 37.4143 33.8678C37.4574 33.8678 37.5093 33.864 37.5739 33.8526ZM39.3068 33.9147C39.1738 34.03 39.0458 34.1123 38.923 34.1604C38.8001 34.2086 38.6684 34.2301 38.5265 34.2301C38.2934 34.2301 38.1161 34.1718 37.9907 34.0553C37.8653 33.94 37.8032 33.7906 37.8032 33.6094C37.8032 33.503 37.826 33.4055 37.8729 33.3181C37.921 33.2307 37.9818 33.1598 38.0591 33.1078C38.1363 33.0559 38.2212 33.0153 38.3175 32.9887C38.3871 32.9697 38.4948 32.9507 38.6354 32.9343C38.9255 32.8975 39.1383 32.857 39.2764 32.8076C39.2776 32.7569 39.2789 32.7253 39.2789 32.7113C39.2789 32.5619 39.2447 32.4567 39.1763 32.3959C39.0838 32.3123 38.9483 32.2705 38.7684 32.2705C38.5999 32.2705 38.4745 32.3009 38.3935 32.3617C38.3124 32.4225 38.2541 32.5289 38.2149 32.6822L37.8653 32.6328C37.8969 32.4795 37.9501 32.3541 38.0223 32.2617C38.0945 32.1667 38.2022 32.0945 38.339 32.0438C38.4771 31.9931 38.6379 31.9665 38.8191 31.9665C39.0015 31.9665 39.1472 31.9881 39.2599 32.0311C39.3726 32.0755 39.4562 32.1287 39.5094 32.1958C39.5626 32.2617 39.5994 32.344 39.6209 32.4453C39.6323 32.5074 39.6386 32.6214 39.6386 32.7835V33.2725C39.6386 33.6145 39.6462 33.8298 39.6614 33.9198C39.6754 34.011 39.707 34.0984 39.7526 34.1794H39.3764C39.3422 34.1047 39.3182 34.0173 39.3068 33.9147ZM39.2776 33.0926C39.1459 33.1471 38.9508 33.194 38.6924 33.232C38.5442 33.2535 38.4403 33.2788 38.3795 33.3042C38.3187 33.332 38.2706 33.37 38.2377 33.4232C38.2035 33.4764 38.187 33.5322 38.187 33.598C38.187 33.6956 38.2237 33.7779 38.2959 33.8425C38.3669 33.9071 38.4745 33.94 38.6126 33.94C38.7507 33.94 38.8736 33.9084 38.9812 33.8476C39.0889 33.7855 39.1687 33.7006 39.2194 33.593C39.2586 33.5094 39.2776 33.3878 39.2776 33.2269V33.0926ZM40.1973 34.182V32.0147H40.5203V32.3225C40.6761 32.0843 40.9015 31.9653 41.1941 31.9653C41.3221 31.9653 41.4386 31.9881 41.5463 32.0349C41.654 32.0831 41.7338 32.1439 41.787 32.2211C41.8402 32.2971 41.8782 32.3871 41.8997 32.4922C41.9124 32.5606 41.9187 32.6797 41.9187 32.8494V34.1832H41.5577V32.8633C41.5577 32.7151 41.5438 32.6024 41.5159 32.5277C41.488 32.4542 41.4386 32.3947 41.3677 32.3503C41.2967 32.306 41.2144 32.2845 41.1181 32.2845C40.9649 32.2845 40.8331 32.3339 40.7217 32.4327C40.6115 32.5315 40.557 32.7215 40.557 32.9976V34.1807L40.1973 34.182ZM43.2513 33.8526L43.3032 34.1782C43.2019 34.1997 43.1119 34.2111 43.0321 34.2111C42.9004 34.2111 42.8003 34.1908 42.7281 34.1478C42.6572 34.106 42.6078 34.0502 42.5774 33.9818C42.547 33.9134 42.533 33.769 42.533 33.5486V32.3009H42.2696V32.0147H42.533V31.4776L42.8903 31.2572V32.0147H43.25V32.3009H42.8903V33.5676C42.8903 33.6728 42.8966 33.7386 42.908 33.7703C42.9207 33.8007 42.9422 33.8235 42.9701 33.8412C42.9992 33.8577 43.0397 33.8678 43.0917 33.8678C43.1335 33.8678 43.1854 33.864 43.2513 33.8526ZM44.8017 34.182V31.1888H46.774V31.5422H45.1881V32.4694H46.5599V32.8228H45.1881V34.182H44.8017ZM47.0957 33.0977C47.0957 32.6961 47.2046 32.3985 47.4238 32.2059C47.6062 32.0463 47.8279 31.964 48.0888 31.964C48.3801 31.964 48.6183 32.0615 48.8019 32.2579C48.9856 32.4542 49.0793 32.7227 49.0793 33.066C49.0793 33.346 49.0375 33.5651 48.9577 33.7234C48.8754 33.883 48.7576 34.0084 48.6018 34.0971C48.4447 34.1858 48.2737 34.2288 48.0901 34.2288C47.7937 34.2288 47.5542 34.1313 47.3718 33.9362C47.1869 33.7437 47.0957 33.4638 47.0957 33.0977ZM47.4656 33.0977C47.4656 33.3764 47.5238 33.5828 47.6429 33.7222C47.7607 33.8602 47.9102 33.9299 48.0888 33.9299C48.2674 33.9299 48.4169 33.8602 48.5334 33.7209C48.6512 33.5828 48.7107 33.3713 48.7107 33.0863C48.7107 32.819 48.6525 32.6138 48.5321 32.477C48.4118 32.3402 48.2661 32.2705 48.0875 32.2705C47.9077 32.2705 47.7594 32.3389 47.6416 32.4757C47.5238 32.6113 47.4656 32.819 47.4656 33.0977ZM49.4974 34.182V32.0147H49.8204V32.3427C49.9027 32.1895 49.9787 32.0881 50.0496 32.0387C50.1193 31.9906 50.1966 31.9653 50.2802 31.9653C50.4005 31.9653 50.5234 32.0058 50.6488 32.0831L50.5259 32.4251C50.4385 32.3719 50.3498 32.344 50.2637 32.344C50.1839 32.344 50.1155 32.3681 50.0522 32.4162C49.9901 32.4643 49.9458 32.5315 49.9192 32.6176C49.8786 32.7493 49.8596 32.8912 49.8596 33.0457V34.1807L49.4974 34.182ZM52.3107 33.484L52.6831 33.5309C52.6248 33.7526 52.5172 33.9248 52.3576 34.0477C52.1992 34.1693 51.9978 34.2314 51.7508 34.2314C51.4405 34.2314 51.196 34.1338 51.0149 33.9375C50.8337 33.7412 50.7438 33.4688 50.7438 33.1154C50.7438 32.7506 50.8363 32.4681 51.0199 32.2667C51.2036 32.0653 51.4405 31.964 51.7331 31.964C52.0156 31.964 52.2474 32.0628 52.4272 32.2604C52.6071 32.458 52.6958 32.7367 52.6958 33.0939C52.6958 33.1154 52.6945 33.1484 52.6932 33.1914H51.1137C51.1263 33.4296 51.1935 33.612 51.3113 33.7386C51.4291 33.8653 51.576 33.9286 51.7534 33.9286C51.8851 33.9286 51.9966 33.8919 52.0903 33.8222C52.1815 33.7513 52.2562 33.6398 52.3107 33.484ZM51.1314 32.8887H52.3145C52.2993 32.7063 52.2537 32.5707 52.179 32.4795C52.065 32.3377 51.9168 32.2667 51.7344 32.2667C51.5697 32.2667 51.4303 32.3237 51.3189 32.4365C51.2061 32.5492 51.1441 32.7012 51.1314 32.8887ZM52.8921 34.182L53.6661 33.0546L52.9504 32.0134H53.3988L53.7243 32.5213C53.7839 32.6189 53.8345 32.6987 53.8713 32.7645C53.9295 32.6746 53.9827 32.5948 54.0334 32.5251L54.3894 32.0134H54.8175L54.0853 33.0343L54.8732 34.1807H54.4324L53.9979 33.5068L53.8827 33.3244L53.3266 34.1794L52.8921 34.182ZM57.0241 34.182V31.5422H56.0614V31.1888H58.3782V31.5422H57.413V34.182H57.0241ZM58.572 34.182V32.0147H58.895V32.3427C58.9773 32.1895 59.0533 32.0881 59.1243 32.0387C59.1939 31.9906 59.2712 31.9653 59.3548 31.9653C59.4751 31.9653 59.598 32.0058 59.7234 32.0831L59.6006 32.4251C59.5132 32.3719 59.4245 32.344 59.3383 32.344C59.2585 32.344 59.1901 32.3681 59.1268 32.4162C59.0647 32.4643 59.0204 32.5315 58.9925 32.6176C58.952 32.7493 58.933 32.8912 58.933 33.0457V34.1807L58.572 34.182ZM61.3182 33.9147C61.1839 34.03 61.0573 34.1123 60.9344 34.1604C60.8115 34.2086 60.6798 34.2301 60.5392 34.2301C60.3061 34.2301 60.1288 34.1718 60.0034 34.0553C59.878 33.94 59.8159 33.7906 59.8159 33.6094C59.8159 33.503 59.8387 33.4055 59.8856 33.3181C59.9324 33.2307 59.9945 33.1598 60.0705 33.1078C60.1478 33.0546 60.2326 33.0153 60.3289 32.9887C60.3986 32.9697 60.5062 32.9507 60.6468 32.9343C60.9369 32.8975 61.1497 32.857 61.2878 32.8076C61.2891 32.7569 61.2903 32.7253 61.2903 32.7113C61.2903 32.5619 61.2561 32.4567 61.1877 32.3959C61.0965 32.3123 60.9597 32.2705 60.7799 32.2705C60.6114 32.2705 60.486 32.3009 60.4049 32.3617C60.3238 32.4225 60.2656 32.5289 60.2263 32.6822L59.8767 32.6328C59.9084 32.4795 59.9616 32.3541 60.0338 32.2617C60.106 32.1667 60.2136 32.0945 60.3504 32.0438C60.4885 31.9931 60.6494 31.9665 60.8305 31.9665C61.0129 31.9665 61.1586 31.9881 61.2713 32.0311C61.3841 32.0755 61.4677 32.1287 61.5209 32.1958C61.5741 32.2617 61.6108 32.344 61.6323 32.4453C61.6437 32.5074 61.6501 32.6214 61.6501 32.7835V33.2725C61.6501 33.6145 61.6577 33.8298 61.6729 33.9198C61.6868 34.011 61.7185 34.0984 61.7641 34.1794H61.3853C61.3524 34.1047 61.3296 34.0173 61.3182 33.9147ZM61.2878 33.0926C61.1561 33.1471 60.961 33.194 60.7026 33.232C60.5544 33.2535 60.4505 33.2788 60.3897 33.3042C60.3289 33.332 60.2808 33.37 60.2478 33.4232C60.2136 33.4764 60.1972 33.5322 60.1972 33.598C60.1972 33.6956 60.2339 33.7779 60.3061 33.8425C60.377 33.9071 60.4847 33.94 60.6228 33.94C60.7609 33.94 60.8837 33.9084 60.9914 33.8476C61.0991 33.7855 61.1789 33.7006 61.2295 33.593C61.2688 33.5094 61.2878 33.3878 61.2878 33.2269V33.0926ZM63.5805 34.182V33.9071C63.4463 34.1224 63.2486 34.2301 62.989 34.2301C62.8205 34.2301 62.6647 34.182 62.5241 34.087C62.3835 33.992 62.2733 33.859 62.1948 33.688C62.1162 33.5182 62.0795 33.3219 62.0795 33.0989C62.0795 32.8836 62.115 32.6873 62.1846 32.5099C62.2543 32.3326 62.362 32.1996 62.5013 32.1046C62.6419 32.0096 62.8002 31.9627 62.975 31.9627C63.103 31.9627 63.2157 31.9906 63.3158 32.0463C63.4159 32.1008 63.4969 32.173 63.559 32.2617V31.1875H63.9149V34.1807L63.5805 34.182ZM62.4468 33.0989C62.4468 33.3776 62.5038 33.5854 62.6178 33.7234C62.7318 33.8602 62.8661 33.9286 63.0232 33.9286C63.1802 33.9286 63.3132 33.8628 63.4235 33.731C63.5324 33.5993 63.5881 33.3992 63.5881 33.1306C63.5881 32.8342 63.5324 32.6163 63.4209 32.4783C63.3094 32.3389 63.1726 32.2693 63.008 32.2693C62.8484 32.2693 62.7141 32.3351 62.6077 32.4694C62.5 32.6011 62.4468 32.8127 62.4468 33.0989ZM64.4786 31.6118V31.1888H64.8384V31.6118H64.4786ZM64.4786 34.182V32.0147H64.8384V34.182H64.4786ZM65.3843 34.182V32.0147H65.7073V32.3225C65.8631 32.0843 66.0886 31.9653 66.3812 31.9653C66.5091 31.9653 66.6257 31.9881 66.7321 32.0349C66.8397 32.0831 66.9195 32.1439 66.9727 32.2211C67.0259 32.2971 67.0639 32.3871 67.0855 32.4922C67.0981 32.5606 67.1045 32.6797 67.1045 32.8494V34.1832H66.7447V32.8633C66.7447 32.7151 66.7308 32.6024 66.7029 32.5277C66.6751 32.4542 66.6244 32.3947 66.5547 32.3503C66.4838 32.306 66.4015 32.2845 66.3052 32.2845C66.1519 32.2845 66.0202 32.3339 65.9087 32.4327C65.7985 32.5315 65.7428 32.7215 65.7428 32.9976V34.1807L65.3843 34.182ZM67.5909 34.3618L67.9405 34.4151C67.9544 34.524 67.995 34.6063 68.0608 34.657C68.1495 34.7241 68.2711 34.7583 68.4256 34.7583C68.5916 34.7583 68.7195 34.7241 68.8107 34.657C68.9019 34.5886 68.9615 34.4936 68.9931 34.3707C69.0121 34.2947 69.021 34.1376 69.0197 33.8982C68.8639 34.087 68.6676 34.182 68.4333 34.182C68.1419 34.182 67.9164 34.0743 67.7568 33.859C67.5972 33.6436 67.5174 33.3852 67.5174 33.085C67.5174 32.8785 67.5542 32.6873 67.6264 32.5112C67.6998 32.3351 67.8062 32.2009 67.9443 32.1059C68.0836 32.0109 68.247 31.9627 68.4333 31.9627C68.6828 31.9627 68.8893 32.0666 69.0501 32.2731V32.0121H69.382V33.8868C69.382 34.225 69.3478 34.4645 69.2819 34.6038C69.2148 34.7444 69.1071 34.8559 68.9627 34.9369C68.8171 35.018 68.6372 35.0585 68.4244 35.0585C68.1723 35.0585 67.9684 35.0003 67.8126 34.8825C67.6593 34.7697 67.5858 34.5962 67.5909 34.3618ZM67.8873 33.0584C67.8873 33.3434 67.9418 33.5499 68.052 33.6816C68.1622 33.8134 68.3002 33.878 68.4662 33.878C68.6309 33.878 68.7689 33.8146 68.8804 33.6829C68.9919 33.5524 69.0476 33.3498 69.0476 33.0711C69.0476 32.8063 68.9906 32.6062 68.8766 32.4707C68.7626 32.3364 68.622 32.2693 68.4611 32.2693C68.3015 32.2693 68.1672 32.3351 68.0545 32.4681C67.943 32.5999 67.8873 32.7975 67.8873 33.0584Z" fill="#EC1C24"/>
</g>
</g>
<defs>
<filter id="filter0_d" x="0.5" y="0.5" width="93" height="53" filterUnits="userSpaceOnUse" color-interpolation-filters="sRGB">
<feFlood flood-opacity="0" result="BackgroundImageFix"/>
<feColorMatrix in="SourceAlpha" type="matrix" values="0 0 0 0 0 0 0 0 0 0 0 0 0 0 0 0 0 0 127 0"/>
<feOffset dy="1"/>
<feGaussianBlur stdDeviation="0.5"/>
<feColorMatrix type="matrix" values="0 0 0 0 0 0 0 0 0 0 0 0 0 0 0 0 0 0 0.0636889 0"/>
<feBlend mode="normal" in2="BackgroundImageFix" result="effect1_dropShadow"/>
<feBlend mode="normal" in="SourceGraphic" in2="effect1_dropShadow" result="shape"/>
</filter>
</defs>
</svg>
