<svg width="94" height="54" viewBox="0 0 94 54" fill="none" xmlns="http://www.w3.org/2000/svg">
<g id="Group 6">
<g id="Rectangle" filter="url(#filter0_d)">
<rect x="2" y="1" width="90" height="50" rx="1.5" fill="white"/>
<rect x="2" y="1" width="90" height="50" rx="1.5" stroke="#E5E5E5"/>
</g>
<g id="finam">
<g id="XMLID_1_">
<path id="polygon5_1_" fill-rule="evenodd" clip-rule="evenodd" d="M33.7278 31.5938V41.0757H30.7695V31.5938H33.7278Z" fill="black"/>
<path id="path7_1_" fill-rule="evenodd" clip-rule="evenodd" d="M36.2743 31.5938H41.9634C43.6282 31.5938 44.784 31.9171 45.4328 32.5638C45.9878 33.1188 46.2652 33.9971 46.2652 35.2467V41.0778H43.307V34.9255C43.307 33.9992 42.8438 33.584 41.7819 33.584H39.1887V41.0319H36.2305L36.2743 31.5938Z" fill="black"/>
<path id="path9_1_" fill-rule="evenodd" clip-rule="evenodd" d="M56.1289 35.1108V35.2966L56.1247 35.3487H52.0566C49.3278 35.3487 48.0781 36.3626 48.0781 38.3069C48.0781 39.3688 48.4954 40.1095 49.2819 40.5726C49.9307 40.896 50.9008 41.0817 52.1963 41.0817H59.0892V35.7618C59.0892 33.9572 58.5343 32.7075 57.4244 32.1067C56.8236 31.7833 55.9453 31.5977 54.7415 31.5977H48.8667V33.5858H53.8632C55.5739 33.5858 56.1289 33.953 56.1289 35.1108ZM52.2391 37.3323H56.1258L56.1237 39.043H52.7023C51.5924 39.043 51.1293 38.8114 51.1293 38.2106C51.1293 37.6097 51.4985 37.3323 52.2391 37.3323Z" fill="black"/>
<path id="path11_1_" fill-rule="evenodd" clip-rule="evenodd" d="M61.5391 31.5938H72.4104C74.1691 31.5938 75.4167 31.9171 76.0655 32.5638C76.6204 33.0729 76.9438 33.9053 76.9438 35.0173V41.0778H73.9834V35.4324C73.9834 34.0451 73.5662 33.5819 72.2247 33.5819H70.6517V41.0298H67.6934V33.6299H64.5015V41.0778H61.5432L61.5391 31.5938Z" fill="black"/>
<path id="path13_1_" fill-rule="evenodd" clip-rule="evenodd" d="M21.4268 33.6299H28.0881V31.5938H21.2432C19.5784 31.5938 18.4226 31.9171 17.7738 32.5638C17.2189 33.1188 16.9414 33.9971 16.9414 35.2467V41.0778H19.8997V37.6542H28.086V35.6181H19.8997V34.9255C19.9018 33.9971 20.3628 33.6299 21.4268 33.6299Z" fill="black"/>
</g>
<g id="Group">
<path id="path15_1_" fill-rule="evenodd" clip-rule="evenodd" d="M40.582 23.8315L41.5083 24.6181L42.4346 25.4046C42.4346 25.4046 42.5723 24.8037 42.9895 24.0172L41.0932 22.4922C40.7197 23.2307 40.582 23.8315 40.582 23.8315Z" fill="#C76300"/>
<path id="path17_1_" fill-rule="evenodd" clip-rule="evenodd" d="M41.2344 22.2584L43.1308 23.7856C43.3164 23.4163 43.5939 22.9991 43.9173 22.6277L42.0209 21.0547C41.6954 21.4719 41.4659 21.8412 41.2344 22.2584Z" fill="#D18212"/>
<path id="path19_1_" fill-rule="evenodd" clip-rule="evenodd" d="M42.2031 20.8724L44.0995 22.3975C44.377 22.0741 44.7483 21.7048 45.1176 21.4274L43.2212 19.9023C42.804 20.1777 42.4785 20.547 42.2031 20.8724Z" fill="#D19429"/>
<path id="path21_1_" fill-rule="evenodd" clip-rule="evenodd" d="M49.5117 16.1968L51.4081 17.7239C51.7315 17.4005 52.0089 17.0751 52.3344 16.6578L50.438 15.1328C50.1605 15.5501 49.8351 15.9172 49.5117 16.1968Z" fill="#F5D145"/>
<path id="path23_1_" fill-rule="evenodd" clip-rule="evenodd" d="M45.0195 18.9251L46.9159 20.4501C47.3791 20.2644 47.8422 20.0808 48.3492 19.8013L46.4987 18.3242C45.9896 18.5558 45.4827 18.7415 45.0195 18.9251Z" fill="#FADE6E"/>
<path id="path25_1_" fill-rule="evenodd" clip-rule="evenodd" d="M43.583 19.6672C43.5371 19.7131 43.4912 19.759 43.4453 19.759L45.3417 21.2841C45.3876 21.2382 45.4335 21.1923 45.4794 21.1923C45.8028 20.9628 46.22 20.775 46.6831 20.5914L44.7868 19.0664C44.3236 19.25 43.9064 19.4357 43.583 19.6672Z" fill="#FAAB00"/>
<path id="path27_1_" fill-rule="evenodd" clip-rule="evenodd" d="M52.2422 11.9889L54.1386 13.5139C54.3242 13.0967 54.5078 12.6356 54.6476 12.1266L52.7512 10.6016C52.5656 11.1085 52.3799 11.5696 52.2422 11.9889Z" fill="#E39105"/>
<path id="path29_1_" fill-rule="evenodd" clip-rule="evenodd" d="M51.5 13.5612L53.3964 15.0862C53.6259 14.669 53.8136 14.2538 54.0452 13.7907L52.1488 12.2656C51.9152 12.7288 51.6857 13.1439 51.5 13.5612Z" fill="#E3A30A"/>
<path id="path31_1_" fill-rule="evenodd" clip-rule="evenodd" d="M46.7344 18.1838L48.6308 19.7089C49.048 19.4794 49.5091 19.2457 49.9263 18.9683L48.0299 17.4453C47.5689 17.7228 47.1495 17.9982 46.7344 18.1838Z" fill="#FFFABA"/>
<path id="path33_1_" fill-rule="evenodd" clip-rule="evenodd" d="M48.2656 17.3091L50.162 18.8341C50.5313 18.5567 50.9026 18.2792 51.2719 17.9078L49.3755 16.3828C49.0062 16.7542 48.6349 17.0316 48.2656 17.3091Z" fill="#FFDB7D"/>
<path id="path35_1_" fill-rule="evenodd" clip-rule="evenodd" d="M50.6172 14.9459L52.5136 16.471C52.791 16.1017 53.0226 15.7304 53.3001 15.2672L51.4037 13.7422C51.1283 14.2053 50.8508 14.5767 50.6172 14.9459Z" fill="#EBB000"/>
<path id="path37_1_" fill-rule="evenodd" clip-rule="evenodd" d="M37.8516 21.5662L38.7778 22.3527L39.7041 23.1392C39.7041 23.1392 39.8418 22.5384 40.2591 21.7519L38.3606 20.2227C37.9913 21.0113 37.8516 21.5662 37.8516 21.5662Z" fill="#870012"/>
<path id="path39_1_" fill-rule="evenodd" clip-rule="evenodd" d="M38.5 19.991L40.3964 21.516C40.5821 21.1468 40.8595 20.7295 41.1829 20.3582L39.2844 18.7852C38.9631 19.2045 38.7337 19.6217 38.5 19.991Z" fill="#B20A1C"/>
<path id="path41_1_" fill-rule="evenodd" clip-rule="evenodd" d="M39.4688 18.6039L41.3192 20.1769C41.5967 19.8535 41.9681 19.4843 42.3373 19.2068L40.4388 17.6797C40.1155 17.9551 39.7462 18.2805 39.4688 18.6039Z" fill="#BA001C"/>
<path id="path43_1_" fill-rule="evenodd" clip-rule="evenodd" d="M46.7812 13.9801L48.6776 15.5052C49.001 15.1818 49.2785 14.8563 49.6039 14.4391L47.7075 12.9141C47.4301 13.2854 47.1046 13.6547 46.7812 13.9801Z" fill="#D93636"/>
<path id="path45_1_" fill-rule="evenodd" clip-rule="evenodd" d="M42.3438 16.7074L44.2401 18.2324C44.7033 18.0468 45.1664 17.8632 45.6734 17.5836L43.777 16.0586C43.2679 16.2923 42.761 16.5217 42.3438 16.7074Z" fill="#FA8C8C"/>
<path id="path47_1_" fill-rule="evenodd" clip-rule="evenodd" d="M40.8603 17.4016C40.8145 17.4475 40.7686 17.4934 40.7227 17.4934L42.619 19.0184C42.6649 18.9725 42.7108 18.9266 42.7567 18.9266C43.0801 18.6972 43.4973 18.5094 43.9605 18.3258L42.0641 16.8008C41.601 16.9844 41.1837 17.17 40.8603 17.4016Z" fill="#E50000"/>
<path id="path49_1_" fill-rule="evenodd" clip-rule="evenodd" d="M48.7695 11.2955L50.6659 12.8206C50.8954 12.4033 51.0832 11.9882 51.3147 11.525L49.3704 10C49.1847 10.4611 49.0011 10.8783 48.7695 11.2955Z" fill="#BD001C"/>
<path id="path51_1_" fill-rule="evenodd" clip-rule="evenodd" d="M44.0078 15.9164L45.9042 17.4435C46.3214 17.214 46.7825 16.9804 47.1997 16.7029L45.3034 15.1758C44.8861 15.5012 44.423 15.7328 44.0078 15.9164Z" fill="#FFCCCC"/>
<path id="path53_1_" fill-rule="evenodd" clip-rule="evenodd" d="M45.5273 15.0414L47.4237 16.5664C47.793 16.289 48.1643 16.0115 48.5336 15.6401L46.6372 14.1172C46.268 14.4865 45.8966 14.766 45.5273 15.0414Z" fill="#EB8A96"/>
<path id="path55_1_" fill-rule="evenodd" clip-rule="evenodd" d="M47.8867 12.729L49.7831 14.254C50.0606 13.8848 50.2921 13.5134 50.5696 13.0503L48.6732 11.5273C48.3978 11.9425 48.1204 12.3577 47.8867 12.729Z" fill="#C90012"/>
<path id="path57_1_" fill-rule="evenodd" clip-rule="evenodd" d="M43.3125 26.0983L44.2388 26.8848L45.1651 27.6713C45.1651 27.6713 45.3028 27.0705 45.72 26.284L43.8695 24.7109C43.4502 25.4974 43.3125 26.0983 43.3125 26.0983Z" fill="#870012"/>
<path id="path59_1_" fill-rule="evenodd" clip-rule="evenodd" d="M43.957 24.4782L45.8534 26.0032C46.0391 25.6339 46.3166 25.2167 46.6399 24.8453L44.7435 23.3203C44.4181 23.6917 44.1886 24.1089 43.957 24.4782Z" fill="#B20A1C"/>
<path id="path61_1_" fill-rule="evenodd" clip-rule="evenodd" d="M44.9297 23.1381L46.8261 24.6631C47.1035 24.3397 47.4749 23.9705 47.8442 23.693L45.9478 22.168C45.5305 22.4434 45.2051 22.7688 44.9297 23.1381Z" fill="#BA001C"/>
<path id="path63_1_" fill-rule="evenodd" clip-rule="evenodd" d="M52.2422 18.4684L54.1386 19.9934C54.4619 19.6701 54.7394 19.3446 55.0649 18.9274L53.1685 17.4023C52.891 17.8196 52.5656 18.145 52.2422 18.4684Z" fill="#D93636"/>
<path id="path65_1_" fill-rule="evenodd" clip-rule="evenodd" d="M47.75 21.1957L49.6464 22.7207C50.1095 22.5351 50.5727 22.3515 51.0796 22.0719L49.1832 20.5469C48.7222 20.8243 48.2131 21.01 47.75 21.1957Z" fill="#FA8C8C"/>
<path id="path67_1_" fill-rule="evenodd" clip-rule="evenodd" d="M46.3174 21.8878C46.2715 21.9337 46.2256 21.9796 46.1797 21.9796L48.0761 23.5067C48.122 23.4608 48.1679 23.4149 48.2138 23.4149C48.5371 23.1854 48.9544 22.9977 49.4175 22.8141L47.5211 21.2891C47.0559 21.5185 46.6407 21.7021 46.3174 21.8878Z" fill="#E50000"/>
<path id="path69_1_" fill-rule="evenodd" clip-rule="evenodd" d="M49.4609 20.4515L51.3573 21.9766C51.7746 21.7471 52.2356 21.5134 52.6529 21.236L50.7565 19.7109C50.2954 19.9884 49.8782 20.22 49.4609 20.4515Z" fill="#FFCCCC"/>
<path id="path71_1_" fill-rule="evenodd" clip-rule="evenodd" d="M50.9922 19.5278L52.8886 21.0529C53.2578 20.7754 53.6292 20.4979 53.9984 20.1266L52.1021 18.6016C51.7328 18.9729 51.3635 19.2963 50.9922 19.5278Z" fill="#EB8A96"/>
<path id="path73_1_" fill-rule="evenodd" clip-rule="evenodd" d="M53.3398 17.2116L55.2362 18.7366C55.5137 18.3673 55.7453 17.996 56.0227 17.5328L54.0784 16.0078C53.851 16.471 53.5735 16.8444 53.3398 17.2116Z" fill="#C90012"/>
</g>
</g>
</g>
<defs>
<filter id="filter0_d" x="0.5" y="0.5" width="93" height="53" filterUnits="userSpaceOnUse" color-interpolation-filters="sRGB">
<feFlood flood-opacity="0" result="BackgroundImageFix"/>
<feColorMatrix in="SourceAlpha" type="matrix" values="0 0 0 0 0 0 0 0 0 0 0 0 0 0 0 0 0 0 127 0"/>
<feOffset dy="1"/>
<feGaussianBlur stdDeviation="0.5"/>
<feColorMatrix type="matrix" values="0 0 0 0 0 0 0 0 0 0 0 0 0 0 0 0 0 0 0.0636889 0"/>
<feBlend mode="normal" in2="BackgroundImageFix" result="effect1_dropShadow"/>
<feBlend mode="normal" in="SourceGraphic" in2="effect1_dropShadow" result="shape"/>
</filter>
</defs>
</svg>
