<svg width="14" height="14" viewBox="0 0 14 14" fill="none" xmlns="http://www.w3.org/2000/svg">
<path id="sync-alt" fill-rule="evenodd" clip-rule="evenodd" d="M13.4355 0.564515C13.5296 0.47043 13.6472 0.451612 13.7883 0.508064C13.9294 0.564515 14 0.66801 14 0.818547V4.85483C14 4.94892 13.9671 5.02889 13.9012 5.09475C13.8353 5.16061 13.7554 5.19354 13.6613 5.19354H9.62499C9.47445 5.19354 9.37096 5.12298 9.31451 4.98185C9.25805 4.84072 9.27687 4.72311 9.37096 4.62903L10.9234 3.07661C10.3965 2.56855 9.79905 2.17338 9.13104 1.89113C8.46303 1.60887 7.75268 1.46774 6.99999 1.46774C6.04032 1.46774 5.1465 1.69825 4.31854 2.15927C3.49059 2.62029 2.82258 3.25067 2.31451 4.0504C1.80645 4.85013 1.52419 5.72983 1.46774 6.68951C1.46774 6.76478 1.43481 6.83534 1.36895 6.9012C1.30309 6.96706 1.22312 6.99999 1.12903 6.99999H0.338709C0.244623 6.99999 0.16465 6.96706 0.0987902 6.9012C0.0329302 6.83534 0 6.74596 0 6.63306C0.0752689 5.42876 0.428091 4.31854 1.05847 3.30242C1.68884 2.28629 2.53091 1.48185 3.58467 0.889112C4.63844 0.296371 5.77688 0 6.99999 0C7.94085 0 8.83937 0.178763 9.69555 0.53629C10.5517 0.893816 11.2997 1.40188 11.9395 2.06048L13.4355 0.564515ZM13.6613 7C13.7554 7 13.8353 7.03293 13.9012 7.09879C13.9671 7.16465 14 7.25403 14 7.36694C13.9247 8.57123 13.5719 9.68145 12.9415 10.6976C12.3111 11.7137 11.4691 12.5181 10.4153 13.1109C9.36155 13.7036 8.22311 14 6.99999 14C6.05913 14 5.16061 13.8212 4.30443 13.4637C3.44825 13.1062 2.70027 12.5981 2.06048 11.9395L0.564515 13.4355C0.47043 13.5296 0.352822 13.5484 0.211693 13.4919C0.0705644 13.4355 0 13.332 0 13.1814V9.14516C0 9.05107 0.0329302 8.9711 0.0987902 8.90524C0.16465 8.83938 0.244623 8.80645 0.338709 8.80645H4.37499C4.52553 8.80645 4.62903 8.87701 4.68548 9.01814C4.74193 9.15927 4.72311 9.27688 4.62903 9.37097L3.07661 10.9234C3.60349 11.4314 4.20094 11.8266 4.86895 12.1089C5.53696 12.3911 6.2473 12.5323 6.99999 12.5323C7.95967 12.5323 8.85348 12.3017 9.68144 11.8407C10.5094 11.3797 11.1774 10.7493 11.6855 9.94959C12.1935 9.14986 12.4758 8.27016 12.5322 7.31048C12.5322 7.23521 12.5652 7.16465 12.631 7.09879C12.6969 7.03293 12.7769 7 12.871 7H13.6613Z" fill="#539F19"/>
</svg>
