<svg xmlns="http://www.w3.org/2000/svg" width="27" height="31" viewBox="0 0 27 31">
    <path fill="#5DAF03" fill-rule="evenodd" d="M8.672 17.625H6.328a.678.678 0 0 1-.498-.205.678.678 0 0 1-.205-.498v-2.344c0-.195.068-.361.205-.498a.678.678 0 0 1 .498-.205h2.344c.195 0 .361.068.498.205a.678.678 0 0 1 .205.498v2.344a.678.678 0 0 1-.205.498.678.678 0 0 1-.498.205zM15 14.578v2.344a.678.678 0 0 1-.205.498.678.678 0 0 1-.498.205h-2.344a.678.678 0 0 1-.498-.205.678.678 0 0 1-.205-.498v-2.344c0-.195.068-.361.205-.498a.678.678 0 0 1 .498-.205h2.344c.195 0 .361.068.498.205a.678.678 0 0 1 .205.498zm5.625 0v2.344a.678.678 0 0 1-.205.498.678.678 0 0 1-.498.205h-2.344a.678.678 0 0 1-.498-.205.678.678 0 0 1-.205-.498v-2.344c0-.195.068-.361.205-.498a.678.678 0 0 1 .498-.205h2.344c.195 0 .361.068.498.205a.678.678 0 0 1 .205.498zM15 20.203v2.344a.678.678 0 0 1-.205.498.678.678 0 0 1-.498.205h-2.344a.678.678 0 0 1-.498-.205.678.678 0 0 1-.205-.498v-2.344c0-.195.068-.361.205-.498a.678.678 0 0 1 .498-.205h2.344c.195 0 .361.068.498.205a.678.678 0 0 1 .205.498zm-5.625 0v2.344a.678.678 0 0 1-.205.498.678.678 0 0 1-.498.205H6.328a.678.678 0 0 1-.498-.205.678.678 0 0 1-.205-.498v-2.344c0-.195.068-.361.205-.498a.678.678 0 0 1 .498-.205h2.344c.195 0 .361.068.498.205a.678.678 0 0 1 .205.498zm11.25 0v2.344a.678.678 0 0 1-.205.498.678.678 0 0 1-.498.205h-2.344a.678.678 0 0 1-.498-.205.678.678 0 0 1-.205-.498v-2.344c0-.195.068-.361.205-.498a.678.678 0 0 1 .498-.205h2.344c.195 0 .361.068.498.205a.678.678 0 0 1 .205.498zm5.625-12.89v20.624c0 .782-.274 1.446-.82 1.993-.547.547-1.211.82-1.993.82H2.812a2.712 2.712 0 0 1-1.992-.82A2.712 2.712 0 0 1 0 27.937V7.313C0 6.53.273 5.867.82 5.32a2.712 2.712 0 0 1 1.992-.82h2.813V1.453c0-.195.068-.361.205-.498A.678.678 0 0 1 6.328.75h2.344c.195 0 .361.068.498.205a.678.678 0 0 1 .205.498V4.5h7.5V1.453c0-.195.068-.361.205-.498a.678.678 0 0 1 .498-.205h2.344c.195 0 .361.068.498.205a.678.678 0 0 1 .205.498V4.5h2.812c.782 0 1.446.273 1.993.82.546.547.82 1.211.82 1.993zm-2.813 20.273V10.125H2.812v17.46c0 .08.04.157.118.235.078.078.156.117.234.117h19.922c.078 0 .156-.039.234-.117.078-.078.117-.156.117-.234z" opacity=".194"/>
</svg>
