<svg xmlns="http://www.w3.org/2000/svg" width="658" height="544" viewBox="0 0 658 544">
    <g fill="none" fill-rule="evenodd">
        <path d="M619.124 44.32l39.655 120.69-39.655-120.69z"/>
        <path stroke="#F4FBEE" d="M619.124 44.32l39.655 120.69-39.655-120.69z"/>
        <path d="M619.123 44.32l198.414-59.828L619.123 44.32z"/>
        <path stroke="#F4FBEE" d="M817.538-15.508L619.124 44.32l198.414-59.827z"/>
        <path d="M455.44 14.406L619.123 44.32 455.44 14.406z"/>
        <path stroke="#F4FBEE" d="M455.44 14.406L619.123 44.32 455.44 14.406z"/>
        <path d="M658.779 165.01L455.44 14.404 658.779 165.01z"/>
        <path stroke="#F4FBEE" d="M658.779 165.01L455.44 14.404 658.779 165.01z"/>
        <path d="M455.44 14.406l163.683-29.913L455.44 14.406z"/>
        <path stroke="#F4FBEE" d="M619.124-15.508L455.44 14.406l163.684-29.914z"/>
        <path d="M495.829 44.32l-58.387 144.777L495.829 44.32z"/>
        <path stroke="#F4FBEE" d="M495.829 44.32l-58.387 144.777L495.829 44.32z"/>
        <path d="M333.946-14.513L455.44 14.405 333.946-14.513z"/>
        <path stroke="#F4FBEE" d="M333.946-14.513L455.44 14.405 333.946-14.513z"/>
        <path d="M437.441 189.097L341.445-12.728l95.996 201.825z"/>
        <path stroke="#F4FBEE" d="M437.441 189.097L341.445-12.728l95.996 201.825z"/>
        <path d="M246.95 136.6l94.496-149.328L246.95 136.6z"/>
        <path stroke="#F4FBEE" d="M246.95 136.6l94.496-149.328L246.95 136.6z"/>
        <path d="M437.441 189.097L246.951 136.6l190.49 52.497z"/>
        <path stroke="#F4FBEE" d="M437.441 189.097L246.951 136.6l190.49 52.497z"/>
        <path d="M585.934 300.092l72.845-135.082-72.845 135.082z"/>
        <path stroke="#F4FBEE" d="M585.934 300.092l72.845-135.082-72.845 135.082z"/>
        <path d="M437.441 189.097l148.492 110.995-148.492-110.995z"/>
        <path stroke="#F4FBEE" d="M437.441 189.097l148.492 110.995-148.492-110.995z"/>
        <path d="M495.829 44.32l90.105 255.771L495.829 44.32z"/>
        <path stroke="#F4FBEE" d="M495.829 44.32l90.105 255.771L495.829 44.32z"/>
        <path d="M619.124 44.32L437.442 189.096 619.123 44.32z"/>
        <path stroke="#F4FBEE" d="M619.124 44.32L437.442 189.096 619.123 44.32z"/>
        <path d="M585.934 300.092l72.845 70.497-72.845-70.497z"/>
        <path stroke="#F4FBEE" d="M585.934 300.092l72.845 70.497-72.845-70.497z"/>
        <path d="M437.441 189.097l231.096 232.395-231.096-232.395z"/>
        <path stroke="#F4FBEE" d="M437.441 189.097l231.096 232.395-231.096-232.395z"/>
        <path d="M246.95 136.6L495.83 351.492 246.95 136.6z"/>
        <path stroke="#F4FBEE" d="M246.95 136.6L495.83 351.492 246.95 136.6z"/>
        <path d="M668.538 421.492l-172.71-70 172.71 70z"/>
        <path stroke="#F4FBEE" d="M668.538 421.492l-172.71-70 172.71 70z"/>
        <path d="M437.441 189.097l58.387 162.395-58.387-162.395z"/>
        <path stroke="#F4FBEE" d="M437.441 189.097l58.387 162.395-58.387-162.395z"/>
        <path d="M404.538 409.492l32.904-220.395-32.904 220.395z"/>
        <path stroke="#F4FBEE" d="M404.538 409.492l32.904-220.395-32.904 220.395z"/>
        <path d="M658.779 370.589l-254.241 38.904 254.24-38.904z"/>
        <path stroke="#F4FBEE" d="M658.779 370.589l-254.241 38.904 254.24-38.904z"/>
        <path d="M246.95 136.6L-9.462-12.728 246.95 136.6z"/>
        <path stroke="#F4FBEE" d="M-9.462-12.727L246.95 136.6-9.462-12.727z"/>
        <path d="M186.538 215.493l-196-228.22 196 228.22z"/>
        <path stroke="#F4FBEE" d="M186.538 215.492l-196-228.22 196 228.22z"/>
        <path d="M246.95 136.6l-60.412 78.892L246.95 136.6z"/>
        <path stroke="#F4FBEE" d="M246.95 136.6l-60.412 78.892L246.95 136.6z"/>
        <path d="M437.441 189.097l-250.904 26.395 250.904-26.395z"/>
        <path stroke="#F4FBEE" d="M437.441 189.097l-250.904 26.395 250.904-26.395z"/>
        <path d="M246.95 136.6L201.539-15.508 246.95 136.6z"/>
        <path stroke="#F4FBEE" d="M201.538-15.508L246.95 136.6 201.538-15.508z"/>
        <path d="M613.68 543.492l203.857-172.904L613.68 543.492z"/>
        <path stroke="#F4FBEE" d="M817.538 370.589L613.68 543.491 817.538 370.59z"/>
        <path d="M574.69 383.456l38.989 160.037-38.988-160.037z"/>
        <path stroke="#F4FBEE" d="M574.69 383.456l38.989 160.037-38.988-160.037z"/>
    </g>
</svg>
