<svg xmlns="http://www.w3.org/2000/svg" width="11" height="13" viewBox="0 0 11 13">
    <path fill="#539F19" fill-rule="evenodd" d="M3.469 7.25H2.53a.271.271 0 0 1-.199-.082.271.271 0 0 1-.082-.2v-.937c0-.078.027-.144.082-.199a.271.271 0 0 1 .2-.082h.937c.078 0 .144.027.199.082a.271.271 0 0 1 .082.2v.937a.271.271 0 0 1-.082.199.271.271 0 0 1-.2.082zM6 6.031v.938a.271.271 0 0 1-.082.199.271.271 0 0 1-.2.082h-.937a.271.271 0 0 1-.199-.082.271.271 0 0 1-.082-.2v-.937c0-.078.027-.144.082-.199a.271.271 0 0 1 .2-.082h.937c.078 0 .144.027.199.082a.271.271 0 0 1 .082.2zm2.25 0v.938a.271.271 0 0 1-.082.199.271.271 0 0 1-.2.082h-.937a.271.271 0 0 1-.199-.082.271.271 0 0 1-.082-.2v-.937c0-.078.027-.144.082-.199a.271.271 0 0 1 .2-.082h.937c.078 0 .144.027.199.082a.271.271 0 0 1 .082.2zM6 8.281v.938a.271.271 0 0 1-.082.199.271.271 0 0 1-.2.082h-.937a.271.271 0 0 1-.199-.082.271.271 0 0 1-.082-.2v-.937c0-.078.027-.144.082-.199a.271.271 0 0 1 .2-.082h.937c.078 0 .144.027.199.082a.271.271 0 0 1 .082.2zm-2.25 0v.938a.271.271 0 0 1-.082.199.271.271 0 0 1-.2.082h-.937a.271.271 0 0 1-.199-.082.271.271 0 0 1-.082-.2v-.937c0-.078.027-.144.082-.199a.271.271 0 0 1 .2-.082h.937c.078 0 .144.027.199.082a.271.271 0 0 1 .082.2zm4.5 0v.938a.271.271 0 0 1-.082.199.271.271 0 0 1-.2.082h-.937a.271.271 0 0 1-.199-.082.271.271 0 0 1-.082-.2v-.937c0-.078.027-.144.082-.199a.271.271 0 0 1 .2-.082h.937c.078 0 .144.027.199.082a.271.271 0 0 1 .082.2zm2.25-5.156v8.25c0 .312-.11.578-.328.797a1.085 1.085 0 0 1-.797.328h-8.25c-.313 0-.578-.11-.797-.328A1.085 1.085 0 0 1 0 11.375v-8.25c0-.312.11-.578.328-.797C.547 2.11.812 2 1.125 2H2.25V.781c0-.078.027-.144.082-.199a.271.271 0 0 1 .2-.082h.937c.078 0 .144.027.199.082a.271.271 0 0 1 .082.2V2h3V.781c0-.078.027-.144.082-.199a.271.271 0 0 1 .2-.082h.937c.078 0 .144.027.199.082a.271.271 0 0 1 .082.2V2h1.125c.312 0 .578.11.797.328.219.219.328.485.328.797zm-1.125 8.11V4.25h-8.25v6.984c0 .032.016.063.047.094s.062.047.094.047h7.968c.032 0 .063-.016.094-.047s.047-.062.047-.094z"/>
</svg>
