<svg xmlns="http://www.w3.org/2000/svg" xmlns:xlink="http://www.w3.org/1999/xlink" width="62" height="62" viewBox="0 0 62 62">
    <defs>
        <linearGradient id="a" x1="100%" x2="0%" y1="0%" y2="100%">
            <stop offset="0%" stop-color="#98DB0B"/>
            <stop offset="100%" stop-color="#84C201"/>
        </linearGradient>
        <linearGradient id="c" x1="50%" x2="50%" y1="0%" y2="100%">
            <stop offset="0%" stop-opacity="0"/>
            <stop offset="100%" stop-opacity=".549"/>
        </linearGradient>
        <path id="b" d="M214.594 0c5.51 0 10.609 1.378 15.297 4.133 4.687 2.755 8.409 6.476 11.164 11.164 2.755 4.688 4.132 9.787 4.132 15.297s-1.377 10.609-4.132 15.297c-2.755 4.687-6.477 8.409-11.164 11.164-4.688 2.755-9.787 4.132-15.297 4.132s-10.61-1.377-15.297-4.132c-4.688-2.755-8.41-6.477-11.164-11.164-2.755-4.688-4.133-9.787-4.133-15.297s1.378-10.61 4.133-15.297c2.755-4.688 6.476-8.41 11.164-11.164C203.985 1.378 209.084 0 214.594 0zm0 5.921c-4.441 0-8.553 1.11-12.336 3.331-3.784 2.22-6.785 5.222-9.006 9.006-2.22 3.783-3.33 7.895-3.33 12.336 0 4.44 1.11 8.553 3.33 12.336 2.22 3.783 5.222 6.785 9.006 9.005 3.783 2.22 7.895 3.331 12.336 3.331 4.44 0 8.553-1.11 12.336-3.33 3.783-2.221 6.785-5.223 9.005-9.006 2.22-3.783 3.331-7.895 3.331-12.336 0-4.441-1.11-8.553-3.33-12.336-2.221-3.784-5.223-6.785-9.006-9.006-3.783-2.22-7.895-3.33-12.336-3.33zm17.27 16.037c.33.33.494.7.494 1.11 0 .412-.165.74-.494.988L210.646 45.15c-.329.33-.699.494-1.11.494-.411 0-.74-.165-.987-.494l-11.226-11.225c-.329-.33-.493-.7-.493-1.11 0-.412.164-.74.493-.988l2.837-2.837c.247-.247.576-.37.987-.37.412 0 .782.123 1.11.37l7.279 7.525 17.517-17.394c.247-.247.576-.37.987-.37.411 0 .781.164 1.11.493l2.714 2.714z"/>
        <filter id="d" width="103.3%" height="103.3%" x="-1.6%" y="-1.6%" filterUnits="objectBoundingBox">
            <feOffset dy="-2" in="SourceAlpha" result="shadowOffsetInner1"/>
            <feComposite in="shadowOffsetInner1" in2="SourceAlpha" k2="-1" k3="1" operator="arithmetic" result="shadowInnerInner1"/>
            <feColorMatrix in="shadowInnerInner1" values="0 0 0 0 0.246738338 0 0 0 0 0.523384354 0 0 0 0 0 0 0 0 0.406504755 0"/>
        </filter>
    </defs>
    <g fill="none" fill-rule="evenodd" transform="translate(-184)">
        <use fill="url(#a)" xlink:href="#b"/>
        <use fill="url(#c)" style="mix-blend-mode:overlay" xlink:href="#b"/>
        <use fill="#000" filter="url(#d)" xlink:href="#b"/>
    </g>
</svg>
