<svg xmlns="http://www.w3.org/2000/svg" width="12" height="13" viewBox="0 0 12 13">
    <path fill="#51A903" fill-rule="evenodd" d="M10.617 6.055c.016.297.016.593 0 .89l.727.422a.58.58 0 0 1 .246.281.51.51 0 0 1 .035.352c-.281 1-.79 1.867-1.523 2.602a.456.456 0 0 1-.305.164.646.646 0 0 1-.375-.07l-.727-.423c-.25.172-.508.32-.773.446v.843c0 .141-.04.262-.117.364a.539.539 0 0 1-.305.199c-1 .266-2 .266-3 0a.539.539 0 0 1-.305-.2.578.578 0 0 1-.117-.363v-.843a5.492 5.492 0 0 1-.773-.446l-.727.422a.646.646 0 0 1-.375.07.456.456 0 0 1-.305-.163A5.867 5.867 0 0 1 .375 8a.51.51 0 0 1 .035-.352.58.58 0 0 1 .246-.28l.727-.423a8.467 8.467 0 0 1 0-.89l-.727-.422a.58.58 0 0 1-.246-.281A.51.51 0 0 1 .375 5c.281-1 .79-1.867 1.523-2.602a.456.456 0 0 1 .305-.164.646.646 0 0 1 .375.07l.727.423c.25-.172.507-.32.773-.446v-.843c0-.141.04-.262.117-.364A.539.539 0 0 1 4.5.875c1-.266 2-.266 3 0a.539.539 0 0 1 .305.2.578.578 0 0 1 .117.363v.843c.265.125.523.274.773.446l.727-.422a.646.646 0 0 1 .375-.07c.125.015.226.07.305.163A5.867 5.867 0 0 1 11.625 5a.51.51 0 0 1-.035.352.58.58 0 0 1-.246.28l-.727.423zM9.375 7.53c.094-.484.14-.828.14-1.031 0-.203-.046-.547-.14-1.031l1.031-.586c-.187-.5-.453-.961-.797-1.383l-1.03.586c-.376-.313-.653-.52-.833-.621-.18-.102-.496-.238-.95-.41V1.883a4.55 4.55 0 0 0-1.593 0v1.172c-.453.172-.77.308-.95.41-.179.101-.456.308-.831.621L2.39 3.5c-.344.422-.61.883-.797 1.383l1.031.586c-.094.484-.14.828-.14 1.031 0 .203.046.547.14 1.031l-1.031.586c.187.5.453.961.797 1.383l1.03-.586c.376.313.653.52.833.621.18.102.496.238.95.41v1.172a4.55 4.55 0 0 0 1.593 0V9.945c.453-.172.77-.308.95-.41.179-.101.456-.308.831-.62L9.61 9.5c.344-.422.61-.883.797-1.383l-1.031-.586zM6 4.25a2.17 2.17 0 0 1 1.594.656c.437.438.656.969.656 1.594a2.17 2.17 0 0 1-.656 1.594A2.17 2.17 0 0 1 6 8.75a2.17 2.17 0 0 1-1.594-.656A2.17 2.17 0 0 1 3.75 6.5c0-.625.219-1.156.656-1.594A2.17 2.17 0 0 1 6 4.25zm0 3.375c.312 0 .578-.11.797-.328.219-.219.328-.484.328-.797 0-.312-.11-.578-.328-.797A1.085 1.085 0 0 0 6 5.375c-.313 0-.578.11-.797.328a1.085 1.085 0 0 0-.328.797c0 .313.11.578.328.797.219.219.484.328.797.328z"/>
</svg>
