<svg xmlns="http://www.w3.org/2000/svg" width="87" height="23" viewBox="0 0 87 23">
    <g fill="#000" fill-rule="nonzero">
        <path d="M27.046 7.608h5.309V8.75h-4.073v1.968h3.614v1.144h-3.614v2.927h-1.236zM33.27 7.608h1.236v7.14H33.27zM36.017 7.608h3.202c.824 0 1.464.228 1.878.64.32.32.504.687.504 1.19 0 .869-.504 1.328-1.007 1.603.823.275 1.418.777 1.418 1.739 0 1.282-1.052 1.967-2.654 1.967h-3.295v-7.14h-.046zm2.974 3.021c.824 0 1.327-.32 1.327-.962 0-.549-.456-.916-1.235-.916h-1.83v1.923h1.738v-.045zm.367 3.021c.869 0 1.372-.32 1.372-.962 0-.595-.457-.962-1.464-.962h-2.012v1.967h2.106l-.002-.043zM42.653 11.177c0-2.012 1.555-3.706 3.751-3.706 2.198 0 3.707 1.647 3.707 3.662 0 2.012-1.556 3.706-3.752 3.706-2.198.047-3.706-1.647-3.706-3.662zm6.177 0c0-1.418-1.007-2.562-2.426-2.562-1.419 0-2.426 1.144-2.426 2.518 0 1.372 1.007 2.562 2.426 2.562 1.419 0 2.426-1.099 2.426-2.518zM50.936 11.177c0-1.967 1.419-3.706 3.57-3.706 1.19 0 1.967.367 2.654.962l-.503.595c-.549-.503-1.144-.823-2.198-.823-1.602 0-2.7 1.327-2.7 2.928 0 1.692 1.098 2.974 2.839 2.974.823 0 1.555-.32 2.059-.732v-1.784h-2.198v-.732h2.975v2.838c-.687.595-1.648 1.097-2.883 1.097-2.243.092-3.615-1.557-3.615-3.617zM58.898 7.608h3.066c.868 0 1.602.275 2.012.732.367.366.549.868.549 1.419 0 1.19-.824 1.877-1.923 2.105l2.198 2.928h-1.007L61.733 12h-2.012v2.793h-.823V7.608zm3.02 3.616c1.053 0 1.832-.548 1.832-1.464 0-.868-.687-1.419-1.831-1.419H59.72v2.883h2.198zM65.442 11.177c0-2.012 1.464-3.706 3.661-3.706 2.198 0 3.662 1.692 3.662 3.662 0 1.967-1.464 3.706-3.662 3.706-2.197.047-3.661-1.694-3.661-3.662zm6.498 0c0-1.647-1.191-2.974-2.838-2.974-1.648 0-2.793 1.327-2.793 2.93 0 1.602 1.19 2.974 2.838 2.974 1.604 0 2.793-1.282 2.793-2.93zM73.954 11.773V7.608h.823v4.118c0 1.556.824 2.426 2.198 2.426 1.327 0 2.151-.777 2.151-2.38V7.609h.824v4.118c0 2.106-1.19 3.156-2.975 3.156-1.83.004-3.021-1.097-3.021-3.11zM81.505 7.608h2.7c1.602 0 2.654.868 2.654 2.287 0 1.556-1.282 2.335-2.793 2.335h-1.739v2.517h-.824l.002-7.14zm2.563 3.89c1.19 0 1.967-.64 1.967-1.556 0-1.007-.776-1.556-1.922-1.556h-1.83v3.157h1.783v-.045h.002z"/>
        <g>
            <path d="M6.911 12.093c0 3.982.229 7.871.229 8.375 0 .869-1.097.732-1.603.457A11.338 11.338 0 0 1 0 11.177 11.152 11.152 0 0 1 11.166.011c3.295 0 6.27 1.42 8.329 3.707.732.823 0 1.052-.276 1.052H7.183s-.272 3.753-.272 7.323z"/>
            <path d="M11.166 16.76v4.713c0 .596.549.869.824.824 5.767-.412 10.343-5.217 10.343-11.121 0-.596-.047-1.191-.137-1.74-.047-.228-.412-.686-.869-.686H11.121v3.981h5.768s.047.687-.229 1.878c-.275 1.235-.595 1.739-.595 1.739s-2.016.322-4.899.412z"/>
        </g>
    </g>
</svg>
