<svg xmlns="http://www.w3.org/2000/svg" width="45" height="9" viewBox="0 0 45 9">
    <g fill="none" fill-rule="nonzero">
        <g fill="#000">
            <path d="M22.593 2.076V6.9h-1.505V2.076h1.505zM23.888 2.076h2.894c.847 0 1.435.164 1.765.493.283.283.424.73.424 1.365v2.967h-1.505V3.77c0-.471-.236-.683-.776-.683h-1.32v3.79h-1.504l.022-4.802zM33.985 3.958v-.095c0-.589-.283-.776-1.153-.776H30.29V2.076h2.989c.612 0 1.059.094 1.365.259.564.306.847.941.847 1.86V6.9h-3.507c-.66 0-1.153-.095-1.483-.26-.4-.235-.612-.612-.612-1.152 0-.989.636-1.505 2.024-1.505h2.07l.002-.026zm0 1.036h-1.978c-.376 0-.564.14-.564.446s.235.424.8.424h1.74l.002-.87zM36.738 2.076h5.53c.895 0 1.53.164 1.86.493.282.26.446.683.446 1.249V6.9h-1.506V4.029c0-.706-.212-.942-.894-.942h-.8v3.79h-1.505V3.111h-1.624V6.9H36.74l-.002-4.825zM16.334 3.112h3.389V2.076H16.24c-.847 0-1.435.164-1.765.493-.282.283-.423.73-.423 1.365v2.967h1.505V5.159h4.164V4.123h-4.164v-.352c0-.472.235-.66.777-.66z"/>
        </g>
        <path fill="#C76300" d="M1.391 7.04l.472.4.47.401s.07-.306.283-.706l-.965-.776c-.19.376-.26.682-.26.682z"/>
        <path fill="#D18212" d="M1.72 6.242l.965.777c.095-.188.236-.4.4-.59l-.964-.8c-.166.213-.283.4-.4.613z"/>
        <path fill="#D19429" d="M2.215 5.536l.965.776c.14-.165.33-.353.518-.494l-.965-.776a2.51 2.51 0 0 0-.518.494z"/>
        <path fill="#F5D145" d="M5.933 3.158l.965.777c.164-.164.305-.33.47-.542l-.964-.776c-.141.212-.307.4-.471.541z"/>
        <path fill="#FADE6E" d="M3.65 4.547l.965.776c.235-.095.47-.188.729-.33l-.942-.752c-.259.118-.517.212-.752.306z"/>
        <path fill="#FAAB00" d="M2.92 4.923c-.024.024-.047.047-.07.047l.964.776c.024-.023.047-.047.07-.047.165-.116.377-.212.613-.305l-.965-.776a2.914 2.914 0 0 0-.612.305z"/>
        <path fill="#E39105" d="M7.321 1.018l.965.776c.094-.213.188-.447.259-.706L7.58.312c-.095.258-.189.492-.259.706z"/>
        <path fill="#E3A30A" d="M6.944 1.817l.965.776c.117-.212.212-.424.33-.66l-.965-.775c-.119.236-.235.447-.33.659z"/>
        <path fill="#FFFABA" d="M4.52 4.17l.965.776c.212-.117.447-.236.659-.377l-.965-.775c-.234.141-.448.281-.659.376z"/>
        <path fill="#FFDB7D" d="M5.297 3.723l.965.776c.188-.141.377-.282.564-.471l-.964-.776c-.188.189-.377.33-.565.471z"/>
        <path fill="#EBB000" d="M6.496 2.523l.965.776c.141-.188.259-.377.4-.613l-.965-.776c-.14.236-.28.425-.4.613z"/>
        <path fill="#870012" d="M.002 5.888l.471.4.472.4s.07-.305.282-.705L.26 5.205a4.23 4.23 0 0 0-.259.683z"/>
        <path fill="#B20A1C" d="M.331 5.088l.965.776c.094-.188.235-.4.4-.59l-.966-.8c-.163.214-.28.426-.399.614z"/>
        <path fill="#BA001C" d="M.826 4.382l.941.8c.141-.164.33-.352.518-.493l-.966-.777c-.164.14-.352.306-.493.47z"/>
        <path fill="#D93636" d="M4.545 2.03l.964.775c.165-.164.306-.33.472-.542l-.965-.776a5.23 5.23 0 0 1-.471.542z"/>
        <path fill="#FA8C8C" d="M2.285 3.417l.965.776c.235-.094.471-.188.729-.33l-.965-.776c-.259.12-.517.236-.729.33z"/>
        <path fill="#E50000" d="M1.531 3.77c-.023.024-.046.048-.07.048l.965.775c.024-.023.047-.046.07-.046.165-.117.377-.213.613-.306l-.965-.776a2.914 2.914 0 0 0-.613.306z"/>
        <path fill="#BD001C" d="M5.556.664l.965.776c.117-.212.212-.423.33-.659L5.86.005a5.762 5.762 0 0 1-.305.66z"/>
        <path fill="#FCC" d="M3.132 3.016l.965.777c.212-.117.447-.235.659-.377L3.79 2.64a3.1 3.1 0 0 1-.659.376z"/>
        <path fill="#EB8A96" d="M3.909 2.57l.965.775c.187-.14.376-.282.564-.47l-.965-.776c-.187.188-.376.33-.564.47z"/>
        <path fill="#C90012" d="M5.108 1.394l.965.775c.141-.188.259-.376.4-.612L5.508.782c-.14.211-.281.423-.4.612z"/>
        <path fill="#870012" d="M2.78 8.194l.47.4.472.4s.07-.305.282-.705l-.941-.8c-.213.4-.283.705-.283.705z"/>
        <path fill="#B20A1C" d="M3.109 7.37l.964.777c.095-.188.236-.4.4-.59l-.964-.775c-.166.189-.283.401-.4.589z"/>
        <path fill="#BA001C" d="M3.603 6.688l.965.776c.141-.164.33-.352.518-.493l-.965-.776c-.212.14-.378.306-.518.493z"/>
        <path fill="#D93636" d="M7.321 4.312l.965.776c.164-.165.305-.33.471-.542l-.965-.776c-.14.212-.307.378-.471.542z"/>
        <path fill="#FA8C8C" d="M5.038 5.7l.965.776c.235-.094.471-.188.729-.33l-.965-.776c-.234.141-.493.236-.729.33z"/>
        <path fill="#E50000" d="M4.309 6.053c-.023.023-.047.046-.07.046l.965.777c.023-.023.046-.046.07-.046.164-.117.376-.213.612-.306l-.965-.776c-.236.117-.448.21-.612.305z"/>
        <path fill="#FCC" d="M5.908 5.324l.965.775c.212-.116.447-.235.66-.376l-.966-.776c-.234.141-.446.259-.659.377z"/>
        <path fill="#EB8A96" d="M6.685 4.852l.965.776c.188-.141.377-.282.565-.471l-.965-.776a3.265 3.265 0 0 1-.565.471z"/>
        <path fill="#C90012" d="M7.885 3.675l.964.776c.141-.188.26-.377.4-.612l-.989-.776c-.115.236-.257.426-.375.612z"/>
    </g>
</svg>
