<svg xmlns="http://www.w3.org/2000/svg" width="92" height="18" viewBox="0 0 92 18">
    <g fill="#000" fill-rule="nonzero">
        <path d="M19.93 5.15c-.373-1.12-.971-2.062-1.798-2.823-.825-.761-1.863-1.34-3.165-1.733-1.303-.393-2.876-.59-4.716-.59-1.86 0-3.436.195-4.729.59-1.293.391-2.327.97-3.152 1.731C1.544 3.086.945 4.028.572 5.15c-.375 1.12-.56 2.4-.56 3.838 0 1.453.187 2.741.56 3.862.373 1.121.972 2.063 1.798 2.824.825.761 1.859 1.34 3.154 1.731 1.295.394 2.869.593 4.729.593 1.84 0 3.413-.198 4.716-.593 1.301-.393 2.34-.97 3.165-1.731.826-.761 1.425-1.703 1.798-2.824.373-1.12.56-2.409.56-3.862 0-1.437-.187-2.715-.562-3.836zM9.995 9.352c0 .28-.229.507-.507.507h-.644l.004 1.153v.068c0 .342-.005.942-.089 1.267a2.37 2.37 0 0 1-.426.871 2.1 2.1 0 0 1-.778.62c-.333.162-.751.247-1.252.259-.113 0-.2.001-.26.005-.06.003-.111.005-.153.005h-.242a.355.355 0 0 1-.228-.079.258.258 0 0 1-.094-.206v-.995c0-.079.03-.149.094-.208a.317.317 0 0 1 .228-.088h.324a.94.94 0 0 0 .47-.104.772.772 0 0 0 .291-.271c.069-.11.117-.238.142-.378.027-.142.039-.547.039-.686v-.077L6.89 9.862H5.82a.509.509 0 0 1-.507-.507V8.62c0-.28.23-.507.507-.507h1.067v-1.29c0-.339.042-.837.129-1.164a2.37 2.37 0 0 1 .427-.871 2.1 2.1 0 0 1 .777-.62c.333-.161.75-.247 1.252-.259.114 0 .2-.001.26-.005.06-.003.111-.005.153-.005h.243c.086 0 .163.027.227.08.062.05.094.12.094.207v.995c0 .078-.03.149-.094.207a.324.324 0 0 1-.227.089h-.325a.947.947 0 0 0-.472.104.785.785 0 0 0-.29.27c-.07.111-.118.238-.143.379-.025.14-.064.445-.064.584v.077l.005 1.222h.651c.28 0 .507.23.505.507v.731zm5.21-4.194a.27.27 0 0 1-.094.208.318.318 0 0 1-.228.09h-.324a.94.94 0 0 0-.47.104.799.799 0 0 0-.291.27c-.069.111-.117.238-.142.379a5.837 5.837 0 0 0-.04.584v.078l.003 1.243h1.065c.28 0 .507.23.507.507v.731c0 .28-.229.507-.507.507h-1.06l.003 1.153v.068c0 .342-.027.942-.114 1.267a2.37 2.37 0 0 1-.426.871 2.1 2.1 0 0 1-.778.62c-.333.162-.751.247-1.251.259-.114 0-.201.001-.261.005-.06.003-.11.005-.153.005h-.242a.351.351 0 0 1-.228-.079.258.258 0 0 1-.093-.206v-.995c0-.079.03-.149.093-.208a.317.317 0 0 1 .228-.088h.324c.191 0 .348-.034.472-.104a.784.784 0 0 0 .291-.271c.069-.11.117-.238.142-.378a6.33 6.33 0 0 0 .039-.686v-.077l-.002-1.152h-.654a.509.509 0 0 1-.507-.507V8.62c0-.28.23-.507.507-.507h.654V6.802c0-.341.017-.84.104-1.164.084-.328.227-.616.427-.874a2.1 2.1 0 0 1 .777-.62c.333-.16.752-.245 1.252-.258.113 0 .2-.002.26-.005s.111-.005.153-.005h.242c.087 0 .164.025.228.079a.26.26 0 0 1 .094.207v.995zM63.84 4.343c-2.461.04-3.391.73-3.563 2.716H59.25a.254.254 0 0 0-.254.255v.982c0 .139.114.254.254.254h.992V13.533c0 .141.114.255.254.255h1.598a.255.255 0 0 0 .254-.255V8.547h1.404a.255.255 0 0 0 .254-.255V7.31a.254.254 0 0 0-.254-.254H62.37c.092-.962.488-1.176 1.465-1.201.077-.002.243-.003.243-.2V4.56c0-.196-.16-.218-.24-.216zM68.007 6.875c-2.85 0-3.707.832-3.707 3.487 0 2.655.858 3.486 3.707 3.486 2.849 0 3.707-.831 3.707-3.486 0-2.655-.858-3.487-3.707-3.487zm0 5.457c-1.283 0-1.67-.47-1.67-1.972 0-1.5.387-1.97 1.67-1.97s1.67.47 1.67 1.97-.385 1.972-1.67 1.972zM76.453 6.942c-.918 0-1.547.12-1.987.325v-.074a.254.254 0 0 0-.254-.254h-1.598a.255.255 0 0 0-.254.254v6.337c0 .14.113.254.254.254h1.598c.14 0 .254-.113.254-.254V9.898c0-1.05.468-1.395 1.955-1.44.16 0 .307-.027.307-.271v-.995c-.002-.158-.118-.25-.275-.25zM83.938 10.992h.414c.019-.23.03-.364.03-.634 0-2.651-.858-3.486-3.702-3.486-2.848 0-3.707.832-3.707 3.486 0 2.655.859 3.487 3.707 3.487 2.063 0 3.077-.442 3.48-1.695.042-.182.052-.301-.256-.301h-1.61c-.225 0-.342.105-.39.149-.26.239-.651.334-1.225.334-1.04 0-1.49-.421-1.625-1.338H82.3l1.638-.002zm-3.256-2.604c1.04 0 1.489.421 1.621 1.338h-3.245c.132-.917.582-1.338 1.624-1.338z"/>
        <path d="M88.872 10.36l2.348-3.217c.081-.112.035-.206-.104-.206h-1.723a.558.558 0 0 0-.403.206l-1.232 1.69-1.23-1.69a.564.564 0 0 0-.404-.206h-1.723c-.14 0-.186.092-.104.206l2.347 3.217-2.348 3.217c-.082.112-.036.206.103.206h1.723a.56.56 0 0 0 .403-.206l1.232-1.688 1.23 1.688a.564.564 0 0 0 .404.206h1.723c.139 0 .186-.092.104-.206l-2.346-3.217zM29.85 4.343c-2.46.04-3.39.73-3.563 2.716h-1.023a.254.254 0 0 0-.255.255v.982c0 .139.114.254.255.254h.992V13.533c0 .141.113.255.254.255h1.597a.255.255 0 0 0 .255-.255V8.547h1.403c.14 0 .255-.114.255-.255V7.31a.254.254 0 0 0-.255-.254h-1.382c.09-.962.487-1.176 1.466-1.201.077-.002.242-.003.242-.2V4.56c0-.196-.165-.218-.24-.216zM34.628 6.942c-.918 0-1.545.12-1.987.325v-.074a.254.254 0 0 0-.254-.254h-1.598a.254.254 0 0 0-.254.254v6.337c0 .14.114.254.254.254h1.598c.14 0 .254-.113.254-.254V9.898c0-1.05.468-1.395 1.955-1.44.16 0 .308-.027.308-.271v-.995c0-.158-.117-.25-.276-.25zM42.121 10.992h.413c.019-.23.03-.364.03-.634 0-2.651-.858-3.486-3.707-3.486-2.849 0-3.707.832-3.707 3.486 0 2.655.858 3.487 3.707 3.487 2.066 0 3.083-.442 3.486-1.695.042-.182.052-.301-.254-.301h-1.614c-.226 0-.343.105-.392.149-.259.239-.654.334-1.227.334-1.04 0-1.493-.421-1.625-1.338h3.252l1.638-.002zm-3.264-2.604c1.04 0 1.49.421 1.625 1.338h-3.25c.133-.917.585-1.338 1.625-1.338zM46.736 9.726c-.915 0-1.647-.085-1.647-.736 0-.594.71-.602 1.75-.602.573 0 .965.095 1.226.334.048.044.165.15.391.15h1.613c.306 0 .296-.12.256-.302-.405-1.253-1.42-1.695-3.485-1.695-2.571 0-3.704.522-3.704 2.148 0 1.966 1.923 1.971 3.607 1.971.917 0 1.65.085 1.65.736 0 .594-.711.602-1.75.602-.574 0-.965-.095-1.226-.334-.049-.044-.166-.15-.392-.15h-1.613c-.306 0-.296.12-.255.302.403 1.253 1.418 1.695 3.482 1.695 2.553 0 3.706-.52 3.706-2.148-.002-1.963-1.924-1.971-3.609-1.971zM54.7 6.875c-.672 0-1.23.046-1.702.144V4.497a.255.255 0 0 0-.254-.255h-1.625a.254.254 0 0 0-.254.255v9.031c0 .141.114.255.254.255h1.625a.255.255 0 0 0 .254-.255V9.801c.104-1.06.557-1.413 1.701-1.413 1.329 0 1.727.47 1.727 1.97v3.169c0 .14.113.254.254.254h1.6a.255.255 0 0 0 .253-.254v-3.169c0-2.651-.888-3.483-3.834-3.483z"/>
    </g>
</svg>
