<svg xmlns="http://www.w3.org/2000/svg" width="146" height="128" viewBox="0 0 146 128">
    <path fill="#E7E9F3" fill-rule="evenodd" d="M72.656-7c13.086 0 25.195 3.271 36.328 9.814 11.133 6.543 19.97 15.381 26.514 26.514 6.543 11.133 9.814 23.242 9.814 36.328 0 13.086-3.271 25.195-9.814 36.328-6.543 11.133-15.381 19.97-26.514 26.514-11.133 6.543-23.242 9.814-36.328 9.814-13.086 0-25.195-3.271-36.328-9.814-11.133-6.543-19.97-15.381-26.514-26.514C3.271 90.851 0 78.742 0 65.656 0 52.57 3.271 40.461 9.814 29.328c6.543-11.133 15.381-19.97 26.514-26.514C47.461-3.729 59.57-7 72.656-7zm0 131.25c10.547 0 20.313-2.637 29.297-7.91 8.984-5.274 16.113-12.403 21.387-21.387 5.273-8.984 7.91-18.75 7.91-29.297s-2.637-20.312-7.91-29.297c-5.274-8.984-12.403-16.113-21.387-21.386-8.984-5.274-18.75-7.91-29.297-7.91s-20.312 2.636-29.297 7.91c-8.984 5.273-16.113 12.402-21.386 21.386-5.274 8.985-7.91 18.75-7.91 29.297s2.636 20.313 7.91 29.297c5.273 8.984 12.402 16.113 21.386 21.387 8.985 5.273 18.75 7.91 29.297 7.91zm0-99.024c3.32 0 6.201 1.221 8.643 3.663 2.441 2.441 3.662 5.322 3.662 8.642 0 3.32-1.221 6.201-3.662 8.643-2.442 2.441-5.323 3.662-8.643 3.662-3.32 0-6.201-1.22-8.642-3.662-2.442-2.442-3.663-5.323-3.663-8.643 0-3.32 1.221-6.201 3.663-8.642 2.44-2.442 5.322-3.663 8.642-3.663zM89.062 99.64c0 .977-.342 1.807-1.025 2.49-.684.684-1.514 1.026-2.49 1.026H59.765c-.976 0-1.806-.342-2.49-1.025-.683-.684-1.025-1.514-1.025-2.49v-7.032c0-.976.342-1.807 1.025-2.49.684-.684 1.514-1.025 2.49-1.025h3.516v-18.75h-3.516c-.976 0-1.806-.342-2.49-1.026-.683-.683-1.025-1.513-1.025-2.49v-7.031c0-.977.342-1.807 1.025-2.49.684-.684 1.514-1.026 2.49-1.026h18.75c.977 0 1.807.342 2.49 1.025.684.684 1.026 1.514 1.026 2.49v29.298h3.516c.976 0 1.806.341 2.49 1.025.683.683 1.025 1.514 1.025 2.49v7.031z"/>
</svg>
