<svg xmlns="http://www.w3.org/2000/svg" width="12" height="13" viewBox="0 0 12 13">
    <path fill="#E92C2C" fill-rule="evenodd" d="M6 .688c1.047 0 2.016.261 2.906.785a5.873 5.873 0 0 1 2.121 2.12c.524.891.785 1.86.785 2.907a5.634 5.634 0 0 1-.785 2.906 5.873 5.873 0 0 1-2.12 2.121c-.891.524-1.86.785-2.907.785a5.634 5.634 0 0 1-2.906-.785 5.873 5.873 0 0 1-2.121-2.12A5.634 5.634 0 0 1 .188 6.5c0-1.047.261-2.016.785-2.906a5.873 5.873 0 0 1 2.12-2.121A5.634 5.634 0 0 1 6 .688zm0 10.5c.844 0 1.625-.211 2.344-.633a4.727 4.727 0 0 0 1.71-1.711c.423-.719.633-1.5.633-2.344 0-.844-.21-1.625-.632-2.344a4.727 4.727 0 0 0-1.711-1.71A4.549 4.549 0 0 0 6 1.812c-.844 0-1.625.21-2.344.632a4.727 4.727 0 0 0-1.71 1.711A4.549 4.549 0 0 0 1.311 6.5c0 .844.211 1.625.633 2.344.422.719.992 1.289 1.711 1.71.719.423 1.5.633 2.344.633zm0-7.922c.266 0 .496.097.691.293a.946.946 0 0 1 .293.691.946.946 0 0 1-.293.691.946.946 0 0 1-.691.293.946.946 0 0 1-.691-.293.946.946 0 0 1-.293-.691c0-.266.097-.496.293-.691A.946.946 0 0 1 6 3.266zm1.312 5.953a.271.271 0 0 1-.082.199.271.271 0 0 1-.199.082H4.97a.271.271 0 0 1-.2-.082.271.271 0 0 1-.082-.2v-.562c0-.078.028-.144.083-.199a.271.271 0 0 1 .199-.082h.281v-1.5h-.281a.271.271 0 0 1-.2-.082.271.271 0 0 1-.082-.2v-.562c0-.078.028-.144.083-.199a.271.271 0 0 1 .199-.082h1.5c.078 0 .144.027.199.082a.271.271 0 0 1 .082.2v2.343h.281c.078 0 .145.027.2.082a.271.271 0 0 1 .081.2v.562z"/>
</svg>
