<svg xmlns="http://www.w3.org/2000/svg" width="9" height="9" viewBox="0 0 9 9">
    <path fill="#539F19" fill-rule="evenodd" d="M8.146 4.042c.103 0 .188.033.254.1.067.066.1.15.1.254v.708a.345.345 0 0 1-.1.255.345.345 0 0 1-.254.1H4.958v3.187a.345.345 0 0 1-.1.254.345.345 0 0 1-.254.1h-.708a.345.345 0 0 1-.255-.1.345.345 0 0 1-.1-.254V5.458H.355a.345.345 0 0 1-.254-.1.345.345 0 0 1-.1-.254v-.708c0-.103.033-.188.1-.255a.345.345 0 0 1 .254-.1h3.188V.855c0-.103.033-.188.1-.254a.345.345 0 0 1 .254-.1h.708c.103 0 .188.033.255.1.066.066.1.15.1.254v3.188h3.187z"/>
</svg>
