<svg xmlns="http://www.w3.org/2000/svg" width="16" height="16" viewBox="0 0 16 16">
    <path fill="#539F19" fill-rule="evenodd" d="M11.906 1.437a7.774 7.774 0 0 1 2.625 2.797A7.595 7.595 0 0 1 15.5 8a7.513 7.513 0 0 1-1.047 3.875 7.87 7.87 0 0 1-2.812 2.828 7.459 7.459 0 0 1-3.875 1.047 7.541 7.541 0 0 1-3.891-1.047 7.87 7.87 0 0 1-2.828-2.812A7.402 7.402 0 0 1 0 8.047C0 6.66.323 5.39.969 4.234a7.774 7.774 0 0 1 2.625-2.797.54.54 0 0 1 .312-.03c.104.02.177.072.219.155l.375.657c.062.104.078.203.047.297a.335.335 0 0 1-.172.203 6.522 6.522 0 0 0-2.094 2.265A6.115 6.115 0 0 0 1.5 8.031c0 1.104.281 2.136.844 3.094a6.303 6.303 0 0 0 2.281 2.281c.958.563 2 .844 3.125.844a6.065 6.065 0 0 0 3.125-.844 6.303 6.303 0 0 0 2.281-2.281c.563-.958.844-1.99.844-3.094 0-1.104-.26-2.12-.781-3.047a6.522 6.522 0 0 0-2.094-2.265.335.335 0 0 1-.172-.203c-.031-.094-.016-.193.047-.297l.375-.625a.286.286 0 0 1 .219-.188.54.54 0 0 1 .312.031zM8.5 8.625a.362.362 0 0 1-.11.266.362.362 0 0 1-.265.109h-.75a.362.362 0 0 1-.266-.11A.362.362 0 0 1 7 8.626V.375c0-.104.036-.193.11-.266A.362.362 0 0 1 7.374 0h.75c.104 0 .193.036.266.11.073.072.109.16.109.265v8.25z"/>
</svg>
