<svg xmlns="http://www.w3.org/2000/svg" width="12" height="13" viewBox="0 0 12 13">
    <path fill="#539F19" fill-rule="evenodd" d="M11.719.688c.078 0 .144.027.199.082A.271.271 0 0 1 12 .969v4.5a.271.271 0 0 1-.082.199.271.271 0 0 1-.2.082h-4.5a.271.271 0 0 1-.198-.082.271.271 0 0 1-.083-.2v-.655c0-.079.028-.145.083-.2a.271.271 0 0 1 .199-.082l2.976.07a4.606 4.606 0 0 0-1.687-1.956A4.472 4.472 0 0 0 6 1.906c-.828 0-1.594.207-2.297.621a4.656 4.656 0 0 0-1.676 1.676 4.446 4.446 0 0 0-.62 2.297c0 .828.206 1.594.62 2.297a4.656 4.656 0 0 0 1.676 1.676 4.446 4.446 0 0 0 2.297.62c.578 0 1.129-.1 1.652-.304a4.364 4.364 0 0 0 1.395-.867.292.292 0 0 1 .21-.059c.079.008.141.035.188.082l.469.47c.047.046.07.112.07.198a.234.234 0 0 1-.093.2 5.782 5.782 0 0 1-1.782 1.101A5.686 5.686 0 0 1 6 12.312a5.634 5.634 0 0 1-2.906-.785A5.902 5.902 0 0 1 .973 9.418a5.594 5.594 0 0 1-.785-2.906c0-1.055.257-2.028.773-2.918a5.782 5.782 0 0 1 2.11-2.121A5.634 5.634 0 0 1 5.976.688c1 0 1.93.234 2.789.703a5.808 5.808 0 0 1 2.086 1.898l-.07-2.32c0-.078.027-.145.081-.2a.271.271 0 0 1 .2-.081h.656z"/>
</svg>
