<svg xmlns="http://www.w3.org/2000/svg" xmlns:xlink="http://www.w3.org/1999/xlink" width="11" height="12" viewBox="0 0 11 12">
    <defs>
        <path id="b" d="M27.936 27.076c.042.043.064.1.064.172a.314.314 0 0 1-.064.193l-.495.473a.267.267 0 0 1-.193.086.204.204 0 0 1-.172-.086l-2.62-2.6a.286.286 0 0 1-.065-.171v-.301a4.615 4.615 0 0 1-1.354.805 4.32 4.32 0 0 1-1.568.29 4.34 4.34 0 0 1-2.245-.601 4.515 4.515 0 0 1-1.622-1.622A4.34 4.34 0 0 1 17 21.469c0-.817.2-1.565.602-2.245a4.515 4.515 0 0 1 1.622-1.622A4.34 4.34 0 0 1 21.469 17c.816 0 1.565.2 2.245.602.68.4 1.22.941 1.622 1.622a4.34 4.34 0 0 1 .601 2.245 4.32 4.32 0 0 1-.29 1.568 4.615 4.615 0 0 1-.805 1.354h.3c.072 0 .13.021.172.064l2.622 2.621zm-6.467-2.17c.616 0 1.189-.154 1.718-.462.53-.308.95-.727 1.257-1.257.308-.53.462-1.102.462-1.718 0-.616-.154-1.19-.462-1.719a3.413 3.413 0 0 0-1.257-1.257 3.363 3.363 0 0 0-1.718-.462c-.616 0-1.19.154-1.719.462-.53.308-.949.727-1.257 1.257a3.363 3.363 0 0 0-.462 1.719c0 .616.154 1.189.462 1.718.308.53.727.95 1.257 1.257.53.308 1.103.462 1.719.462z"/>
        <filter id="a" width="109.1%" height="118.2%" x="-4.5%" y="-4.5%" filterUnits="objectBoundingBox">
            <feOffset dy="1" in="SourceAlpha" result="shadowOffsetOuter1"/>
            <feColorMatrix in="shadowOffsetOuter1" values="0 0 0 0 1 0 0 0 0 1 0 0 0 0 1 0 0 0 0.612460371 0"/>
        </filter>
    </defs>
    <g fill="none" fill-rule="evenodd" transform="translate(-17 -17)">
        <use fill="#000" filter="url(#a)" xlink:href="#b"/>
        <use fill="#7E82A0" xlink:href="#b"/>
    </g>
</svg>
