<svg xmlns="http://www.w3.org/2000/svg" width="10" height="11" viewBox="0 0 10 11">
    <path fill="#ffffff" fill-rule="evenodd" d="M9.453.797c.065-.065.147-.078.244-.04.098.04.147.112.147.216v2.793c0 .065-.023.12-.069.166A.226.226 0 0 1 9.61 4H6.816a.214.214 0 0 1-.214-.146c-.04-.098-.026-.18.039-.245l1.074-1.074a4.036 4.036 0 0 0-1.24-.82A3.75 3.75 0 0 0 5 1.422c-.664 0-1.283.16-1.855.478A3.82 3.82 0 0 0 1.758 3.21a3.762 3.762 0 0 0-.586 1.826c0 .052-.023.101-.068.147a.226.226 0 0 1-.167.068H.391a.226.226 0 0 1-.166-.068.25.25 0 0 1-.069-.186A4.883 4.883 0 0 1 .89 2.691a4.78 4.78 0 0 1 1.748-1.67A4.741 4.741 0 0 1 5 .407c.651 0 1.273.124 1.865.371.593.248 1.11.6 1.553 1.055L9.453.797zM9.61 5.25c.065 0 .12.023.166.068a.25.25 0 0 1 .069.186 4.883 4.883 0 0 1-.733 2.305 4.78 4.78 0 0 1-1.748 1.67c-.729.41-1.517.615-2.363.615a4.793 4.793 0 0 1-1.865-.371 4.627 4.627 0 0 1-1.553-1.055L.547 9.703c-.065.065-.147.078-.244.04a.214.214 0 0 1-.147-.216V6.734c0-.065.023-.12.069-.166A.226.226 0 0 1 .39 6.5h2.793c.104 0 .175.049.214.146.04.098.026.18-.039.245L2.285 7.965c.365.351.778.625 1.24.82A3.75 3.75 0 0 0 5 9.078c.664 0 1.283-.16 1.855-.478A3.82 3.82 0 0 0 8.242 7.29a3.762 3.762 0 0 0 .586-1.826c0-.052.023-.101.068-.147a.226.226 0 0 1 .166-.068h.547z"/>
</svg>
