<svg xmlns="http://www.w3.org/2000/svg" xmlns:xlink="http://www.w3.org/1999/xlink" width="10" height="11" viewBox="0 0 10 11">
    <defs>
        <path id="b" d="M25.262 38.684c.599.169 1.054.514 1.367 1.035.247.39.371.814.371 1.27v.488c0 .416-.15.774-.45 1.074-.299.3-.657.449-1.073.449h-6.954c-.416 0-.774-.15-1.074-.45-.3-.299-.449-.657-.449-1.073v-.489c0-.455.124-.885.371-1.289.313-.508.768-.846 1.367-1.015l.41-.118a3.416 3.416 0 0 1-.664-2.05c0-.638.157-1.228.47-1.768.312-.54.738-.967 1.278-1.28A3.47 3.47 0 0 1 22 33a3.47 3.47 0 0 1 1.768.469c.54.312.966.739 1.279 1.279.312.54.469 1.13.469 1.768 0 .755-.222 1.438-.664 2.05l.41.118zM22 33.937c-.469 0-.898.118-1.29.352-.39.234-.702.547-.937.938-.234.39-.351.82-.351 1.289 0 .468.117.898.351 1.289.235.39.547.703.938.937.39.235.82.352 1.289.352s.898-.117 1.289-.352c.39-.234.703-.547.938-.937.234-.39.351-.82.351-1.29 0-.468-.117-.898-.351-1.288a2.693 2.693 0 0 0-.938-.938A2.459 2.459 0 0 0 22 33.937zm4.062 7.54v-.489c0-.325-.097-.618-.292-.879a1.428 1.428 0 0 0-.762-.527l-.899-.254a3.428 3.428 0 0 1-2.109.703 3.428 3.428 0 0 1-2.11-.703l-.898.254a1.428 1.428 0 0 0-.762.527c-.195.26-.293.554-.293.88v.488a.57.57 0 0 0 .586.585h6.954a.57.57 0 0 0 .585-.585z"/>
        <filter id="a" width="110%" x="-5%" y="-5%" filterUnits="objectBoundingBox">
            <feOffset dy="1" in="SourceAlpha" result="shadowOffsetOuter1"/>
            <feColorMatrix in="shadowOffsetOuter1" values="0 0 0 0 1 0 0 0 0 1 0 0 0 0 1 0 0 0 0.612460371 0"/>
        </filter>
    </defs>
    <g fill="none" fill-rule="evenodd" transform="translate(-17 -33)">
        <use fill="#000" filter="url(#a)" xlink:href="#b"/>
        <use fill="#7E82A0" xlink:href="#b"/>
    </g>
</svg>
