<svg xmlns="http://www.w3.org/2000/svg" width="95" height="18" viewBox="0 0 95 18">
    <g fill="none" fill-rule="nonzero">
        <path fill="#000" d="M21.362 1.197h1.146l2.7 9.227 2.637-9.227h1.04l2.637 9.213 2.699-9.213h1.146l-3.142 10.588h-1.443l-2.416-8.68-2.43 8.68h-1.447L21.362 1.197zm15.315 0h6.02v.958H37.78v3.813h4.755v.959h-4.755v3.9h4.919v.958h-6.02V1.197zm7.344 0h1.102v9.63h4.562v.958H44.02V1.197zm8.389.958h-2.531v-.958h6.137v.958h-2.502v9.63h-1.102l-.002-9.63zm4.917-.958h2.622c.697 0 1.289.031 1.777.091s.94.203 1.351.427c.553.304.976.715 1.273 1.228.294.513.442 1.082.442 1.707 0 .567-.145 1.091-.434 1.573a3.257 3.257 0 0 1-1.183 1.155 3.363 3.363 0 0 1-1.63.455l3.099 3.952h-1.368l-3.739-4.798h.327c.535 0 .992-.018 1.366-.05a3.704 3.704 0 0 0 1.031-.236c.45-.2.802-.49 1.053-.867.25-.377.376-.805.376-1.28 0-.37-.092-.725-.276-1.068a2.234 2.234 0 0 0-.749-.825 2.454 2.454 0 0 0-1.051-.42 10.22 10.22 0 0 0-1.437-.084H58.43v9.63h-1.103l-.001-10.59zm13.381 0h1.223l4.722 10.588H75.46l-1.593-3.554h-5.125l-1.593 3.554h-1.192l4.752-10.588zm2.726 6.076l-2.115-4.859-2.145 4.859h4.26zm4.528-6.076h2.965c.886.006 1.68.1 2.383.28.704.182 1.35.5 1.939.951a5.353 5.353 0 0 1 1.77 2.54c.161.498.242.999.242 1.5 0 .505-.072.996-.214 1.473a5.224 5.224 0 0 1-.617 1.342 5.366 5.366 0 0 1-.971 1.127c-.614.535-1.273.897-1.978 1.088-.706.19-1.532.287-2.478.287h-3.04V1.197zm2.522 9.63c.631-.01 1.148-.032 1.552-.068a5.242 5.242 0 0 0 1.225-.264 4.223 4.223 0 0 0 1.198-.644 4.187 4.187 0 0 0 1.25-1.489 4.285 4.285 0 0 0 .45-1.893c-.015-1.377-.586-2.493-1.714-3.35-.548-.411-1.12-.675-1.718-.788-.595-.117-1.343-.174-2.243-.174h-1.418v8.671l1.418-.001zm8.131-9.63h6.02v.958h-4.918v3.813h4.755v.959h-4.755v3.9h4.919v.958h-6.02V1.197zM16.219 12.125c-.44-.665-.783-1.38-1.115-2.072-.095-.199-.19-.398-.287-.595-.31-.629-.722-1.2-1.158-1.806-.478-.665-.972-1.352-1.34-2.138a7.656 7.656 0 0 1-.622-2.293 2.806 2.806 0 0 1 .005-.461c.004-.052.01-.123.01-.177-.473.38-.757 1.019-.748 1.683.032.918.41 1.797.812 2.727l.11.26.55 1.38c.215.549.093.918-.048 1.131-.14.217-.434.48-1.034.509l-4.688.003c-.647.06-.773.072-.762 1.064.072 1.132.554 4.481 1.007 6.649h9.264c.993 0 1.798-.805 1.798-1.797v-2.294c-.691-.479-1.302-1.074-1.754-1.773zM4.547 11.39c-.015-1.388.329-2.32 2.062-2.476l4.477-.005-.558-1.378c-.434-1.005-.884-2.045-.922-3.233-.017-1.124.493-2.205 1.331-2.832.504-.395 1.352-.338 1.78.158.407.41.368.927.344 1.24-.006.073-.014.148-.008.217.076.659.246 1.292.505 1.865.31.663.746 1.27 1.208 1.91.449.626.915 1.271 1.273 2 .1.201.197.405.294.609.326.68.633 1.321 1.026 1.913.177.275.39.522.617.757V1.809c0-.991-.805-1.796-1.798-1.796H1.797C.805.013 0 .818 0 1.809v14.382c0 .993.805 1.796 1.797 1.796h3.726a52.91 52.91 0 0 1-.29-1.566c-.359-2.103-.643-4.348-.686-5.03z"/>
        <path fill="#FFF" d="M5.907 11.338c-.011-.993.115-1.004.762-1.064l4.688-.003c.6-.027.894-.29 1.035-.508.139-.214.26-.583.047-1.13l-.55-1.382-.11-.26c-.401-.93-.78-1.807-.812-2.726-.01-.665.275-1.304.747-1.683 0 .053-.006.124-.01.176a2.806 2.806 0 0 0-.004.461c.093.815.302 1.584.622 2.293.368.786.86 1.473 1.34 2.138.436.606.849 1.178 1.158 1.806.098.198.193.397.287.596.332.693.675 1.408 1.115 2.071a6.357 6.357 0 0 0 1.756 1.772v-1.762a4.893 4.893 0 0 1-.617-.757c-.394-.592-.702-1.234-1.027-1.913l-.293-.608c-.359-.73-.825-1.376-1.273-2-.461-.642-.897-1.248-1.208-1.911a6.286 6.286 0 0 1-.505-1.865c-.007-.07.003-.142.008-.218.023-.313.063-.829-.345-1.24-.427-.495-1.275-.552-1.78-.157-.837.628-1.347 1.708-1.33 2.832.04 1.188.488 2.228.922 3.232l.557 1.38-4.476.005C4.877 9.07 4.533 10 4.55 11.39c.044.682.327 2.927.687 5.03.102.6.199 1.114.29 1.567h1.391c-.456-2.167-.938-5.515-1.01-6.648z"/>
        <path fill="#000" d="M27.314 15.797c0 1.382-.84 2.115-1.863 2.115-1.06 0-1.805-.821-1.805-2.037 0-1.274.793-2.108 1.863-2.108 1.096.001 1.805.84 1.805 2.03zm-3.113.067c0 .857.464 1.624 1.28 1.624.821 0 1.287-.756 1.287-1.667 0-.797-.417-1.631-1.28-1.631-.86 0-1.287.793-1.287 1.674zm3.787 1.983v-4.014h.566l1.287 2.03c.298.471.53.894.72 1.305l.012-.006a17.915 17.915 0 0 1-.06-1.65v-1.679h.488v4.014h-.524l-1.274-2.037c-.28-.447-.548-.905-.75-1.34l-.018.006c.03.505.041.988.041 1.655v1.714h-.488v.002zm3.92-4.014h.517v3.578h1.715v.434h-2.233v-4.012zm3.33 0v4.014h-.519v-4.014h.518zm.904 4.014v-4.014h.565l1.287 2.03c.299.471.53.894.72 1.305l.013-.006a17.915 17.915 0 0 1-.06-1.65v-1.679h.488v4.014h-.524l-1.275-2.037c-.28-.447-.548-.905-.75-1.34l-.017.006c.03.505.041.988.041 1.655v1.714h-.488v.002zm5.997-1.882h-1.56v1.446h1.738v.434h-2.256v-4.013h2.168v.434h-1.65v1.268h1.56v.43zm4.92 1.75c-.191.096-.572.192-1.06.192-1.132 0-1.983-.714-1.983-2.03 0-1.258.851-2.109 2.096-2.109.5 0 .816.108.952.179l-.125.423a1.894 1.894 0 0 0-.81-.167c-.941 0-1.566.601-1.566 1.654 0 .982.565 1.614 1.542 1.614.316 0 .637-.065.845-.167l.109.412zm1.168-3.882v2.376c0 .899.4 1.281.935 1.281.595 0 .976-.393.976-1.28v-2.377h.524v2.34c0 1.233-.649 1.739-1.519 1.739-.82 0-1.441-.47-1.441-1.715v-2.364h.525zm3.335.054c.262-.054.638-.084.995-.084.554 0 .91.101 1.16.327.202.178.316.453.316.763 0 .529-.333.88-.756 1.024v.018c.31.107.494.393.589.81.13.559.226.947.31 1.102h-.536c-.065-.114-.155-.458-.268-.959-.12-.554-.334-.762-.804-.78h-.488v1.739h-.518v-3.96zm.518 1.828h.53c.555 0 .905-.303.905-.762 0-.518-.376-.744-.923-.75-.25 0-.43.023-.512.047v1.465zm2.687-1.828c.262-.054.638-.084.995-.084.554 0 .911.101 1.16.327.203.178.316.453.316.763 0 .529-.333.88-.756 1.024v.018c.31.107.494.393.59.81.13.559.225.947.309 1.102h-.536c-.064-.114-.154-.458-.268-.959-.12-.554-.333-.762-.804-.78h-.488v1.739h-.518v-3.96zm.518 1.828h.53c.555 0 .906-.303.906-.762 0-.518-.376-.744-.924-.75-.25 0-.43.023-.512.047v1.465zm4.764.25h-1.56v1.446h1.738v.434h-2.256v-4.013h2.168v.434h-1.65v1.268h1.56v.43zm.853 1.882v-4.014h.565l1.285 2.03c.299.471.53.894.72 1.305l.011-.006a17.915 17.915 0 0 1-.06-1.65v-1.679h.488v4.014h-.524l-1.274-2.037c-.28-.447-.548-.905-.75-1.34l-.018.006c.03.505.041.988.041 1.655v1.714h-.484v.002zm6.723-.131c-.191.095-.572.19-1.06.19-1.13 0-1.983-.713-1.983-2.03 0-1.257.851-2.108 2.095-2.108.5 0 .817.108.952.179l-.124.423a1.9 1.9 0 0 0-.81-.167c-.941 0-1.567.601-1.567 1.654 0 .982.566 1.614 1.543 1.614.316 0 .638-.065.846-.167l.108.412zm1.561.13v-1.701l-1.268-2.31h.59l.565 1.108c.154.303.273.548.4.828h.01c.114-.263.25-.525.406-.828l.578-1.108h.589L69.71 16.14v1.708l-.525-.001zm4.11-3.572h-1.22v-.44h2.971v.44h-1.226v3.573h-.525v-3.573zm2.198-.387c.262-.054.638-.084.995-.084.554 0 .911.101 1.16.327.203.178.316.453.316.763 0 .529-.333.88-.756 1.024v.018c.31.107.494.393.589.81.13.559.226.947.31 1.102h-.536c-.065-.114-.155-.458-.268-.959-.12-.554-.333-.762-.804-.78h-.488v1.739h-.518v-3.96zm.518 1.828h.53c.555 0 .905-.303.905-.762 0-.518-.375-.744-.923-.75-.25 0-.43.023-.512.047v1.465zm3.365.869l-.417 1.261h-.535l1.364-4.013h.625l1.37 4.013h-.555l-.43-1.261h-1.422zm1.315-.405l-.393-1.155c-.088-.262-.148-.5-.208-.733h-.013c-.06.238-.125.482-.202.726l-.393 1.16 1.21.002zm1.682-2.292a7.45 7.45 0 0 1 1.102-.084c.743 0 1.274.172 1.625.5.356.328.565.792.565 1.44 0 .656-.202 1.191-.578 1.56-.376.376-.995.579-1.775.579-.37 0-.679-.018-.94-.048v-3.947zm.518 3.548c.13.023.322.03.524.03 1.108 0 1.708-.62 1.708-1.702.007-.948-.53-1.55-1.626-1.55-.269 0-.47.024-.608.054l.002 3.168zm3.966-3.602v4.014h-.518v-4.014h.518zm.905 4.014v-4.014h.565l1.285 2.03c.299.471.53.894.72 1.305l.011-.006a17.915 17.915 0 0 1-.06-1.65v-1.679h.488v4.014h-.52l-1.274-2.037c-.28-.447-.547-.905-.75-1.34l-.017.006c.03.505.041.988.041 1.655v1.714h-.49v.002zm6.974-.179a3.72 3.72 0 0 1-1.232.221c-.608 0-1.108-.154-1.5-.53-.346-.333-.559-.87-.559-1.494.007-1.197.828-2.071 2.173-2.071.464 0 .827.1 1 .184l-.125.424a2.089 2.089 0 0 0-.888-.173c-.975 0-1.613.608-1.613 1.614 0 1.019.612 1.62 1.547 1.62.34 0 .572-.047.69-.107v-1.197h-.816v-.417h1.321v1.926h.002z"/>
    </g>
</svg>
