<svg xmlns="http://www.w3.org/2000/svg" width="44" height="39" viewBox="0 0 44 39">
    <path fill="#DBDEF3" fill-rule="evenodd" d="M39.875 11.25c1.146 0 2.12.401 2.922 1.203S44 14.23 44 15.375v8.25c0 .401-.129.73-.387.988s-.587.387-.988.387H41.25v9.625c0 1.146-.401 2.12-1.203 2.922s-1.776 1.203-2.922 1.203H6.875c-1.146 0-2.12-.401-2.922-1.203S2.75 35.77 2.75 34.625V25H1.375c-.401 0-.73-.129-.988-.387S0 24.026 0 23.625v-8.25c0-1.146.401-2.12 1.203-2.922S2.98 11.25 4.125 11.25h3.352c-.86-1.26-1.29-2.635-1.29-4.125 0-1.89.63-3.509 1.891-4.855C9.338.923 10.842.25 12.59.25c1.747 0 3.308.602 4.683 1.805C18.533 3.2 20.11 5.349 22 8.5c1.89-3.151 3.466-5.3 4.726-6.445C28.101.852 29.663.25 31.41.25c1.747 0 3.251.673 4.512 2.02 1.26 1.346 1.89 2.964 1.89 4.855 0 1.49-.43 2.865-1.289 4.125h3.352zm-16.156-.344l-.172.344h7.82c1.031 0 1.905-.401 2.621-1.203s1.074-1.776 1.074-2.922c0-1.146-.358-2.12-1.074-2.922C33.272 3.401 32.427 3 31.453 3c-.802 0-1.46.143-1.977.43-.687.4-1.475 1.174-2.363 2.32-.888 1.146-2.02 2.865-3.394 5.156zM12.633 3c-1.031 0-1.905.401-2.621 1.203S8.937 5.98 8.937 7.125c0 1.146.359 2.12 1.075 2.922s1.56 1.203 2.535 1.203h7.906l-.172-.344c-1.375-2.291-2.506-4.01-3.394-5.156-.888-1.146-1.676-1.92-2.364-2.32-.515-.287-1.145-.43-1.89-.43zM16.5 36V25h-11v9.625c0 .401.129.73.387.988s.587.387.988.387H16.5zm0-13.75V14H4.125c-.401 0-.73.129-.988.387s-.387.587-.387.988v6.875H16.5zM24.75 36V14h-5.5v22h5.5zm13.75-1.375V25h-11v11h9.625c.401 0 .73-.129.988-.387s.387-.587.387-.988zm2.75-12.375v-6.875c0-.401-.129-.73-.387-.988S40.276 14 39.875 14H27.5v8.25h13.75z"/>
</svg>
