<svg xmlns="http://www.w3.org/2000/svg" width="50" height="45" viewBox="0 0 50 45">
    <path fill="#DBDEF3" fill-rule="evenodd" d="M37.125 22.5c.401 0 .73.129.988.387s.387.587.387.988-.129.73-.387.988-.587.387-.988.387-.73-.129-.988-.387c-.258-.257-.387-.587-.387-.988s.129-.73.387-.988c.257-.258.587-.387.988-.387zm11-2.75c.4 0 .73.129.988.387s.387.587.387.988v11c0 .401-.129.73-.387.988s-.587.387-.988.387h-4.211c-.688.974-1.576 1.862-2.664 2.664v6.961c0 .401-.129.73-.387.988s-.587.387-.988.387H30.25c-.401 0-.73-.129-.988-.387s-.387-.587-.387-.988V39h-5.5v4.125c0 .401-.129.73-.387.988s-.587.387-.988.387h-9.625c-.401 0-.73-.129-.988-.387S11 43.526 11 43.125v-6.96a13.284 13.284 0 0 1-4.04-4.77A13.39 13.39 0 0 1 5.5 25.25h-.688c-1.432 0-2.635-.544-3.609-1.633C.23 22.53-.143 21.268.086 19.836c.115-1.203.644-2.206 1.59-3.008.945-.802 2.048-1.203 3.308-1.203.115 0 .23.057.344.172.115.115.172.23.172.344v1.718c0 .115-.057.23-.172.344-.114.115-.23.172-.344.172h-.086c-.515 0-.974.158-1.375.473-.4.315-.63.702-.687 1.16-.172.687-.043 1.275.387 1.762.43.487.96.73 1.59.73h.945c.458-2.234 1.432-4.24 2.922-6.016a13.68 13.68 0 0 1 5.414-3.953c-.23-.86-.344-1.661-.344-2.406a9.47 9.47 0 0 1 1.289-4.812 9.453 9.453 0 0 1 3.523-3.524A9.47 9.47 0 0 1 23.375.5a9.47 9.47 0 0 1 4.812 1.29 9.453 9.453 0 0 1 3.524 3.523A9.47 9.47 0 0 1 33 10.125l-.086.86c2.177-1.49 4.497-2.235 6.96-2.235h1.376v5.586c1.948 1.432 3.409 3.237 4.383 5.414h2.492zm-24.75-16.5c-1.89 0-3.51.673-4.856 2.02-1.346 1.346-2.019 2.964-2.019 4.855 0 .516.086 1.06.258 1.633.86-.172 1.69-.258 2.492-.258h10.828a5.65 5.65 0 0 0 .172-1.375c0-1.89-.673-3.509-2.02-4.855-1.346-1.347-2.964-2.02-4.855-2.02zm23.375 27.5V22.5h-2.922c-.86-1.833-1.518-3.094-1.977-3.781-.63-.802-1.747-1.834-3.351-3.094v-4.039a9.851 9.851 0 0 0-3.094 1.031c-.573.344-1.318.888-2.234 1.633H19.25c-2.005 0-3.853.487-5.543 1.461a10.701 10.701 0 0 0-3.996 3.996c-.974 1.69-1.461 3.538-1.461 5.543v.086c0 1.375.23 2.635.687 3.781.86 2.005 2.464 3.896 4.813 5.672v6.961h6.875v-5.5h11v5.5H38.5v-6.96c1.146-.86 1.92-1.49 2.32-1.892.344-.343.802-.888 1.375-1.632l.344-.516h4.21z"/>
</svg>
