<svg xmlns="http://www.w3.org/2000/svg" width="55" height="39" viewBox="0 0 55 39">
    <path fill="#DBDEF3" fill-rule="evenodd" d="M46.75 16.75c-1.89 0-3.51-.673-4.856-2.02-1.346-1.346-2.02-2.964-2.02-4.855 0-1.89.674-3.509 2.02-4.855C43.241 3.673 44.86 3 46.75 3c1.89 0 3.509.673 4.855 2.02 1.347 1.346 2.02 2.964 2.02 4.855 0 1.89-.673 3.51-2.02 4.856-1.346 1.346-2.964 2.019-4.855 2.019zm0-11c-1.146 0-2.12.401-2.922 1.203s-1.203 1.776-1.203 2.922c0 1.146.4 2.12 1.203 2.922.802.802 1.776 1.203 2.922 1.203 1.146 0 2.12-.401 2.922-1.203s1.203-1.776 1.203-2.922c0-1.146-.401-2.12-1.203-2.922S47.896 5.75 46.75 5.75zM27.5 19.5a9.47 9.47 0 0 1-4.813-1.289 9.453 9.453 0 0 1-3.523-3.523 9.47 9.47 0 0 1-1.289-4.813 9.47 9.47 0 0 1 1.289-4.812 9.453 9.453 0 0 1 3.523-3.524A9.47 9.47 0 0 1 27.5.25a9.47 9.47 0 0 1 4.812 1.29 9.453 9.453 0 0 1 3.524 3.523 9.47 9.47 0 0 1 1.289 4.812 9.47 9.47 0 0 1-1.29 4.813 9.453 9.453 0 0 1-3.523 3.523A9.47 9.47 0 0 1 27.5 19.5zm0-16.5c-1.89 0-3.51.673-4.856 2.02-1.346 1.346-2.019 2.964-2.019 4.855 0 1.89.673 3.51 2.02 4.856 1.346 1.346 2.964 2.019 4.855 2.019 1.89 0 3.509-.673 4.855-2.02 1.347-1.346 2.02-2.964 2.02-4.855 0-1.89-.673-3.509-2.02-4.855C31.01 3.673 29.391 3 27.5 3zm20.969 16.5c1.776 0 3.308.673 4.597 2.02C54.356 22.866 55 24.484 55 26.375c0 .401-.129.73-.387.988s-.587.387-.988.387-.73-.129-.988-.387-.387-.587-.387-.988c0-1.146-.373-2.12-1.117-2.922-.745-.802-1.633-1.203-2.664-1.203H45.03c-.458 0-.917.086-1.375.258a13.715 13.715 0 0 0-2.148-1.89c1.088-.746 2.263-1.118 3.523-1.118h3.438zM8.25 16.75c-1.89 0-3.51-.673-4.855-2.02-1.347-1.346-2.02-2.964-2.02-4.855 0-1.89.673-3.509 2.02-4.855C4.74 3.673 6.359 3 8.25 3c1.89 0 3.51.673 4.855 2.02 1.347 1.346 2.02 2.964 2.02 4.855 0 1.89-.673 3.51-2.02 4.856-1.346 1.346-2.964 2.019-4.855 2.019zm0-11c-1.146 0-2.12.401-2.922 1.203S4.125 8.73 4.125 9.875c0 1.146.401 2.12 1.203 2.922S7.104 14 8.25 14c1.146 0 2.12-.401 2.922-1.203s1.203-1.776 1.203-2.922c0-1.146-.401-2.12-1.203-2.922S9.396 5.75 8.25 5.75zM34.375 21.22c1.604 0 3.108.344 4.512 1.031a8.39 8.39 0 0 1 3.394 3.008c1.146 1.661 1.719 3.495 1.719 5.5v3.867c0 1.146-.401 2.12-1.203 2.922s-1.776 1.203-2.922 1.203h-24.75c-1.146 0-2.12-.401-2.922-1.203S11 35.77 11 34.625v-3.867c0-2.005.573-3.839 1.719-5.5a8.39 8.39 0 0 1 3.394-3.008 10.12 10.12 0 0 1 4.512-1.031c.917 0 1.977.172 3.18.515 1.317.344 2.55.516 3.695.516 1.146 0 2.378-.172 3.695-.516 1.203-.343 2.263-.515 3.18-.515zm6.875 13.406v-3.867a6.98 6.98 0 0 0-1.203-3.953 6.302 6.302 0 0 0-2.406-2.106c-.974-.487-2.063-.73-3.266-.73-.688 0-1.547.143-2.578.43-1.49.4-2.922.601-4.297.601-1.375 0-2.807-.2-4.297-.602-1.031-.286-1.89-.43-2.578-.43-1.203 0-2.306.244-3.309.731a5.618 5.618 0 0 0-2.363 2.106 6.98 6.98 0 0 0-1.203 3.953v3.867c0 .401.129.73.387.988.257.258.587.387.988.387h24.75c.4 0 .73-.129.988-.387s.387-.587.387-.988zM13.492 20.617a13.715 13.715 0 0 0-2.148 1.89 3.892 3.892 0 0 0-1.375-.257H6.53c-1.031 0-1.919.401-2.664 1.203-.745.802-1.117 1.776-1.117 2.922 0 .401-.129.73-.387.988s-.587.387-.988.387-.73-.129-.988-.387S0 26.776 0 26.375c0-1.89.645-3.51 1.934-4.855 1.289-1.347 2.821-2.02 4.597-2.02H9.97c1.26 0 2.435.372 3.523 1.117z"/>
</svg>
