<svg xmlns="http://www.w3.org/2000/svg" width="131" height="30" viewBox="0 0 131 30">
    <g fill="#FFF" fill-rule="nonzero">
        <path d="M50.09 23.954a28.79 28.79 0 0 1-.28-.939c-.09-.32-.176-.61-.261-.873a28.295 28.295 0 0 1-.27-.897h-4.954c-.083.291-.176.59-.27.897-.083.263-.176.554-.282.873-.105.317-.203.632-.301.939h-2.874l4.789-13.823c.278-.082.507-.146.688-.198.18-.049.443-.075.791-.075.61 0 1.173.09 1.686.27l4.536 13.823H50.09v.003zm-1.966-6.725l-.281-.979a4.7 4.7 0 0 0-.168-.541 9.086 9.086 0 0 1-.209-.75c-.07-.25-.149-.554-.24-.915-.09-.361-.19-.77-.3-1.23h-.083c-.127.444-.24.843-.343 1.196-.103.356-.19.655-.26.908-.083.29-.16.554-.23.79-.04.112-.098.3-.165.563l-.29.979-.5 1.665h3.538c-.196-.706-.35-1.268-.47-1.686zm6.482 6.725V9.904h2.603v14.05h-2.603zM65.68 11.799a2.748 2.748 0 0 0-.311-.02h-.292c-.43 0-.773.02-1.03.061-.258.041-.452.119-.583.23a.804.804 0 0 0-.26.466 4.032 4.032 0 0 0-.062.781v1.124h2.582v2.103h-2.582v7.41h-2.56v-7.41h-1.288V14.44h1.288v-1.23c0-.36.01-.667.031-.925.021-.258.052-.48.093-.665a2.164 2.164 0 0 1 .418-.905 2.196 2.196 0 0 1 1.103-.811c.471-.165 1.118-.25 1.935-.25.637 0 1.284.04 1.936.126l-.418 2.018zm8.408 12.363c-.111-.028-.271-.123-.48-.29a2.232 2.232 0 0 1-.5-.542c-.221.152-.389.258-.5.312-.11.054-.25.118-.415.188a4.88 4.88 0 0 1-.915.26 5.442 5.442 0 0 1-.997.093c-.443 0-.863-.064-1.26-.198a2.956 2.956 0 0 1-1.031-.583 2.846 2.846 0 0 1-.699-.959c-.175-.381-.26-.814-.26-1.301 0-1.039.335-1.864 1.008-2.467.672-.605 1.662-.907 2.966-.907a4.583 4.583 0 0 1 1.312.186v-.48c0-.317-.018-.577-.052-.78a.76.76 0 0 0-.25-.467c-.131-.111-.327-.188-.582-.23a6.784 6.784 0 0 0-1.03-.061c-.28 0-.599.018-.957.051-.36.034-.722.08-1.083.134l-.397-1.915a13.813 13.813 0 0 1 3.351-.397c.82 0 1.459.088 1.928.26.466.173.827.441 1.093.802a2.164 2.164 0 0 1 .417.905c.041.188.072.41.093.667.02.258.03.565.03.926v2.665c0 .332.014.623.042.873.028.25.072.485.134.706.062.222.152.439.27.655.12.217.261.454.426.717l-1.662 1.177zm-1.642-2.288a2.449 2.449 0 0 1-.106-.634c-.013-.258-.02-.578-.02-.967v-.706a1.614 1.614 0 0 0-.323-.072 3.223 3.223 0 0 0-.448-.031c-.652 0-1.142.098-1.47.291-.326.196-.489.541-.489 1.039 0 .487.124.827.374 1.02.25.194.61.292 1.082.292.235 0 .46-.01.665-.031.214-.026.457-.09.735-.201zM80.832 19c0 .456-.162.85-.49 1.175-.327.328-.716.49-1.174.49-.46 0-.846-.162-1.165-.49a1.619 1.619 0 0 1-.48-1.175c0-.459.16-.845.48-1.165.32-.317.708-.48 1.165-.48.458 0 .85.16 1.175.48.327.32.49.706.49 1.165zm2.748-8.66c.28-.056.588-.11.923-.167.335-.054.677-.1 1.025-.134.35-.034.688-.062 1.016-.083.327-.02.629-.03.907-.03.583 0 1.204.022 1.863.071.66.05 1.292.114 1.902.196l-.123 2.065c-.541-.07-1.09-.111-1.645-.127a65.608 65.608 0 0 0-1.497-.02h-1.56v3.374h3.916v2.185h-3.915v6.286h-2.81L83.58 10.34zm13.655 13.905a4.883 4.883 0 0 1-1.895-.356 3.996 3.996 0 0 1-1.456-1.02c-.402-.444-.714-.985-.938-1.622-.222-.639-.333-1.353-.333-2.144 0-.763.093-1.464.281-2.103.188-.64.475-1.193.864-1.665.386-.472.868-.84 1.446-1.103.577-.263 1.252-.397 2.028-.397s1.454.131 2.028.397c.578.263 1.06.634 1.446 1.103.39.472.678 1.026.864 1.665.188.64.283 1.34.283 2.103 0 .791-.11 1.505-.332 2.144a4.62 4.62 0 0 1-.939 1.622c-.402.443-.889.786-1.456 1.02-.567.24-1.198.356-1.891.356zm0-2.02c.234 0 .474-.047.716-.135.245-.09.461-.255.657-.49.196-.237.35-.564.47-.979.118-.415.175-.95.175-1.603 0-.64-.06-1.165-.176-1.582-.118-.415-.273-.74-.469-.967a1.592 1.592 0 0 0-.657-.48 2.045 2.045 0 0 0-.716-.133c-.238 0-.477.046-.717.134-.242.09-.461.25-.657.48-.193.228-.35.55-.467.966-.118.415-.175.943-.175 1.582 0 .652.06 1.188.175 1.603.116.415.274.742.467.98.193.234.412.396.657.49.24.09.48.133.717.133zm9.157 1.729h-2.645v-6.119c0-.722-.059-1.325-.175-1.812-.118-.484-.26-.959-.425-1.415l1.789-.855c.11.04.226.126.342.25a2.964 2.964 0 0 1 .74 1.412c.374-.595.773-1.02 1.196-1.27.425-.25.907-.374 1.446-.374.237 0 .466.04.688.123.222.083.387.194.5.333l-.564 2.227a4.76 4.76 0 0 0-.562-.199 2.145 2.145 0 0 0-.565-.072c-.317 0-.623.077-.915.23-.291.151-.577.401-.853.747l.003 6.794zm8.95-1.79c.444 0 .893-.025 1.344-.082.45-.054.912-.131 1.384-.229l.415 1.956a14.058 14.058 0 0 1-3.351.415c-.763 0-1.415-.09-1.956-.27-.541-.18-.992-.415-1.353-.707a3.587 3.587 0 0 1-.856-.979 5.13 5.13 0 0 1-.48-1.093 5.16 5.16 0 0 1-.208-1.051c-.028-.335-.041-.611-.041-.833 0-.776.105-1.497.322-2.165.216-.665.53-1.242.948-1.727a4.452 4.452 0 0 1 1.52-1.146c.596-.279 1.272-.415 2.019-.415.735 0 1.363.118 1.884.355.52.237.943.565 1.27.987.328.426.565.93.717 1.521.152.59.23 1.24.23 1.946v1.039h-6.186c0 .36.039.693.116.997.077.307.209.564.397.78.188.217.433.385.74.509.306.129.682.193 1.126.193zm1.207-4.31a3.381 3.381 0 0 0-.062-.833 2.181 2.181 0 0 0-.27-.699 1.357 1.357 0 0 0-.521-.48c-.222-.118-.495-.177-.815-.177-.623 0-1.08.198-1.37.593-.292.397-.472.925-.542 1.593l3.58.002zm6.724-3.787l.956 1.938c.152.263.286.508.397.74.111.23.222.466.333.716a22.946 22.946 0 0 1 .83-1.456l1.038-1.938h3.06l-3.16 4.85 3.415 5.037H127l-1.206-2.122-.812-1.414-.812 1.414-1.23 2.122h-3.164l3.518-5.06-2.98-4.83h2.96v.003zM15.77 29.72l.104.265H.013s.049-.14.098-.266c.085-.224 1.783-4.935 1.977-5.466h11.696c.193.53 1.91 5.25 1.987 5.466zM7.967 7.128l3.957 11.876H3.948L7.915 7.13h.051zM30.832.015H7.936v.057h.005c3.041 0 4.028 2.209 4.799 4.353.397 1.106 8.17 22.371 8.458 23.186.034.095.047-4.869.047-10.616h3.688c.28 0 .588-.227.683-.505l1.608-4.614c.098-.28-.049-.507-.33-.507h-5.65c-.002-2.047-.004-4.018-.004-5.727h7.636c.281 0 .585-.23.683-.508L31.168.521c.092-.279-.055-.506-.336-.506z"/>
    </g>
</svg>
