<svg xmlns="http://www.w3.org/2000/svg" width="139" height="30" viewBox="0 0 139 30">
    <g fill="#FFF" fill-rule="nonzero">
        <path d="M.033 29.47L10.385 1.038c.22-.585.802-1.019 1.458-1.019h4.448c.657 0 1.24.366 1.459 1.02l5.904 16.184h2.258c.44 0 .874.29 1.02.728l.947 2.478c.074.22-.074.51-.365.51h-2.552l.51 1.53h2.259c.44 0 .873.292 1.019.729l.948 2.478c.074.22-.074.51-.366.51H26.78l1.165 3.281c.074.22-.074.511-.365.511h-4.594c-.44 0-.873-.291-1.019-.728l-1.09-2.989H7.03c-.291 0-.44-.291-.365-.511l.948-2.478c.145-.44.585-.728 1.019-.728h11.005l-.51-1.53H8.928c-.292 0-.44-.291-.366-.511l.948-2.478c.146-.44.585-.728 1.02-.728h7.142l-4.37-12.03c-.146-.366-.586-.366-.729 0L3.827 29.25c-.146.44-.585.728-1.02.728H.402c-.222 0-.44-.291-.368-.508z"/>
        <g transform="translate(31.648 5.11)">
            <circle cx="15.404" cy="7.299" r="1.313"/>
            <path d="M7.967 12.113s.728-.803.728-.948c0-.074 0-.291-.074-.511-.074-.22-.874-2.55-1.017-2.99H3.231c-.146.44-.728 1.825-.874 2.188-.22.585-.44 1.313-.365 1.384l.802.802H.024s.729-.585.803-.656c.074-.074.22-.291.365-.511.146-.291 3.717-8.676 4.009-9.258l-.075-.22C5.346 1.319 6.511.08 6.586.008h.145c.365.948 4.008 10.572 4.154 10.863 0 .074 1.093 1.239 1.093 1.239H7.967v.003zm-2.55-9.915c-.074.145-1.75 4.302-2.04 4.959h4.008c-.22-.511-.366-1.02-.586-1.46L6.214 4.24c-.145-.44-.365-.874-.51-1.239-.14-.363-.212-.511-.286-.802zM42.305 12.113s.728-.803.728-.948c0-.074 0-.291-.074-.511-.074-.22-.874-2.552-1.02-2.99h-4.373c-.146.44-.728 1.825-.874 2.188-.22.585-.44 1.313-.365 1.384l.802.802h-2.77s.729-.585.803-.656c.074-.074.22-.291.365-.511.146-.291 3.718-8.676 4.009-9.258l-.074-.22c.22-.074 1.384-1.313 1.458-1.385h.146c.365.948 4.008 10.572 4.154 10.863 0 .074 1.093 1.239 1.093 1.239h-4.008v.003zm-2.552-9.915c-.074.145-1.75 4.302-2.041 4.959h4.008c-.22-.511-.366-1.02-.585-1.46l-.586-1.458c-.145-.44-.365-.874-.51-1.239-.066-.363-.14-.511-.286-.802zM28.453 12.113s1.165-.874 1.24-1.094c.073-.145.145-.291.145-.51l.074-9.042c-.291.728-4.667 10.28-4.667 10.352h-.075c-.365-.803-4.593-10.426-4.667-10.498v8.748c0 .365.145.728.22.947.145.292 1.093 1.094 1.093 1.094H18.68s.728-.874.874-1.094c.146-.29.22-.585.291-.947.074-.366.146-7.728.146-8.02 0-.29-.074-.585-.22-.728-.146-.22-.802-.947-.802-.947h2.989l3.788 8.675C26.264 8.03 29.835.448 29.835.374h3.066s-.948.802-1.02 1.093c0 0-.073.291-.073.728v8.456c0 .22.074.365.145.511l1.165.948c.003.003-4.665.003-4.665.003zM56.448 12.113l-.22-.22-.146-.146c-.074-.074-.145-.145-.22-.291-.074-.146-.22-.291-.365-.585-.22-.291-.365-.585-.585-.802-.146-.22-.291-.511-.51-.728-.147-.22-.366-.511-.512-.728-.22-.22-.44-.511-.656-.803-.22-.22-.44-.51-.729-.728-.29-.22-.51-.365-.802-.44-.22-.073-.365-.073-.51-.073h-.366c0 .728.074 3.862.074 4.082 0 .22.074.44.146.657.074.145 1.019.873 1.019.873h-4.228s.802-.585.948-.728c.074-.074.074-.145.145-.29 0-.147.146-9.114.146-9.333l-.074-.511c-.074-.146-.074-.292-.146-.292-.145-.145-.802-.656-.802-.656.074 0 5.393 0 5.978.074s1.093.22 1.53.44c.511.22.874.585 1.165 1.019.291.44.44.948.44 1.604 0 .44-.075.802-.22 1.094-.146.29-.366.585-.585.873-.22.22-.511.44-.874.657-.365.145-.657.291-1.02.44v.074c.22.074.366.22.512.44.145.219.365.365.51.656.292.44.586.873.949 1.384.362.511.656.948.873 1.314.44.585.802 1.019 1.165 1.239.365.29 1.093.656 1.093.656h-3.134l.01-.222zm-1.676-10.28c-.291-.44-.657-.803-1.165-1.02-.291-.145-.873-.145-1.093-.145-.291 0-1.53 0-1.53.074v5.393c.44 0 2.04 0 2.403-.075.366-.145.657-.29.874-.44.22-.219.44-.365.585-.656.146-.22.291-.51.366-.802.074-.291.145-.585.145-.874-.148-.58-.294-1.016-.585-1.456zM69.277 12.113c-.074 0-.074-.075-.145-.075-.074-.074-.146-.074-.146-.145a50.638 50.638 0 0 1-1.97-2.333l-1.97-2.186-.584-.586a.551.551 0 0 0-.292-.145c-.074 0-.145 0-.145.074s-.074.074-.074.22v2.915c0 .29 0 .585.074.873 0 .291.074.511.22.657.074.145.145.22.29.291.146.074.949.511.949.511h-4.74s1.02-.585 1.094-.728c.074-.074.074-.146.146-.291 0-.146.074-.291.074-.44v-7.8c0-.439 0-.801-.074-1.164 0-.365-.075-.585-.22-.728-.146-.22-1.094-.728-1.094-.728h4.594s-.728.365-.874.51c-.145.147-.291.292-.365.586-.074.22-.146.585-.146 1.094v3.714c.22-.146 4.228-3.937 4.374-4.154.145-.22.22-.44.22-.657 0-.29-.728-1.164-.728-1.164h3.788s-.874.44-1.459.873c-.585.437-1.165.874-1.75 1.459-.22.22-.44.44-.728.657l-.728.728c-.22.22-.44.51-.728.728-.22.22-.44.44-.585.656.074.146.291.366.585.728.294.366.728.802 1.165 1.313.44.511.874 1.02 1.385 1.605.51.585.947 1.093 1.458 1.604.146.146.22.291.366.366.145.145.29.22.44.365.145.074.22.22.365.291.074.074.145.146.22.146.145.074.802.44.802.44h-3.064v-.08zM83.64 12.113h-9.77s.875-.586 1.02-.803c.074-.074.074-.145.146-.29 0-.146.145-9.113.145-9.333 0-.22-.074-.366-.074-.511-.074-.146-.074-.291-.145-.291-.146-.146-.874-.657-.874-.657h8.676l.948 2.187S82.036 1.25 81.234.81c-.22-.074-.511-.145-1.02-.145-.51-.074-2.989-.074-3.063 0 0 .145-.074 5.101-.074 5.101h2.041c.366-.074.585-.145.802-.29a1.71 1.71 0 0 0 .511-.512l.728-1.093v4.374s-.947-1.314-1.164-1.46c-.146-.145-.366-.22-.657-.365a2.692 2.692 0 0 0-.874-.145h-1.53c0 .145 0 4.154.074 4.448 0 .29.074.44.22.585.074.145.44.22.802.22.728.074 3.209.074 3.717-.146.291-.146.585-.22.874-.44.291-.22 1.676-1.604 1.676-1.604l-.657 2.775zM95.885 1.25a1.97 1.97 0 0 0-.728-.44 3.757 3.757 0 0 0-1.02-.145h-2.04v9.915c0 .29.073.51.145.585.145.22 1.239.873 1.239.873h-4.74s1.02-.585 1.24-.873c.074-.074.074-.146.145-.291 0-.146.075-.292.075-.44V.668h-2.116c-.44 0-.728.074-1.02.145-.29.072-.51.22-.727.44-.074.074-1.385 1.459-1.385 1.459l.44-2.624c.22.074 11.225 0 11.52-.074l.439 2.698c-.009.068-1.393-1.388-1.467-1.462zM106.602 10.288c-.22.44-.511.803-.874 1.094-.365.291-.802.51-1.385.656a6.389 6.389 0 0 1-1.75.22c-.51 0-1.019 0-1.384-.074-.366-.074-.728-.146-.948-.22-.22-.074-.44-.145-.585-.22a.986.986 0 0 1-.22-.145l-.657.585-.074-2.989s.874 1.165 1.02 1.385c.145.22.365.44.585.656.22.22.365.366.585.44.22.074 1.165.291 1.459.291.802 0 1.675-.074 2.186-.511.514-.437.728-1.02.728-1.824a2.66 2.66 0 0 0-.145-.802c-.074-.22-.22-.44-.44-.585-.145-.146-.365-.292-.585-.44-.22-.146-.51-.22-.728-.365a3.39 3.39 0 0 1-.656-.22l-.586-.22c-.145-.074-.365-.146-.51-.146a3.39 3.39 0 0 0-.657-.22c-.291-.074-.585-.29-.802-.439a6.721 6.721 0 0 1-.728-.657 3.429 3.429 0 0 1-.511-.873c-.146-.291-.146-.657-.146-1.02 0-.585.074-1.093.291-1.53.22-.44.511-.802.874-1.093a4.074 4.074 0 0 1 1.239-.657 5.19 5.19 0 0 1 1.53-.22c.511 0 .948.075 1.239.146.365.074.657.146.874.291.22.075.365.22.51.292.146.074.146.145.22.145l.657-.585v2.632s-1.165-1.313-1.385-1.604c-.29-.292-.365-.44-.728-.586-.365-.145-1.093-.22-1.53-.22-.365 0-.656.075-.948.146-.29.072-.365.074-.656.291-.22.22-.44.44-.511.728a2.33 2.33 0 0 0-.22 1.02c0 .585.146 1.019.511 1.384a3.74 3.74 0 0 0 1.385.874c.22.074.44.146.585.22l.585.22s.365.145.585.22l.585.219c.728.291 1.313.657 1.75 1.165.44.51.585 1.165.585 1.97.075.23 0 .741-.22 1.175z"/>
        </g>
        <path d="M61.05 21.45c-.22.44-.512.948-.729 1.385v1.97h-.802v-1.97c-.22-.44-.51-.948-.728-1.384-.22-.44-.51-.948-.728-1.385h.874l.585 1.165.22.44.22.439.44-.948.584-1.165h.874c-.3.58-.52 1.014-.81 1.454zM63.236 21.376c.22 0 .511.075.657.146.22.074.365.22.51.44.075.145.146.29.22.51.075.22.075.366.075.657 0 .291 0 .511-.074.657-.075.22-.075.365-.146.51a1.68 1.68 0 0 1-.511.512c-.22.074-.44.145-.728.145-.22 0-.511-.074-.657-.145-.22-.074-.365-.22-.51-.44-.22-.291-.292-.656-.292-1.165 0-.145 0-.365.074-.51 0-.146.075-.292.146-.44.146-.22.291-.44.511-.585.143-.217.434-.292.725-.292zm0 .731c-.145 0-.22 0-.365.074-.074.074-.22.146-.22.292-.074.074-.074.22-.074.29v.729c0 .074.074.22.074.291.074.146.146.22.22.291.074.074.22.074.365.074a.57.57 0 0 0 .366-.145.405.405 0 0 0 .22-.366l.074-.22v-.365c0-.291 0-.44-.075-.585a.987.987 0 0 0-.22-.291c-.145-.069-.22-.069-.365-.069zM66.154 21.45v2.042c0 .22.074.44.145.51.075.146.292.146.511.146.146 0 .366-.074.44-.145a.663.663 0 0 0 .22-.511V21.45h.802v3.354h-.802v-.365c-.074.145-.22.22-.366.29-.145.075-.29.075-.44.075-.365 0-.656-.074-.873-.291-.217-.217-.291-.511-.291-.874v-2.187c-.005-.002.654-.002.654-.002zM70.527 22.107c-.22 0-.365.074-.44.146-.145.145-.145.291-.145.51v2.042h-.802V21.45h.728v.44c.22-.292.511-.44.802-.44.146 0 .22 0 .366.074.074 0 .22.074.29.145l-.29.728c-.074-.074-.22-.074-.291-.145.002-.072-.143-.146-.218-.146zM74.901 21.376c.22 0 .511.075.657.146.22.074.365.22.51.44.075.145.146.29.22.51.075.22.075.366.075.657 0 .291 0 .511-.075.657-.074.22-.074.365-.145.51a1.68 1.68 0 0 1-.511.512c-.22.074-.44.145-.728.145-.22 0-.511-.074-.657-.145-.22-.074-.365-.22-.51-.44-.22-.291-.292-.656-.292-1.165 0-.145 0-.365.074-.51 0-.146.074-.292.146-.44.145-.22.291-.44.51-.585.14-.217.435-.292.726-.292zm0 .731c-.146 0-.22 0-.365.074-.074.074-.22.146-.22.292-.074.074-.074.22-.074.29v.729c0 .074.074.22.074.291.074.146.146.22.22.291.074.074.22.074.365.074a.57.57 0 0 0 .365-.145.405.405 0 0 0 .22-.366l.074-.22v-.365c0-.291 0-.44-.074-.585a.987.987 0 0 0-.22-.291c-.145-.069-.22-.069-.365-.069zM79.13 24.805v-2.041c0-.22-.075-.366-.146-.511-.075-.146-.292-.146-.511-.146-.22 0-.366.074-.44.146a.663.663 0 0 0-.22.51v2.042h-.802V21.45h.802v.365c.074-.146.22-.22.44-.291.145-.074.291-.074.51-.074.366 0 .657.074.803.29.22.22.291.512.291.874v2.187l-.728.003zM81.681 24.805c-.145 0-.22 0-.365-.074-.146 0-.22-.074-.291-.146-.074-.074-.146-.145-.22-.291-.074-.146-.074-.291-.074-.44v-4.082h.802v3.937c0 .145 0 .22.074.291.074.074.146.074.22.074h.146v.728c0 .003-.292.003-.292.003zM82.63 20.797v-.728h.801v.728h-.802zm0 4.008V21.45h.801v3.354h-.802zM86.346 24.805v-2.041c0-.22-.074-.366-.145-.511-.075-.146-.292-.146-.511-.146-.22 0-.366.074-.44.146a.663.663 0 0 0-.22.51v2.042h-.8V21.45h.803v.365c.146-.146.22-.22.44-.291.145-.074.29-.074.51-.074.366 0 .657.074.803.29.22.22.29.512.29.874v2.187l-.73.003zM88.604 23.346c0 .074 0 .22.075.291 0 .075.074.22.145.292.074.074.146.145.22.145.074.074.22.074.291.074.074 0 .22 0 .366-.074l.44-.22c.073.075.145.146.219.292.074.074.145.145.22.29-.22.146-.366.292-.657.366-.22.074-.44.074-.657.074-.145 0-.365 0-.51-.074-.146-.074-.366-.145-.511-.291-.146-.146-.292-.291-.366-.511a2.692 2.692 0 0 1-.145-.874c0-.29.074-.585.145-.802.074-.22.22-.365.366-.51.145-.146.29-.22.51-.292.146-.074.366-.074.511-.074.22 0 .44.074.586.145.145.075.365.22.44.292.145.145.219.29.29.51.075.22.075.44.075.657v.291c-.009.003-2.053.003-2.053.003zm.66-1.239c-.146 0-.291.074-.44.22a.663.663 0 0 0-.22.51h1.314c0-.219-.075-.439-.22-.51-.143-.146-.289-.22-.434-.22zM96.041 23.055c0 .22 0 .44-.074.585 0 .22-.074.44-.146.585-.074.146-.22.291-.365.44-.146.145-.365.145-.657.145-.145 0-.29 0-.44-.074-.145-.074-.29-.145-.364-.29v.364h-.803v-4.958h.803v1.895c.145-.145.22-.22.365-.291.145-.074.291-.074.44-.074.22 0 .439.074.585.145a.9.9 0 0 1 .365.366c.074.145.146.365.146.51.071.287.145.506.145.652zm-.8.071v-.365c0-.146-.073-.22-.073-.291-.075-.074-.075-.146-.22-.22-.074-.074-.22-.074-.366-.074-.145 0-.22 0-.365.074l-.22.22c-.074.074-.074.22-.074.291v.728l.074.365c.074.075.074.22.22.292.074.074.22.074.365.074.146 0 .292 0 .366-.074l.22-.22c.074-.074.074-.22.074-.366v-.434zM98.157 22.107c-.22 0-.366.074-.44.146-.146.145-.146.291-.146.51v2.042h-.802V21.45h.728v.44c.22-.292.511-.44.802-.44.146 0 .22 0 .366.074.074 0 .22.074.291.145l-.291.728c-.074-.074-.22-.074-.291-.145.002-.072-.072-.146-.217-.146zM100.709 21.376c.22 0 .51.075.656.146.22.074.366.22.511.44.075.145.146.29.22.51.074.22.074.366.074.657 0 .291 0 .511-.074.657-.074.22-.074.365-.145.51a1.68 1.68 0 0 1-.511.512c-.22.074-.44.145-.728.145-.22 0-.511-.074-.657-.145-.22-.074-.365-.22-.511-.44-.22-.291-.291-.656-.291-1.165 0-.145 0-.365.074-.51 0-.146.074-.292.146-.44.145-.22.29-.44.51-.585.14-.217.36-.292.726-.292zm-.074.731c-.146 0-.22 0-.366.074-.074.074-.22.146-.22.292-.074.074-.074.22-.074.29v.729c0 .074.074.22.074.291.075.146.146.22.22.291.074.074.22.074.366.074a.57.57 0 0 0 .365-.145.405.405 0 0 0 .22-.366l.074-.22v-.365c0-.291 0-.44-.074-.585a.987.987 0 0 0-.22-.291c-.074-.069-.22-.069-.365-.069zM105.082 24.805c-.145-.22-.365-.511-.51-.728-.146-.217-.292-.511-.512-.728-.074.074-.145.146-.22.291-.074.074-.145.146-.22.291v.874h-.801v-4.959h.802v2.99l.656-.729.586-.656h.947l-1.239 1.313c.22.365.44.656.728 1.019.22.365.44.657.728 1.02 0 .002-.945.002-.945.002zM106.978 23.346c0 .074 0 .22.074.291 0 .075.074.22.146.292.074.074.145.145.22.145.074.074.22.074.29.074.075 0 .22 0 .366-.074l.44-.22c.074.075.145.146.22.292.074.074.145.145.22.29-.22.146-.366.292-.657.366-.22.074-.44.074-.657.074-.145 0-.365 0-.51-.074-.146-.074-.366-.145-.512-.291-.145-.146-.291-.291-.365-.511a2.692 2.692 0 0 1-.146-.874c0-.29.074-.585.146-.802.074-.22.22-.365.365-.51.146-.146.291-.22.511-.292.146-.074.366-.074.511-.074.22 0 .44.074.585.145.146.075.366.22.44.292.145.145.22.29.291.51.071.22.074.44.074.657v.291l-2.052.003zm.728-1.239c-.146 0-.291.074-.44.22a.663.663 0 0 0-.22.51h1.314c0-.219-.074-.439-.22-.51-.143-.146-.288-.22-.434-.22zM111.28 22.107c-.22 0-.365.074-.44.146-.145.145-.145.291-.145.51v2.042h-.802V21.45h.728v.44c.22-.292.51-.44.802-.44.146 0 .22 0 .365.074.075 0 .22.074.292.145l-.292.728c-.074-.074-.22-.074-.29-.145 0-.072-.146-.146-.218-.146z"/>
    </g>
</svg>
