<svg xmlns="http://www.w3.org/2000/svg" width="73" height="40" viewBox="0 0 73 40">
    <g fill="#FFF" fill-rule="nonzero">
        <path d="M49.883 11.266L64.774.002h-7.398L46.185 8.577l-2.962-1.945h-7.03l6.389 4.731-4.949 4.18c-2.522 2.14-6.057 5.126-11.293 5.126-2.065 0-4.992-.467-6.625-2.27L43.855.003H29.251c-8.936 0-13.498 5.164-13.498 11.556 0 1.32.287 2.976.624 3.745L6.362 22.727h7.663l4.637-3.509c1.68 2.09 5.26 4.035 9.053 4.053 6.245.052 11.88-4.102 13.885-5.688l4.54-3.603 11.843 8.744h8.282L49.883 11.266zm-32.427 3.22c-.145-.359-.287-1.704-.287-2.496 0-4.275 3.003-7.975 10.878-7.975h4.133s-.932.407-2.979 1.92-11.745 8.552-11.745 8.552zM17.798 32.36l2.15-3.054h3.38l-3.85 5.096 4.02 5.33H20.03l-2.297-3.248-2.297 3.249h-3.381l4-5.291-3.85-5.134h3.468l2.125 3.052zm35.016 6.25l.816-2.285c1.154.821 2.85 1.353 3.846 1.353.876 0 1.273-.315 1.273-.784v-.038c0-.646-1.036-.861-2.21-1.213-1.495-.432-3.186-1.119-3.186-3.156v-.04c0-2.135 1.753-3.33 3.905-3.33 1.354 0 2.557.279 3.713 1.045l-.619 2.228c-1.056-.61-2.377-.982-3.153-.982-.737 0-1.114.315-1.114.727v.04c0 .589 1.016.861 2.17 1.253 1.495.49 3.228 1.196 3.228 3.116v.04c0 2.332-1.773 3.389-4.082 3.389-1.5-.005-3.174-.268-4.587-1.364zm10.816 0l.817-2.285c1.156.821 2.849 1.353 3.845 1.353.877 0 1.274-.315 1.274-.784v-.038c0-.646-1.037-.861-2.21-1.213-1.496-.432-3.186-1.116-3.186-3.156v-.04c0-2.135 1.753-3.33 3.905-3.33 1.353 0 2.557.279 3.713 1.045l-.62 2.228c-1.056-.61-2.376-.982-3.153-.982-.737 0-1.116.315-1.116.727v.04c0 .589 1.016.861 2.17 1.253 1.495.49 3.228 1.196 3.228 3.116v.04c0 2.332-1.773 3.389-4.082 3.389-1.498-.005-3.171-.268-4.585-1.364zM26.3 29.297h3.116v1.69c.611-.67 1.603-1.86 3.4-1.86 2.268 0 3.611 1.214 3.611 4.482v6.12h-3.004v-5.875c0-1.27-.599-2.03-1.5-2.03-1.052 0-1.955.64-2.51 1.354v6.549h-3.116v-10.43h.003zm-15.886 7.708c-.307.757-1.31 2.992-4.876 2.992-1.653 0-2.904-.472-3.92-1.441C.484 37.496.012 36.172.012 34.564c0-2.03.827-3.28 1.559-4.012 1.203-1.181 2.621-1.44 3.85-1.44 2.08 0 3.283.826 3.992 1.675 1.086 1.298 1.229 2.903 1.229 4.014v.238h-7.65c0 .614.167 1.273.496 1.725.307.427.944.969 2.055.969 1.086 0 1.913-.52 2.385-1.346l2.486.62zm-2.491-3.81c-.238-1.393-1.369-2.055-2.432-2.055-1.062 0-2.173.684-2.41 2.055h4.842zm41.987 3.81c-.307.757-1.31 2.992-4.876 2.992-1.653 0-2.904-.472-3.92-1.441-1.134-1.061-1.606-2.385-1.606-3.993 0-2.03.827-3.28 1.558-4.012 1.204-1.181 2.622-1.44 3.85-1.44 2.08 0 3.284.826 3.993 1.675 1.086 1.298 1.228 2.903 1.228 4.014v.238h-7.65c0 .614.167 1.273.497 1.725.307.427.944.969 2.055.969 1.086 0 1.912-.52 2.384-1.346l2.487.62zm-2.492-3.81c-.237-1.393-1.368-2.055-2.432-2.055-1.06 0-2.172.684-2.41 2.055h4.842z"/>
    </g>
</svg>
