<svg xmlns="http://www.w3.org/2000/svg" width="149" height="30" viewBox="0 0 149 30">
    <g fill="#FFF" fill-rule="nonzero">
        <path d="M75.311 6.92v16.079h-5.016V6.919h5.016zM79.627 6.92h9.648c2.823 0 4.783.548 5.883 1.645.941.94 1.412 2.43 1.412 4.55v9.887h-5.017V12.57c0-1.571-.785-2.275-2.586-2.275H84.57v12.63h-5.017l.074-16.005zM113.282 13.192v-.315c0-1.963-.941-2.586-3.842-2.586h-8.473V6.92h9.962c2.042 0 3.53.315 4.55.863 1.882 1.019 2.823 3.138 2.823 6.198v9.021h-11.689c-2.197 0-3.842-.314-4.942-.863-1.334-.785-2.041-2.041-2.041-3.842 0-3.297 2.119-5.016 6.746-5.016h6.899l.007-.089zm0 3.453h-6.591c-1.256 0-1.882.47-1.882 1.49 0 1.018.785 1.411 2.667 1.411h5.802l.004-2.901zM122.459 6.92h18.435c2.982 0 5.098.548 6.198 1.645.941.863 1.49 2.275 1.49 4.16v10.277h-5.02V13.43c0-2.352-.708-3.138-2.983-3.138h-2.667v12.63h-5.017V10.373h-5.413v12.63h-5.016l-.007-16.083zM54.446 10.373h11.296V6.92H54.134c-2.823 0-4.783.548-5.883 1.645-.94.94-1.411 2.43-1.411 4.55v9.887h5.016v-5.805h13.882v-3.453H51.856V12.57c.004-1.575.786-2.197 2.59-2.197zM4.638 23.47l1.57 1.333 1.571 1.334s.234-1.02.942-2.353l-3.216-2.586c-.634 1.252-.867 2.271-.867 2.271zM5.735 20.805l3.215 2.59a9.843 9.843 0 0 1 1.334-1.963l-3.216-2.668a14.885 14.885 0 0 0-1.333 2.041zM7.383 18.453l3.216 2.586c.47-.548 1.1-1.175 1.726-1.645L9.11 16.808c-.708.467-1.26 1.093-1.727 1.645zM19.776 10.528l3.216 2.59c.548-.548 1.019-1.1 1.57-1.808l-3.215-2.586a9.023 9.023 0 0 1-1.571 1.804zM12.166 15.156l3.216 2.586c.785-.315 1.57-.626 2.43-1.1l-3.137-2.505c-.864.392-1.723.707-2.509 1.019zM9.732 16.412c-.078.077-.155.155-.233.155l3.216 2.586c.077-.078.155-.155.233-.155.548-.39 1.256-.708 2.041-1.02l-3.215-2.585c-.786.311-1.493.626-2.042 1.019zM24.403 3.393l3.216 2.586c.315-.708.626-1.49.863-2.353L25.267 1.04c-.315.86-.63 1.642-.864 2.353zM23.147 6.057l3.216 2.586c.39-.708.708-1.412 1.1-2.197L24.248 3.86c-.397.785-.786 1.49-1.1 2.197zM15.067 13.9l3.216 2.586c.708-.39 1.49-.786 2.197-1.256l-3.216-2.583c-.782.47-1.493.938-2.197 1.253zM17.657 12.41l3.216 2.586c.626-.47 1.256-.94 1.882-1.57l-3.216-2.586c-.626.63-1.256 1.1-1.882 1.57zM21.654 8.41l3.216 2.585c.47-.626.863-1.256 1.334-2.041l-3.216-2.586c-.467.785-.937 1.415-1.334 2.041zM.007 19.627l1.57 1.334 1.572 1.334s.233-1.02.94-2.353L.87 17.35c-.626 1.337-.863 2.278-.863 2.278zM1.104 16.96l3.216 2.586a9.843 9.843 0 0 1 1.333-1.963l-3.219-2.668c-.545.711-.934 1.419-1.33 2.045zM2.752 14.607l3.138 2.668c.47-.549 1.1-1.175 1.727-1.645l-3.22-2.59c-.548.467-1.174 1.019-1.645 1.567zM15.149 6.764l3.215 2.586c.549-.548 1.02-1.1 1.571-1.808L16.72 4.956c-.47.63-1.022 1.256-1.57 1.808zM7.617 11.392l3.216 2.586c.785-.315 1.57-.627 2.43-1.1l-3.216-2.587c-.863.396-1.723.786-2.43 1.1zM5.105 12.57c-.078.077-.156.155-.234.155l3.216 2.586c.078-.078.156-.155.234-.155.548-.39 1.256-.708 2.041-1.02l-3.216-2.585c-.785.311-1.493.626-2.041 1.019zM18.52 2.215L21.736 4.8c.389-.708.707-1.412 1.1-2.197L19.54.018c-.315.782-.626 1.49-1.019 2.197zM10.44 10.054l3.216 2.59c.707-.39 1.489-.786 2.197-1.256l-3.216-2.59c-.708.552-1.493.945-2.197 1.256zM13.03 8.565l3.215 2.586c.626-.47 1.256-.941 1.882-1.57l-3.215-2.583c-.627.626-1.256 1.1-1.883 1.567zM17.027 4.645l3.216 2.586c.47-.626.863-1.256 1.334-2.041L18.36 2.607c-.467.704-.938 1.408-1.334 2.038zM9.265 27.315l1.571 1.334 1.57 1.333s.234-1.019.942-2.352l-3.138-2.668c-.711 1.334-.945 2.353-.945 2.353zM10.362 24.57l3.216 2.586a9.843 9.843 0 0 1 1.334-1.964l-3.216-2.586c-.552.63-.941 1.337-1.334 1.964zM12.01 22.295l3.216 2.586c.47-.548 1.1-1.175 1.727-1.645l-3.216-2.586a6.79 6.79 0 0 0-1.726 1.645zM24.403 14.374l3.216 2.586c.548-.548 1.019-1.1 1.57-1.808l-3.215-2.586c-.47.708-1.022 1.26-1.57 1.808zM16.794 19.001l3.215 2.586c.786-.315 1.571-.626 2.43-1.1l-3.215-2.586c-.782.47-1.645.785-2.43 1.1zM14.363 20.176c-.078.078-.155.155-.233.155l3.216 2.59c.077-.078.155-.156.233-.156.548-.389 1.256-.707 2.041-1.019l-3.216-2.586c-.788.39-1.492.7-2.04 1.016zM19.695 17.745l3.215 2.586c.708-.389 1.49-.785 2.197-1.256l-3.215-2.586c-.782.47-1.49.864-2.197 1.256zM22.284 16.175L25.5 18.76c.626-.47 1.256-.941 1.882-1.571l-3.216-2.586c-.626.63-1.252 1.178-1.882 1.57zM26.282 12.251l3.216 2.586c.47-.626.863-1.256 1.333-2.041l-3.297-2.586c-.385.785-.856 1.419-1.252 2.041z"/>
    </g>
</svg>
