<svg xmlns="http://www.w3.org/2000/svg" width="134" height="30" viewBox="0 0 134 30">
    <g fill="none" fill-rule="nonzero">
        <path fill="#FFF" d="M8.26 5.767a11.146 11.146 0 0 0-.923 8.252h.215a7.52 7.52 0 0 1 6.47-6.47V.696A11.175 11.175 0 0 0 8.26 5.767z"/>
        <path fill="#FFF" d="M7.828 5.533A11.584 11.584 0 0 1 14.022.17V.005C6.503.488.49 6.501.008 14.02H6.83c-.76-2.845-.409-5.882.997-8.486z"/>
        <path fill="#1AB2A3" d="M8.26 5.767a11.139 11.139 0 0 1 5.762-5.07V.17a11.553 11.553 0 0 0-6.194 5.363 11.562 11.562 0 0 0-1 8.486h.51a11.157 11.157 0 0 1 .922-8.252z"/>
        <path fill="#FFF" d="M24.236 8.258a11.146 11.146 0 0 0-8.253-.923v.215a7.515 7.515 0 0 1 6.47 6.47h6.855a11.165 11.165 0 0 0-5.072-5.762z"/>
        <path fill="#FFF" d="M24.47 7.828a11.577 11.577 0 0 1 5.362 6.191h.165C29.512 6.5 23.5.488 15.981.003v6.823a11.581 11.581 0 0 1 8.488 1.002z"/>
        <path fill="#1AB2A3" d="M24.236 8.258a11.139 11.139 0 0 1 5.07 5.761h.526a11.578 11.578 0 0 0-5.363-6.191 11.562 11.562 0 0 0-8.486-1v.51a11.133 11.133 0 0 1 8.253.92z"/>
        <path fill="#FFF" d="M5.77 21.742a11.146 11.146 0 0 0 8.252.923v-.215a7.515 7.515 0 0 1-6.47-6.47H.7a11.149 11.149 0 0 0 5.07 5.762z"/>
        <path fill="#FFF" d="M5.536 22.172a11.577 11.577 0 0 1-5.363-6.191H.008c.485 7.52 6.498 13.531 14.016 14.016v-6.823a11.581 11.581 0 0 1-8.488-1.002z"/>
        <path fill="#1AB2A3" d="M5.77 21.742A11.139 11.139 0 0 1 .7 15.981H.173a11.578 11.578 0 0 0 5.363 6.191 11.562 11.562 0 0 0 8.486 1v-.51c-2.748.769-5.735.441-8.253-.92z"/>
        <path fill="#FFF" d="M22.862 15.98c.608 5.41-2.077 11.631-6.879 13.792v.225C23.504 29.512 29.515 23.5 30 15.981h-7.138z"/>
        <path fill="#FFF" d="M15.983 29.232c2.022-.973 3.748-2.77 4.933-5.153 1.246-2.505 1.765-5.431 1.453-8.098h-6.383v13.25h-.003z"/>
        <path fill="#1AB2A3" d="M22.862 15.98h-.493c.312 2.668-.207 5.594-1.453 8.099-1.185 2.383-2.91 4.177-4.933 5.153v.54c4.802-2.164 7.49-8.381 6.879-13.791z"/>
        <path fill="#FFF" d="M69.058 13.327c-1.117 0-2.14.443-3.063 1.156l-.289-.925h-.343c-1.186 0-2.143.96-2.143 2.142v6.973h.769c1.185 0 2.142-.96 2.142-2.142v-4.026c.54-.425 1.251-.674 1.849-.674 1.078 0 1.235.81 1.235 1.755v5.09h.768c1.186 0 2.143-.96 2.143-2.143V16.72c-.003-2.816-1.602-3.393-3.068-3.393zm-16.579 0c-1.02 0-1.754.52-2.468 1.156l-.31-.925h-.322c-1.185 0-2.142.96-2.142 2.142v6.973h.768c1.186 0 2.143-.96 2.143-2.142v-4.12c.637-.483 1.04-.616 1.581-.616.23 0 .713.057 1.235.385l1.02-2.389c-.464-.333-1.043-.464-1.505-.464zm-9.422 4.828v1.993c-.443.173-1.099.27-1.812.27-2.526 0-3.913-1.618-3.913-3.991 0-2.45 1.466-4.144 4.356-4.144.95 0 1.788.173 2.565.443l.986-2.31c-1.104-.357-2.303-.58-3.782-.58-4.413 0-7.266 2.911-7.266 6.748 0 3.585 2.467 6.283 6.902 6.283 1.775 0 3.545-.385 4.917-1.06v-5.795h-.805c-1.191 0-2.148.96-2.148 2.143zm36.084-7.27v2.497a10.45 10.45 0 0 0-1.02-.058c-3.105 0-5.206 2.025-5.206 4.86 0 2.968 2.295 4.686 5.494 4.686 1.078 0 2.583-.194 3.643-.714V8.743h-.769c-1.185 0-2.142.96-2.142 2.142zm0 9.514c-.252.08-.638.095-.847.095-1.33 0-2.41-.81-2.41-2.352 0-1.542.925-2.45 2.389-2.45.367 0 .598.021.868.058v4.65zm-21.126-7.072c-1.4 0-2.602.328-3.656.84l.803 1.877c.655-.346 1.542-.559 2.313-.559.983 0 1.6.346 1.6 1.193v.095l-1.446.057c-.925.037-1.754.213-2.41.562-.944.5-1.523 1.253-1.523 2.486 0 1.754 1.308 2.99 3.105 2.99 1.135 0 1.927-.426 2.543-.963l.404.77h.443c.99 0 1.792-.802 1.792-1.79v-4.086c.005-2.221-1.152-3.472-3.968-3.472zm1.062 6.975c-.212.137-.695.328-1.33.328-.695 0-1.135-.31-1.135-.944 0-.385.136-.616.404-.79.251-.154.616-.23 1.078-.25l.983-.038v1.694zM114.115 9.51c-.637 0-1.077.482-1.077 1.078 0 .616.443 1.098 1.077 1.098.635 0 1.118-.482 1.118-1.098.002-.617-.462-1.078-1.118-1.078zm4.891 11.95c-.598 0-.926-.346-.926-1.157v-5.378h1.33c.564 0 1.067-.36 1.248-.897l.16-.475h-2.738v-2.617l-.202.066a2.146 2.146 0 0 0-1.494 2.043v7.589c0 1.426.828 2.237 2.237 2.237.904 0 1.812-.289 2.41-.714l-.559-1.177c-.367.228-.889.48-1.466.48zm9.79-4.954c0-2.197-1.31-3.18-3.373-3.18-1.054 0-2.182.259-3.22.862l.519 1.22c.656-.386 1.445-.714 2.486-.714 1.099 0 1.89.559 1.89 1.849v.482l-1.696.058c-.926.037-1.66.155-2.294.462-.926.446-1.542 1.253-1.542 2.467 0 1.755 1.253 2.854 2.931 2.854 1.138 0 2.025-.52 2.717-1.178l.289.983a1.32 1.32 0 0 0 1.316-1.374 38.516 38.516 0 0 1-.024-1.481v-3.31zm-1.697 3.934c-.404.404-1.157 1.04-2.216 1.04-.963 0-1.581-.615-1.581-1.56 0-.558.23-1.02.713-1.292.385-.194.868-.31 1.6-.328l1.484-.058v2.198zm5.97.752a2.068 2.068 0 0 1-.576.116c-.462 0-.674-.213-.674-.905V8.932c-.936 0-1.697.76-1.697 1.696v10.254c0 1.214.617 1.91 1.891 1.91.443 0 .984-.095 1.408-.271l-.351-1.33zm-41.627.21c-2.795 0-4.55-2.043-4.55-5.011 0-2.775 1.776-5.07 4.666-5.07 1.03 0 1.867.218 2.633.554l.53-1.332v-.01c-.675-.368-1.834-.674-3.2-.674-3.855 0-6.438 2.931-6.438 6.613 0 3.721 2.274 6.399 6.168 6.399 1.193 0 2.45-.252 3.721-.926l-.482-1.369c-.89.48-1.855.826-3.048.826zm21.826-6.147v7.422c.937 0 1.697-.76 1.697-1.697v-7.421c-.939 0-1.697.758-1.697 1.696zm-10.282 1.251c0-2.197-1.309-3.18-3.372-3.18-1.055 0-2.182.259-3.22.862l.519 1.22c.655-.386 1.445-.714 2.486-.714 1.098 0 1.89.559 1.89 1.849v.482l-1.696.058c-.926.037-1.66.155-2.295.462-.926.446-1.542 1.253-1.542 2.467 0 1.755 1.254 2.854 2.932 2.854 1.138 0 2.024-.52 2.717-1.178l.288.983a1.32 1.32 0 0 0 1.317-1.374 38.516 38.516 0 0 1-.024-1.481v-3.31zm-1.697 3.934c-.404.404-1.156 1.04-2.216 1.04-.962 0-1.58-.615-1.58-1.56 0-.558.23-1.02.712-1.292.386-.194.868-.31 1.6-.328l1.484-.058v2.198zm6.166-7.112a9.564 9.564 0 0 0-3.142.558v13.923c.936 0 1.697-.76 1.697-1.697v-3.532c.443.173.983.288 1.542.288 2.698 0 4.644-1.89 4.644-4.801 0-2.969-1.715-4.74-4.741-4.74zm.018 8.095c-.559 0-.983-.094-1.466-.328v-6.13a4.69 4.69 0 0 1 1.387-.213c1.776 0 3.047 1.041 3.047 3.296 0 2.043-1.022 3.375-2.968 3.375z"/>
    </g>
</svg>
