<svg xmlns="http://www.w3.org/2000/svg" width="154" height="30" viewBox="0 0 154 30">
    <g fill="#FFF" fill-rule="nonzero">
        <path d="M45.19 7.872h4.156l3.387 5.492 3.387-5.492h4.155v14.19h-3.91v-8.148l-3.62 5.556h-.082l-3.595-5.516v8.107h-3.871zM65.574 11.317h-4.258V7.872h12.447v3.445h-4.258V22.06h-3.934V11.317h.003zM74.8 7.872h6.708c1.095 0 2.02.136 2.78.408.755.266 1.366.65 1.841 1.134.838.814 1.255 1.915 1.255 3.306v.042c0 1.092-.263 2.002-.79 2.716-.525.72-1.236 1.264-2.128 1.645l3.387 4.948H83.31l-2.857-4.3h-1.727v4.3h-3.932V7.872h.006zm6.53 6.81c.674 0 1.197-.154 1.563-.456.363-.303.548-.714.548-1.228v-.042c0-.569-.191-.99-.572-1.267-.378-.276-.898-.415-1.564-.415H78.73v3.405l2.6.003zM94.446 7.77h3.789l6.042 14.29h-4.219l-1.034-2.535H93.55l-1.013 2.534h-4.134L94.446 7.77zm3.444 8.719l-1.582-4.037-1.602 4.037h3.184zm7.264-8.616h5.471c1.27 0 2.401.175 3.4.517.991.348 1.829.829 2.515 1.449a6.277 6.277 0 0 1 1.564 2.22c.357.858.535 1.802.535 2.83v.042c0 1.029-.181 1.975-.547 2.85a6.438 6.438 0 0 1-1.579 2.258c-.692.635-1.536 1.131-2.546 1.488-1.01.357-2.144.535-3.415.535h-5.392V7.875l-.006-.003zm5.54 10.703c1.177 0 2.13-.312 2.846-.932.72-.62 1.08-1.506 1.08-2.655v-.042c0-1.135-.36-2.018-1.08-2.64-.72-.63-1.669-.944-2.845-.944h-1.61v7.216h1.61v-.003zm9.115-10.703h3.953v14.19h-3.953V7.871zm5.23 0h3.677l5.852 7.503V7.872h3.87v14.19h-3.453l-6.076-7.785v7.784h-3.874l.003-14.189zm22.115 14.474c-1.11 0-2.132-.179-3.072-.536a7.234 7.234 0 0 1-2.44-1.509 6.888 6.888 0 0 1-1.622-2.32c-.39-.897-.587-1.886-.587-2.969v-.042c0-1.028.191-1.99.575-2.891a7.367 7.367 0 0 1 1.585-2.353c.671-.672 1.479-1.192 2.413-1.57a8.087 8.087 0 0 1 3.048-.568c1.255 0 2.341.181 3.254.547a8.918 8.918 0 0 1 2.505 1.521l-2.311 2.78a6.376 6.376 0 0 0-1.567-.995c-.532-.23-1.152-.345-1.853-.345-.514 0-.992.1-1.428.305-.438.203-.822.481-1.146.832a4.043 4.043 0 0 0-1.058 2.758v.042c0 .569.096 1.092.284 1.582.187.487.457.901.804 1.246.345.348.75.614 1.222.813.466.197.986.297 1.555.297.922 0 1.681-.197 2.28-.587V16.66h-2.8v-2.879h6.532v6.387c-.76.623-1.649 1.143-2.677 1.564-1.034.402-2.198.614-3.496.614zM0 9.78v10.437l9.04 5.216V15zM27.115 15v10.433l9.036-5.216V9.78z"/>
        <path d="M18.076 20.22l.003-10.437-9.04 5.22 9.037 5.217zm0-10.44l.003 10.437L27.115 15l-9.04-5.22zM0 9.78L9.04 15l9.033-5.22-9.034-5.213L1.35.127V.13A.937.937 0 0 0 .91.015.907.907 0 0 0 .006.92L0 9.78zM36.151 9.78L27.115 15l-9.033-5.22 9.033-5.213 7.687-4.44V.13a.937.937 0 0 1 .439-.115c.496 0 .904.405.904.904l.006 8.861zM0 20.217l9.04 5.216-7.688 4.437v-.003a.937.937 0 0 1-.439.115.907.907 0 0 1-.904-.904L0 20.217zM36.148 29.08a.909.909 0 0 1-.904.905.894.894 0 0 1-.439-.115v.003l-7.687-4.437 9.04-5.216-.01 8.86z"/>
    </g>
</svg>
