<svg xmlns="http://www.w3.org/2000/svg" width="161" height="14" viewBox="0 0 161 14">
    <g fill="#FFF" fill-rule="nonzero">
        <path d="M151.624.569l-4.38 3.286L142.863.57h-8.624l13.007 9.755L160.252.57z"/>
        <path d="M147.245 5.086l-13.007 8.342h8.624l4.383-2.81 4.38 2.81h8.627zM133.003 3.928V.479H111.91v13.038h6.328V9.731h11.507V6.279h-11.507V3.928h14.765zM16.328.479v6.9L6.662.48H.024v13.038h6.328v-6.9l9.662 6.9h6.638V.48h-6.324zm81.91 4.635C97.479.966 95.869.669 88.252.479H76.117v13.038h12.135c7.617-.186 9.22-.486 9.986-4.634.141-.766.141-3.004 0-3.77zm-6.228 2.9c-.362 2.238-1.127 1.927-4.751 2.024h-4.814V3.955h4.81c3.624.1 4.386-.21 4.752 2.024.069.418.069 1.621.003 2.035zM48.055 4.976C47.297.524 45.686.203 38.07.003h-2.641c-7.618.204-9.221.525-9.987 4.973-.141.82-.141 3.224 0 4.045.759 4.451 2.37 4.772 9.987 4.972h2.644c7.618-.203 9.221-.52 9.987-4.972.134-.821.134-3.224-.004-4.045zm-6.23 3.114c-.363 2.4-1.128 2.065-4.753 2.172h-.644c-3.625-.107-4.387.224-4.752-2.172-.07-.442-.07-1.738 0-2.183.362-2.4 1.127-2.066 4.752-2.176h.644c3.625.107 4.387-.224 4.752 2.176.066.445.066 1.741 0 2.183zm31.75-2.721c0-3.262-1.63-4.89-6.52-4.89H50.852v13.038h6.327v-3.069h6.076l2.193 3.073h6.359l-2.441-3.418c3.103-.479 4.21-2.055 4.21-4.734zM64.984 7h-7.81V3.928h7.81c1.8 0 2.069.686 2.069 1.534.003.852-.266 1.538-2.07 1.538z"/>
    </g>
</svg>
