<svg xmlns="http://www.w3.org/2000/svg" width="159" height="30" viewBox="0 0 159 30">
    <g fill="#FFF" fill-rule="nonzero">
        <path d="M.022.022h21.546c1.403.103 2.803.312 4.15.83 1.142.52 2.286 1.35 3.01 2.491.52.83.78 1.868.78 2.91v6.071c0 .365 0 .78-.157 1.142-.414 1.191-1.141 2.335-2.18 3.112-1.247 1.038-2.856 1.56-4.462 1.765-.52.103-.883 0-1.35 0h-8.46V12.48h11.525V6.256H6.511v23.672H.021V.022zM66.558 4.173V18.71c.081.998.334 1.993.83 2.822a4.605 4.605 0 0 0 2.41 1.744c.958.333 1.993.414 2.991.414 1.038-.124 2.161-.29 3.031-.913.749-.415 1.248-1.248 1.538-1.993.333-.83.414-1.828.414-2.741v-3.318c0-.998-.209-1.953-.623-2.823-.5-.957-1.372-1.662-2.367-2.077-1.163-.333-2.492-.414-3.615-.124-.913.209-1.662.664-2.367 1.247V4.26h-2.245v-.086h.003zm5.732 7.316c.58 0 1.247.124 1.784.414.624.29 1.038.83 1.247 1.494.21.664.247 1.329.247 1.993l-.082 3.112c0 .83-.208 1.828-.829 2.492-.664.623-1.662.83-2.492.83-.913 0-1.868-.21-2.491-.83-.665-.664-.83-1.575-.914-2.492v-2.7c0-.665 0-1.373.125-2.077a2.724 2.724 0 0 1 1.082-1.663c.414-.333.998-.499 1.575-.58h.623l.125.007zM36.989 5.963v17.441h2.245v-7.6h2.326l4.987 7.6h2.822l-5.398-7.808c.83-.247 1.784-.537 2.576-1.082a3.714 3.714 0 0 0 1.537-2.411c.21-1.039.21-2.077-.125-3.112-.29-.958-.997-1.744-1.827-2.202-1.163-.624-2.492-.83-3.74-.83l-5.403.004zm4.69 1.911c.957 0 1.908 0 2.781.415.624.209 1.164.708 1.373 1.328a3.804 3.804 0 0 1 0 2.162c-.081.748-.624 1.372-1.248 1.662-1.038.415-2.16.415-3.237.415h-2.077V7.912h2.41l-.002-.038zM96.069 5.99h9.346V7.81h-7.06v5.71h7.06v1.868h-7.06v7.996h-2.286V5.99zm31.253 3.69c.521-.103 1.142-.103 1.715-.103v1.868c-.882 0-1.765.103-2.597.52-.26.157-.521.366-.674.674-.52.674-.52 1.56-.624 2.39v8.304h-2.232V15.18c0-1.35.258-2.754 1.038-3.842.83-1.039 2.074-1.556 3.374-1.66zM56.757 9.574c-1.082.08-2.202.333-3.113 1.038-.829.665-1.412 1.744-1.662 2.823-.209.957-.124 1.908-.124 2.822v2.16c0 1.248.29 2.411.998 3.322a4.026 4.026 0 0 0 2.491 1.662c1.248.334 2.41.415 3.615.166 1.038-.166 2.076-.58 2.91-1.373.707-.83 1.038-1.868 1.162-2.91.081-.623 0-1.162 0-1.742v-2.816c0-1.329-.414-2.742-1.328-3.74-.914-.829-2.202-1.247-3.406-1.328h-1.412l-.131-.084zm.748 1.87c.58 0 1.163.126 1.662.416.83.333 1.248 1.082 1.454 1.868.08.536.08 1.122.124 1.662v2.741c0 .914-.209 1.909-.83 2.657-.623.708-1.661.957-2.49.914-.915 0-1.91-.166-2.493-.83-.707-.664-.913-1.662-.957-2.492v-2.74c0-.958 0-2.078.58-2.91.415-.665 1.12-1.082 1.868-1.248h.998l.084-.037zm29.115-1.87h-.624c-1.12.125-2.367.536-3.197 1.372-.664.664-1.038 1.494-1.247 2.367-.246.914-.165 1.827-.209 2.741v2.492c.081.998.246 1.908.708 2.74.29.537.748 1.04 1.247 1.414.708.499 1.494.748 2.327.83a9.323 9.323 0 0 0 3.03 0c1.12-.21 2.246-.75 2.91-1.663.83-1.082.998-2.41 1.039-3.74v-3.033c0-.83-.081-1.663-.415-2.367-.165-.749-.58-1.413-1.12-1.953-.997-.957-2.491-1.247-3.738-1.247h-.624l-.087.047zm.08 1.915c.5 0 .999 0 1.494.124a2.29 2.29 0 0 1 1.575 1.123c.415.708.58 1.575.58 2.41v2.91c0 .958-.165 1.909-.83 2.657-.414.58-1.247.83-2.076.914-.749 0-1.662 0-2.327-.415-.664-.29-1.082-.914-1.247-1.662-.334-.83-.246-1.868-.29-2.822l.081-2.077c0-.749.209-1.575.749-2.246.414-.58 1.163-.83 1.868-.957h.498l-.074.04zm26.586-1.915a5.865 5.865 0 0 0-3.49 1.163c-.957.83-1.453 2.077-1.662 3.321v4.987c.165 1.328.708 2.7 1.743 3.49 1.248.997 2.823 1.163 4.36 1.122.246-.081.536-.081.83-.125 1.122-.165 2.285-.58 3.071-1.494.624-.664.958-1.574 1.082-2.491.125-.664.081-1.372.081-2.077V14.64c0-1.412-.414-2.91-1.537-3.863-1.082-.998-2.576-1.248-3.948-1.248h-.536l.006.044zm.58 1.87c.415 0 .83.082 1.163.166a2.267 2.267 0 0 1 1.494 1.039c.415.623.58 1.372.624 2.077v2.91c0 .829-.082 1.661-.415 2.41-.247.536-.708 1.038-1.248 1.247-.707.415-1.537.415-2.367.415-.664-.125-1.372-.415-1.868-.83-.498-.58-.748-1.247-.829-2.077-.125-.83-.081-1.743-.081-2.62 0-.829 0-1.783.209-2.619.209-.536.499-1.082.914-1.453a2.69 2.69 0 0 1 1.328-.58l1.123-.125-.047.04zm22.138-1.87c-1.413 0-2.91.536-3.904 1.662-.83.83-1.248 2.202-1.248 3.449v3.321c0 .914.081 1.828.415 2.657.415.998 1.329 1.743 2.327 2.161 1.493.58 3.155.537 4.777.537v-1.909c-.998 0-2.077 0-3.156-.209-.58-.124-1.247-.415-1.575-.913-.414-.537-.499-1.248-.536-1.828v-2.245h8.972c0-.83 0-1.743-.125-2.62-.125-.83-.415-1.662-.914-2.326-.707-.998-1.908-1.575-3.112-1.743-.624-.125-1.247-.082-1.908-.082v.088h-.013zm.165 1.915c.58 0 1.164 0 1.744.165.664.209 1.247.664 1.575 1.247a3.3 3.3 0 0 1 .333 1.494h-6.77c.081-.664.246-1.372.664-1.909.415-.58 1.123-.829 1.828-.957h.58l.046-.04z"/>
        <path d="M144.193 9.886a13.254 13.254 0 0 1 2.857 0l1.765 2.077 2.286 2.753 3.892-4.83.312-.103h2.491l-5.66 6.44 6.384 7.163h-2.804l-4.827-5.71-4.519 5.71h-2.856l3.788-4.257 2.492-2.857v-.156l-5.557-6.23h-.044zm-131.348 13.5h10.902l3.272 6.592H12.845v-6.592z"/>
    </g>
</svg>
