<svg width="822" height="800" viewBox="0 0 822 800" fill="none" xmlns="http://www.w3.org/2000/svg">
<g id="Group 138">
<path id="Fill 1" fill-rule="evenodd" clip-rule="evenodd" d="M195.459 718.289C195.459 718.289 212.843 716.382 228.208 704.206C237.881 696.536 244.412 694.72 251.623 694.033C262.267 693.012 278.522 698.953 278.103 701.409C277.365 705.909 272.486 718.368 265.382 723.883C256.23 730.987 242.301 734.669 213.03 728.45C188.338 721.659 195.459 718.289 195.459 718.289Z" fill="#F1F3F7"/>
<path id="Fill 3" fill-rule="evenodd" clip-rule="evenodd" d="M126.864 675.481C126.864 675.481 146.325 678.228 166.524 669.819C179.244 664.52 186.875 664.412 194.921 665.666C206.785 667.504 222.773 678.052 221.627 680.469C219.522 684.9 210.665 696.457 201.349 700.213C189.36 705.081 173.151 705.093 143.085 690.732C118.155 677.019 126.864 675.481 126.864 675.481Z" fill="#F1F3F7"/>
<path id="Fill 5" fill-rule="evenodd" clip-rule="evenodd" d="M76.4195 626.589C76.4195 626.589 94.6266 632.065 115.359 626.941C128.397 623.73 135.716 624.74 143.234 627.111C154.32 630.589 167.932 643.043 166.439 645.194C163.705 649.143 153.35 658.913 143.807 661.165C131.529 664.065 115.983 661.727 89.5032 643.565C67.8181 626.799 76.4195 626.589 76.4195 626.589Z" fill="#F1F3F7"/>
<path id="Fill 7" fill-rule="evenodd" clip-rule="evenodd" d="M44.9262 570.362C44.9262 570.362 62.2142 578.662 83.8028 576.654C97.4028 575.394 104.552 577.522 111.667 581.057C122.14 586.277 133.652 600.926 131.791 602.872C128.376 606.418 116.353 614.719 106.435 615.553C93.6525 616.603 78.5205 611.871 55.1163 589.499C36.2851 569.244 44.9262 570.362 44.9262 570.362Z" fill="#F1F3F7"/>
<path id="Fill 9" fill-rule="evenodd" clip-rule="evenodd" d="M21.0233 509.402C21.0233 509.402 35.5765 519.887 55.6616 521.17C68.2914 521.97 74.5155 525.073 80.4843 529.493C89.29 536.04 97.5907 551.734 95.5935 553.328C91.934 556.222 79.656 562.372 70.4531 561.697C58.595 560.823 45.4545 554.049 27.4404 529.192C13.2843 507.065 21.0233 509.402 21.0233 509.402Z" fill="#F1F3F7"/>
<path id="Fill 11" fill-rule="evenodd" clip-rule="evenodd" d="M2.7769 443.522C2.7769 443.522 15.2365 455.936 34.4762 460.288C46.584 463.028 52.1216 466.994 57.2109 472.214C64.723 479.902 70.323 496.379 68.1386 497.621C64.1443 499.862 51.3102 503.908 42.5102 501.808C31.1741 499.119 19.4975 490.529 5.92016 463.681C-4.35502 440.067 2.7769 443.522 2.7769 443.522Z" fill="#F1F3F7"/>
<path id="Fill 13" fill-rule="evenodd" clip-rule="evenodd" d="M2.81606 380.8C2.81606 380.8 12.8076 394.553 30.4983 401.657C41.6246 406.111 46.3054 410.752 50.3792 416.505C56.3536 425.004 59.1792 441.595 56.904 442.423C52.7508 443.944 39.8827 445.85 31.809 442.514C21.3976 438.202 11.5763 428.216 2.72528 400.528C-3.45912 376.409 2.81606 380.8 2.81606 380.8Z" fill="#F1F3F7"/>
<path id="Fill 15" fill-rule="evenodd" clip-rule="evenodd" d="M4.64521 317.666C4.64521 317.666 12.2594 332.667 28.4239 342.375C38.6083 348.48 42.4551 353.745 45.519 360.003C50.041 369.246 50.1998 385.887 47.8509 386.346C43.5558 387.186 30.6821 387.033 23.3062 382.505C13.8197 376.656 5.78563 365.365 1.47358 336.917C-0.795925 312.383 4.64521 317.666 4.64521 317.666Z" fill="#F1F3F7"/>
<path id="Fill 17" fill-rule="evenodd" clip-rule="evenodd" d="M18.6364 256.213C18.6364 256.213 23.6804 271.957 37.8705 283.901C46.8066 291.413 49.7173 297.12 51.7258 303.679C54.6761 313.347 52.2251 329.535 49.8818 329.62C45.5754 329.767 33.0988 327.606 26.6478 322.062C18.3414 314.913 12.2988 302.698 12.5485 274.408C14.1712 250.238 18.6364 256.213 18.6364 256.213Z" fill="#F1F3F7"/>
<path id="Fill 19" fill-rule="evenodd" clip-rule="evenodd" d="M41.601 197.857C41.601 197.857 44.0521 213.948 55.9783 227.758C63.4733 236.433 65.4194 242.431 66.3386 249.114C67.706 258.97 62.8152 274.311 60.5116 274.022C56.3187 273.5 44.5457 269.455 39.1272 263.066C32.1769 254.839 28.2166 242.022 32.8691 214.584C38.1854 191.367 41.601 197.857 41.601 197.857Z" fill="#F1F3F7"/>
<path id="Fill 21" fill-rule="evenodd" clip-rule="evenodd" d="M78.9473 145.605C78.9473 145.605 78.8168 161.265 88.0537 176.221C93.8636 185.616 94.7941 191.619 94.6636 198.099C94.448 207.687 87.4636 221.52 85.3189 220.902C81.4097 219.761 70.8168 214.116 66.6523 207.228C61.3019 198.337 59.475 185.56 68.0877 160.17C76.7005 138.904 78.9473 145.605 78.9473 145.605Z" fill="#F1F3F7"/>
<path id="Fill 23" fill-rule="evenodd" clip-rule="evenodd" d="M118.93 99.1318C118.93 99.1318 116.394 114.179 122.975 129.98C127.111 139.915 127.077 145.833 125.954 152.051C124.269 161.237 115.406 173.469 113.455 172.539C109.863 170.837 100.553 163.784 97.6022 156.511C93.8405 147.132 94.0561 134.564 106.249 111.467C117.812 92.346 118.93 99.1318 118.93 99.1318Z" fill="#F1F3F7"/>
<path id="Fill 25" fill-rule="evenodd" clip-rule="evenodd" d="M163.709 57.5625C163.709 57.5625 158.954 71.6618 162.841 87.9058C165.292 98.1072 164.345 103.798 162.302 109.614C159.261 118.192 148.844 128.604 147.096 127.406C143.902 125.216 136.033 116.984 134.319 109.517C132.129 99.9058 134.285 87.8434 149.587 67.4803C163.675 50.8505 163.709 57.5625 163.709 57.5625Z" fill="#F1F3F7"/>
<path id="Fill 27" fill-rule="evenodd" clip-rule="evenodd" d="M215.173 26.7586C215.173 26.7586 208.552 39.3487 209.76 55.2522C210.526 65.2664 208.779 70.4862 205.97 75.6721C201.811 83.3033 190.396 91.5643 188.926 90.1628C186.243 87.6153 180.064 78.6565 179.576 71.3543C178.963 61.9529 182.821 50.8777 200.336 33.987C216.155 20.4267 215.173 26.7586 215.173 26.7586Z" fill="#F1F3F7"/>
<path id="Fill 29" fill-rule="evenodd" clip-rule="evenodd" d="M261.947 8.05572C261.947 8.05572 254.355 18.1777 253.175 32.311C252.443 41.2018 250.179 45.5479 246.979 49.7068C242.242 55.8288 231.07 61.4628 229.97 60.033C227.984 57.4117 223.813 48.6742 224.409 42.1947C225.198 33.8486 230.134 24.6742 247.904 12.3054C263.706 2.63161 261.947 8.05572 261.947 8.05572Z" fill="#F1F3F7"/>
<path id="Fill 31" fill-rule="evenodd" clip-rule="evenodd" d="M285.706 68.7324C285.706 68.7324 277.122 71.2685 267.074 68.3295C260.73 66.4685 257.235 66.8884 253.695 67.9778C248.486 69.6175 242.279 75.8359 243.057 76.9707C244.458 79.0473 249.684 84.2558 254.319 85.5551C260.276 87.2345 267.652 86.2586 279.879 77.2997C289.842 68.9593 285.706 68.7324 285.706 68.7324Z" fill="#F1F3F7"/>
<path id="Fill 33" fill-rule="evenodd" clip-rule="evenodd" d="M244.998 88.7683C244.998 88.7683 236.834 92.4562 226.473 90.9243C219.937 89.9427 216.539 90.8335 213.185 92.4051C208.238 94.7427 202.944 101.755 203.875 102.765C205.554 104.632 211.432 109.075 216.204 109.727C222.332 110.578 229.509 108.598 240.391 98.0562C249.123 88.4335 244.998 88.7683 244.998 88.7683Z" fill="#F1F3F7"/>
<path id="Fill 35" fill-rule="evenodd" clip-rule="evenodd" d="M207.409 114.186C207.409 114.186 199.829 118.952 189.344 118.85C182.745 118.782 179.506 120.121 176.385 122.141C171.818 125.136 167.528 132.802 168.578 133.675C170.507 135.298 176.93 138.895 181.752 138.89C187.937 138.89 194.768 135.951 204.113 124.007C211.443 113.29 207.409 114.186 207.409 114.186Z" fill="#F1F3F7"/>
<path id="Fill 37" fill-rule="evenodd" clip-rule="evenodd" d="M169.051 147.883C169.051 147.883 162.197 153.636 151.814 154.964C145.255 155.798 142.231 157.579 139.411 159.996C135.297 163.593 132.092 171.769 133.255 172.49C135.382 173.84 142.248 176.524 147.019 175.86C153.141 175.015 159.513 171.162 167.133 158.061C172.931 146.436 169.051 147.883 169.051 147.883Z" fill="#F1F3F7"/>
<path id="Fill 39" fill-rule="evenodd" clip-rule="evenodd" d="M138.228 189.715C138.228 189.715 132.219 196.359 122.109 199.088C115.737 200.813 112.98 202.992 110.523 205.772C106.937 209.902 104.889 218.436 106.137 218.992C108.429 220.036 115.595 221.755 120.219 220.45C126.177 218.77 131.97 214.09 137.717 200.058C141.87 187.758 138.228 189.715 138.228 189.715Z" fill="#F1F3F7"/>
<path id="Fill 41" fill-rule="evenodd" clip-rule="evenodd" d="M119.289 239.607C119.289 239.607 112.662 246.938 101.519 249.956C94.4832 251.857 91.4421 254.257 88.7357 257.321C84.7811 261.871 82.5173 271.295 83.896 271.902C86.4208 273.054 94.33 274.949 99.4307 273.508C106.007 271.658 112.378 266.49 118.727 251.029C123.312 237.457 119.289 239.607 119.289 239.607Z" fill="#F1F3F7"/>
<path id="Fill 43" fill-rule="evenodd" clip-rule="evenodd" d="M108.192 295.462C108.192 295.462 100.901 303.541 88.6234 306.855C80.8673 308.948 77.5141 311.598 74.5241 314.974C70.1723 319.995 67.6815 330.367 69.2021 331.042C71.9766 332.307 80.6858 334.401 86.3085 332.806C93.5595 330.769 100.584 325.084 107.579 308.035C112.623 293.084 108.192 295.462 108.192 295.462Z" fill="#F1F3F7"/>
<path id="Fill 45" fill-rule="evenodd" clip-rule="evenodd" d="M102.312 348.822C102.312 348.822 95.0152 356.901 82.7316 360.214C74.9812 362.308 71.6337 364.958 68.6436 368.334C64.2918 373.355 61.7897 383.726 63.3103 384.402C66.1018 385.667 74.8053 387.761 80.428 386.172C87.6734 384.129 94.6918 378.439 101.699 361.395C106.732 346.444 102.312 348.822 102.312 348.822Z" fill="#F1F3F7"/>
<path id="Fill 47" fill-rule="evenodd" clip-rule="evenodd" d="M108.197 401.666C108.197 401.666 100.901 409.746 88.6228 413.059C80.8667 415.164 77.5192 417.803 74.5292 421.178C70.1774 426.2 67.6809 436.571 69.2015 437.247C71.9816 438.512 80.6965 440.594 86.3136 439.011C93.5589 436.986 100.589 431.289 107.584 414.245C112.628 399.295 108.197 401.666 108.197 401.666Z" fill="#F1F3F7"/>
<path id="Fill 49" fill-rule="evenodd" clip-rule="evenodd" d="M121.035 453.983C121.035 453.983 113.733 462.052 101.449 465.376C93.699 467.47 90.3458 470.12 87.3614 473.496C83.0096 478.517 80.5075 488.888 82.0338 489.564C84.8139 490.829 93.5231 492.911 99.1515 491.328C106.386 489.291 113.415 483.606 120.411 466.551C125.455 451.601 121.035 453.983 121.035 453.983Z" fill="#F1F3F7"/>
<path id="Fill 51" fill-rule="evenodd" clip-rule="evenodd" d="M142.538 502.631C142.538 502.631 136.529 511.72 124.881 516.827C117.534 520.05 114.612 523.176 112.166 526.966C108.609 532.572 107.69 543.198 109.295 543.647C112.24 544.475 121.159 545.241 126.481 542.835C133.352 539.732 139.434 533.059 143.809 515.164C146.561 499.63 142.538 502.631 142.538 502.631Z" fill="#F1F3F7"/>
<path id="Fill 53" fill-rule="evenodd" clip-rule="evenodd" d="M168.009 549.616C168.009 549.616 163.601 559.568 152.962 566.547C146.25 570.961 143.89 574.518 142.109 578.66C139.527 584.777 140.395 595.415 142.052 595.585C145.093 595.926 154.018 595.194 158.869 591.926C165.116 587.727 170.018 580.147 171.351 561.764C171.482 545.979 168.009 549.616 168.009 549.616Z" fill="#F1F3F7"/>
<path id="Fill 55" fill-rule="evenodd" clip-rule="evenodd" d="M198.909 586.019C198.909 586.019 195.709 596.425 185.979 604.612C179.84 609.787 177.922 613.611 176.646 617.923C174.807 624.317 176.929 634.768 178.592 634.745C181.65 634.711 190.433 632.93 194.858 629.128C200.56 624.204 204.521 616.084 203.67 597.679C201.922 581.996 198.909 586.019 198.909 586.019Z" fill="#F1F3F7"/>
<path id="Fill 57" fill-rule="evenodd" clip-rule="evenodd" d="M239.946 620.583C239.946 620.583 238.681 631.397 230.585 641.218C225.49 647.414 224.287 651.522 223.822 655.998C223.169 662.603 227.146 672.509 228.769 672.18C231.782 671.601 240.088 668.254 243.759 663.715C248.48 657.848 250.914 649.139 246.732 631.187C242.176 616.072 239.946 620.583 239.946 620.583Z" fill="#F1F3F7"/>
<path id="Fill 59" fill-rule="evenodd" clip-rule="evenodd" d="M274.292 639.931C274.292 639.931 276.749 650.535 272.437 662.513C269.731 670.07 269.98 674.337 271.053 678.717C272.675 685.157 279.756 693.134 281.175 692.283C283.802 690.706 290.502 684.765 292.414 679.25C294.888 672.135 294.241 663.114 284.255 647.63C274.877 634.944 274.292 639.931 274.292 639.931Z" fill="#F1F3F7"/>
<path id="Fill 61" fill-rule="evenodd" clip-rule="evenodd" d="M264.652 750.093C264.652 750.093 280.164 742.048 290.087 725.117C296.334 714.468 301.758 710.411 308.237 707.154C317.786 702.354 335.091 702.019 335.596 704.448C336.527 708.913 336.487 722.292 331.869 730.014C325.9 739.943 314.246 748.419 284.708 753.197C259.228 755.824 264.652 750.093 264.652 750.093Z" fill="#F1F3F7"/>
<path id="Fill 63" fill-rule="evenodd" clip-rule="evenodd" d="M309.786 648.531C309.786 648.531 315.914 657.53 316.231 670.25C316.441 678.273 318.223 682.154 320.799 685.853C324.64 691.272 334.132 696.151 335.148 694.84C337.037 692.423 341.122 684.457 340.907 678.619C340.646 671.096 336.776 662.914 321.865 652.1C308.521 643.669 309.786 648.531 309.786 648.531Z" fill="#F1F3F7"/>
<path id="Fill 65" fill-rule="evenodd" clip-rule="evenodd" d="M326.192 15.832C326.192 15.832 313.92 21.0518 305.466 33.3242C300.144 41.0688 295.787 43.8263 290.669 45.9199C283.123 48.9951 269.88 48.2121 269.625 46.3284C269.148 42.8788 269.852 32.683 273.795 27.0887C278.873 19.8887 288.218 14.1525 311.026 12.2802C330.623 11.8149 326.192 15.832 326.192 15.832Z" fill="#F1F3F7"/>
<path id="Fill 67" fill-rule="evenodd" clip-rule="evenodd" d="M625.921 711.751C625.921 711.751 608.537 709.856 593.173 697.669C583.499 689.998 576.974 688.182 569.757 687.496C559.113 686.474 542.858 692.426 543.278 694.871C544.015 699.359 548.895 711.83 555.998 717.357C565.156 724.437 579.079 728.131 608.35 721.901C633.048 715.121 625.921 711.751 625.921 711.751Z" fill="#F1F3F7"/>
<path id="Fill 69" fill-rule="evenodd" clip-rule="evenodd" d="M694.516 668.944C694.516 668.944 675.055 671.69 654.85 663.281C642.141 657.982 634.51 657.874 626.464 659.122C614.595 660.955 598.606 671.514 599.758 673.942C601.857 678.362 610.708 689.92 620.03 693.687C632.013 698.532 648.235 698.555 678.294 684.195C703.23 670.481 694.516 668.944 694.516 668.944Z" fill="#F1F3F7"/>
<path id="Fill 71" fill-rule="evenodd" clip-rule="evenodd" d="M744.96 620.052C744.96 620.052 726.753 625.527 706.027 620.404C692.983 617.192 685.663 618.202 678.146 620.562C667.059 624.063 653.448 636.494 654.946 638.656C657.675 642.605 668.035 652.375 677.578 654.628C689.845 657.527 705.397 655.178 731.882 637.028C753.573 620.262 744.96 620.052 744.96 620.052Z" fill="#F1F3F7"/>
<path id="Fill 73" fill-rule="evenodd" clip-rule="evenodd" d="M776.453 563.812C776.453 563.812 759.17 572.124 737.565 570.116C723.976 568.856 716.827 570.984 709.718 574.53C699.233 579.75 687.727 594.388 689.593 596.323C692.997 599.892 705.031 608.192 714.949 609.015C727.721 610.065 742.864 605.333 766.263 582.95C785.094 562.717 776.453 563.812 776.453 563.812Z" fill="#F1F3F7"/>
<path id="Fill 75" fill-rule="evenodd" clip-rule="evenodd" d="M800.363 502.852C800.363 502.852 785.798 513.349 765.724 514.631C753.095 515.431 746.871 518.535 740.902 522.966C732.096 529.502 723.795 545.207 725.787 546.801C729.452 549.684 741.724 555.834 750.933 555.159C762.785 554.274 775.926 547.511 793.94 522.654C808.102 500.526 800.363 502.852 800.363 502.852Z" fill="#F1F3F7"/>
<path id="Fill 77" fill-rule="evenodd" clip-rule="evenodd" d="M818.603 436.984C818.603 436.984 806.143 449.398 786.903 453.75C774.801 456.49 769.264 460.456 764.163 465.664C756.662 473.364 751.062 489.852 753.241 491.083C757.235 493.324 770.069 497.358 778.875 495.281C790.205 492.581 801.882 483.991 815.465 457.154C825.734 433.528 818.603 436.984 818.603 436.984Z" fill="#F1F3F7"/>
<path id="Fill 79" fill-rule="evenodd" clip-rule="evenodd" d="M818.575 374.262C818.575 374.262 808.578 388.015 790.881 395.113C779.749 399.573 775.074 404.214 771.006 409.967C765.026 418.466 762.2 435.056 764.476 435.885C768.629 437.405 781.497 439.312 789.576 435.976C799.982 431.664 809.809 421.689 818.66 393.99C824.844 369.871 818.575 374.262 818.575 374.262Z" fill="#F1F3F7"/>
<path id="Fill 82" fill-rule="evenodd" clip-rule="evenodd" d="M816.741 311.125C816.741 311.125 809.121 326.132 792.956 335.84C782.772 341.945 778.931 347.21 775.861 353.463C771.339 362.705 771.181 379.352 773.541 379.812C777.825 380.646 790.704 380.493 798.074 375.971C807.561 370.121 815.606 358.83 819.912 330.382C822.176 305.849 816.741 311.125 816.741 311.125Z" fill="#F1F3F7"/>
<path id="Fill 84" fill-rule="evenodd" clip-rule="evenodd" d="M802.75 249.675C802.75 249.675 797.7 265.414 783.515 277.368C774.579 284.875 771.657 290.583 769.66 297.141C766.71 306.81 769.155 322.997 771.504 323.082C775.805 323.224 788.281 321.068 794.738 315.519C803.045 308.381 809.081 296.166 808.832 267.865C807.203 243.7 802.75 249.675 802.75 249.675Z" fill="#F1F3F7"/>
<path id="Fill 86" fill-rule="evenodd" clip-rule="evenodd" d="M779.784 191.322C779.784 191.322 777.327 207.407 765.406 221.217C757.911 229.898 755.96 235.901 755.035 242.579C753.684 252.428 758.57 267.77 760.867 267.487C765.06 266.959 776.833 262.919 782.252 256.531C789.202 248.298 793.168 235.487 788.51 208.043C783.194 184.826 779.784 191.322 779.784 191.322Z" fill="#F1F3F7"/>
<path id="Fill 88" fill-rule="evenodd" clip-rule="evenodd" d="M742.433 139.069C742.433 139.069 742.557 154.723 733.326 169.679C727.522 179.075 726.586 185.078 726.716 191.563C726.932 201.146 733.922 214.984 736.061 214.36C739.97 213.225 750.569 207.58 754.728 200.686C760.078 191.801 761.899 179.018 753.292 153.628C744.685 132.363 742.433 139.069 742.433 139.069Z" fill="#F1F3F7"/>
<path id="Fill 90" fill-rule="evenodd" clip-rule="evenodd" d="M702.445 92.5962C702.445 92.5962 704.982 107.643 698.411 123.444C694.275 133.379 694.304 139.291 695.427 145.515C697.112 154.701 705.974 166.928 707.932 165.998C711.518 164.301 720.834 157.249 723.784 149.969C727.552 140.596 727.33 128.029 715.132 104.931C703.569 85.8047 702.445 92.5962 702.445 92.5962Z" fill="#F1F3F7"/>
<path id="Fill 92" fill-rule="evenodd" clip-rule="evenodd" d="M657.67 51.0247C657.67 51.0247 662.436 65.1296 658.544 81.3679C656.087 91.5694 657.04 97.2601 659.071 103.076C662.124 111.654 672.541 122.066 674.283 120.869C677.477 118.679 685.347 110.446 687.06 102.979C689.245 93.3736 687.094 81.2999 671.792 60.9424C657.704 44.3126 657.67 51.0247 657.67 51.0247Z" fill="#F1F3F7"/>
<path id="Fill 94" fill-rule="evenodd" clip-rule="evenodd" d="M606.207 20.2178C606.207 20.2178 612.834 32.8136 611.626 48.7114C610.854 58.7256 612.601 63.9511 615.416 69.1313C619.574 76.7682 630.984 85.0292 632.46 83.6221C635.132 81.0802 641.316 72.1157 641.81 64.8136C642.417 55.4178 638.565 44.3426 621.038 27.4519C605.231 13.8916 606.207 20.2178 606.207 20.2178Z" fill="#F1F3F7"/>
<path id="Fill 96" fill-rule="evenodd" clip-rule="evenodd" d="M559.433 1.51763C559.433 1.51763 567.024 11.6396 568.204 25.773C568.942 34.6637 571.2 39.0098 574.406 43.1687C579.138 49.2907 590.315 54.9247 591.416 53.4893C593.402 50.8737 597.566 42.1361 596.976 35.6566C596.187 27.3162 591.246 18.1361 573.481 5.76728C557.68 -3.90648 559.433 1.51763 559.433 1.51763Z" fill="#F1F3F7"/>
<path id="Fill 98" fill-rule="evenodd" clip-rule="evenodd" d="M535.673 62.1945C535.673 62.1945 544.264 64.7307 554.306 61.7917C560.649 59.9307 564.144 60.3506 567.69 61.4399C572.899 63.0853 579.1 69.2981 578.323 70.4328C576.922 72.5094 571.702 77.7179 567.061 79.0116C561.103 80.7023 553.733 79.7208 541.5 70.7619C531.537 62.4272 535.673 62.1945 535.673 62.1945Z" fill="#F1F3F7"/>
<path id="Fill 100" fill-rule="evenodd" clip-rule="evenodd" d="M576.386 82.2304C576.386 82.2304 584.551 85.9184 594.906 84.3865C601.442 83.4049 604.84 84.2957 608.199 85.8673C613.147 88.2106 618.44 95.212 617.51 96.2276C615.825 98.0999 609.952 102.542 605.175 103.189C599.047 104.04 591.881 102.06 580.988 91.5127C572.25 81.8957 576.386 82.2304 576.386 82.2304Z" fill="#F1F3F7"/>
<path id="Fill 102" fill-rule="evenodd" clip-rule="evenodd" d="M613.976 107.65C613.976 107.65 621.556 112.416 632.035 112.314C638.64 112.241 641.874 113.591 644.994 115.599C649.567 118.595 653.845 126.266 652.807 127.14C650.878 128.763 644.444 132.36 639.627 132.354C633.442 132.354 626.611 129.415 617.266 117.472C609.936 106.754 613.976 107.65 613.976 107.65Z" fill="#F1F3F7"/>
<path id="Fill 104" fill-rule="evenodd" clip-rule="evenodd" d="M652.323 141.341C652.323 141.341 659.182 147.1 669.571 148.428C676.124 149.262 679.16 151.043 681.974 153.46C686.087 157.058 689.293 165.234 688.13 165.954C685.996 167.299 679.137 169.982 674.365 169.324C668.238 168.473 661.866 164.626 654.246 151.52C648.448 139.9 652.323 141.341 652.323 141.341Z" fill="#F1F3F7"/>
<path id="Fill 106" fill-rule="evenodd" clip-rule="evenodd" d="M683.153 183.177C683.153 183.177 689.167 189.821 699.266 192.55C705.649 194.275 708.407 196.46 710.863 199.234C714.444 203.365 716.492 211.898 715.238 212.454C712.957 213.498 705.785 215.217 701.161 213.912C695.204 212.233 689.417 207.546 683.663 193.521C679.516 181.22 683.153 183.177 683.153 183.177Z" fill="#F1F3F7"/>
<path id="Fill 108" fill-rule="evenodd" clip-rule="evenodd" d="M702.097 233.075C702.097 233.075 708.712 240.405 719.867 243.412C726.897 245.319 729.938 247.719 732.65 250.782C736.599 255.333 738.863 264.751 737.484 265.364C734.959 266.521 727.056 268.417 721.949 266.975C715.379 265.12 708.996 259.951 702.653 244.485C698.074 230.913 702.097 233.075 702.097 233.075Z" fill="#F1F3F7"/>
<path id="Fill 110" fill-rule="evenodd" clip-rule="evenodd" d="M713.188 288.923C713.188 288.923 720.485 297.003 732.763 300.316C740.513 302.415 743.866 305.059 746.862 308.441C751.208 313.456 753.705 323.828 752.184 324.503C749.404 325.774 740.689 327.862 735.072 326.273C727.827 324.231 720.802 318.546 713.807 301.496C708.763 286.546 713.188 288.923 713.188 288.923Z" fill="#F1F3F7"/>
<path id="Fill 112" fill-rule="evenodd" clip-rule="evenodd" d="M719.069 342.283C719.069 342.283 726.371 350.362 738.654 353.676C746.405 355.775 749.747 358.419 752.737 361.801C757.094 366.816 759.591 377.188 758.076 377.863C755.284 379.128 746.575 381.222 740.947 379.633C733.701 377.585 726.683 371.9 719.681 354.856C714.643 339.906 719.069 342.283 719.069 342.283Z" fill="#F1F3F7"/>
<path id="Fill 114" fill-rule="evenodd" clip-rule="evenodd" d="M713.189 395.135C713.189 395.135 720.48 403.209 732.763 406.522C740.514 408.616 743.861 411.265 746.851 414.641C751.209 419.662 753.7 430.034 752.185 430.709C749.399 431.974 740.69 434.068 735.061 432.485C727.816 430.437 720.797 424.752 713.802 407.708C708.752 392.752 713.189 395.135 713.189 395.135Z" fill="#F1F3F7"/>
<path id="Fill 116" fill-rule="evenodd" clip-rule="evenodd" d="M700.346 447.444C700.346 447.444 707.649 455.513 719.938 458.837C727.683 460.931 731.036 463.581 734.026 466.951C738.378 471.978 740.874 482.349 739.348 483.025C736.573 484.29 727.858 486.372 722.23 484.789C714.99 482.752 707.966 477.067 700.971 460.012C695.927 445.061 700.346 447.444 700.346 447.444Z" fill="#F1F3F7"/>
<path id="Fill 118" fill-rule="evenodd" clip-rule="evenodd" d="M678.841 496.093C678.841 496.093 684.844 505.182 696.498 510.289C703.851 513.523 706.762 516.638 709.218 520.428C712.77 526.033 713.695 536.66 712.084 537.109C709.145 537.948 700.225 538.714 694.892 536.297C688.032 533.194 681.939 526.521 677.57 508.626C674.818 493.08 678.841 496.093 678.841 496.093Z" fill="#F1F3F7"/>
<path id="Fill 120" fill-rule="evenodd" clip-rule="evenodd" d="M653.377 543.079C653.377 543.079 657.785 553.03 668.423 560.009C675.13 564.423 677.496 567.981 679.272 572.111C681.848 578.25 680.985 588.877 679.334 589.059C676.287 589.376 667.362 588.656 662.511 585.388C656.27 581.201 651.368 573.598 650.035 555.215C649.904 539.442 653.377 543.079 653.377 543.079Z" fill="#F1F3F7"/>
<path id="Fill 122" fill-rule="evenodd" clip-rule="evenodd" d="M622.47 579.482C622.47 579.482 625.67 589.887 635.407 598.074C641.54 603.249 643.463 607.062 644.74 611.396C646.573 617.779 644.451 628.242 642.788 628.208C639.724 628.174 630.953 626.392 626.533 622.579C620.819 617.666 616.853 609.547 617.71 591.141C619.458 575.459 622.47 579.482 622.47 579.482Z" fill="#F1F3F7"/>
<path id="Fill 124" fill-rule="evenodd" clip-rule="evenodd" d="M581.44 614.045C581.44 614.045 582.705 624.859 590.79 634.68C595.891 640.882 597.099 644.973 597.565 649.461C598.206 656.076 594.24 665.983 592.606 665.654C589.599 665.063 581.292 661.727 577.627 657.177C572.906 651.31 570.467 642.601 574.648 624.661C579.21 609.546 581.44 614.045 581.44 614.045Z" fill="#F1F3F7"/>
<path id="Fill 126" fill-rule="evenodd" clip-rule="evenodd" d="M544.638 632.751C544.638 632.751 542.187 643.355 546.487 655.333C549.205 662.885 548.95 667.146 547.877 671.526C546.26 677.965 539.174 685.954 537.75 685.103C535.117 683.526 528.428 677.574 526.51 672.059C524.036 664.944 524.677 655.934 534.675 640.45C544.053 627.753 544.638 632.751 544.638 632.751Z" fill="#F1F3F7"/>
<path id="Fill 128" fill-rule="evenodd" clip-rule="evenodd" d="M569.056 741.805C569.056 741.805 552.54 736.074 540.279 720.761C532.557 711.132 526.611 707.893 519.734 705.612C509.584 702.242 492.409 704.415 492.268 706.888C491.99 711.439 493.964 724.67 499.649 731.643C506.991 740.607 519.746 747.303 549.663 747.779C575.246 746.678 569.056 741.805 569.056 741.805Z" fill="#F1F3F7"/>
<path id="Fill 130" fill-rule="evenodd" clip-rule="evenodd" d="M507.476 646.648C507.476 646.648 502.71 656.435 504.236 669.065C505.19 677.031 503.987 681.133 501.973 685.155C498.954 691.073 490.262 697.269 489.076 696.128C486.852 694.012 481.649 686.716 481.019 680.911C480.202 673.433 482.846 664.775 496.038 651.924C508.021 641.638 507.476 646.648 507.476 646.648Z" fill="#F1F3F7"/>
<path id="Fill 132" fill-rule="evenodd" clip-rule="evenodd" d="M494.345 11.0554C494.345 11.0554 506.617 16.2583 515.099 28.5136C520.433 36.2469 524.79 38.993 529.919 41.0809C537.471 44.1448 550.708 43.3391 550.963 41.4554C551.428 38.0001 550.696 27.81 546.753 22.227C541.669 15.0327 532.313 9.3079 509.505 7.4696C489.891 7.04407 494.345 11.0554 494.345 11.0554Z" fill="#F1F3F7"/>
<path id="Fill 134" fill-rule="evenodd" clip-rule="evenodd" d="M361.98 699.705C361.98 699.705 375.387 698.1 386.122 712.108C396.862 726.111 406.661 777.453 406.661 777.453C406.661 777.453 374.911 784.925 373.515 798.451C372.119 811.995 382.911 725.039 369.322 713.504C364.596 709.504 360.681 707.949 358.065 708.971C356.715 709.504 361.98 699.705 361.98 699.705Z" fill="#F1F3F7"/>
<path id="Fill 136" fill-rule="evenodd" clip-rule="evenodd" d="M472.192 699.705C472.192 699.705 458.785 698.1 448.045 712.108C437.31 726.111 427.5 777.453 427.5 777.453C427.5 777.453 459.245 784.925 460.646 798.451C462.048 811.995 451.262 725.039 464.85 713.504C469.577 709.504 473.474 707.949 476.107 708.971C477.452 709.504 472.192 699.705 472.192 699.705Z" fill="#F1F3F7"/>
</g>
</svg>
