<svg xmlns="http://www.w3.org/2000/svg" width="51" height="60" viewBox="0 0 51 60">
    <g fill="#000" fill-rule="evenodd">
        <path d="M37.35 27.526a2.148 2.148 0 0 0-2.138 2.157c0 1.19.955 2.157 2.138 2.157 1.18 0 2.136-.968 2.136-2.157 0-1.19-.955-2.157-2.136-2.157z"/>
        <path fill-rule="nonzero" d="M46.025 29.988c-.962-2.713-2.625-5.226-4.863-7.353l3.235-6.718a2.16 2.16 0 0 0 .093-1.63 2.048 2.048 0 0 0-1.054-1.179 12.71 12.71 0 0 0-5.34-1.206c-2.48 0-6.085.809-9.5 4.547a27.757 27.757 0 0 0-4.934-.443c-7.35 0-13.913 2.87-18.194 7.341-.45-.403-.72-.798-.753-1.138-.057-.535.45-1.146.886-1.562h-.004c.275-.264.445-.633.445-1.04a1.43 1.43 0 0 0-1.426-1.438c-.378 0-.726.15-.981.395l-.019.018c-.003.003-.006.01-.013.013-1.287 1.248-1.867 2.568-1.722 3.922.117 1.104.706 2.122 1.754 3.035-2.101 2.939-3.31 6.374-3.31 10.041 0 5.618 2.827 10.898 7.789 14.616l-.969 6.413a2.39 2.39 0 0 0 .53 1.908 2.338 2.338 0 0 0 1.789.811h8.144c.963 0 1.956-.64 2.357-1.523l1.252-2.742c.732.063 1.47.098 2.205.105l1.202 2.637c.403.883 1.393 1.523 2.359 1.523h8.141a2.35 2.35 0 0 0 1.791-.811 2.39 2.39 0 0 0 .53-1.91l-.722-4.79c2.331-1.323 4.395-3.021 6.019-4.952.785-.337 1.587-.503 2.359-.668 3.265-.687 5.573-1.67 5.573-8.115 0-6.026-1.826-7.248-4.65-8.107zm.896 12.466c-.457.515-1.173.687-2.4.945-.981.206-2.095.44-3.275 1.005l-.29.14-.202.248c-1.612 1.992-3.77 3.71-6.236 4.972l-.92.47.94 6.235h-7.394l-1.912-4.193-.94.023a25.315 25.315 0 0 1-3.766-.185l-1.035-.13-2.048 4.485H10.05l1.145-7.595-.738-.51c-4.627-3.19-7.28-7.843-7.28-12.77 0-9.215 9.189-16.712 20.484-16.712 1.744 0 3.482.18 5.166.537l.836.179.549-.658c2.305-2.762 4.958-4.164 7.882-4.164 1.382 0 2.565.315 3.385.62l-3.835 7.958.842.722c2.46 2.11 4.21 4.705 5.06 7.504l.226.74 1.077.316c2.104.605 2.974.856 2.974 5.461 0 2.219-.303 3.685-.902 4.357z"/>
        <path d="M29.367 21.871H29.358a27.718 27.718 0 0 0-11.403 0h-.01c-.536.115-.94.595-.94 1.174a1.189 1.189 0 0 0 1.431 1.17 25.38 25.38 0 0 1 10.442 0 1.191 1.191 0 0 0 1.431-1.17c0-.58-.406-1.06-.942-1.174z"/>
        <path fill-rule="nonzero" d="M23.658 14.037c3.836 0 6.959-3.149 6.959-7.017 0-3.871-3.123-7.02-6.959-7.02-3.839 0-6.96 3.149-6.96 7.02-.001 3.868 3.121 7.017 6.96 7.017zm0-11.228c2.302 0 4.177 1.889 4.177 4.212 0 2.321-1.874 4.21-4.177 4.21-2.303 0-4.176-1.888-4.176-4.21 0-2.323 1.873-4.212 4.176-4.212z"/>
    </g>
</svg>
