<svg xmlns="http://www.w3.org/2000/svg" width="68" height="55" viewBox="0 0 68 55">
    <g fill="#000" fill-rule="evenodd">
        <path fill-rule="nonzero" d="M23.87 11.867h7.627v-8.18H23.87v8.18zm2.103-6.064h3.421v3.949h-3.42V5.803zM23.87 21.436h7.627v-8.187H23.87v8.187zm2.103-6.064h3.421v3.949h-3.42v-3.95zM23.87 31.026h7.627v-8.208H23.87v8.208zm2.103-6.064h3.421v3.948h-3.42v-3.948zM36.503 11.867h7.627v-8.18h-7.627v8.18zm2.103-6.064h3.42v3.949h-3.42V5.803zM36.503 21.436h7.627v-8.187h-7.627v8.187zm2.103-6.064h3.42v3.949h-3.42v-3.95zM36.503 31.026h7.627v-8.208h-7.627v8.208zm2.103-6.064h3.42v3.948h-3.42v-3.948z"/>
        <path d="M13.544 26.78V19.66H6.968v2.115h4.473v5.007z"/>
        <path fill-rule="nonzero" d="M50.537 12.453L50.474 0 17.182.226l.084 12.191H0v7.961h2.103v-5.845h15.17l.253 37.611H7.788v-6.226c3.625-.38 5.686-2.778 5.686-6.713a20.541 20.541 0 0 0-2.328-8.659c-.89-1.79-2.65-4.788-4.41-4.788-1.759 0-3.504 3.004-4.409 4.788A20.541 20.541 0 0 0 0 39.206c0 3.934 2.061 6.345 5.685 6.712v6.226H1.402v2.116h16.124v.077l16.635-.113 6.113-.042 10.516-.07-.267-39.544h15.374v27.5H68V12.453H50.537zM2.167 40.474c-.765-4.752 3.203-11.846 4.57-12.572 1.402.705 5.32 7.82 4.536 12.572-.386 2.313-1.823 3.392-4.536 3.392-2.713 0-4.15-1.086-4.536-3.399l-.035.007zM30.143 52.13l-.098-14.533 8.013-.056.098 14.533h-4.01l-4.003.056zm10.116-.07l-.09-16.648-12.22.084.091 16.683H19.63l-.33-49.852 29.072-.212.337 49.881-8.448.064z"/>
        <path fill-rule="nonzero" d="M62.083 19.694h-7.627v8.18h7.627v-8.18zm-2.103 6.064h-3.42V21.81h3.42v3.948zM54.456 37.442h7.627v-8.18h-7.627v8.18zm2.103-6.064h3.421v3.949h-3.42v-3.949z"/>
        <path d="M55.508 38.831h5.524v2.115h-5.524z"/>
        <path fill-rule="nonzero" d="M64.845 47.906h-1.002a4.387 4.387 0 0 0-3.96-2.513 4.387 4.387 0 0 0-3.962 2.513 3.146 3.146 0 0 0-3.028 1.283 3.189 3.189 0 0 0-.252 3.294 3.153 3.153 0 0 0 2.797 1.734h9.407A3.164 3.164 0 0 0 68 51.044a3.164 3.164 0 0 0-3.155-3.173v.035zm0 4.231h-9.407c-.45 0-.85-.288-.995-.717a1.061 1.061 0 0 1 .353-1.178 1.047 1.047 0 0 1 1.223-.044l1.367.91.253-1.63a2.29 2.29 0 0 1 2.136-1.94 2.287 2.287 0 0 1 2.33 1.701l.21.79h2.53c.581 0 1.052.473 1.052 1.058 0 .584-.47 1.057-1.052 1.057v-.007z"/>
    </g>
</svg>
