<svg xmlns="http://www.w3.org/2000/svg" width="61" height="60" viewBox="0 0 61 60">
    <g fill="#000" fill-rule="nonzero">
        <path d="M43.92 33.061h-12.2v-9.796H14.64V37.96H0V60h61V17.143H43.92V33.06zm-29.28 24.49H2.44V40.408h12.2v17.143zm14.64 0h-12.2V25.714h12.2v31.837zm14.64 0h-12.2v-22.04h12.2v22.04zm2.44-37.96h12.2v37.96h-12.2v-37.96zM52.46 9.796c2.691 0 4.88-2.197 4.88-4.898C57.34 2.197 55.151 0 52.46 0s-4.88 2.197-4.88 4.898c0 .351.04.693.111 1.024L41.48 9.039c-.895-1.028-2.196-1.692-3.66-1.692-1.845 0-3.434 1.044-4.264 2.564l-5.5-1.376c-.02-2.683-2.198-4.862-4.876-4.862-2.691 0-4.88 2.197-4.88 4.898 0 .352.04.693.111 1.024L12.2 12.713c-.895-1.029-2.196-1.693-3.66-1.693-2.691 0-4.88 2.197-4.88 4.898 0 2.702 2.189 4.898 4.88 4.898s4.88-2.196 4.88-4.898c0-.351-.04-.693-.111-1.023l6.211-3.118c.895 1.029 2.196 1.692 3.66 1.692 1.845 0 3.434-1.044 4.264-2.564l5.5 1.375c.02 2.684 2.198 4.863 4.876 4.863 2.691 0 4.88-2.197 4.88-4.898 0-.352-.04-.693-.111-1.024L48.8 8.104c.895 1.028 2.196 1.692 3.66 1.692zM8.54 18.367a2.447 2.447 0 0 1-2.44-2.449 2.447 2.447 0 0 1 2.44-2.449 2.447 2.447 0 0 1 2.44 2.45 2.447 2.447 0 0 1-2.44 2.448zm14.64-7.347a2.447 2.447 0 0 1-2.44-2.449 2.447 2.447 0 0 1 2.44-2.449 2.447 2.447 0 0 1 2.44 2.45 2.447 2.447 0 0 1-2.44 2.448zm14.64 3.674a2.447 2.447 0 0 1-2.44-2.45 2.447 2.447 0 0 1 2.44-2.448 2.447 2.447 0 0 1 2.44 2.449 2.447 2.447 0 0 1-2.44 2.449zM52.46 2.449a2.447 2.447 0 0 1 2.44 2.449 2.447 2.447 0 0 1-2.44 2.449 2.447 2.447 0 0 1-2.44-2.449 2.447 2.447 0 0 1 2.44-2.449z"/>
    </g>
</svg>
