<svg width="108" height="60" viewBox="0 0 108 60" fill="none" xmlns="http://www.w3.org/2000/svg">
<g id="5abe098bdb0babfc851da941cec75962">
<path id="XMLID_15_" fill-rule="evenodd" clip-rule="evenodd" d="M0 46.9478H9.50084V48.9947H2.21106V52.5156H8.68007V54.5625H2.21106V59.802H0V46.9478Z" fill="white"/>
<path id="XMLID_14_" fill-rule="evenodd" clip-rule="evenodd" d="M11.1387 46.9478H13.3497V59.725H11.1387V46.9478Z" fill="white"/>
<path id="XMLID_13_" fill-rule="evenodd" clip-rule="evenodd" d="M16.1367 46.9478H21.785C23.259 46.9478 24.4047 47.3565 25.1451 48.0935C25.718 48.6663 26.0463 49.323 26.0463 50.2241C26.0463 51.7786 25.1451 52.5993 24.2439 53.0918C25.718 53.5843 26.7833 54.4821 26.7833 56.204C26.7833 58.4988 24.9005 59.725 22.0329 59.725H16.1367V46.9478ZM21.3762 52.3548C22.8503 52.3548 23.7515 51.7819 23.7515 50.6328C23.7515 49.6513 22.934 48.9947 21.5404 48.9947H18.264V52.4352H21.3762V52.3548ZM24.4885 56.0399C24.4885 57.189 23.5873 57.7618 22.0329 57.7618L22.0362 57.8389H18.2674V54.3179H21.8687C23.6711 54.3179 24.4885 54.9746 24.4885 56.0399Z" fill="white"/>
<path id="XMLID_12_" fill-rule="evenodd" clip-rule="evenodd" d="M34.6433 46.7031C30.7136 46.7031 27.9297 49.735 27.9297 53.3363C27.9297 56.941 30.6299 59.9728 34.5629 59.8891C38.4925 59.8891 41.2764 56.8572 41.2764 53.2559C41.2764 49.6512 38.5763 46.7031 34.6433 46.7031ZM34.6433 48.75C37.1826 48.75 38.985 50.7969 38.985 53.3363C38.985 55.8757 37.1826 57.8422 34.6433 57.8422C32.1039 57.8422 30.3015 55.7115 30.3015 53.2559C30.3015 50.7969 32.1039 48.75 34.6433 48.75Z" fill="white"/>
<path id="XMLID_11_" fill-rule="evenodd" clip-rule="evenodd" d="M42.7539 53.3363C42.7539 49.8154 45.2933 46.7031 49.1425 46.7031C51.2732 46.7031 52.6635 47.3597 53.8929 48.4251L52.9918 49.4904C52.0102 48.5892 50.9449 48.0164 49.0588 48.0164C46.1911 48.0164 44.2279 50.3916 44.2279 53.2559C44.2279 56.2844 46.1911 58.5792 49.3067 58.5792C50.7807 58.5792 52.0906 58.0063 52.9918 57.2693V54.0767H49.0588V52.7668H54.382V57.8455C53.1526 58.9108 51.434 59.8087 49.2229 59.8087C45.2095 59.9728 42.7539 57.0214 42.7539 53.3363Z" fill="white"/>
<path id="XMLID_10_" fill-rule="evenodd" clip-rule="evenodd" d="M62.4894 46.9478H57.002V59.8054H58.476V54.8071H62.0773L65.7624 59.8054H67.5648L63.6318 54.5658C65.5983 54.1571 67.0723 52.9277 67.0723 50.797C67.0723 49.8121 66.7473 48.9143 66.0907 48.2576C65.3571 47.4402 64.0438 46.9478 62.4894 46.9478ZM65.6854 50.8004C65.6854 52.4385 64.2917 53.4201 62.409 53.4201H58.476V48.261H62.409C64.4559 48.261 65.6854 49.2459 65.6854 50.8004Z" fill="white"/>
<path id="XMLID_9_" fill-rule="evenodd" clip-rule="evenodd" d="M75.2657 46.7031C71.3327 46.7031 68.7129 49.735 68.7129 53.3363C68.7129 56.8572 71.3327 59.9728 75.2657 59.8891C79.1987 59.8891 81.8184 56.7768 81.8184 53.2559C81.8184 49.7316 79.1987 46.7031 75.2657 46.7031ZM75.2623 48.013C78.2104 48.013 80.341 50.3882 80.341 53.3363C80.341 56.2844 78.2137 58.5792 75.3427 58.5792C72.3946 58.5792 70.264 56.1236 70.264 53.2559C70.264 50.3882 72.3142 48.013 75.2623 48.013Z" fill="white"/>
<path id="XMLID_8_" fill-rule="evenodd" clip-rule="evenodd" d="M83.9473 54.4017V46.9478H85.4213V54.3179C85.4213 57.1019 86.8953 58.6596 89.3543 58.6596C91.7295 58.6596 93.2035 57.2694 93.2035 54.4017V46.9478H94.6776V54.3179C94.6776 58.0868 92.5469 59.9662 89.3543 59.9662C86.0779 59.9729 83.9473 58.003 83.9473 54.4017Z" fill="white"/>
<path id="XMLID_7_" fill-rule="evenodd" clip-rule="evenodd" d="M102.291 46.9478H97.4604L97.457 59.725H98.9311V55.2191H102.043C104.747 55.2191 107.042 53.8255 107.042 51.0416C107.042 48.5022 105.159 46.9478 102.291 46.9478ZM105.568 51.1253C105.568 52.7635 104.177 53.9092 102.047 53.9092H102.043V53.9896H98.8507V48.3414H102.127C104.177 48.3414 105.568 49.323 105.568 51.1253Z" fill="white"/>
<path id="XMLID_5_" fill-rule="evenodd" clip-rule="evenodd" d="M45.9056 21.621C45.9056 28.7466 46.3143 35.7081 46.3143 36.6092C46.3143 38.1637 44.3512 37.9191 43.4467 37.4266C37.5472 33.9057 33.5371 27.4367 33.5371 19.9828C33.5371 8.92749 42.4617 -0.000488281 53.5204 -0.000488281C59.4165 -0.000488281 64.7398 2.53888 68.4249 6.63268C69.7348 8.10671 68.4249 8.51542 67.9324 8.51542H46.3914C46.3914 8.51542 45.9056 15.2323 45.9056 21.621Z" fill="white"/>
<path id="XMLID_4_" fill-rule="evenodd" clip-rule="evenodd" d="M53.5218 29.9727V38.4082C53.5218 39.4735 54.5034 39.9627 54.9958 39.8823C65.3175 39.1452 73.5051 30.5456 73.5051 19.9794C73.5051 18.9141 73.4213 17.8488 73.2605 16.8672C73.1768 16.4585 72.5235 15.6377 71.7061 15.6377H53.4414V22.7633H63.763C63.763 22.7633 63.8468 23.9928 63.3543 26.1235C62.8618 28.3345 62.289 29.2357 62.289 29.2357C62.289 29.2357 58.6809 29.8119 53.5218 29.9727Z" fill="white"/>
</g>
</svg>
