<svg width="106" height="60" viewBox="0 0 106 60" fill="none" xmlns="http://www.w3.org/2000/svg">
<g id="a64241e049371c3ae2b45f7bd821a2bc">
<path id="Shape" fill-rule="evenodd" clip-rule="evenodd" d="M29.2549 45.2744C29.3674 45.2744 29.4921 45.2835 29.6229 45.2987L30.1155 42.9176C29.3461 42.8172 28.5828 42.7686 27.8317 42.7686C26.8677 42.7686 26.1044 42.8689 25.5479 43.0635C24.9914 43.2582 24.5565 43.5805 24.2463 44.0215C24.1307 44.1674 24.0334 44.3286 23.9513 44.4989C23.8692 44.6692 23.8023 44.8669 23.7536 45.0889C23.705 45.3078 23.6685 45.5694 23.6442 45.8735C23.6198 46.1776 23.6077 46.5395 23.6077 46.9652V48.4158H22.0872V50.8973H23.6077V59.6403H26.6274V50.8973H29.6746V48.4158H26.6274V47.0899C26.6274 46.7158 26.6518 46.4057 26.7004 46.1685C26.7491 45.9343 26.8525 45.7488 27.0076 45.618C27.1627 45.4873 27.3907 45.396 27.6949 45.3474C27.999 45.2987 28.4034 45.2744 28.9113 45.2744H29.2549ZM10.8961 58.5334C11.0025 58.9105 11.112 59.2784 11.2275 59.6403L14.7643 59.6373L9.41204 43.3281C8.80687 43.1152 8.14392 43.0088 7.42319 43.0088C7.01265 43.0088 6.70246 43.0392 6.48958 43.097L6.35275 43.136C6.1644 43.1896 5.93936 43.2536 5.67762 43.3311L0.0273438 59.6403H3.41812C3.44817 59.5462 3.47822 59.4515 3.50843 59.3563L3.50885 59.3549L3.50904 59.3543L3.50906 59.3543C3.59483 59.0839 3.68189 58.8095 3.77392 58.5334C3.89861 58.1563 4.00808 57.8127 4.1054 57.5025C4.21792 57.1406 4.32739 56.7878 4.42471 56.4442H10.2696C10.3669 56.7878 10.4734 57.1406 10.5889 57.5025C10.6893 57.8127 10.7896 58.1563 10.8961 58.5334ZM8.81408 51.3799L8.90722 51.7062C9.01239 52.0766 9.14162 52.5432 9.2975 53.1061L9.29795 53.1077L9.29825 53.1088L9.29839 53.1093L9.29865 53.1102L9.29875 53.1106L9.29882 53.1109L9.29889 53.1111L9.46069 53.6951H5.28533C5.53165 52.877 5.72932 52.2202 5.87529 51.7305L5.96052 51.4448C6.06686 51.0883 6.15351 50.7978 6.21893 50.5749C6.298 50.2648 6.3649 50.0428 6.41356 49.912L6.42598 49.8697C6.50483 49.601 6.59178 49.3048 6.68421 48.9784C6.75158 48.7339 6.83328 48.4525 6.92764 48.1275L6.99136 47.9079C7.09795 47.5428 7.21389 47.1357 7.34122 46.6886L7.34124 46.6885L7.39582 46.4969H7.49313C7.6239 47.0382 7.7425 47.5217 7.84894 47.9475C7.95537 48.3732 8.04964 48.7321 8.13175 49.027C8.21386 49.3707 8.29597 49.6657 8.37808 49.912C8.42674 50.0276 8.49364 50.2404 8.57575 50.5506C8.63866 50.765 8.71765 51.0419 8.81407 51.3799L8.81408 51.3799ZM16.5555 59.6403V43.0635H19.6269V59.6403H16.5555ZM39.5428 59.8866C39.412 59.8532 39.2235 59.7407 38.9772 59.543C38.7308 59.3484 38.5362 59.1355 38.3872 58.9044C38.1257 59.0838 37.928 59.2085 37.7972 59.2724C37.6665 59.3362 37.5023 59.4122 37.3076 59.4944C36.9792 59.6251 36.6203 59.7285 36.2281 59.8015C35.8358 59.8745 35.4435 59.911 35.0512 59.911C34.5281 59.911 34.0324 59.835 33.5641 59.6768C33.0958 59.5217 32.6913 59.2906 32.3477 58.9895C32.004 58.6854 31.7303 58.3083 31.5235 57.8583C31.3168 57.4082 31.2164 56.8973 31.2164 56.3225C31.2164 55.097 31.6117 54.1239 32.4054 53.4122C33.1992 52.6976 34.3669 52.3418 35.9057 52.3418C36.2007 52.3418 36.4713 52.3631 36.7298 52.4026C36.9853 52.4421 37.2255 52.4969 37.4536 52.5607V51.9951C37.4536 51.6211 37.4323 51.3139 37.3928 51.0737C37.3502 50.8365 37.2529 50.654 37.0978 50.5232C36.9427 50.3925 36.7116 50.3012 36.4105 50.2526C36.1095 50.2039 35.702 50.1796 35.1941 50.1796C34.8657 50.1796 34.4886 50.2009 34.0659 50.2404C33.6401 50.28 33.2144 50.3347 32.7886 50.3986L32.3203 48.1391C33.5641 47.8289 34.8839 47.6707 36.2737 47.6707C37.2407 47.6707 37.9949 47.7741 38.5484 47.9779C39.0988 48.1816 39.5246 48.4979 39.8378 48.9236C39.9533 49.0696 40.0507 49.2308 40.1328 49.4011C40.2149 49.5744 40.2818 49.7691 40.3304 49.9911C40.3791 50.2131 40.4156 50.4746 40.4399 50.7787C40.4642 51.0828 40.4764 51.4447 40.4764 51.8704V55.0149C40.4764 55.4072 40.4916 55.7508 40.5251 56.0458C40.5585 56.3408 40.6102 56.6175 40.6832 56.879C40.7562 57.1406 40.8626 57.396 41.0025 57.6515C41.1424 57.9069 41.3097 58.1867 41.5043 58.4969L39.5428 59.8866ZM37.481 56.4381C37.4992 56.7422 37.5387 56.9916 37.6057 57.1862C37.2772 57.317 36.9914 57.393 36.739 57.4234C36.4957 57.4477 36.2311 57.4599 35.9544 57.4599C35.3978 57.4599 34.9721 57.3443 34.6771 57.1162C34.3821 56.8882 34.2362 56.4867 34.2362 55.912C34.2362 55.3251 34.4277 54.9176 34.814 54.6864C35.2002 54.4584 35.778 54.3428 36.5474 54.3428C36.7268 54.3428 36.9032 54.355 37.0765 54.3793C37.2498 54.4036 37.3745 54.434 37.4566 54.4644V55.2977C37.4566 55.7569 37.4658 56.134 37.481 56.4381ZM47.5012 53.7954C47.5012 54.3337 47.3097 54.799 46.9234 55.1821C46.5372 55.5684 46.078 55.7599 45.5367 55.7599C44.9954 55.7599 44.5393 55.5684 44.1622 55.1821C43.7851 54.7959 43.5965 54.3367 43.5965 53.7954C43.5965 53.2541 43.7851 52.798 44.1622 52.4209C44.5393 52.0468 44.9985 51.8552 45.5367 51.8552C46.078 51.8552 46.5403 52.0438 46.9234 52.4209C47.3097 52.798 47.5012 53.2541 47.5012 53.7954ZM51.8317 43.3798C51.4364 43.4467 51.0745 43.5106 50.743 43.5775L50.746 59.6434H54.0608V52.2262H58.6802V49.6474H54.0608V45.6667H55.9006C56.4237 45.6667 57.0137 45.6758 57.6675 45.691C58.3213 45.7093 58.9691 45.7579 59.6077 45.84L59.7536 43.4041C59.0329 43.3068 58.2879 43.2308 57.5093 43.173C56.7308 43.1152 55.9979 43.0879 55.3107 43.0879C54.9822 43.0879 54.6264 43.1 54.2402 43.1244C53.854 43.1487 53.4556 43.1821 53.042 43.2217C52.6315 43.2612 52.227 43.3159 51.8317 43.3798ZM66.8545 59.984C66.0365 59.984 65.2914 59.8441 64.6193 59.5643C63.9473 59.2876 63.3755 58.8831 62.9011 58.36C62.4267 57.837 62.0588 57.1984 61.7942 56.4472C61.5327 55.693 61.4019 54.8507 61.4019 53.9171C61.4019 53.0169 61.5114 52.1897 61.7334 51.4356C61.9554 50.6814 62.2929 50.0276 62.7521 49.471C63.2083 48.9145 63.777 48.4797 64.4582 48.1695C65.1394 47.8593 65.9361 47.7011 66.8515 47.7011C67.7668 47.7011 68.5666 47.8562 69.2448 48.1695C69.926 48.4797 70.4947 48.9176 70.9508 49.471C71.41 50.0276 71.7506 50.6814 71.9696 51.4356C72.1916 52.1897 72.3041 53.0169 72.3041 53.9171C72.3041 54.8507 72.1733 55.693 71.9118 56.4472C71.6503 57.2014 71.2792 57.84 70.8048 58.36C70.3304 58.8831 69.7557 59.2876 69.0866 59.5643C68.4176 59.8471 67.6726 59.984 66.8545 59.984ZM67.6999 57.4416C67.4141 57.545 67.1312 57.5998 66.8545 57.5998C66.5747 57.5998 66.2919 57.5481 66.0091 57.4416C65.7202 57.3322 65.4617 57.1406 65.2336 56.8638C65.0055 56.5841 64.82 56.1978 64.6832 55.7082C64.5463 55.2186 64.4764 54.5861 64.4764 53.8167C64.4764 53.0625 64.5433 52.4391 64.6832 51.9495C64.82 51.4599 65.0055 51.0798 65.2336 50.8091C65.4647 50.5384 65.7232 50.3499 66.0091 50.2435C66.2919 50.1401 66.5747 50.0853 66.8545 50.0853C67.1312 50.0853 67.4141 50.137 67.6999 50.2435C67.9888 50.3529 68.2473 50.5384 68.4754 50.8091C68.7065 51.0767 68.889 51.4599 69.0289 51.9495C69.1657 52.4421 69.2356 53.0625 69.2356 53.8167C69.2356 54.5861 69.1687 55.2186 69.0289 55.7082C68.889 56.1978 68.7065 56.5841 68.4754 56.8638C68.2443 57.1406 67.9888 57.3352 67.6999 57.4416ZM77.6594 59.6403H74.5393V52.4209C74.5393 51.5694 74.4693 50.8578 74.3325 50.283C74.1926 49.7113 74.0253 49.1517 73.8307 48.6135L75.9412 47.6038C76.0719 47.6525 76.2088 47.7528 76.3456 47.8988C76.4855 48.0448 76.6163 48.2151 76.7379 48.4006C76.8596 48.5891 76.963 48.7898 77.0451 48.9997C77.1272 49.2125 77.185 49.4011 77.2184 49.5653C77.6594 48.8628 78.1307 48.3611 78.6295 48.0661C79.1312 47.7711 79.6999 47.6251 80.3355 47.6251C80.6153 47.6251 80.8859 47.6738 81.1475 47.7711C81.409 47.8684 81.6036 47.9992 81.7374 48.1634L81.0714 50.7909C80.8434 50.6935 80.6214 50.6175 80.4085 50.5567C80.1956 50.4989 79.9736 50.4715 79.7425 50.4715C79.3684 50.4715 79.0066 50.5628 78.6629 50.7422C78.3193 50.9216 77.9817 51.2166 77.6563 51.6241L77.6594 59.6403ZM89.8053 57.4325C89.2732 57.4994 88.744 57.5298 88.221 57.5298C87.6979 57.5298 87.2539 57.4538 86.892 57.3018C86.5301 57.1558 86.2412 56.9581 86.0192 56.7027C85.7972 56.4472 85.6421 56.1431 85.5509 55.7812C85.4597 55.4224 85.4141 55.0301 85.4141 54.6043H92.7126V53.3788C92.7126 52.5455 92.6214 51.7792 92.4419 51.0828C92.2625 50.3864 91.9827 49.7903 91.5965 49.2886C91.2103 48.7898 90.7116 48.4036 90.0973 48.1239C89.483 47.8441 88.741 47.7042 87.8743 47.7042C86.9924 47.7042 86.1956 47.8654 85.4931 48.1938C84.7876 48.5222 84.1885 48.9753 83.6989 49.5471C83.2063 50.1188 82.8353 50.8 82.5798 51.5846C82.3243 52.3722 82.1997 53.2237 82.1997 54.1391C82.1997 54.4006 82.2149 54.726 82.2483 55.1213C82.2818 55.5167 82.3639 55.9272 82.4947 56.3621C82.6254 56.7969 82.814 57.2257 83.0603 57.6515C83.3097 58.0772 83.6442 58.4634 84.0699 58.8071C84.4957 59.1507 85.0278 59.4275 85.6665 59.6403C86.3051 59.8532 87.0745 59.9596 87.9746 59.9596C89.2671 59.9596 90.5869 59.7985 91.928 59.47L91.4384 57.1619C90.8819 57.2774 90.3375 57.3687 89.8053 57.4325ZM89.6442 52.4421C89.6594 52.0985 89.635 51.7701 89.5712 51.4599C89.5073 51.1497 89.3978 50.876 89.2519 50.6358C89.1059 50.3986 88.8991 50.2131 88.6376 50.0701C88.376 49.9302 88.0537 49.8603 87.6766 49.8603C86.9407 49.8603 86.4024 50.0945 86.0588 50.5597C85.7151 51.0281 85.5023 51.6515 85.4201 52.4391L89.6442 52.4421ZM98.7065 50.2617L97.5783 47.9748L94.0872 47.9718L97.6026 53.6707L93.4516 59.6403H97.186L98.6366 57.1375L99.5945 55.468L100.552 57.1375L101.976 59.6403H105.683L101.653 53.6981L105.382 47.9748H101.772L100.546 50.2617C100.367 50.5567 100.2 50.8365 100.045 51.1071C99.8895 51.3808 99.7283 51.6697 99.5671 51.9799C99.4364 51.6849 99.3056 51.4051 99.1748 51.1345C99.0441 50.8608 98.8859 50.5719 98.7065 50.2617Z" fill="white"/>
<path id="Shape_2" fill-rule="evenodd" clip-rule="evenodd" d="M43.8072 0.0175781H70.8239C71.1554 0.0175781 71.3287 0.285191 71.2192 0.613625L69.3216 6.05711C69.2061 6.38555 68.8472 6.6562 68.5158 6.6562H59.5051C59.5051 8.59119 59.5079 10.8119 59.5108 13.122L59.5112 13.4134H66.1772C66.5087 13.4134 66.682 13.681 66.5664 14.0125L64.6688 19.456C64.5563 19.7844 64.1944 20.052 63.8629 20.052H59.5112C59.5112 26.8336 59.496 32.6907 59.4565 32.5781C59.2758 32.0683 56.6094 24.7667 54.0758 17.8284C51.8337 11.6886 49.6956 5.8333 49.4757 5.22082C48.5664 2.69066 47.4017 0.0844813 43.8133 0.0844813H43.8072V0.0175781ZM43.8437 8.41089L48.5117 22.4241H39.1027L43.7829 8.41089H43.8437ZM53.052 35.0657C53.1067 35.2087 53.1736 35.379 53.1736 35.379H34.459C34.459 35.379 34.5168 35.2147 34.5745 35.0657C34.6362 34.9031 35.4173 32.7398 36.063 30.9514C36.4677 29.8306 36.8192 28.857 36.907 28.6157H50.7073C50.9354 29.2421 52.9608 34.8103 53.052 35.0657Z" fill="white"/>
</g>
</svg>
