<svg width="111" height="50" viewBox="0 0 111 50" fill="none" xmlns="http://www.w3.org/2000/svg">
<g id="5d29bf85e37901a4d7abe59f7ba932ed">
<path id="Shape" fill-rule="evenodd" clip-rule="evenodd" d="M27.0047 32.2262V32.1465L27.0019 32.2262H27.0047ZM27.0047 32.2262V45.421C27.0788 46.3321 27.3094 47.2404 27.7621 47.9979C28.2917 48.7553 29.089 49.3247 29.9631 49.5895C30.8373 49.8942 31.7826 49.9682 32.6938 49.9682C33.642 49.8543 34.667 49.7034 35.4614 49.134C36.1448 48.7553 36.6004 47.995 36.8652 47.3145C37.1699 46.5571 37.2439 45.6459 37.2439 44.8116V41.782C37.2439 40.8709 37.0531 39.9996 36.6744 39.2051C36.2188 38.331 35.4216 37.6875 34.5133 37.3088C33.4512 37.0041 32.2382 36.9301 31.2131 37.1949C30.3789 37.3857 29.6955 37.8014 29.052 38.3338V32.2262H27.0047ZM33.8669 39.2051C33.3772 38.9403 32.7678 38.8264 32.2382 38.8264L32.1243 38.8207H31.5548C31.0281 38.8948 30.4956 39.0457 30.1169 39.3504C29.5844 39.7291 29.2428 40.2985 29.1289 40.868C29.015 41.5115 29.015 42.1579 29.015 42.7644V45.2302C29.0919 46.0673 29.2428 46.8988 29.8493 47.5053C30.4187 48.0719 31.29 48.2627 32.1243 48.2627C32.8817 48.2627 33.7929 48.0747 34.3994 47.5053C34.966 46.8988 35.1568 45.9876 35.1568 45.2302L35.2308 42.3885C35.2308 41.782 35.1966 41.1755 35.0059 40.569C34.8151 39.9625 34.4364 39.4699 33.8669 39.2051ZM0.00585938 33.7809V49.7063H2.05597V42.7672H4.18012L8.73308 49.7063H11.31L6.38114 42.5764C7.13855 42.3515 8.00985 42.0867 8.73308 41.5884C9.49048 41.0588 9.98593 40.2615 10.1368 39.3874C10.3276 38.4392 10.3276 37.491 10.0229 36.5457C9.75814 35.6715 9.11178 34.954 8.35438 34.5354C7.29231 33.966 6.07932 33.778 4.94037 33.778L0.00585938 33.7809ZM6.82818 35.905C6.03092 35.5263 5.16247 35.5263 4.28832 35.5263L4.29117 35.5605H2.09014V40.9876H3.9865C4.96884 40.9876 5.9939 40.9876 6.94208 40.6089C7.51155 40.3441 8.007 39.7746 8.08103 39.0912C8.2718 38.4449 8.2718 37.7644 8.08103 37.118C7.89026 36.5514 7.39766 36.0958 6.82818 35.905Z" fill="white"/>
<path id="Shape_2" fill-rule="evenodd" clip-rule="evenodd" d="M62.4828 33.8066H53.9492V49.6865H56.0363V42.3858H62.4828V40.6802H56.0363V35.4667H62.4828V33.8066ZM84.0517 37.0811C83.5278 37.0811 82.9612 37.0811 82.4857 37.1751C81.2983 37.2691 80.1622 37.7417 79.4048 38.6899C78.693 39.6836 78.4566 40.965 78.4566 42.1979V49.6409H80.4953V42.0583C80.511 41.932 80.5241 41.8042 80.5372 41.6761C80.6026 41.0365 80.6687 40.3897 81.0648 39.8773C81.2043 39.5954 81.4435 39.4046 81.6799 39.2622C82.4401 38.8807 83.2459 38.7867 84.0517 38.7867V37.0811Z" fill="white"/>
<path id="Shape_3" fill-rule="evenodd" clip-rule="evenodd" d="M90.4126 37.0782C89.1227 37.0782 87.756 37.5679 86.8477 38.5958C86.0903 39.3532 85.7087 40.6061 85.7087 41.745V44.7775C85.7087 45.6118 85.7827 46.4461 86.0874 47.2035C86.4661 48.1146 87.3004 48.7952 88.2116 49.1767C89.4863 49.6717 90.8954 49.6692 92.283 49.6668H92.2834C92.3803 49.6666 92.4771 49.6665 92.5737 49.6665V47.9239C91.6626 47.9239 90.6774 47.9239 89.6922 47.7331C89.1626 47.6192 88.5532 47.3544 88.2543 46.8988C87.8756 46.4091 87.7987 45.7598 87.7645 45.2302V43.1801H95.9564C95.9564 42.4227 95.9564 41.5884 95.8425 40.7883C95.7286 40.0309 95.4638 39.2707 95.0083 38.6642C94.3619 37.753 93.2657 37.2262 92.1666 37.0725C91.7154 36.9823 91.2643 36.9885 90.7962 36.995C90.6734 36.9967 90.5494 36.9985 90.424 36.9985V37.0782H90.4126ZM45.3215 37.0782H44.752C43.7298 37.1921 42.5908 37.5679 41.8334 38.331C41.2269 38.9375 40.8853 39.6949 40.6945 40.4922C40.5316 41.0963 40.5255 41.7005 40.5194 42.3046C40.517 42.5347 40.5147 42.7649 40.5037 42.995V45.2701C40.5777 46.1813 40.7286 47.0127 41.1501 47.7729C41.4149 48.2627 41.8334 48.7211 42.289 49.0628C42.9354 49.5184 43.6529 49.7462 44.4132 49.8202C45.3613 49.9711 46.3095 49.9711 47.1808 49.8202C48.203 49.6294 49.2309 49.1368 49.8374 48.3026C50.5948 47.3145 50.7486 46.1015 50.7856 44.8885V42.118C50.7856 41.3606 50.7116 40.6004 50.4069 39.9569C50.256 39.2735 49.8773 38.667 49.3847 38.1744C48.4735 37.3003 47.1096 37.0355 45.9707 37.0355H45.4012L45.3215 37.0782ZM15.2133 38.0264C16.0447 37.3829 17.0669 37.1522 18.055 37.0782L18.1745 37.1551H19.4644C20.5635 37.2291 21.7395 37.6106 22.5737 38.368C23.408 39.2792 23.7867 40.5691 23.7867 41.7821V44.3532C23.7867 44.5297 23.7949 44.702 23.8032 44.8744V44.8744V44.8744V44.8744V44.8744V44.8744V44.8744C23.8196 45.2196 23.8361 45.5652 23.7867 45.9449C23.6728 46.896 23.371 47.8441 22.7247 48.6015C21.9644 49.3248 21.0162 49.7035 20.0681 49.8544C18.969 50.0822 17.9069 50.0081 16.7679 49.7035C15.8966 49.5127 15.0624 49.0201 14.4929 48.1858C13.8465 47.3544 13.5817 46.2923 13.5817 45.1534V43.1801C13.5817 42.9953 13.5779 42.8088 13.5741 42.621C13.5608 41.9608 13.5471 41.2838 13.6956 40.6032C13.9234 39.618 14.4559 38.6329 15.2133 38.0264ZM20.256 39.1653C19.8004 38.9005 19.2679 38.7866 18.7383 38.7866L18.6614 38.8208H17.7503C17.0669 38.9717 16.4234 39.3532 16.0447 39.9597C15.5151 40.72 15.5151 41.7422 15.5151 42.6163V45.1192C15.555 45.8766 15.7429 46.7878 16.3892 47.3942C16.9217 48.0007 17.83 48.1516 18.6643 48.1516C19.4217 48.1915 20.3699 47.9637 20.9393 47.3174C21.506 46.634 21.6968 45.7257 21.6968 44.8914V42.3885C21.6826 42.2136 21.6735 42.0334 21.6643 41.8516C21.6476 41.5216 21.6306 41.1868 21.5829 40.8709C21.3949 40.1534 21.0134 39.47 20.256 39.1653ZM46.7594 38.9404C46.3067 38.8265 45.8511 38.8265 45.3955 38.8265L45.4638 38.7895H45.0083C44.3647 38.9062 43.6814 39.134 43.3027 39.6636C42.8101 40.2758 42.6193 41.0303 42.6193 41.7137L42.5453 43.6101C42.5547 43.8171 42.5575 44.0285 42.5602 44.2406C42.5689 44.9212 42.5778 45.6095 42.8101 46.187C42.961 46.8703 43.3425 47.4398 43.949 47.7046C44.5555 48.0833 45.3898 48.0833 46.0732 48.0833C46.8306 48.0064 47.5908 47.7786 47.9695 47.249C48.576 46.5657 48.7269 45.6972 48.7269 44.8231V42.1665C48.7269 41.4034 48.576 40.6118 48.1973 39.9654C47.8983 39.4301 47.3659 39.0543 46.7594 38.9404ZM69.6694 37.0782C68.5305 37.0782 67.3944 37.4569 66.4832 38.1403C65.6091 38.8977 65.1563 40.0366 64.9655 41.1727V45.7257C65.1165 46.9387 65.6119 48.1915 66.5572 48.9119C67.6962 49.8231 69.1341 49.974 70.5379 49.937C70.6871 49.8878 70.8538 49.8713 71.0273 49.8541C71.1154 49.8454 71.2052 49.8365 71.2953 49.8231C72.3203 49.6721 73.3824 49.2934 74.0999 48.4592C74.6694 47.8527 74.9741 47.0212 75.088 46.1841C75.1784 45.7027 75.1719 45.1962 75.1654 44.686V44.686V44.6858V44.6857V44.6856C75.1637 44.5531 75.162 44.4204 75.162 44.2878V41.7052C75.162 40.4153 74.7833 39.0486 73.7583 38.1773C72.7702 37.2661 71.4063 37.0383 70.1535 37.0383H69.6637L69.6694 37.0782ZM71.2611 38.9375C70.9564 38.8606 70.5777 38.7866 70.199 38.7866L70.2417 38.7496L69.2167 38.8635C68.7611 38.9375 68.3824 39.0884 68.0037 39.3931C67.625 39.7319 67.3602 40.2302 67.1694 40.72C66.9786 41.4831 66.9786 42.3544 66.9786 43.1118C66.9786 43.276 66.977 43.4417 66.9753 43.6079C66.9688 44.2512 66.9622 44.9017 67.0527 45.5036C67.1267 46.261 67.3545 46.8703 67.8101 47.3999C68.2628 47.7786 68.9092 48.0434 69.5157 48.1573C70.2731 48.1573 71.0305 48.1573 71.6768 47.7786C72.1694 47.5879 72.5908 47.1294 72.8158 46.6397C73.1204 45.9563 73.1945 45.1961 73.1945 44.4387V41.7821C73.1546 41.1385 73.0037 40.4552 72.625 39.8857C72.3232 39.3931 71.8306 39.0514 71.2611 38.9375ZM92.1552 38.9774C91.6256 38.8265 91.0931 38.8265 90.5635 38.8265L90.5208 38.8635H89.9912C89.3477 38.9802 88.7013 39.208 88.3226 39.7376C87.9411 40.2274 87.7902 40.8737 87.7161 41.4802H93.8978C93.8978 41.0275 93.8181 40.5719 93.5931 40.1163C93.2941 39.5839 92.7617 39.1682 92.1552 38.9774Z" fill="white"/>
<path id="Path" fill-rule="evenodd" clip-rule="evenodd" d="M97.8903 37.363C98.7445 37.269 99.6442 37.269 100.498 37.363L102.11 39.2594L104.197 41.7736L107.751 37.363L108.035 37.269H110.311L105.143 43.1489L110.971 49.6893H108.411L104.004 44.4758L99.8777 49.6893H97.2695L100.729 45.8026L103.004 43.1944V43.0521L97.9301 37.363H97.8903Z" fill="white"/>
<path id="Path_2" fill-rule="evenodd" clip-rule="evenodd" d="M42.0273 0.00244141H61.6999C62.9812 0.096405 64.2597 0.287179 65.4898 0.759845C66.5319 1.23536 67.5769 1.99276 68.2375 3.0349C68.713 3.7923 68.9493 4.74048 68.9493 5.69151V11.2354C68.9493 11.5685 68.9493 11.9472 68.807 12.2775C68.4283 13.3652 67.7648 14.4102 66.8166 15.1192C65.6777 16.0674 64.2084 16.5429 62.742 16.7308C62.2665 16.8248 61.9362 16.7308 61.5091 16.7308H53.7842V11.3777H64.3081V5.69436H47.9527V27.3088H42.0273V0.00244141Z" fill="white"/>
<path id="Path_3" fill-rule="evenodd" clip-rule="evenodd" d="M53.6895 21.1611H63.6439L66.6308 27.1805H53.6895V21.1611Z" fill="white"/>
</g>
</svg>
