<svg width="91" height="50" viewBox="0 0 91 50" fill="none" xmlns="http://www.w3.org/2000/svg">
<g id="Group 9">
<path id="SVGID_5_-path" fill-rule="evenodd" clip-rule="evenodd" d="M90.0687 43.8706H84.6719V41.707H84.5535C83.835 42.6092 82.9002 43.2582 81.753 43.6583C80.6059 44.0584 79.4343 44.2584 78.2341 44.2584C76.7155 44.2584 75.4663 44.1074 74.4947 43.8094C73.5231 43.5073 72.7556 43.0827 72.1964 42.5316C71.6371 41.9805 71.2452 41.311 71.0166 40.519C70.788 39.727 70.6777 38.8534 70.6777 37.89V28.3374H76.3562V37.1062C76.3562 38.388 76.6216 39.3433 77.1564 39.9761C77.6911 40.6047 78.6342 40.9232 79.9976 40.9232C81.5448 40.9232 82.6634 40.5762 83.3574 39.8863C84.0514 39.1963 84.3984 38.0574 84.3984 36.4775V28.3456H90.0769V43.8706H90.0687Z" fill="white"/>
<path id="Combined Shape" fill-rule="evenodd" clip-rule="evenodd" d="M45.2461 35.9547C45.2461 34.6892 45.4992 33.5379 46.0095 32.5051C46.5198 31.4723 47.2464 30.5946 48.1854 29.8679C49.1243 29.1413 50.2551 28.582 51.5696 28.182C52.8841 27.7819 54.3619 27.5859 55.9989 27.5859C57.6359 27.5859 59.1219 27.786 60.4486 28.182C61.7794 28.582 62.9143 29.1413 63.8533 29.8679C64.7922 30.5946 65.5188 31.4723 66.0291 32.5051C66.5394 33.5379 66.7925 34.6851 66.7925 35.9547C66.7925 37.2202 66.5394 38.3673 66.0291 39.3879C65.5188 40.4085 64.7922 41.2821 63.8533 42.0087C62.9143 42.7354 61.7794 43.2906 60.4486 43.6784C59.1178 44.0662 57.6359 44.2622 55.9989 44.2622C54.3619 44.2622 52.8841 44.0662 51.5696 43.6784C50.2551 43.2906 49.1243 42.7313 48.1854 42.0087C47.2464 41.2821 46.5198 40.4085 46.0095 39.3879C45.4992 38.3673 45.2461 37.2243 45.2461 35.9547ZM51.2797 35.9383C51.2797 36.5548 51.3573 37.1549 51.5165 37.7386C51.6757 38.3224 51.9452 38.849 52.3248 39.3185C52.7086 39.7839 53.2148 40.1554 53.8434 40.433C54.4762 40.7106 55.2641 40.8494 56.2112 40.8494C57.1583 40.8494 57.9543 40.7106 58.5993 40.433C59.2443 40.1554 59.7587 39.7839 60.1384 39.3185C60.5221 38.8531 60.7915 38.3265 60.9467 37.7386C61.1059 37.1549 61.1834 36.5548 61.1834 35.9383C61.1834 35.3219 61.1059 34.7177 60.9467 34.1217C60.7874 33.5257 60.518 32.9991 60.1384 32.5419C59.7546 32.0846 59.2443 31.7132 58.5993 31.4274C57.9543 31.1416 57.1583 30.9947 56.2112 30.9947C55.2641 30.9947 54.4721 31.1375 53.8434 31.4274C53.2107 31.7132 52.7045 32.0887 52.3248 32.5419C51.9411 32.9991 51.6716 33.5257 51.5165 34.1217C51.3573 34.7177 51.2797 35.326 51.2797 35.9383Z" fill="white"/>
<path id="SVGID_5_-path_2" fill-rule="evenodd" clip-rule="evenodd" d="M35.3463 46.0094C34.7339 47.2871 33.8848 48.1975 32.7948 48.7445C31.7048 49.2915 30.1903 49.5651 28.2512 49.5651C27.6674 49.5651 27.0878 49.5487 26.5162 49.5202C25.9447 49.4916 25.3691 49.4548 24.7812 49.414V45.8583C25.3119 45.8991 25.859 45.94 26.4142 45.9808C26.9734 46.0216 27.5286 46.0298 28.0879 46.0094C28.8309 45.9481 29.382 45.7236 29.7413 45.3399C30.1005 44.9561 30.2801 44.5275 30.2801 44.0621C30.2801 43.7192 30.1985 43.3926 30.0393 43.0905L22.834 28.3452H28.8513L33.5133 39.1103H33.595L38.0937 28.3452H43.9518L35.3463 46.0094Z" fill="white"/>
<path id="SVGID_9_" fill-rule="evenodd" clip-rule="evenodd" d="M14.9141 21.3481L18.2901 24.3446L7.09645 34.2809H18.0125V49.7365H13.1179V39.0164H0.421875V34.2809L14.9141 21.3481Z" fill="white"/>
<path id="Forex" fill-rule="evenodd" clip-rule="evenodd" d="M5.7453 3.36158V8.14606H15.5132V11.5081H5.7453V18.103H0.861328V-0.000488281H16.8096V3.36158H5.7453ZM28.247 18.534C26.5525 18.534 25.0324 18.221 23.6868 17.5949C22.3412 16.9688 21.2896 16.1003 20.5321 14.9892C19.7746 13.8782 19.3958 12.6173 19.3958 11.2064C19.3958 9.79555 19.7746 8.53462 20.5321 7.42357C21.2896 6.31253 22.3412 5.44398 23.6868 4.81792C25.0324 4.19185 26.5525 3.87882 28.247 3.87882C29.9415 3.87882 31.4565 4.19185 32.7922 4.81792C34.1278 5.44398 35.1744 6.31253 35.9319 7.42357C36.6895 8.53462 37.0682 9.79555 37.0682 11.2064C37.0682 12.6173 36.6895 13.8782 35.9319 14.9892C35.1744 16.1003 34.1278 16.9688 32.7922 17.5949C31.4565 18.221 29.9415 18.534 28.247 18.534ZM28.2469 15.0857C29.4381 15.0857 30.4159 14.7342 31.1803 14.0313C31.9447 13.3283 32.3268 12.3867 32.3268 11.2064C32.3268 10.0261 31.9447 9.08451 31.1803 8.38154C30.4159 7.67858 29.4381 7.3271 28.2469 7.3271C27.0557 7.3271 26.0729 7.67858 25.2986 8.38154C24.5243 9.08451 24.1372 10.0261 24.1372 11.2064C24.1372 12.3867 24.5243 13.3283 25.2986 14.0313C26.0729 14.7342 27.0557 15.0857 28.2469 15.0857ZM45.3702 5.93689C45.9242 5.25955 46.6712 4.74721 47.6111 4.39985C48.5511 4.0525 49.6345 3.87882 50.8613 3.87882V7.63024C50.3468 7.59551 50.0006 7.57814 49.8225 7.57814C48.4967 7.57814 47.4578 7.90378 46.7058 8.55507C45.9539 9.20636 45.5779 10.1833 45.5779 11.4859V18.103H40.9475V4.08723H45.3702V5.93689ZM70.2579 11.2593C70.2579 11.3122 70.2282 11.6826 70.1689 12.3704H58.1023C58.3197 13.2521 58.8336 13.9487 59.6439 14.4602C60.4543 14.9716 61.4623 15.2273 62.668 15.2273C63.4982 15.2273 64.2344 15.1171 64.8768 14.8967C65.5192 14.6762 66.1171 14.3279 66.6705 13.8517L69.1313 16.2325C67.6291 17.7669 65.4352 18.534 62.5494 18.534C60.7508 18.534 59.1597 18.221 57.7761 17.5949C56.3926 16.9688 55.3252 16.1003 54.5742 14.9892C53.8231 13.8782 53.4475 12.6173 53.4475 11.2064C53.4475 9.81319 53.8181 8.55667 54.5593 7.4368C55.3005 6.31694 56.3184 5.44398 57.6131 4.81792C58.9077 4.19185 60.3555 3.87882 61.9565 3.87882C63.5179 3.87882 64.9311 4.17862 66.1961 4.77824C67.4611 5.37785 68.4543 6.23758 69.1757 7.35744C69.8972 8.47731 70.2579 9.77792 70.2579 11.2593ZM62.0829 6.89606C61.0484 6.89606 60.1798 7.16546 59.4771 7.70425C58.7745 8.24305 58.3451 8.97939 58.1889 9.91331H65.9475C65.7914 8.99735 65.362 8.2655 64.6593 7.71772C63.9566 7.16995 63.0978 6.89606 62.0829 6.89606ZM84.3256 18.103L80.7731 13.7405L77.1001 18.103H71.982L78.214 10.938L72.1928 3.87882H77.4614L80.8935 8.02973L84.4159 3.87882H89.4136L83.3923 10.8323L89.6544 18.103H84.3256Z" fill="white"/>
</g>
</svg>
