<svg width="114" height="60" viewBox="0 0 114 60" fill="none" xmlns="http://www.w3.org/2000/svg">
<g id="fd11dff01957ae7e6ee3b04402354670">
<path id="XMLID_31_" fill-rule="evenodd" clip-rule="evenodd" d="M41.0616 31.3527L52.0738 1.10722C52.3076 0.484712 52.9272 0.0229492 53.6257 0.0229492H58.3573C59.0558 0.0229492 59.6754 0.411649 59.9092 1.10722L66.1897 18.324H68.5921C69.0597 18.324 69.5214 18.6338 69.6763 19.0984L70.6846 21.7346C70.7635 21.9684 70.6057 22.2782 70.2959 22.2782H67.5809L68.1245 23.906H70.5268C70.9944 23.906 71.4562 24.2158 71.6111 24.6805L72.6193 27.3167C72.6982 27.5505 72.5404 27.8603 72.2306 27.8603H69.5156L70.7547 31.3498C70.8337 31.5836 70.6758 31.8934 70.3661 31.8934H65.4795C65.0119 31.8934 64.5502 31.5836 64.3953 31.1189L63.235 27.9392H48.5054C48.1956 27.9392 48.0377 27.6294 48.1167 27.3956L49.1249 24.7594C49.2798 24.2918 49.7474 23.985 50.2092 23.985H61.917L61.3734 22.3571H50.5248C50.2151 22.3571 50.0572 22.0473 50.1361 21.8135L51.1444 19.1774C51.2993 18.7097 51.7669 18.4029 52.2287 18.4029H59.8273L55.1775 5.60502C55.0227 5.21632 54.555 5.21632 54.4031 5.60502L45.0977 31.1189C44.9428 31.5865 44.4752 31.8934 44.0134 31.8934H41.4532C41.2165 31.8934 40.9856 31.5836 41.0616 31.3527Z" fill="white"/>
<path id="XMLID_30_" fill-rule="evenodd" clip-rule="evenodd" d="M16.3794 48.0347C17.1509 48.0347 17.7764 47.4092 17.7764 46.6377C17.7764 45.8662 17.1509 45.2407 16.3794 45.2407C15.6079 45.2407 14.9824 45.8662 14.9824 46.6377C14.9824 47.4092 15.6079 48.0347 16.3794 48.0347Z" fill="white"/>
<path id="XMLID_29_" fill-rule="evenodd" clip-rule="evenodd" d="M9.24311 50.7498C9.24311 50.9047 8.46863 51.7581 8.46863 51.7581L12.7356 51.7552C12.7356 51.7552 11.5724 50.516 11.5724 50.4371C11.4608 50.214 9.41915 44.8404 8.1404 41.4748C7.64377 40.1676 7.26221 39.1634 7.15348 38.8813H6.99859C6.98595 38.8935 6.94356 38.9375 6.88032 39.0032C6.5486 39.3477 5.64308 40.288 5.44671 40.3543L5.52562 40.5881C5.34415 40.9511 3.96526 44.1621 2.82295 46.8223C2.01522 48.7033 1.32578 50.3088 1.26162 50.4371C1.10672 50.6709 0.951825 50.9018 0.872917 50.9807C0.794008 51.0567 0.0195312 51.6792 0.0195312 51.6792H2.96546L2.11208 50.8258C2.03317 50.7498 2.26697 49.9754 2.50078 49.3529C2.53917 49.2572 2.60612 49.0948 2.68746 48.8975C2.93428 48.2986 3.31365 47.3782 3.43015 47.0265H8.08285C8.1943 47.3694 8.6814 48.7937 8.96436 49.6211C9.06726 49.922 9.14316 50.1439 9.1642 50.2062C9.24311 50.44 9.24311 50.6709 9.24311 50.7498ZM4.92641 43.2297C5.3532 42.1828 5.72159 41.2791 5.7565 41.2106C5.81705 41.4483 5.87587 41.5966 5.9673 41.8269C5.99503 41.8968 6.02576 41.9742 6.06045 42.064C6.1168 42.2054 6.1836 42.3565 6.25325 42.514C6.37503 42.7895 6.5055 43.0846 6.60404 43.3821L7.22655 44.934C7.36131 45.2035 7.46986 45.4973 7.58241 45.8019C7.66513 46.0258 7.75001 46.2556 7.84905 46.4858H3.58505C3.75778 46.0964 4.38849 44.5492 4.92641 43.2297Z" fill="white"/>
<path id="XMLID_28_" fill-rule="evenodd" clip-rule="evenodd" d="M45.7714 50.7498C45.7714 50.9047 44.9969 51.7581 44.9969 51.7581L49.2609 51.7552C49.2609 51.7552 48.0978 50.516 48.0978 50.4371C47.9862 50.214 45.9445 44.8404 44.6658 41.4748C44.1692 40.1676 43.7876 39.1634 43.6789 38.8813H43.524C43.5113 38.8935 43.469 38.9375 43.4057 39.0032C43.074 39.3477 42.1685 40.288 41.9721 40.3543L42.051 40.5881C41.8695 40.9511 40.4907 44.1621 39.3483 46.8223C38.5406 48.7033 37.8512 50.3088 37.787 50.4371C37.6321 50.6709 37.4772 50.9018 37.3983 50.9807C37.3194 51.0567 36.5449 51.6792 36.5449 51.6792H39.4909L38.6375 50.8258C38.5586 50.7498 38.7924 49.9754 39.0262 49.3529C39.0646 49.2572 39.1315 49.0948 39.2129 48.8975C39.4597 48.2986 39.839 47.3782 39.9555 47.0265H44.6082C44.7109 47.3344 45.1188 48.5275 45.4054 49.3657C45.5514 49.7925 45.6659 50.1273 45.6925 50.2062C45.7714 50.44 45.7714 50.6709 45.7714 50.7498ZM41.4518 43.2297C41.8786 42.1828 42.247 41.2791 42.2819 41.2106L42.2819 41.2106C42.4368 41.5204 42.5157 41.6782 42.5858 42.064C42.6422 42.2054 42.709 42.3565 42.7786 42.514C42.9004 42.7895 43.0309 43.0846 43.1294 43.3821L43.7519 44.934C43.8867 45.2035 43.9952 45.4973 44.1078 45.8019C44.1905 46.0258 44.2754 46.2556 44.3744 46.4858H40.1104C40.2832 46.0964 40.9139 44.5492 41.4518 43.2297Z" fill="white"/>
<path id="XMLID_27_" fill-rule="evenodd" clip-rule="evenodd" d="M30.2627 51.7581C30.2627 51.7581 31.5019 50.8287 31.5808 50.5949C31.6597 50.44 31.7357 50.2851 31.7357 50.0513L31.8146 40.4332C31.5048 41.2077 26.8492 51.3694 26.8492 51.4454H26.7703C26.3816 50.592 21.8837 40.3543 21.8048 40.2783V49.5837C21.8048 49.9724 21.9597 50.3582 22.0386 50.592C22.1935 50.9018 23.2018 51.7552 23.2018 51.7552H19.8672C19.8672 51.7552 20.6417 50.8258 20.7966 50.592C20.9515 50.2822 21.0304 49.9695 21.1063 49.5837C21.1853 49.195 21.2612 41.3626 21.2612 41.0528C21.2612 40.743 21.1823 40.4303 21.0274 40.2783C20.8725 40.0445 20.1741 39.27 20.1741 39.27H23.3538L27.384 48.4994C27.9334 47.4152 31.7327 39.3489 31.7327 39.27H34.9943C34.9943 39.27 33.986 40.1234 33.9101 40.4332C33.9101 40.4332 33.8311 40.743 33.8311 41.2077V50.2033C33.8311 50.4371 33.9101 50.592 33.986 50.7469L35.2252 51.7552C35.2281 51.7581 30.2627 51.7581 30.2627 51.7581Z" fill="white"/>
<path id="XMLID_26_" fill-rule="evenodd" clip-rule="evenodd" d="M59.8083 51.5243L60.0421 51.7581L60.0304 51.9948H63.365C63.365 51.9948 62.5906 51.6061 62.2019 51.2963C61.8161 51.0625 61.4303 50.6007 60.9627 49.9782C60.7318 49.5895 60.4191 49.1249 60.0333 48.5813C59.6475 48.0377 59.3348 47.5759 59.025 47.1083C58.933 46.9243 58.8132 46.7949 58.6986 46.6712C58.6202 46.5866 58.5443 46.5047 58.4814 46.4098C58.3266 46.176 58.1717 46.0211 57.9379 45.9422V45.8633C58.1184 45.7894 58.2824 45.7162 58.4455 45.6433C58.6309 45.5605 58.8154 45.4781 59.0221 45.3957C59.4079 45.1648 59.7177 44.931 59.9515 44.6972C60.1853 44.3903 60.4191 44.0776 60.574 43.7678C60.7289 43.458 60.8078 43.0723 60.8078 42.6046C60.8078 41.9062 60.65 41.3655 60.3402 40.8979C60.0304 40.4361 59.6446 40.0474 59.101 39.8136C58.6363 39.5798 58.0957 39.4249 57.4732 39.346C56.8507 39.2671 51.1926 39.2671 51.1137 39.2671C51.1137 39.2671 51.8122 39.8107 51.9671 39.9656C52.0136 39.9656 52.0316 40.0235 52.0567 40.104C52.0726 40.155 52.0913 40.2152 52.122 40.2754L52.2009 40.819C52.2009 40.9479 52.1538 43.9048 52.1116 46.5585C52.0772 48.7184 52.046 50.6774 52.046 50.7469C52.0178 50.8044 52 50.8511 51.9848 50.891C51.9591 50.9586 51.9407 51.0071 51.8911 51.0567C51.7362 51.2086 50.8828 51.8311 50.8828 51.8311H55.3806C55.3806 51.8311 54.3753 51.0567 54.2964 50.9018L54.2908 50.885C54.2166 50.6596 54.1415 50.4314 54.1415 50.2033C54.1415 50.1204 54.1315 49.6475 54.1187 49.0372C54.0954 47.9264 54.0625 46.3602 54.0625 45.8604H54.4512C54.6061 45.8604 54.761 45.8604 54.9948 45.9393C55.3046 46.0182 55.5384 46.1731 55.8482 46.4069C56.0561 46.5633 56.2305 46.7559 56.394 46.9366C56.4719 47.0227 56.5473 47.106 56.6227 47.1814C56.8536 47.4912 57.0874 47.8009 57.3212 48.0347C57.3952 48.145 57.4871 48.2733 57.5799 48.4027C57.6814 48.5442 57.7839 48.6871 57.8648 48.8092C58.0361 48.9784 58.1651 49.19 58.2827 49.3829C58.3256 49.4533 58.367 49.5212 58.4084 49.5837C58.5536 49.7271 58.6684 49.9022 58.7906 50.0884C58.8651 50.202 58.9423 50.3198 59.0309 50.4371C59.1231 50.6232 59.2153 50.7534 59.2915 50.861C59.3433 50.9342 59.3876 50.9969 59.4196 51.0596C59.4985 51.2145 59.5745 51.2905 59.6534 51.3694L59.8083 51.5243ZM57.0202 39.7376C57.5608 39.9685 57.9495 40.3543 58.2593 40.8219C58.5691 41.2895 58.724 41.7542 58.8818 42.3708C58.8818 42.6777 58.8059 42.9904 58.7269 43.3002C58.648 43.61 58.4931 43.9198 58.3382 44.1536C58.2233 44.3835 58.0649 44.528 57.8954 44.6829C57.8364 44.7367 57.7761 44.7918 57.7157 44.8521C57.4849 45.0099 57.1751 45.1648 56.7864 45.3197C56.4006 45.3986 54.6967 45.3986 54.2291 45.3986V39.6616C54.2291 39.5827 55.5472 39.5827 55.857 39.5827C56.0908 39.5827 56.7104 39.5827 57.0202 39.7376Z" fill="white"/>
<path id="XMLID_25_" fill-rule="evenodd" clip-rule="evenodd" d="M73.6915 51.7582C73.6126 51.7582 73.6126 51.6793 73.5366 51.6793C73.4577 51.6004 73.3817 51.6004 73.3817 51.5244C72.6072 50.671 71.9088 49.8176 71.2863 49.0432L69.1908 46.7168L68.5683 46.0943C68.4894 46.0154 68.3345 45.9394 68.2585 45.9394C68.1796 45.9394 68.1036 45.9394 68.1036 46.0183C68.1036 46.0972 68.0247 46.0972 68.0247 46.2521V49.3529C68.0247 49.6627 68.0247 49.9755 68.1036 50.2823C68.1036 50.5921 68.1825 50.8259 68.3374 50.9808C68.4163 51.1357 68.4923 51.2146 68.6472 51.2906C68.8021 51.3695 69.6555 51.8342 69.6555 51.8342H64.6141C64.6141 51.8342 65.6983 51.2117 65.7772 51.0597C65.8561 50.9808 65.8561 50.9048 65.9321 50.7499C65.9321 50.595 66.011 50.4401 66.011 50.2823V41.9852C66.011 41.5176 66.011 41.1318 65.9321 40.746C65.9321 40.3573 65.8532 40.1235 65.6983 39.9716C65.5434 39.7378 64.5352 39.1971 64.5352 39.1971H69.4217C69.4217 39.1971 68.6472 39.5858 68.4923 39.7407C68.3374 39.8956 68.1825 40.0505 68.1036 40.3632C68.0247 40.597 67.9487 40.9857 67.9487 41.5264V45.4776C68.1825 45.3227 72.4465 41.2896 72.6014 41.0587C72.7563 40.8249 72.8352 40.5911 72.8352 40.3603C72.8352 40.0505 72.0607 39.1211 72.0607 39.1211H76.0909C76.0909 39.1211 75.1616 39.5887 74.5391 40.0505C73.9165 40.5152 73.2999 40.9798 72.6774 41.6023C72.4436 41.8361 72.2098 42.0699 71.9029 42.3008L71.1284 43.0753C70.8946 43.3091 70.6608 43.6189 70.354 43.8498C70.1202 44.0836 69.8863 44.3174 69.7315 44.5483C69.8104 44.7032 70.0412 44.937 70.354 45.3228C70.6667 45.7114 71.1284 46.1761 71.5931 46.7197C72.0607 47.2633 72.5225 47.804 73.0661 48.4265C73.6097 49.049 74.0744 49.5897 74.618 50.1333C74.7729 50.2882 74.8518 50.4431 75.0067 50.522C75.1616 50.6769 75.3165 50.7558 75.4743 50.9107C75.6292 50.9896 75.7081 51.1445 75.863 51.2205C75.9419 51.2994 76.0179 51.3754 76.0968 51.3754C76.2517 51.4543 76.9502 51.843 76.9502 51.843H73.6915V51.7582Z" fill="white"/>
<path id="XMLID_24_" fill-rule="evenodd" clip-rule="evenodd" d="M88.9707 51.7582H78.5781C78.5781 51.7582 79.5075 51.1357 79.6624 50.9048C79.7413 50.8259 79.7413 50.7499 79.8173 50.595C79.8173 50.4401 79.9722 40.9009 79.9722 40.6671C79.9722 40.4333 79.8933 40.2784 79.8933 40.1235C79.8144 39.9686 79.8144 39.8137 79.7384 39.8137C79.5835 39.6588 78.809 39.1152 78.809 39.1152H88.0384L89.0467 41.4416C89.0467 41.4416 87.264 40.2024 86.4106 39.7348C86.1768 39.6559 85.867 39.5799 85.3263 39.5799C84.7827 39.501 82.1466 39.501 82.0677 39.5799C82.0677 39.7348 81.9887 45.0071 81.9887 45.0071H84.1602C84.5489 44.9282 84.7827 44.8522 85.0136 44.6973C85.2445 44.5424 85.4023 44.3875 85.5572 44.1537L86.3317 42.9905V47.6432C86.3317 47.6432 85.3234 46.2463 85.0925 46.0914C84.9376 45.9365 84.7038 45.8576 84.394 45.7027C84.1602 45.6238 83.8504 45.5478 83.4646 45.5478H81.8368C81.8368 45.7027 81.8368 49.9667 81.9157 50.2794C81.9157 50.5892 81.9946 50.747 82.1495 50.9019C82.2284 51.0568 82.6171 51.1357 83.0029 51.1357C83.7773 51.2146 86.4164 51.2146 86.9571 50.9808C87.2669 50.8259 87.5796 50.747 87.8865 50.5132C88.1962 50.2794 89.6692 48.8064 89.6692 48.8064L88.9707 51.7582Z" fill="white"/>
<path id="XMLID_23_" fill-rule="evenodd" clip-rule="evenodd" d="M101.996 40.2024C101.762 39.9686 101.452 39.8137 101.222 39.7347C100.912 39.6558 100.599 39.5799 100.137 39.5799H97.9658V50.1273C97.9658 50.4371 98.0447 50.6709 98.1207 50.7498C98.2756 50.9837 99.4388 51.6792 99.4388 51.6792H94.3974C94.3974 51.6792 95.4817 51.0567 95.7155 50.7498C95.7944 50.6709 95.7944 50.595 95.8704 50.4401C95.8704 50.2852 95.9493 50.1303 95.9493 49.9724V39.5828H93.6989C93.2313 39.5828 92.9244 39.6617 92.6146 39.7377C92.3048 39.8137 92.071 39.9715 91.8402 40.2053C91.7612 40.2842 90.3672 41.7572 90.3672 41.7572L90.8348 38.9661C91.0686 39.045 102.776 38.9661 103.089 38.8872L103.557 41.7572C103.548 41.8302 102.075 40.2813 101.996 40.2024Z" fill="white"/>
<path id="XMLID_22_" fill-rule="evenodd" clip-rule="evenodd" d="M113.397 49.8174C113.163 50.285 112.853 50.6708 112.467 50.9806C112.078 51.2904 111.614 51.5242 110.994 51.6791C110.451 51.834 109.831 51.9129 109.133 51.9129C108.589 51.9129 108.048 51.9129 107.66 51.834C107.271 51.7551 106.885 51.6791 106.651 51.6002C106.417 51.5213 106.184 51.4453 106.029 51.3664C105.874 51.2875 105.795 51.2115 105.795 51.2115L105.096 51.834L105.018 48.6542C105.018 48.6542 105.947 49.8934 106.102 50.1272C106.257 50.361 106.491 50.5948 106.724 50.8257C106.958 51.0595 107.113 51.2144 107.347 51.2933C107.581 51.3722 108.586 51.6031 108.899 51.6031C109.752 51.6031 110.681 51.5242 111.225 51.0595C111.772 50.5948 112 49.9752 112 49.1189C112 48.8091 111.921 48.4964 111.845 48.2655C111.766 48.0317 111.611 47.7979 111.377 47.643C111.222 47.4881 110.988 47.3332 110.755 47.1754C110.521 47.0205 110.211 46.9416 109.98 46.7867C109.67 46.7078 109.436 46.6318 109.282 46.5529L108.659 46.3191C108.504 46.2402 108.27 46.1642 108.115 46.1642C107.961 46.0853 107.727 46.0093 107.417 45.9304C107.107 45.8515 106.794 45.6206 106.564 45.4628C106.254 45.229 106.02 44.9952 105.789 44.7643C105.555 44.4545 105.4 44.2207 105.246 43.8349C105.091 43.5252 105.091 43.1365 105.091 42.7507C105.091 42.1282 105.17 41.5875 105.4 41.1228C105.634 40.6552 105.944 40.2694 106.33 39.9596C106.719 39.6498 107.183 39.416 107.648 39.2611C108.191 39.1063 108.656 39.0273 109.276 39.0273C109.819 39.0273 110.284 39.1063 110.594 39.1822C110.983 39.2611 111.292 39.3371 111.523 39.492C111.757 39.5709 111.912 39.7258 112.067 39.8018C112.222 39.8807 112.222 39.9567 112.301 39.9567L112.999 39.3342V42.134C112.999 42.134 111.76 40.737 111.526 40.4272C111.216 40.1175 111.137 39.9596 110.752 39.8047C110.363 39.6498 109.588 39.5709 109.124 39.5709C108.735 39.5709 108.425 39.6498 108.115 39.7258C107.806 39.8018 107.727 39.8047 107.417 40.0356C107.183 40.2694 106.949 40.5032 106.873 40.8101C106.719 41.1199 106.64 41.5086 106.64 41.8944C106.64 42.5169 106.794 42.9786 107.183 43.3673C107.572 43.756 108.037 44.0658 108.656 44.2967C108.89 44.3756 109.124 44.4516 109.279 44.5305L109.901 44.7643C109.901 44.7643 110.29 44.9192 110.524 44.9981L111.146 45.2319C111.921 45.5417 112.543 45.9304 113.008 46.4711C113.475 47.0147 113.63 47.7102 113.63 48.5666C113.709 48.812 113.63 49.3556 113.397 49.8174Z" fill="white"/>
<path id="XMLID_19_" fill-rule="evenodd" clip-rule="evenodd" d="M31.2706 56.256C31.0368 56.7236 30.727 57.2643 30.4961 57.729V59.8244H29.6427V57.729C29.4089 57.2613 29.0991 56.7207 28.8682 56.256C28.6344 55.7884 28.3246 55.2477 28.0938 54.783H29.0231L29.6456 56.0222L29.8794 56.4898L30.1132 56.9574L30.5808 55.9491L31.2033 54.71H32.1327C31.8142 55.3266 31.5804 55.7884 31.2706 56.256Z" fill="white"/>
<path id="XMLID_18_" fill-rule="evenodd" clip-rule="evenodd" d="M34.2943 56.3317C34.1394 56.2557 33.8296 56.1768 33.5958 56.1768C33.286 56.1768 32.9762 56.2557 32.8243 56.4865C32.5905 56.6414 32.4356 56.8752 32.2807 57.1091C32.2767 57.1173 32.2728 57.1255 32.2688 57.1337C32.1967 57.283 32.1258 57.4298 32.1258 57.5767C32.0469 57.7316 32.0469 57.9654 32.0469 58.1203C32.0469 58.6609 32.1229 59.0496 32.3567 59.3594C32.5116 59.5932 32.6665 59.7481 32.9003 59.827C33.0552 59.903 33.3649 59.9819 33.5988 59.9819C33.9056 59.9819 34.1394 59.9059 34.3732 59.827C34.607 59.6721 34.7619 59.5172 34.9168 59.2834C34.9588 59.1979 34.9776 59.1123 34.9993 59.0135C35.0169 58.9333 35.0364 58.8445 35.0717 58.7398C35.1506 58.5849 35.1506 58.3511 35.1506 58.0413C35.1506 57.7316 35.1506 57.5767 35.0717 57.3429C34.9928 57.1091 34.9168 56.9542 34.8379 56.7993C34.683 56.5655 34.5281 56.4106 34.2943 56.3317ZM33.2071 57.0331C33.362 56.9542 33.4409 56.9542 33.5958 56.9542C33.7507 56.9542 33.8296 56.9542 33.9845 57.0272C34.0634 57.1032 34.1394 57.1821 34.2183 57.337C34.2972 57.4919 34.2972 57.6497 34.2972 57.9595V58.3482L34.2183 58.582C34.2183 58.7369 34.1394 58.8918 33.9845 58.9707C33.9056 59.0467 33.7507 59.1256 33.5958 59.1256C33.4409 59.1256 33.286 59.1256 33.2071 59.0467C33.1282 58.9707 33.0522 58.8918 32.9733 58.7369C32.9733 58.6993 32.954 58.6423 32.9344 58.5848C32.9145 58.5261 32.8944 58.4669 32.8944 58.4271V57.6526C32.8944 57.5767 32.8944 57.4218 32.9733 57.3429C32.9733 57.2251 33.0629 57.1529 33.1405 57.0904C33.165 57.0707 33.1882 57.052 33.2071 57.0331Z" fill="white"/>
<path id="XMLID_17_" fill-rule="evenodd" clip-rule="evenodd" d="M36.6995 56.2559V58.4273C36.6995 58.6611 36.7784 58.8949 36.8544 58.9709C36.9333 59.1258 37.1642 59.1258 37.398 59.1258C37.5529 59.1258 37.7867 59.0469 37.8656 58.9709C38.0205 58.816 38.0994 58.6611 38.0994 58.4273V56.2559H38.9528V59.8243H38.0994V59.4356C38.0205 59.5905 37.8656 59.6694 37.7107 59.7454C37.5558 59.8243 37.4009 59.8243 37.2431 59.8243C36.8544 59.8243 36.5446 59.7454 36.3137 59.5145C36.0829 59.2836 36.0039 58.9709 36.0039 58.5851V56.2588C35.9981 56.2559 36.6995 56.2559 36.6995 56.2559Z" fill="white"/>
<path id="XMLID_16_" fill-rule="evenodd" clip-rule="evenodd" d="M41.3528 56.9543C41.119 56.9543 40.9641 57.0333 40.8852 57.1092C40.7303 57.2641 40.7303 57.419 40.7303 57.6528V59.8243H39.877V56.2559H40.6514V56.7235C40.8852 56.4137 41.195 56.2559 41.5048 56.2559C41.6597 56.2559 41.7386 56.2559 41.8935 56.3348C41.9724 56.3348 42.1273 56.4137 42.2033 56.4897L41.8935 57.2641C41.8146 57.1852 41.6597 57.1852 41.5837 57.1092C41.5866 57.0333 41.4318 56.9543 41.3528 56.9543Z" fill="white"/>
<path id="XMLID_15_" fill-rule="evenodd" clip-rule="evenodd" d="M46.7045 56.3317C46.5496 56.2557 46.2398 56.1768 46.006 56.1768C45.6962 56.1768 45.3835 56.2557 45.2344 56.4865C45.0006 56.6414 44.8457 56.8752 44.6908 57.1091C44.6869 57.1173 44.6829 57.1255 44.679 57.1337C44.6068 57.283 44.5359 57.4298 44.5359 57.5767C44.457 57.7316 44.457 57.9654 44.457 58.1203C44.457 58.6609 44.533 59.0496 44.7668 59.3594C44.9217 59.5932 45.0766 59.7481 45.3104 59.827C45.4653 59.903 45.7751 59.9819 46.0089 59.9819C46.3158 59.9819 46.5496 59.9059 46.7834 59.827C47.0172 59.6721 47.1721 59.5172 47.327 59.2834C47.3689 59.1979 47.3877 59.1123 47.4094 59.0135C47.427 58.9333 47.4466 58.8445 47.4819 58.7398C47.5608 58.5849 47.5608 58.3511 47.5608 58.0413C47.5608 57.7316 47.5608 57.5767 47.4819 57.3429C47.403 57.1091 47.327 56.9542 47.2481 56.7993C47.0932 56.5655 46.9383 56.4106 46.7045 56.3317ZM45.6173 57.0331C45.7722 56.9542 45.8511 56.9542 46.006 56.9542C46.1609 56.9542 46.2398 56.9542 46.3947 57.0272C46.4736 57.1032 46.5496 57.1821 46.6285 57.337C46.7074 57.4919 46.7074 57.6497 46.7074 57.9595V58.3482L46.6285 58.582C46.6285 58.7369 46.5496 58.8918 46.3947 58.9707C46.3158 59.0467 46.1609 59.1256 46.006 59.1256C45.8511 59.1256 45.6962 59.1256 45.6173 59.0467C45.5384 58.9707 45.4624 58.8918 45.3835 58.7369C45.3835 58.6993 45.3641 58.6423 45.3446 58.5848C45.3247 58.5261 45.3046 58.4669 45.3046 58.4271V57.6526C45.3046 57.5767 45.3046 57.4218 45.3835 57.3429C45.3835 57.2251 45.4731 57.1529 45.5507 57.0904C45.5751 57.0707 45.5984 57.052 45.6173 57.0331Z" fill="white"/>
<path id="XMLID_14_" fill-rule="evenodd" clip-rule="evenodd" d="M50.5033 59.8243V57.6528C50.5033 57.419 50.4244 57.2641 50.3484 57.1092C50.2695 56.9543 50.0386 56.9543 49.8048 56.9543C49.571 56.9543 49.4161 57.0333 49.3372 57.1092C49.1823 57.2641 49.1034 57.419 49.1034 57.6528V59.8243H48.25V56.2559H49.1034V56.6446C49.1823 56.4897 49.3372 56.4108 49.571 56.3348C49.7259 56.2559 49.8808 56.2559 50.1146 56.2559C50.5033 56.2559 50.8131 56.3348 50.968 56.5656C51.2018 56.7995 51.2778 57.1092 51.2778 57.495V59.8214L50.5033 59.8243Z" fill="white"/>
<path id="XMLID_13_" fill-rule="evenodd" clip-rule="evenodd" d="M53.2182 59.8243C53.0633 59.8243 52.9844 59.8243 52.8295 59.7454C52.6746 59.7454 52.5957 59.6665 52.5197 59.5905C52.4408 59.5116 52.3648 59.4356 52.2859 59.2807C52.207 59.1258 52.207 58.9709 52.207 58.8131V54.4702H53.0604V58.6582C53.0604 58.8131 53.0604 58.892 53.1393 58.968C53.2182 59.0469 53.2942 59.0469 53.3731 59.0469H53.528V59.8214C53.528 59.8243 53.2182 59.8243 53.2182 59.8243Z" fill="white"/>
<path id="XMLID_12_" fill-rule="evenodd" clip-rule="evenodd" d="M54.2266 54.7856V55.5601H55.2266V54.7856H54.2266ZM54.2266 56.2557V59.8241H55.2266V56.2557H54.2266Z" fill="white"/>
<path id="XMLID_11_" fill-rule="evenodd" clip-rule="evenodd" d="M58.182 59.8243V57.6528C58.182 57.419 58.1031 57.2641 58.0271 57.1092C57.9482 56.9543 57.7173 56.9543 57.4835 56.9543C57.2497 56.9543 57.0948 57.0333 57.0159 57.1092C56.861 57.2641 56.7821 57.419 56.7821 57.6528V59.8243H55.9316V56.2559H56.785V56.6446C56.9399 56.4897 57.0188 56.4108 57.2526 56.3348C57.4075 56.2559 57.5624 56.2559 57.7962 56.2559C58.1849 56.2559 58.4947 56.3348 58.6496 56.5656C58.8834 56.7995 58.9594 57.1092 58.9594 57.495V59.8214L58.182 59.8243Z" fill="white"/>
<path id="XMLID_10_" fill-rule="evenodd" clip-rule="evenodd" d="M60.6616 58.5822C60.5827 58.5062 60.5827 58.3513 60.5827 58.2724C60.5827 58.2724 62.7571 58.2724 62.7658 58.2695V57.9597C62.7658 57.7288 62.7658 57.495 62.6869 57.2612C62.611 57.0274 62.532 56.8725 62.3771 56.7176C62.2982 56.6416 62.0644 56.4867 61.9095 56.4078C61.7546 56.3318 61.5208 56.2529 61.287 56.2529C61.1321 56.2529 60.8983 56.2529 60.7434 56.3318C60.5096 56.4078 60.3547 56.4867 60.1998 56.6416C60.0449 56.7965 59.8901 56.9514 59.8111 57.1852C59.7352 57.4161 59.6562 57.7288 59.6562 58.0386C59.6562 58.4244 59.7322 58.7342 59.8111 58.968C59.8901 59.2018 60.0449 59.3567 60.1998 59.5116C60.3159 59.6276 60.4762 59.6994 60.6145 59.7613C60.6608 59.782 60.7046 59.8016 60.7434 59.8214C60.8983 59.9003 61.1321 59.9003 61.287 59.9003C61.5179 59.9003 61.7517 59.9003 61.9855 59.8214C62.2233 59.7608 62.3698 59.6555 62.5308 59.5397C62.5796 59.5047 62.6297 59.4687 62.684 59.4327C62.6051 59.2778 62.5291 59.2018 62.4502 59.1229C62.3713 58.968 62.2953 58.892 62.2164 58.8131L61.7488 59.0469C61.5939 59.1258 61.439 59.1258 61.3601 59.1258C61.2841 59.1258 61.1292 59.1258 61.0503 59.0469C60.9714 59.0469 60.8954 58.9709 60.8165 58.892C60.7405 58.816 60.6616 58.6611 60.6616 58.5822ZM60.8165 57.1881C60.9743 57.0333 61.1292 56.9543 61.2841 56.9543C61.439 56.9543 61.5939 57.0333 61.7459 57.1881C61.9008 57.2641 61.9797 57.4979 61.9797 57.7317H60.5827C60.5827 57.4979 60.6616 57.343 60.8165 57.1881Z" fill="white"/>
<path id="XMLID_9_" fill-rule="evenodd" clip-rule="evenodd" d="M68.4166 58.5849C68.4955 58.43 68.4955 58.1962 68.4955 57.9624C68.4955 57.8501 68.454 57.6963 68.4023 57.5043C68.3826 57.4315 68.3615 57.3533 68.3406 57.2697C68.3406 57.1148 68.2646 56.881 68.1857 56.7261C68.1068 56.5712 67.9519 56.4164 67.797 56.3374C67.6421 56.2615 67.4083 56.1825 67.1745 56.1825C67.0167 56.1825 66.8618 56.1825 66.7069 56.2615C66.552 56.3374 66.4731 56.4164 66.3182 56.5712V54.5547H65.4648V59.8299H66.3182V59.4412C66.3952 59.5923 66.5446 59.6683 66.6957 59.7452C66.6994 59.7472 66.7032 59.7491 66.7069 59.751C66.8647 59.8299 67.0196 59.8299 67.1745 59.8299C67.4843 59.8299 67.7181 59.8299 67.873 59.675C67.8787 59.6693 67.8843 59.6635 67.8899 59.6578C68.0391 59.5059 68.1857 59.3566 68.2617 59.2074C68.3377 59.0525 68.4166 58.8187 68.4166 58.5849ZM67.6451 57.6497V58.0384V58.5001C67.6451 58.655 67.6451 58.8099 67.5662 58.8888L67.3324 59.1226C67.2534 59.2015 67.0986 59.2015 66.9437 59.2015C66.7888 59.2015 66.6339 59.2015 66.555 59.1226C66.4579 59.075 66.4216 58.9964 66.3887 58.9249C66.3691 58.8824 66.3506 58.8423 66.3212 58.8128L66.2422 58.4241V57.6497C66.2422 57.5737 66.2422 57.4188 66.3212 57.3399L66.555 57.1061C66.7099 57.0272 66.7888 57.0272 66.9437 57.0272C67.0986 57.0272 67.2534 57.0272 67.3324 57.1061C67.4354 57.1586 67.4699 57.2098 67.5047 57.2614C67.5222 57.2874 67.5397 57.3135 67.5662 57.3399C67.5662 57.3712 67.5795 57.403 67.5953 57.4404C67.6178 57.4938 67.6451 57.5586 67.6451 57.6497Z" fill="white"/>
<path id="XMLID_8_" fill-rule="evenodd" clip-rule="evenodd" d="M70.7454 56.9543C70.5116 56.9543 70.3567 57.0333 70.2778 57.1092C70.1229 57.2641 70.1229 57.419 70.1229 57.6528V59.8243H69.2695V56.2559H70.044V56.7235C70.2778 56.4137 70.5876 56.2559 70.8974 56.2559C71.0523 56.2559 71.1312 56.2559 71.2861 56.3348C71.365 56.3348 71.5199 56.4137 71.5959 56.4897L71.2861 57.2641C71.2072 57.1852 71.0523 57.1852 70.9763 57.1092C70.9792 57.0333 70.9003 56.9543 70.7454 56.9543Z" fill="white"/>
<path id="XMLID_7_" fill-rule="evenodd" clip-rule="evenodd" d="M74.1596 56.3317C74.0047 56.2557 73.6949 56.1768 73.4611 56.1768C73.0724 56.1768 72.8386 56.2557 72.6895 56.4865C72.4557 56.6414 72.3008 56.8752 72.1459 57.1091C72.142 57.1173 72.138 57.1255 72.134 57.1337C72.0619 57.283 71.991 57.4298 71.991 57.5767C71.9121 57.7316 71.9121 57.9654 71.9121 58.1203C71.9121 58.6609 71.9881 59.0496 72.2219 59.3594C72.3768 59.5932 72.5317 59.7481 72.7655 59.827C72.9204 59.903 73.2302 59.9819 73.464 59.9819C73.7709 59.9819 74.0047 59.9059 74.2385 59.827C74.4723 59.6721 74.6272 59.5172 74.7821 59.2834C74.824 59.1979 74.8428 59.1123 74.8645 59.0135C74.8821 58.9333 74.9016 58.8445 74.937 58.7398C75.0159 58.5849 75.0159 58.3511 75.0159 58.0413C75.0159 57.7316 75.0159 57.5767 74.937 57.3429C74.858 57.1091 74.7821 56.9542 74.7031 56.7993C74.5483 56.5655 74.3934 56.4106 74.1596 56.3317ZM72.9935 57.0331C73.1483 56.9542 73.2273 56.9542 73.3822 56.9542C73.537 56.9542 73.6919 56.9542 73.7709 57.0272C73.8498 57.1032 73.9257 57.1821 74.0047 57.337C74.0836 57.4919 74.0836 57.6497 74.0836 57.9595V58.3482L74.0047 58.582C74.0047 58.7369 73.9257 58.8918 73.7709 58.9707C73.6919 59.0467 73.537 59.1256 73.3822 59.1256C73.2273 59.1256 73.0724 59.1256 72.9935 59.0467C72.9145 58.9707 72.8386 58.8918 72.7596 58.7369C72.7596 58.6993 72.7403 58.6423 72.7208 58.5848C72.7008 58.5261 72.6807 58.4669 72.6807 58.4271V57.6526C72.6807 57.5767 72.6807 57.4218 72.7596 57.3429C72.7596 57.2251 72.8492 57.1529 72.9269 57.0904C72.9513 57.0707 72.9746 57.052 72.9935 57.0331Z" fill="white"/>
<path id="XMLID_6_" fill-rule="evenodd" clip-rule="evenodd" d="M78.1133 59.824C77.9584 59.5902 77.7246 59.2804 77.5697 59.0496C77.4148 58.8187 77.2599 58.506 77.0261 58.2751C76.9472 58.354 76.8712 58.43 76.7923 58.5849C76.7134 58.6638 76.6374 58.7398 76.5585 58.8947V59.824H75.7051V54.5488H76.5585V57.7286L77.257 56.9541L77.8795 56.2556H78.8877L77.5697 57.6526C77.8035 58.0413 78.0373 58.3511 78.3441 58.7368C78.5779 59.1255 78.8118 59.4353 79.1186 59.8211C79.1186 59.824 78.1133 59.824 78.1133 59.824Z" fill="white"/>
<path id="XMLID_5_" fill-rule="evenodd" clip-rule="evenodd" d="M80.2085 58.5822C80.1296 58.5062 80.1296 58.3513 80.1296 58.2724L82.3127 58.2695V57.9597C82.3127 57.7288 82.3098 57.495 82.2338 57.2612C82.1578 57.0274 82.0789 56.8725 81.924 56.7176C81.8451 56.6416 81.6113 56.4867 81.4564 56.4078C81.3015 56.3318 81.0677 56.2529 80.8339 56.2529C80.679 56.2529 80.4452 56.2529 80.2903 56.3318C80.0565 56.4078 79.9016 56.4867 79.7467 56.6416C79.5918 56.7965 79.4369 56.9514 79.358 57.1852C79.282 57.4161 79.2031 57.7288 79.2031 58.0386C79.2031 58.4244 79.2791 58.7342 79.358 58.968C79.4369 59.2018 79.5918 59.3567 79.7467 59.5116C79.8628 59.6276 80.0231 59.6994 80.1614 59.7613C80.2077 59.782 80.2515 59.8016 80.2903 59.8214C80.4452 59.9003 80.679 59.9003 80.8339 59.9003C81.0648 59.9003 81.2986 59.9003 81.5324 59.8214C81.7702 59.7608 81.9167 59.6555 82.0777 59.5397C82.1265 59.5047 82.1765 59.4687 82.2309 59.4327C82.152 59.2778 82.076 59.2018 81.9971 59.1229C81.9182 58.968 81.8422 58.892 81.7633 58.8131L81.2957 59.0469C81.1408 59.1258 80.9859 59.1258 80.907 59.1258C80.831 59.1258 80.6761 59.1258 80.5972 59.0469C80.5183 59.0469 80.4423 58.9709 80.3634 58.892C80.2874 58.816 80.2085 58.6611 80.2085 58.5822ZM80.4364 57.1881C80.5943 57.0333 80.7492 56.9543 80.9041 56.9543C81.0589 56.9543 81.2138 57.0333 81.3658 57.1881C81.5207 57.2641 81.5996 57.4979 81.5996 57.7317H80.2026C80.2026 57.4979 80.2815 57.343 80.4364 57.1881Z" fill="white"/>
<path id="XMLID_4_" fill-rule="evenodd" clip-rule="evenodd" d="M84.7064 56.9543C84.4726 56.9543 84.3177 57.0333 84.2387 57.1092C84.0839 57.2641 84.0839 57.419 84.0839 57.6528V59.8243H83.2305V56.2559H84.0049V56.7235C84.2387 56.4137 84.5485 56.2559 84.8583 56.2559C85.0132 56.2559 85.0921 56.2559 85.247 56.3348C85.3259 56.3348 85.4808 56.4137 85.5568 56.4897L85.247 57.2641C85.1681 57.1852 85.0132 57.1852 84.9372 57.1092C84.9372 57.0333 84.7823 56.9543 84.7064 56.9543Z" fill="white"/>
</g>
</svg>
