<svg width="77" height="50" viewBox="0 0 77 50" fill="none" xmlns="http://www.w3.org/2000/svg">
<g id="16e473fa733851039db5482c942b26a8">
<path id="Path" fill-rule="evenodd" clip-rule="evenodd" d="M0.0136719 32.1688V29.8496H17.8036V32.1688H10.3854V49.6484H7.425V32.1688H0.0136719Z" fill="white"/>
<path id="Path_2" fill-rule="evenodd" clip-rule="evenodd" d="M18.9766 34.6655V37.8238H19.038C19.6826 36.6062 20.4738 35.7092 21.4049 35.1294C22.3395 34.5496 24.3313 34.1608 25.7637 34.2017V36.8108C24.703 36.8108 22.9909 37.0632 22.244 37.3326C21.497 37.6021 20.8933 37.9977 20.4363 38.523C19.9759 39.0448 19.6485 39.6792 19.437 40.4193C19.229 41.1662 19.1266 42.0189 19.1266 42.9841V49.6485H16.4766V34.6655H18.9766Z" fill="white"/>
<path id="Shape" fill-rule="evenodd" clip-rule="evenodd" d="M38.5326 49.4334C38.9453 49.7915 39.5013 49.9688 40.2038 49.9688C41.0326 49.9688 41.6806 49.8426 42.1547 49.5902V47.6769C41.8341 47.7724 41.5613 47.8201 41.3259 47.8201C40.903 47.8201 40.654 47.6837 40.579 47.4143C40.504 47.1414 40.4665 46.7185 40.4665 46.1387V38.4306C40.4665 37.5643 40.2857 36.8583 39.9242 36.316C39.5592 35.7771 39.0817 35.3576 38.4883 35.0575C37.8948 34.7608 37.2332 34.5595 36.4999 34.464C35.7666 34.3685 35.0299 34.3208 34.2864 34.3208C33.3723 34.3208 32.5026 34.4095 31.6738 34.5834C30.8416 34.7574 30.1083 35.0439 29.474 35.4395C28.8362 35.8317 28.3246 36.3501 27.9426 36.9879C27.5606 37.6257 27.3525 38.4067 27.3082 39.3344H30.0163C30.0776 38.2362 30.4937 37.4859 31.2577 37.0902C32.0251 36.6946 32.9801 36.4968 34.1261 36.4968C34.549 36.4968 34.9787 36.5241 35.4153 36.5821C35.8519 36.64 36.2441 36.756 36.5954 36.9299C36.9467 37.1039 37.2298 37.3529 37.4549 37.6837C37.6766 38.0111 37.7891 38.4477 37.7891 38.9866C37.7891 39.4538 37.639 39.8085 37.3423 40.0473C37.0422 40.2928 36.6397 40.4736 36.1315 40.5998C35.6199 40.726 35.0333 40.8215 34.3648 40.8897C33.6963 40.9545 32.9903 41.0568 32.2468 41.1932C31.5442 41.3058 30.8621 41.4525 30.1936 41.6264C29.5251 41.8003 28.9317 42.0561 28.4098 42.3938C27.8914 42.7314 27.4719 43.1714 27.1513 43.7103C26.8341 44.2526 26.6738 44.9484 26.6738 45.7976C26.6738 46.5514 26.8171 47.1926 27.1036 47.7246C27.3901 48.2533 27.7857 48.6898 28.2837 49.0275C28.7816 49.3651 29.3614 49.6073 30.0197 49.7505C30.6745 49.8938 31.3771 49.9688 32.1206 49.9688C33.2666 49.9688 34.3307 49.7915 35.3198 49.4334C36.3055 49.0752 37.1684 48.492 37.9119 47.6803C37.9119 48.492 38.1199 49.0752 38.5326 49.4334ZM34.6786 42.6803C35.2857 42.6121 35.8621 42.5268 36.4146 42.4177C36.9671 42.3119 37.4139 42.1414 37.7516 41.9061V44.4299C37.7516 44.7744 37.6561 45.1496 37.4651 45.5452C37.2741 45.9409 36.9774 46.3092 36.5749 46.6469C36.1725 46.9879 35.6506 47.2676 35.0128 47.4893C34.3785 47.711 33.6111 47.8235 32.7209 47.8235C32.3184 47.8235 31.9228 47.7826 31.5272 47.7076C31.1315 47.6325 30.7939 47.5063 30.5074 47.3324C30.2209 47.1585 29.989 46.9299 29.8082 46.6503C29.6274 46.3672 29.5388 46.0261 29.5388 45.6203C29.5388 45.0029 29.6922 44.5152 29.9992 44.1571C30.3028 43.799 30.7018 43.5261 31.1895 43.3317C31.6806 43.1407 32.2298 42.9975 32.8471 42.9122C33.461 42.8235 34.0749 42.7485 34.6786 42.6803Z" fill="white"/>
<path id="Shape_2" fill-rule="evenodd" clip-rule="evenodd" d="M56.3741 37.1041V29.6484H59.1743V49.6655H56.3707V47.7044H56.3059C55.8455 48.5059 55.119 49.0857 54.1299 49.4404C53.1409 49.7951 52.0563 49.9724 50.866 49.9724C49.5495 49.9724 48.4001 49.7678 47.4212 49.3551C46.4458 48.9424 45.634 48.3899 44.9826 47.701C44.3346 47.0086 43.8469 46.2037 43.516 45.2896C43.1852 44.3722 43.0215 43.4036 43.0215 42.3735C43.0215 41.3503 43.1784 40.3749 43.499 39.4609C43.8162 38.5434 44.2971 37.7453 44.9485 37.0632C45.5931 36.381 46.4117 35.8353 47.3871 35.4363C48.3694 35.0338 49.5051 34.8326 50.8012 34.8326C51.2411 34.8326 51.7152 34.8701 52.22 34.9452C52.7248 35.0202 53.2295 35.1464 53.7343 35.3237C54.2391 35.5011 54.7166 35.7364 55.1702 36.0263C55.6238 36.3162 56.0024 36.6744 56.3093 37.1041H56.3741ZM55.2316 46.0093C55.6784 45.5079 55.999 44.9383 56.2002 44.3006C56.4014 43.6628 56.5003 43.0182 56.4867 42.3667C56.4867 41.6709 56.3776 41.0025 56.1695 40.3544C55.9615 39.7098 55.6272 39.1368 55.1702 38.6457C54.7166 38.1546 54.1231 37.7555 53.4001 37.4554C52.6702 37.1553 51.7937 37.0052 50.7636 37.0052C49.7575 37.0052 48.9048 37.1621 48.2022 37.469C47.4962 37.776 46.9369 38.1853 46.514 38.6969C46.0945 39.2051 45.7909 39.7917 45.6033 40.4465C45.4158 41.1014 45.3237 41.7767 45.3237 42.469C45.3237 43.1239 45.4362 43.7685 45.6579 44.396C45.8796 45.0236 46.2207 45.5864 46.6777 46.0775C47.1347 46.572 47.7179 46.9609 48.4342 47.2542C49.147 47.5475 49.9826 47.6907 50.9444 47.6907C51.9505 47.6907 52.8032 47.5373 53.5092 47.2269C54.2118 46.9131 54.7882 46.5106 55.2316 46.0093Z" fill="white"/>
<path id="Shape_3" fill-rule="evenodd" clip-rule="evenodd" d="M69.046 49.9688C70.9185 49.9688 72.4669 49.5425 73.6981 48.6932C74.9328 47.844 75.7275 46.5752 76.0856 44.9006H73.4116C73.1763 45.8863 72.6954 46.6196 71.9621 47.1039C71.2288 47.5882 70.2909 47.8269 69.1449 47.8269C68.2513 47.8269 67.4737 47.6905 66.8189 47.4211C66.164 47.1482 65.6217 46.7901 65.1954 46.3331C64.7691 45.8795 64.4621 45.3542 64.2711 44.7676C64.0801 44.181 63.9949 43.5534 64.0153 42.8986H76.3414C76.3857 41.9879 76.2936 41.0295 76.0719 40.0268C75.8503 39.0241 75.4444 38.0964 74.8612 37.2471C74.2745 36.3979 73.5037 35.6987 72.5351 35.1462C71.5699 34.5937 70.3557 34.3208 68.8891 34.3208C67.767 34.3208 66.7302 34.5152 65.7855 34.9006C64.8373 35.2894 64.0187 35.8283 63.3298 36.5241C62.6408 37.2198 62.1054 38.0418 61.7234 38.9866C61.3414 39.9313 61.1504 40.975 61.1504 42.1141C61.1913 43.2533 61.3755 44.3037 61.7063 45.2724C62.0337 46.241 62.5283 47.0698 63.1865 47.7655C63.8414 48.4613 64.6531 49.0036 65.6217 49.389C66.587 49.7744 67.7295 49.9688 69.046 49.9688ZM72.061 37.7212C72.4737 38.0998 72.8046 38.5466 73.0467 39.0718C73.2923 39.5902 73.4355 40.1428 73.4799 40.7192H64.0222C64.0665 40.1428 64.2029 39.5937 64.4382 39.0821C64.6702 38.567 64.9908 38.1203 65.3932 37.7314C65.7923 37.346 66.2766 37.0425 66.8393 36.8208C67.3987 36.5991 68.0297 36.4866 68.7322 36.4866C69.411 36.4866 70.0317 36.5991 70.5945 36.8208C71.1572 37.0425 71.6449 37.346 72.061 37.7212Z" fill="white"/>
<path id="Path_3" fill-rule="evenodd" clip-rule="evenodd" d="M46.8105 21.4663V0.316895H53.5397V21.4663H46.8105Z" fill="white"/>
<path id="Path_4" fill-rule="evenodd" clip-rule="evenodd" d="M69.6834 21.6163V19.5699C69.4753 19.7404 69.2025 19.9621 68.8614 20.2384C68.5203 20.5112 68.0838 20.7772 67.5551 21.033C67.0231 21.2888 66.3921 21.5071 65.652 21.6845C64.9153 21.8652 64.0422 21.9539 63.0394 21.9539C62.5483 21.9539 62.064 21.9266 61.5933 21.8686C61.1193 21.8107 60.6554 21.7152 60.2018 21.5856C59.1615 21.282 58.3532 20.8557 57.7734 20.31C57.197 19.7609 56.7741 19.1947 56.5115 18.6081C56.2454 18.0214 56.0851 17.4621 56.0306 16.9334C55.9726 16.4048 55.9453 15.9955 55.9453 15.7124V5.72607H62.6745V14.0651C62.6745 14.5017 62.7086 14.9553 62.7734 15.4293C62.8382 15.9034 63.0804 16.3366 63.4965 16.7356C63.8375 17.0562 64.2434 17.2813 64.7175 17.4041C65.1916 17.5269 65.6179 17.5883 65.9965 17.5883C66.4501 17.5883 66.9276 17.5133 67.4324 17.3598C67.9337 17.2097 68.343 16.9437 68.667 16.5651C69.0626 16.1285 69.3048 15.6408 69.3901 15.1019C69.4753 14.563 69.5163 14.0856 69.5163 13.6695V5.72607H76.2148V21.6163H69.6834Z" fill="white"/>
<path id="Path_5" fill-rule="evenodd" clip-rule="evenodd" d="M38.4861 21.6163V19.5699C38.2781 19.7404 38.0052 19.9621 37.6641 20.2384C37.3231 20.5112 36.8865 20.7772 36.3579 21.033C35.8258 21.2888 35.1948 21.5071 34.4547 21.6845C33.718 21.8652 32.8449 21.9539 31.8422 21.9539C31.351 21.9539 30.8667 21.9266 30.3961 21.8686C29.922 21.8107 29.4581 21.7152 29.0045 21.5856C27.9643 21.282 27.156 20.8557 26.5762 20.31C25.9998 19.7609 25.5768 19.1947 25.3142 18.6081C25.0482 18.0214 24.8879 17.4621 24.8333 16.9334C24.7753 16.4048 24.748 15.9955 24.748 15.7124V5.72607H31.4772V14.0651C31.4772 14.5017 31.5113 14.9553 31.5762 15.4293C31.641 15.9034 31.8831 16.3366 32.2992 16.7356C32.6403 17.0562 33.0461 17.2813 33.5202 17.4041C33.9943 17.5269 34.4206 17.5883 34.7958 17.5883C35.2494 17.5883 35.7269 17.5133 36.2317 17.3598C36.733 17.2097 37.1423 16.9437 37.4663 16.5651C37.8654 16.1285 38.1041 15.6408 38.1894 15.1019C38.2746 14.563 38.3156 14.0856 38.3156 13.6695V5.72607H45.0141V21.6163H38.4861Z" fill="white"/>
<path id="Path_6" fill-rule="evenodd" clip-rule="evenodd" d="M23.411 1.12163C23.3701 1.0807 23.3701 1.03978 23.3701 0.998848C23.3291 0.95792 23.2882 0.916992 23.2064 0.916992H1.65452C1.57266 0.916992 1.57266 0.95792 1.53173 0.998848C1.44988 1.03978 1.44988 1.0807 1.44988 1.12163V5.67143C1.44988 5.71235 1.44988 5.75328 1.53173 5.79421C1.57266 5.83514 1.57266 5.87606 1.65452 5.87606H13.4008L0.662021 17.4995C0.662021 17.5405 0.621094 17.5814 0.621094 17.6223C0.621094 17.6223 0.621094 17.6223 0.621094 17.7042V21.7969C0.621094 21.8379 0.621094 21.8788 0.662021 21.9197C0.702949 21.9606 0.784805 22.0016 0.825732 22.0016H17.4083C16.9103 22.5405 16.4567 23.0759 16.0031 23.5739C15.9212 23.6148 15.9212 23.6557 15.9212 23.6967C15.9212 23.7785 15.9212 23.8194 16.0031 23.8604L18.9806 26.9197C19.0215 26.9197 19.1034 26.9606 19.1443 26.9606C19.1852 26.9606 19.2261 26.9197 19.308 26.9197L26.4226 19.5561C26.4226 19.5152 26.4226 19.4743 26.4635 19.389C26.4226 19.3481 26.4226 19.3072 26.4226 19.2662L19.3114 11.9572C19.2705 11.9163 19.2296 11.9163 19.1886 11.9163C19.1886 11.8754 19.1477 11.8754 19.1068 11.9163C19.0658 11.9163 19.0249 11.9163 18.984 11.9572L16.0065 15.1428C15.9246 15.2246 15.9246 15.2246 15.9246 15.3065C15.9246 15.3474 15.9246 15.4327 16.0065 15.4327L17.3298 16.8788H10.795L23.3701 5.13254V5.09162C23.3701 5.05069 23.3701 5.05069 23.411 5.00976V1.12163Z" fill="white"/>
</g>
</svg>
