<svg width="116" height="60" viewBox="0 0 116 60" fill="none" xmlns="http://www.w3.org/2000/svg">
<g id="deffa8d06ea8f1f436aa16916ef872e0">
<path id="polygon5_1_" fill-rule="evenodd" clip-rule="evenodd" d="M32.423 41.6694V59.9592H26.7168V41.6694H32.423Z" fill="white"/>
<path id="path7_1_" fill-rule="evenodd" clip-rule="evenodd" d="M37.3326 41.6694H48.3064C51.5177 41.6694 53.747 42.2932 54.9986 43.5407C56.069 44.6111 56.6042 46.3052 56.6042 48.7157V59.9632H50.8979V48.096C50.8979 46.3093 50.0046 45.5085 47.9563 45.5085H42.9543V59.8747H37.248L37.3326 41.6694Z" fill="white"/>
<path id="path9_1_" fill-rule="evenodd" clip-rule="evenodd" d="M75.619 48.4461V48.8042L75.611 48.9048H67.7639C62.5003 48.9048 60.0898 50.8606 60.0898 54.6111C60.0898 56.6594 60.8947 58.0879 62.4118 58.9813C63.6633 59.605 65.5345 59.9632 68.0335 59.9632H81.3293V49.7016C81.3293 46.2207 80.2589 43.8103 78.118 42.6513C76.9591 42.0276 75.2649 41.6694 72.943 41.6694H61.611V45.5044H71.2488C74.5486 45.5044 75.619 46.2127 75.619 48.4461ZM68.122 52.7318H75.619L75.615 56.0316H69.0154C66.8746 56.0316 65.9812 55.5849 65.9812 54.426C65.9812 53.267 66.6935 52.7318 68.122 52.7318Z" fill="white"/>
<path id="path11_1_" fill-rule="evenodd" clip-rule="evenodd" d="M86.0527 41.6694H107.023C110.415 41.6694 112.821 42.2932 114.073 43.5407C115.143 44.5226 115.767 46.1282 115.767 48.2731V59.9632H110.057V49.0739C110.057 46.3978 109.252 45.5044 106.664 45.5044H103.63V59.8706H97.924V45.597H91.767V59.9632H86.0608L86.0527 41.6694Z" fill="white"/>
<path id="path13_1_" fill-rule="evenodd" clip-rule="evenodd" d="M8.68902 45.597H21.5381V41.6694H8.3349C5.12363 41.6694 2.89425 42.2932 1.64274 43.5407C0.572321 44.6111 0.0371094 46.3052 0.0371094 48.7157V59.9632H5.74335V53.3596H21.5341V49.432H5.74335V48.096C5.74737 46.3052 6.63671 45.597 8.68902 45.597Z" fill="white"/>
<path id="path15_1_" fill-rule="evenodd" clip-rule="evenodd" d="M45.6426 26.6919L47.4293 28.209L49.216 29.7261C49.216 29.7261 49.4816 28.5672 50.2864 27.05L46.6285 24.1084C45.9082 25.5329 45.6426 26.6919 45.6426 26.6919Z" fill="white"/>
<path id="path17_1_" fill-rule="evenodd" clip-rule="evenodd" d="M46.8906 23.6613L50.5486 26.607C50.9067 25.8947 51.4419 25.0899 52.0657 24.3736L48.4077 21.3394C47.78 22.1442 47.3373 22.8565 46.8906 23.6613Z" fill="white"/>
<path id="path19_1_" fill-rule="evenodd" clip-rule="evenodd" d="M48.7656 20.9855L52.4236 23.9271C52.9588 23.3034 53.6751 22.5911 54.3874 22.0559L50.7294 19.1143C49.9246 19.6454 49.2968 20.3577 48.7656 20.9855Z" fill="white"/>
<path id="path21_1_" fill-rule="evenodd" clip-rule="evenodd" d="M62.8613 11.9713L66.5193 14.9169C67.143 14.2932 67.6782 13.6654 68.306 12.8606L64.648 9.91895C64.1128 10.7238 63.4851 11.432 62.8613 11.9713Z" fill="white"/>
<path id="path23_1_" fill-rule="evenodd" clip-rule="evenodd" d="M54.207 17.2351L57.865 20.1768C58.7583 19.8186 59.6517 19.4645 60.6296 18.9253L57.0601 16.0762C56.0783 16.5229 55.1004 16.881 54.207 17.2351Z" fill="white"/>
<path id="path25_1_" fill-rule="evenodd" clip-rule="evenodd" d="M51.4375 18.6633C51.3489 18.7519 51.2604 18.8404 51.1719 18.8404L54.8298 21.7821C54.9184 21.6935 55.0069 21.605 55.0954 21.605C55.7192 21.1623 56.524 20.8002 57.4173 20.446L53.7594 17.5044C52.866 17.8585 52.0612 18.2167 51.4375 18.6633Z" fill="white"/>
<path id="path27_1_" fill-rule="evenodd" clip-rule="evenodd" d="M68.125 3.85477L71.7829 6.79642C72.1411 5.99159 72.4952 5.10225 72.7648 4.12036L69.1069 1.17871C68.7487 2.15658 68.3906 3.04591 68.125 3.85477Z" fill="white"/>
<path id="path29_1_" fill-rule="evenodd" clip-rule="evenodd" d="M66.6973 6.88474L70.3552 9.82639C70.7979 9.02156 71.16 8.22075 71.6067 7.32739L67.9488 4.38574C67.4981 5.2791 67.0554 6.07991 66.6973 6.88474Z" fill="white"/>
<path id="path31_1_" fill-rule="evenodd" clip-rule="evenodd" d="M57.5059 15.8064L61.1638 18.748C61.9686 18.3054 62.858 17.8547 63.6628 17.3195L60.0049 14.3818C59.1155 14.917 58.3067 15.4482 57.5059 15.8064Z" fill="white"/>
<path id="path33_1_" fill-rule="evenodd" clip-rule="evenodd" d="M60.4512 14.1124L64.1091 17.0541C64.8214 16.5188 65.5377 15.9836 66.25 15.2673L62.592 12.3257C61.8797 13.042 61.1634 13.5772 60.4512 14.1124Z" fill="white"/>
<path id="path35_1_" fill-rule="evenodd" clip-rule="evenodd" d="M64.998 9.5607L68.656 12.5024C69.1912 11.7901 69.6379 11.0738 70.1731 10.1804L66.5151 7.23877C65.984 8.13213 65.4488 8.84843 64.998 9.5607Z" fill="white"/>
<path id="path37_1_" fill-rule="evenodd" clip-rule="evenodd" d="M40.375 22.3215L42.1617 23.8386L43.9484 25.3557C43.9484 25.3557 44.214 24.1968 45.0189 22.6797L41.3569 19.73C40.6446 21.2511 40.375 22.3215 40.375 22.3215Z" fill="white"/>
<path id="path39_1_" fill-rule="evenodd" clip-rule="evenodd" d="M41.623 19.2874L45.281 22.229C45.6391 21.5168 46.1744 20.7119 46.7981 19.9956L43.1361 16.9614C42.5164 17.7703 42.0738 18.5751 41.623 19.2874Z" fill="white"/>
<path id="path41_1_" fill-rule="evenodd" clip-rule="evenodd" d="M43.498 16.6113L47.0675 19.6455C47.6027 19.0218 48.319 18.3095 49.0312 17.7743L45.3693 14.8286C44.7455 15.3598 44.0333 15.9876 43.498 16.6113Z" fill="white"/>
<path id="path43_1_" fill-rule="evenodd" clip-rule="evenodd" d="M57.5977 7.68964L61.2556 10.6313C61.8793 10.0075 62.4146 9.37978 63.0423 8.57495L59.3844 5.6333C58.8492 6.3496 58.2214 7.06187 57.5977 7.68964Z" fill="white"/>
<path id="path45_1_" fill-rule="evenodd" clip-rule="evenodd" d="M49.0312 12.9532L52.6892 15.8948C53.5826 15.5367 54.4759 15.1825 55.4538 14.6433L51.7958 11.7017C50.8139 12.1524 49.8361 12.595 49.0312 12.9532Z" fill="white"/>
<path id="path47_1_" fill-rule="evenodd" clip-rule="evenodd" d="M46.1738 14.2932C46.0853 14.3818 45.9967 14.4703 45.9082 14.4703L49.5662 17.4119C49.6547 17.3234 49.7432 17.2349 49.8317 17.2349C50.4555 16.7922 51.2603 16.4301 52.1537 16.0759L48.4957 13.1343C47.6024 13.4884 46.7975 13.8466 46.1738 14.2932Z" fill="white"/>
<path id="path49_1_" fill-rule="evenodd" clip-rule="evenodd" d="M61.4336 2.51462L65.0915 5.45627C65.5342 4.65144 65.8964 3.85064 66.3431 2.95727L62.5925 0.015625C62.2344 0.904961 61.8803 1.70979 61.4336 2.51462Z" fill="white"/>
<path id="path51_1_" fill-rule="evenodd" clip-rule="evenodd" d="M52.2422 11.432L55.9001 14.3777C56.705 13.935 57.5943 13.4843 58.3991 12.9491L54.7412 10.0034C53.9364 10.6312 53.043 11.0779 52.2422 11.432Z" fill="white"/>
<path id="path53_1_" fill-rule="evenodd" clip-rule="evenodd" d="M55.1875 9.73777L58.8454 12.6794C59.5577 12.1442 60.274 11.609 60.9863 10.8927L57.3283 7.95508C56.6161 8.66735 55.8998 9.20659 55.1875 9.73777Z" fill="white"/>
<path id="path55_1_" fill-rule="evenodd" clip-rule="evenodd" d="M59.7344 5.27933L63.3923 8.22098C63.9275 7.50871 64.3742 6.79241 64.9094 5.89905L61.2515 2.96143C60.7203 3.76223 60.1851 4.56304 59.7344 5.27933Z" fill="white"/>
<path id="path57_1_" fill-rule="evenodd" clip-rule="evenodd" d="M50.9062 31.0657L52.693 32.5828L54.4797 34.0999C54.4797 34.0999 54.7453 32.941 55.5501 31.4239L51.9807 28.3896C51.1718 29.9068 50.9062 31.0657 50.9062 31.0657Z" fill="white"/>
<path id="path59_1_" fill-rule="evenodd" clip-rule="evenodd" d="M52.1543 27.9434L55.8122 30.885C56.1704 30.1727 56.7056 29.3679 57.3293 28.6516L53.6714 25.71C53.0436 26.4263 52.601 27.2311 52.1543 27.9434Z" fill="white"/>
<path id="path61_1_" fill-rule="evenodd" clip-rule="evenodd" d="M54.0293 25.3556L57.6872 28.2973C58.2225 27.6735 58.9388 26.9612 59.651 26.426L55.9931 23.4844C55.1883 24.0156 54.5605 24.6433 54.0293 25.3556Z" fill="white"/>
<path id="path63_1_" fill-rule="evenodd" clip-rule="evenodd" d="M68.125 16.3454L71.7829 19.2871C72.4067 18.6633 72.9419 18.0355 73.5697 17.2307L69.9117 14.2891C69.3765 15.0939 68.7487 15.7217 68.125 16.3454Z" fill="white"/>
<path id="path65_1_" fill-rule="evenodd" clip-rule="evenodd" d="M59.4688 21.6094L63.1267 24.5511C64.0201 24.1929 64.9134 23.8388 65.8913 23.2996L62.2333 20.3579C61.344 20.8931 60.3621 21.2513 59.4688 21.6094Z" fill="white"/>
<path id="path67_1_" fill-rule="evenodd" clip-rule="evenodd" d="M56.705 22.945C56.6165 23.0335 56.528 23.122 56.4395 23.122L60.0974 26.0677C60.1859 25.9792 60.2745 25.8906 60.363 25.8906C60.9867 25.448 61.7916 25.0858 62.6849 24.7317L59.027 21.79C58.1296 22.2327 57.3288 22.5868 56.705 22.945Z" fill="white"/>
<path id="path69_1_" fill-rule="evenodd" clip-rule="evenodd" d="M62.7695 20.1805L66.4275 23.1222C67.2323 22.6795 68.1216 22.2288 68.9265 21.6936L65.2685 18.752C64.3792 19.2872 63.5744 19.7338 62.7695 20.1805Z" fill="white"/>
<path id="path71_1_" fill-rule="evenodd" clip-rule="evenodd" d="M65.7148 18.3937L69.3728 21.3353C70.0851 20.8001 70.8014 20.2649 71.5136 19.5486L67.8557 16.6069C67.1434 17.3232 66.4311 17.947 65.7148 18.3937Z" fill="white"/>
<path id="path73_1_" fill-rule="evenodd" clip-rule="evenodd" d="M70.2617 13.9313L73.9197 16.873C74.4549 16.1607 74.9016 15.4444 75.4368 14.551L71.6863 11.6094C71.2476 12.5027 70.7124 13.2231 70.2617 13.9313Z" fill="white"/>
</g>
</svg>
