<svg width="124" height="60" viewBox="0 0 124 60" fill="none" xmlns="http://www.w3.org/2000/svg">
<g id="0c3c60276647bf870456e13291888fd8">
<path id="Shape" fill-rule="evenodd" clip-rule="evenodd" d="M67.3998 14.5102L81.9105 -0.000488281L81.9136 6.07004L69.1589 18.8185H52.9709L41.4277 30.3584V24.2848L51.2023 14.5102H67.3998ZM41.4309 34.3897L54.1824 21.6602H70.3768L81.9136 10.1202V16.1907L72.1328 25.9715H55.9416L41.4309 40.4823V34.3897Z" fill="white"/>
<path id="Shape_2" fill-rule="evenodd" clip-rule="evenodd" d="M81.362 43.0764C82.3753 43.0764 84.4335 43.24 86.4098 45.1628L86.4066 41.7987C85.2611 41.0214 83.8167 40.4077 81.4124 40.4077C78.8476 40.4077 76.6006 41.0214 74.6527 42.8938C72.4089 45.0338 71.663 47.7842 71.663 50.2137C71.663 53.26 72.8337 55.5321 74.6527 57.2692C77.0569 59.5414 79.6784 59.8623 81.2802 59.8623C84.0842 59.8623 85.8244 58.8175 86.4098 58.4462V55.0223C84.3013 57.0269 82.24 57.1843 81.362 57.1843C77.4063 57.1843 74.6527 54.1946 74.6527 50.2106C74.6527 46.0975 77.3024 43.0764 81.362 43.0764ZM11.0837 41.0119H0V59.4847H5.17049V52.4638H10.5235V48.2154H5.17049V45.446H11.0837V41.0119ZM19.5616 46.2642C14.2873 46.2642 11.9396 49.5088 11.9396 53.0995C11.9396 56.7405 14.2873 59.9568 19.5616 59.9568C24.8423 59.9568 27.1899 56.7374 27.1899 53.0995C27.1899 49.5088 24.8423 46.2642 19.5616 46.2642ZM22.4191 53.0995C22.4191 51.0162 21.4152 49.5906 19.5679 49.5906C17.7238 49.5906 16.723 51.0162 16.723 53.0995C16.723 55.208 17.7238 56.6367 19.5679 56.6367C21.412 56.6335 22.4191 55.208 22.4191 53.0995ZM33.8961 46.7394H29.462L29.4652 59.4847H34.0818V54.053C34.0818 53.6313 34.1321 50.412 37.512 50.412C37.9589 50.412 38.2767 50.4371 38.6984 50.6228V46.5569C38.5442 46.5349 37.855 46.4531 37.512 46.4531C36.7441 46.4531 35.3752 46.7111 34.2895 47.9007C34.1573 48.0612 34.0283 48.2185 33.8961 48.401V46.7394ZM53.6025 55.6076C52.1234 59.9599 47.8498 59.9599 46.7421 59.9599C42.78 59.9599 39.6708 57.5588 39.6708 53.1026C39.6708 49.0651 42.3395 46.2674 46.6886 46.2674C52.7591 46.2674 53.8102 51.2805 53.7095 54.1317H44.0011C43.9444 55.7429 44.9011 57.1906 46.7421 57.1906C48.0072 57.1906 48.9324 56.6398 49.1684 55.6076H53.6025ZM46.6886 49.0367C48.3533 49.0367 49.1936 50.3018 49.2723 51.6204H44.1049C44.1836 50.2515 45.134 49.0367 46.6886 49.0367ZM59.9059 52.6746L55.2389 46.7394H60.8815L62.9144 50.1413L65.0009 46.7394H70.3822L65.5799 52.7281L70.5679 59.4847H65.2086L62.628 55.315L59.9059 59.4847H54.3137L59.9059 52.6746ZM98.8529 46.7772V54.0782C98.8529 54.8555 98.8529 55.6832 99.4005 56.3755C99.8033 56.8947 100.436 57.2409 101.358 57.2409C102.277 57.2409 102.909 56.8947 103.312 56.3755C103.86 55.6832 103.86 54.8524 103.86 54.0782V46.7772H106.793V54.1348C106.793 55.6328 106.708 57.0112 105.443 58.3046C104.121 59.6861 102.192 59.8875 101.301 59.8875C100.524 59.8875 98.6263 59.6861 97.2794 58.3046C96.0112 57.0112 95.9294 55.6297 95.9294 54.1348V46.7772H98.8529ZM89.4246 59.4847V41.0088H92.3576V59.4847H89.4246ZM117.109 46.431C116.161 46.431 114.497 46.6324 113.288 48.272V41.0088H110.352V59.4816H113.288V58.1598C113.836 58.7955 114.956 59.8844 117.109 59.8844C120.303 59.8844 123.292 57.3511 123.292 53.1278C123.296 49.707 121.108 46.431 117.109 46.431ZM113.115 53.2159C113.115 55.4597 114.402 57.2441 116.709 57.2441C118.953 57.2441 120.246 55.3747 120.249 53.1876C120.249 50.8872 118.836 49.0776 116.709 49.0776C114.865 49.0776 113.115 50.4025 113.115 53.2159Z" fill="white"/>
</g>
</svg>
