<svg width="91" height="50" viewBox="0 0 91 50" fill="none" xmlns="http://www.w3.org/2000/svg">
<g id="e6457b2cd077d09054dc9e972f09bb11">
<path id="Shape" fill-rule="evenodd" clip-rule="evenodd" d="M80.9265 0.012207L62.3238 14.0827L82.7886 28.3965H72.4424L57.6482 17.4732L51.9776 21.9742C49.4729 23.9548 42.433 29.1451 34.632 29.0796C29.894 29.0577 25.4212 26.6279 23.322 24.0172L17.5297 28.3996H7.95703L20.4679 19.1264C20.0469 18.1657 19.6882 16.0977 19.6882 14.4476C19.6882 6.46261 25.3868 0.012207 36.5503 0.012207H54.7942L24.6383 22.9941C26.6782 25.2461 30.3338 25.8294 32.9134 25.8294C39.4542 25.8294 43.8709 22.0989 47.0213 19.4258L53.2034 14.2043L45.2215 8.29355H54.0051L57.7044 10.7234L71.6844 0.012207H80.9265ZM21.4567 14.9873C21.4567 15.976 21.6345 17.6572 21.8154 18.1064C21.8154 18.1064 33.9302 9.31352 36.4879 7.42331C39.0456 5.5331 40.2091 5.02468 40.2091 5.02468H35.0469C25.2091 5.02468 21.4567 9.64727 21.4567 14.9873Z" fill="white"/>
<path id="Shape_2" fill-rule="evenodd" clip-rule="evenodd" d="M13.0198 46.2382C12.6361 47.1833 11.3822 49.975 6.92807 49.975C4.86319 49.975 3.3005 49.3855 2.03101 48.1752C0.61491 46.8496 0.0253906 45.1964 0.0253906 43.1877C0.0253906 40.6518 1.05783 39.0892 1.97174 38.1752C3.47517 36.6999 5.24685 36.3755 6.78147 36.3755C9.37973 36.3755 10.8832 37.4079 11.769 38.4684C13.1258 40.0904 13.3036 42.096 13.3036 43.484V43.7804H3.74654C3.74654 44.5477 3.95552 45.3711 4.36725 45.9357C4.75091 46.4691 5.54629 47.1459 6.93431 47.1459C8.29114 47.1459 9.32358 46.4971 9.9131 45.4647L13.0198 46.2382ZM67.0061 45.3867L65.9861 48.2407C67.7515 49.61 69.8414 49.9376 71.716 49.9438C74.6012 49.9438 76.8158 48.6244 76.8158 45.7111V45.6612C76.8158 43.2626 74.6511 42.3799 72.7827 41.7685C72.6365 41.7188 72.492 41.6706 72.3504 41.6235C71.0971 41.2057 70.0722 40.8641 70.0722 40.2027V40.1528C70.0722 39.6381 70.5432 39.2451 71.4633 39.2451C72.4334 39.2451 74.0834 39.7099 75.4028 40.4709L76.1764 37.6887C74.7322 36.7311 73.2288 36.3817 71.5382 36.3817C68.8495 36.3817 66.6598 37.8758 66.6598 40.5427V40.5926C66.6598 43.1378 68.7715 43.9956 70.6399 44.5352C70.812 44.5868 70.9817 44.6361 71.1473 44.6842C72.392 45.0454 73.4003 45.3381 73.4003 46.0511V46.0979C73.4003 46.6843 72.9044 47.0773 71.8095 47.0773C70.565 47.0773 68.4471 46.4129 67.0061 45.3867ZM24.9287 36.6188L22.2431 40.4335L19.5887 36.6219H15.2562L20.0659 43.0349L15.0691 49.6444H19.2924L22.162 45.5863L25.0316 49.6444H29.3641L24.3423 42.985L29.152 36.6188H24.9287ZM79.4983 48.2407L80.5182 45.3867C81.9624 46.4129 84.0772 47.0773 85.3217 47.0773C86.4165 47.0773 86.9125 46.6843 86.9125 46.0979V46.0511C86.9125 45.3381 85.9041 45.0454 84.6595 44.6842C84.4939 44.6361 84.3241 44.5868 84.152 44.5352C82.2837 43.9956 80.172 43.1409 80.172 40.5926V40.5427C80.172 37.8758 82.3616 36.3817 85.0503 36.3817C86.7409 36.3817 88.2444 36.7311 89.6885 37.6887L88.915 40.4709C87.5956 39.7099 85.9455 39.2451 84.9755 39.2451C84.0553 39.2451 83.5812 39.6381 83.5812 40.1528V40.2027C83.5812 40.8641 84.6061 41.2057 85.8595 41.6235C86.001 41.6706 86.1455 41.7188 86.2918 41.7685C88.1601 42.3799 90.3248 43.2626 90.3248 45.6612V45.7111C90.3248 48.6244 88.1102 49.9438 85.225 49.9438C83.3535 49.9376 81.2637 49.61 79.4983 48.2407ZM36.7565 36.6094H32.8638H32.8607V49.6381H36.7534V41.4566C37.4459 40.5645 38.575 39.766 39.8881 39.766C41.0142 39.766 41.7628 40.7142 41.7628 42.3019V49.6412H45.5151V41.9962C45.5151 37.9132 43.837 36.3973 41.0048 36.3973C38.8595 36.3973 37.6336 37.7521 36.862 38.6047C36.8259 38.6447 36.7907 38.6835 36.7565 38.7211V36.6094ZM6.86881 38.9114C8.19757 38.9114 9.61054 39.7379 9.90686 41.4784H3.85883C4.15515 39.766 5.54317 38.9114 6.86881 38.9114ZM62.3585 46.2382C61.9749 47.1833 60.721 49.975 56.2668 49.975C54.2019 49.975 52.6392 49.3855 51.3697 48.1752C49.9537 46.8496 49.3641 45.1964 49.3641 43.1877C49.3641 40.6518 50.3966 39.0892 51.3105 38.1752C52.8139 36.6999 54.5856 36.3755 56.1202 36.3755C58.7185 36.3755 60.2219 37.4079 61.1077 38.4684C62.4646 40.0904 62.6424 42.096 62.6424 43.484V43.7804H53.0853C53.0853 44.5477 53.2943 45.3711 53.706 45.9357C54.0896 46.4691 54.885 47.1459 56.2731 47.1459C57.6299 47.1459 58.6623 46.4971 59.2518 45.4647L62.3585 46.2382ZM56.2076 38.9114C57.5363 38.9114 58.9493 39.7379 59.2456 41.4784H53.1976C53.4939 39.766 54.8819 38.9114 56.2076 38.9114Z" fill="white"/>
</g>
</svg>
