<svg xmlns="http://www.w3.org/2000/svg" width="65" height="137" viewBox="0 0 65 137">
    <g fill="#89C60F" fill-rule="evenodd">
        <path d="M27.853 125.139s3.587.15 7.15-1.792c2.243-1.22 3.629-1.383 5.114-1.301 1.417.08 3.192.805 4.225 1.438-1.686.203-3.984.297-6.53 1.185-3.467 1.21-5.446 1.17-5.446 1.17s.934 1.364 6.317-.247c2.238-.67 4.735-.537 5.889-.506-.481 1.01-1.32 2.485-2.804 3.278-2.118 1.122-5.071 1.428-10.748-.69-4.732-2.087-3.167-2.535-3.167-2.535M40.557 134.658s3.447-1 6.206-3.98c1.735-1.872 2.997-2.469 4.43-2.864 1.369-.378 3.283-.256 4.464.013-1.534.731-3.682 1.553-5.812 3.207-2.9 2.254-4.788 2.85-4.788 2.85s1.322.993 5.909-2.252c1.907-1.35 4.317-2.02 5.419-2.359-.133 1.11-.457 2.776-1.611 4.001-1.65 1.74-4.35 2.972-10.406 2.778-5.151-.47-3.811-1.394-3.811-1.394M17.068 114.323s3.48.878 7.364-.3c2.445-.74 3.835-.616 5.272-.234 1.37.366 2.962 1.437 3.845 2.266-1.693-.143-3.962-.52-6.634-.166-3.641.479-5.572.039-5.572.039s.639 1.524 6.237 1.04c2.328-.2 4.745.438 5.868.703-.677.89-1.798 2.166-3.411 2.639-2.303.668-5.257.368-10.384-2.86-4.21-3.007-2.585-3.127-2.585-3.127M8.706 101.541s3.23 1.567 7.271 1.203c2.545-.226 3.88.177 5.21.844 1.267.636 2.61 2.008 3.304 3-1.629-.485-3.774-1.314-6.463-1.512-3.662-.27-5.46-1.095-5.46-1.095s.313 1.624 5.893 2.288c2.32.277 4.555 1.393 5.602 1.88-.843.734-2.2 1.755-3.878 1.89-2.388.186-5.22-.707-9.585-4.912-3.509-3.799-1.894-3.586-1.894-3.586M3.118 87.326s2.843 2.19 6.875 2.656c2.537.296 3.763.962 4.93 1.885 1.111.88 2.144 2.497 2.624 3.61-1.495-.806-3.428-2.054-6.02-2.795-3.53-1.01-5.125-2.182-5.125-2.182s-.022 1.653 5.306 3.439c2.214.743 4.178 2.289 5.102 2.98-.973.548-2.51 1.27-4.178 1.06-2.379-.302-4.97-1.753-8.387-6.756-2.664-4.434-1.127-3.897-1.127-3.897M.538 72.272s2.338 2.722 6.19 3.997c2.424.806 3.49 1.707 4.445 2.85.908 1.087 1.592 2.88 1.835 4.068-1.3-1.095-2.94-2.709-5.326-3.962-3.252-1.706-4.574-3.178-4.574-3.178s-.358 1.614 4.494 4.446c2.018 1.177 3.625 3.09 4.391 3.954-1.064.34-2.717.734-4.308.191-2.266-.78-4.507-2.728-6.836-8.322-1.708-4.883-.31-4.044-.31-4.044M1.071 57.007s1.737 3.141 5.25 5.173c2.209 1.282 3.068 2.381 3.771 3.693.668 1.25.973 3.144.97 4.356-1.05-1.336-2.326-3.25-4.408-4.962-2.837-2.33-3.833-4.04-3.833-4.04s-.679 1.507 3.496 5.265c1.738 1.564 2.921 3.764 3.495 4.765-1.11.115-2.81.166-4.256-.69-2.06-1.224-3.86-3.587-5.003-9.538-.678-5.127.518-4.022.518-4.022M4.699 42.17s1.06 3.428 4.088 6.131c1.901 1.706 2.518 2.957 2.94 4.384.402 1.358.314 3.276.066 4.463-.757-1.523-1.618-3.657-3.308-5.756-2.305-2.86-2.931-4.736-2.931-4.736s-.97 1.34 2.353 5.869C9.289 54.408 10 56.803 10.36 57.9c-1.112-.114-2.785-.41-4.027-1.541-1.77-1.617-3.05-4.297-2.959-10.357C3.752 40.844 4.7 42.17 4.7 42.17M11.266 28.379s.342 3.574 2.756 6.835c1.515 2.057 1.866 3.408 1.989 4.891.116 1.411-.36 3.271-.844 4.383-.432-1.645-.841-3.909-2.07-6.308-1.674-3.268-1.905-5.234-1.905-5.234s-1.223 1.114 1.11 6.224c.97 2.126 1.18 4.615 1.309 5.762-1.066-.337-2.644-.967-3.631-2.327-1.402-1.943-2.111-4.828-.79-10.741 1.419-4.974 2.076-3.485 2.076-3.485M20.501 16.213s-.393 3.568 1.308 7.253c1.066 2.321 1.133 3.715.953 5.192-.174 1.405-1.017 3.13-1.718 4.119-.089-1.697-.029-3.997-.743-6.596-.976-3.541-.803-5.512-.803-5.512s-1.423.841-.178 6.319c.518 2.28.218 4.759.111 5.909-.976-.547-2.392-1.485-3.082-3.018-.98-2.187-1.086-5.155 1.41-10.677 2.4-4.582 2.742-2.989 2.742-2.989M31.855 7.76s-1.033 3.102-.245 6.672c.49 2.249.282 3.499-.161 4.779-.424 1.218-1.498 2.603-2.307 3.36.25-1.524.745-3.557.617-5.991-.174-3.315.357-5.036.357-5.036s-1.415.498-1.374 5.583c.015 2.115-.726 4.266-1.043 5.268-.752-.656-1.82-1.737-2.131-3.22-.44-2.114.038-4.77 3.299-9.24 2.995-3.65 2.988-2.175 2.988-2.175M45.445.329s-1.752 2.823-1.874 6.377c-.08 2.236-.588 3.407-1.33 4.57-.704 1.106-2.074 2.272-3.036 2.876.612-1.427 1.589-3.305 2.062-5.664.646-3.216 1.579-4.788 1.579-4.788s-1.48.262-2.69 5.156c-.504 2.036-1.743 3.99-2.293 4.905-.561-.747-1.32-1.948-1.255-3.421.097-2.101 1.206-4.58 5.434-8.377C45.812-1.09 45.445.329 45.445.329M61.041 2.208s-3.036 1.747-4.9 4.711c-1.176 1.863-2.23 2.668-3.5 3.38-1.207.68-3.072 1.164-4.27 1.324 1.278-.984 3.122-2.216 4.727-4.039C55.288 5.1 56.94 4.11 56.94 4.11s-1.52-.318-5.068 3.38c-1.476 1.54-3.6 2.74-4.569 3.312-.16-.838-.28-2.13.507-3.355 1.125-1.742 3.39-3.435 9.231-5.1 5.047-1.203 4.001-.138 4.001-.138M54.443 16.997s-2.56.116-5.103-1.02c-1.6-.712-2.588-.797-3.65-.737-1.008.056-2.275.5-3.016.884 2.377-.125 7.88 2.14 4.039 1.218-1.597-.384-3.376-.288-4.202-.262.344.599.943 1.473 2 1.935 1.51.654 3.618.817 7.67-.486 3.38-1.276 2.262-1.532 2.262-1.532M44.026 22.68s-2.473.668-5.201.112c-1.716-.347-2.7-.216-3.723.073-.973.273-2.114.982-2.754 1.518 2.294-.638 8.158.378 4.207.312-1.641-.028-3.358.452-4.157.656.466.51 1.238 1.233 2.372 1.455 1.617.31 3.709.012 7.382-2.14 3.022-1.98 1.874-1.986 1.874-1.986M35.091 30.488s-2.268 1.19-5.054 1.24c-1.75.032-2.68.373-3.616.878-.892.48-1.85 1.42-2.359 2.08 2.101-1.12 8.044-1.402 4.175-.609-1.609.33-3.18 1.17-3.917 1.544.566.397 1.478.934 2.632.904 1.646-.048 3.622-.793 6.741-3.69 2.52-2.59 1.398-2.347 1.398-2.347M28.066 39.47s-1.956 1.653-4.663 2.305c-1.702.413-2.537.948-3.341 1.644-.766.66-1.497 1.786-1.851 2.543 1.807-1.55 7.548-3.115 3.945-1.5-1.5.67-2.852 1.831-3.49 2.356.638.265 1.646.591 2.766.311 1.596-.404 3.364-1.56 5.78-5.066 1.897-3.074.854-2.594.854-2.594M23.21 49.69s-1.55 2.038-4.053 3.265c-1.572.772-2.27 1.474-2.903 2.328-.605.811-1.075 2.07-1.255 2.884 1.427-1.907 6.691-4.68 3.524-2.322-1.319.98-2.385 2.409-2.894 3.059.681.12 1.735.22 2.768-.298 1.47-.74 2.944-2.253 4.541-6.199 1.184-3.411.271-2.717.271-2.717M20.569 60.92s-1.071 2.328-3.247 4.067c-1.366 1.096-1.896 1.934-2.328 2.904-.414.923-.6 2.253-.6 3.09.98-2.172 5.517-6.022 2.937-3.033-1.074 1.243-1.806 2.869-2.16 3.614.69-.031 1.74-.162 2.635-.89 1.276-1.043 2.386-2.84 3.088-7.04.414-3.587-.325-2.712-.325-2.712M20.376 72.848s-.54 2.504-2.287 4.674c-1.096 1.366-1.432 2.3-1.642 3.34-.203.99-.095 2.33.086 3.146.485-2.333 4.076-7.076 2.208-3.598-.779 1.446-1.139 3.192-1.326 3.997.668-.18 1.666-.536 2.381-1.441 1.02-1.294 1.713-3.29 1.486-7.541-.375-3.592-.906-2.577-.906-2.577M23.116 84.188s.017 2.56-1.218 5.059c-.771 1.57-.895 2.556-.877 3.617.017 1.01.412 2.294.768 3.052-.034-2.383 2.441-7.792 1.373-3.992-.445 1.58-.418 3.364-.425 4.19.612-.321 1.509-.885 2.01-1.924.713-1.484.957-3.584-.186-7.683-1.146-3.425-1.445-2.32-1.445-2.32M27.658 94.623s.572 2.497-.089 5.203c-.414 1.7-.32 2.689-.07 3.72.235.984.9 2.15 1.411 2.814-.552-2.32.691-8.137.475-4.196-.094 1.64.32 3.375.493 4.183.528-.447 1.28-1.192 1.545-2.315.375-1.604.156-3.706-1.852-7.46-1.859-3.093-1.913-1.95-1.913-1.95M34.322 104.336s1.101 2.313 1.043 5.098c-.035 1.751.27 2.695.737 3.649.446.907 1.347 1.902 1.99 2.439-1.041-2.146-1.09-8.094-.447-4.199.263 1.621 1.044 3.225 1.39 3.976.419-.552.99-1.442 1.005-2.595.017-1.647-.652-3.652-3.426-6.88-2.49-2.616-2.292-1.488-2.292-1.488M42.773 112.132s1.577 2.019 2.125 4.749c.346 1.717.849 2.573 1.512 3.4.63.792 1.727 1.567 2.47 1.95-1.481-1.867-2.821-7.663-1.346-4 .61 1.524 1.719 2.92 2.219 3.578.289-.63.655-1.622.416-2.751-.34-1.612-1.426-3.423-4.837-5.971-2.996-2.014-2.56-.955-2.56-.955M52.452 114.194s1.305 2.205 1.497 4.983c.121 1.748.511 2.66 1.061 3.568.524.865 1.511 1.774 2.201 2.25-1.23-2.042-1.814-7.963-.823-4.14.41 1.59 1.33 3.117 1.741 3.834.367-.587.858-1.524.767-2.676-.13-1.641-.975-3.577-4.029-6.542-2.713-2.383-2.415-1.277-2.415-1.277"/>
        <path d="M61.635 126.838a60.196 60.196 0 0 1-3.892-1.014C32.481 118.328 14 94.901 14 67.238c0-23.005 12.64-43.62 31.385-54.382 1.94-1.114 1.14-1.752-.766-.692-19.353 10.75-32.478 31.407-32.478 55.073 0 28.778 19.405 53.106 45.82 60.585.965.275 1.942.525 2.925.753 4.568 1.058 5.081-.76.749-1.737"/>
    </g>
</svg>
