<svg width="102" height="102" viewBox="0 0 102 102" fill="none" xmlns="http://www.w3.org/2000/svg">
<g id="Group 38">
<g id="Oval" filter="url(#filter0_dd)">
<path fill-rule="evenodd" clip-rule="evenodd" d="M51 90C73.0914 90 91 72.0914 91 50C91 27.9086 73.0914 10 51 10C28.9086 10 11 27.9086 11 50C11 72.0914 28.9086 90 51 90Z" fill="url(#paint0_linear)"/>
<path d="M51 90.5C73.3675 90.5 91.5 72.3675 91.5 50C91.5 27.6325 73.3675 9.5 51 9.5C28.6325 9.5 10.5 27.6325 10.5 50C10.5 72.3675 28.6325 90.5 51 90.5Z" stroke="#979797" stroke-opacity="0.137511"/>
</g>
<g id="Group 36">
<path id="Combined Shape" fill-rule="evenodd" clip-rule="evenodd" d="M44.8009 28.9091L31.3636 68.9742H42.4004L44.8009 60.9038H56.5185L59.1736 68.9742H70.6652L57.0816 28.9091H44.8009ZM50.9043 38.996L51.3635 40.7019L54.3187 51.6799L54.4883 52.3098H53.8359H47.6207H46.9506L47.1414 51.6675L50.4014 40.6896L50.9043 38.996ZM48.2907 51.3098H53.1835L50.8571 42.6678L48.2907 51.3098Z" fill="#ADFF00" fill-opacity="0.0853714"/>
<g id="Group 235">
<path id="Fill 1" fill-rule="evenodd" clip-rule="evenodd" d="M36.1788 64.7771L41.6042 65.1487L40.5265 58.6829L36.1788 64.7771ZM41.6948 65.2311L36.0382 64.8436L40.5712 58.4895L41.6948 65.2311Z" fill="#9AD51E"/>
<path id="Fill 3" fill-rule="evenodd" clip-rule="evenodd" d="M36.2533 64.8583L42.5751 68.9193L41.6196 65.2259L36.2533 64.8583ZM42.6972 69.0878L35.9636 64.7625L41.6793 65.1538L42.6972 69.0878Z" fill="#9AD51E"/>
<path id="Fill 5" fill-rule="evenodd" clip-rule="evenodd" d="M35.3823 68.9655H42.5069L36.1355 64.8728L35.3823 68.9655ZM42.7655 69.0413H35.2911L36.0812 64.7478L42.7655 69.0413Z" fill="#9AD51E"/>
<path id="Fill 7" fill-rule="evenodd" clip-rule="evenodd" d="M31.67 68.9655H35.2809L33.3157 63.9979L31.67 68.9655ZM35.3925 69.0413H31.5648L33.3095 63.7755L35.3925 69.0413Z" fill="#9AD51E"/>
<path id="Fill 9" fill-rule="evenodd" clip-rule="evenodd" d="M33.3777 63.9483L35.3234 68.8664L36.0651 64.836L33.3777 63.9483ZM35.3501 69.1403L33.2474 63.8252L36.1516 64.7846L35.3501 69.1403Z" fill="#9AD51E"/>
<path id="Fill 11" fill-rule="evenodd" clip-rule="evenodd" d="M33.3602 63.8626L36.062 64.755L35.1452 58.3365L33.3602 63.8626ZM36.1546 64.8656L33.2648 63.911L35.1739 58.0007L36.1546 64.8656Z" fill="#9AD51E"/>
<path id="Fill 13" fill-rule="evenodd" clip-rule="evenodd" d="M35.2038 58.2102L36.1325 64.7111L40.4789 58.6189L35.2038 58.2102ZM36.0841 64.9096L35.1154 58.1272L40.6187 58.5536L36.0841 64.9096Z" fill="#9AD51E"/>
<path id="Fill 15" fill-rule="evenodd" clip-rule="evenodd" d="M41.6984 65.2278L42.6398 68.8659L43.7863 65.2278H41.6984ZM42.6326 69.1412L41.6005 65.152H43.8897L42.6326 69.1412Z" fill="#9AD51E"/>
<path id="Fill 17" fill-rule="evenodd" clip-rule="evenodd" d="M41.7298 65.1518H43.8101L45.1088 61.0514L41.7298 65.1518ZM43.8657 65.2276H41.5688L45.2995 60.7004L43.8657 65.2276Z" fill="#9AD51E"/>
<path id="Fill 19" fill-rule="evenodd" clip-rule="evenodd" d="M40.5984 58.6528L41.6732 65.1014L45.1445 60.8888L40.5984 58.6528ZM41.6257 65.2783L40.4993 58.5194L45.264 60.8629L41.6257 65.2783Z" fill="#9AD51E"/>
<path id="Fill 21" fill-rule="evenodd" clip-rule="evenodd" d="M36.8492 53.3955L35.226 58.0928L40.1202 55.6335L36.8492 53.3955ZM35.0934 58.2445L36.8099 53.2767L40.2691 55.6436L35.0934 58.2445Z" fill="#9AD51E"/>
<path id="Fill 23" fill-rule="evenodd" clip-rule="evenodd" d="M35.2985 58.1414L40.5055 58.5448L40.1633 55.6968L35.2985 58.1414ZM40.592 58.6276L35.0206 58.196L40.2257 55.5803L40.592 58.6276Z" fill="#9AD51E"/>
<path id="Fill 25" fill-rule="evenodd" clip-rule="evenodd" d="M40.6503 58.5938L45.1662 60.815V57.164L40.6503 58.5938ZM45.2422 60.9369L40.4471 58.5784L45.2422 57.0604V60.9369Z" fill="#9AD51E"/>
<path id="Fill 27" fill-rule="evenodd" clip-rule="evenodd" d="M40.2392 55.6912L40.581 58.5361L45.0743 57.1137L40.2392 55.6912ZM40.5166 58.6362L40.1501 55.5858L45.3343 57.111L40.5166 58.6362Z" fill="#9AD51E"/>
<path id="Fill 29" fill-rule="evenodd" clip-rule="evenodd" d="M36.9379 53.3643L40.1769 55.5805L41.2242 52.9747L36.9379 53.3643ZM40.2121 55.6966L36.7209 53.3078L41.3409 52.8878L40.2121 55.6966Z" fill="#9AD51E"/>
<path id="Fill 31" fill-rule="evenodd" clip-rule="evenodd" d="M40.2454 55.6139L45.0811 57.0364L41.2954 53.0006L40.2454 55.6139ZM45.3274 57.1881L40.1437 55.6631L41.2695 52.8619L45.3274 57.1881Z" fill="#9AD51E"/>
<path id="Fill 33" fill-rule="evenodd" clip-rule="evenodd" d="M45.2422 60.838H49.4045L45.2422 57.196V60.838ZM49.6065 60.9138H45.1664V57.0288L49.6065 60.9138Z" fill="#9AD51E"/>
<path id="Fill 35" fill-rule="evenodd" clip-rule="evenodd" d="M41.3601 52.9585L45.1952 57.0471L47.7683 52.043L41.3601 52.9585ZM45.2134 57.1775L41.205 52.9041L47.903 51.9471L45.2134 57.1775Z" fill="#9AD51E"/>
<path id="Fill 37" fill-rule="evenodd" clip-rule="evenodd" d="M45.2915 57.1383L49.4711 60.7955L49.6678 56.5175L45.2915 57.1383ZM49.5397 60.9562L45.1169 57.0864L49.7479 56.4294L49.5397 60.9562Z" fill="#9AD51E"/>
<path id="Fill 39" fill-rule="evenodd" clip-rule="evenodd" d="M47.8321 52.085L45.2716 57.0644L49.654 56.4428L47.8321 52.085ZM45.1371 57.1602L47.8393 51.9052L49.7619 56.5041L45.1371 57.1602Z" fill="#9AD51E"/>
<path id="Fill 41" fill-rule="evenodd" clip-rule="evenodd" d="M38.2602 49.1393L36.8838 53.2932L41.2097 52.8999L38.2602 49.1393ZM36.7753 53.3791L38.2326 48.9812L41.3555 52.9629L36.7753 53.3791Z" fill="#9AD51E"/>
<path id="Fill 43" fill-rule="evenodd" clip-rule="evenodd" d="M45.4155 48.3465L47.8216 51.9067L49.2212 47.0698L45.4155 48.3465ZM47.8496 52.0836L45.2968 48.3063L49.3344 46.9518L47.8496 52.0836Z" fill="#9AD51E"/>
<path id="Fill 45" fill-rule="evenodd" clip-rule="evenodd" d="M45.352 48.3883L41.3793 52.8791L47.7702 51.9661L45.352 48.3883ZM41.1857 52.9835L45.3602 48.2646L47.901 52.0241L41.1857 52.9835Z" fill="#9AD51E"/>
<path id="Fill 47" fill-rule="evenodd" clip-rule="evenodd" d="M38.3187 49.0908L41.2843 52.872L45.2633 48.3742L38.3187 49.0908ZM41.2808 52.9904L38.1741 49.0294L45.4489 48.2786L41.2808 52.9904Z" fill="#9AD51E"/>
<path id="Fill 49" fill-rule="evenodd" clip-rule="evenodd" d="M50.2616 43.648L45.5037 48.237L49.2472 46.9811L50.2616 43.648ZM45.2087 48.416L50.4193 43.3904L49.3084 47.0406L45.2087 48.416Z" fill="#9AD51E"/>
<path id="Fill 51" fill-rule="evenodd" clip-rule="evenodd" d="M42.9967 45.4443L38.3752 49.0087L45.2828 48.2958L42.9967 45.4443ZM38.1174 49.1116L43.0093 45.3387L45.4292 48.3571L38.1174 49.1116Z" fill="#9AD51E"/>
<path id="Fill 53" fill-rule="evenodd" clip-rule="evenodd" d="M43.0695 45.4137L45.3597 48.2703L50.2108 43.5915L43.0695 45.4137ZM45.3525 48.3827L42.9365 45.3692L50.47 43.447L45.3525 48.3827Z" fill="#9AD51E"/>
<path id="Fill 55" fill-rule="evenodd" clip-rule="evenodd" d="M40.2138 43.3532L38.3225 48.9536L42.9403 45.3918L40.2138 43.3532ZM38.1703 49.1668L40.1755 43.2297L43.0659 45.3911L38.1703 49.1668Z" fill="#9AD51E"/>
<path id="Fill 57" fill-rule="evenodd" clip-rule="evenodd" d="M45.4978 39.8844L43.0697 45.3354L50.2549 43.5019L45.4978 39.8844ZM42.9365 45.4476L45.4674 39.766L50.426 43.5365L42.9365 45.4476Z" fill="#9AD51E"/>
<path id="Fill 59" fill-rule="evenodd" clip-rule="evenodd" d="M40.2607 43.2935L42.9878 45.3325L45.3953 39.9278L40.2607 43.2935ZM43.0183 45.4504L40.1285 43.2894L45.5699 39.7227L43.0183 45.4504Z" fill="#9AD51E"/>
<path id="Fill 61" fill-rule="evenodd" clip-rule="evenodd" d="M45.6375 39.8953L50.3197 43.4557L51.0513 40.9928L45.6375 39.8953ZM50.3613 43.5826L45.3276 39.7551L51.1477 40.9348L50.3613 43.5826Z" fill="#9AD51E"/>
<path id="Fill 63" fill-rule="evenodd" clip-rule="evenodd" d="M42.1129 37.8576L40.2669 43.1988L45.4111 39.8266L42.1129 37.8576ZM40.1224 43.3843L42.0717 37.7446L45.5542 39.8237L40.1224 43.3843Z" fill="#9AD51E"/>
<path id="Fill 65" fill-rule="evenodd" clip-rule="evenodd" d="M45.5866 39.8075L51.0687 40.9187L51.9082 36.054L45.5866 39.8075ZM51.1302 41.0086L45.3785 39.8426L52.0111 35.9045L51.1302 41.0086Z" fill="#9AD51E"/>
<path id="Fill 67" fill-rule="evenodd" clip-rule="evenodd" d="M42.182 37.8105L45.4639 39.7698L46.909 36.1939L42.182 37.8105ZM45.501 39.8804L42.0023 37.7916L47.0416 36.0685L45.501 39.8804Z" fill="#9AD51E"/>
<path id="Fill 69" fill-rule="evenodd" clip-rule="evenodd" d="M47.0012 36.1684L45.5598 39.7351L51.814 36.0218L47.0012 36.1684ZM45.4053 39.9152L46.9495 36.0941L52.1054 35.937L45.4053 39.9152Z" fill="#9AD51E"/>
<path id="Fill 71" fill-rule="evenodd" clip-rule="evenodd" d="M43.6035 33.4373L42.1527 37.7403L46.8983 36.1175L43.6035 33.4373ZM42.0316 37.8618L43.5665 33.3093L47.0524 36.1449L42.0316 37.8618Z" fill="#9AD51E"/>
<path id="Fill 73" fill-rule="evenodd" clip-rule="evenodd" d="M50.5525 29.1117L47.0379 36.0913L51.9138 35.9427L50.5525 29.1117ZM46.9128 36.171L50.5838 28.8807L52.0058 36.016L46.9128 36.171Z" fill="#9AD51E"/>
<path id="Fill 75" fill-rule="evenodd" clip-rule="evenodd" d="M43.6501 33.3773L46.9627 36.0719L50.4731 29.1005L43.6501 33.3773ZM46.988 36.1903L43.52 33.3693L50.6633 28.8917L46.988 36.1903Z" fill="#9AD51E"/>
<path id="Fill 77" fill-rule="evenodd" clip-rule="evenodd" d="M45.0546 29.0341L43.654 33.2852L50.4361 29.0341H45.0546ZM43.516 33.4613L44.9996 28.9583H50.7001L43.516 33.4613Z" fill="#9AD51E"/>
<path id="Fill 79" fill-rule="evenodd" clip-rule="evenodd" d="M49.5839 60.8379H54.7272L53.1361 56.3485L49.5839 60.8379ZM54.8345 60.9138H49.427L53.1617 56.1937L54.8345 60.9138Z" fill="#9AD51E"/>
<path id="Fill 81" fill-rule="evenodd" clip-rule="evenodd" d="M49.7443 56.5093L49.5489 60.76L53.0666 56.3139L49.7443 56.5093ZM49.4622 60.9917L49.6715 56.4375L53.2313 56.2281L49.4622 60.9917Z" fill="#9AD51E"/>
<path id="Fill 83" fill-rule="evenodd" clip-rule="evenodd" d="M47.8926 52.0331L49.7207 56.4055L53.9326 52.0331H47.8926ZM49.6952 56.5414L47.7787 51.9573H54.111L49.6952 56.5414Z" fill="#9AD51E"/>
<path id="Fill 85" fill-rule="evenodd" clip-rule="evenodd" d="M53.9585 52.1155L49.8026 56.4298L53.1176 56.2348L53.9585 52.1155ZM49.6133 56.5169L54.0851 51.8746L53.1802 56.3071L49.6133 56.5169Z" fill="#9AD51E"/>
<path id="Fill 87" fill-rule="evenodd" clip-rule="evenodd" d="M54.8077 60.8379H56.7139L53.2611 56.4741L54.8077 60.8379ZM56.8708 60.9138H54.754L53.0367 56.0681L56.8708 60.9138Z" fill="#9AD51E"/>
<path id="Fill 89" fill-rule="evenodd" clip-rule="evenodd" d="M54.0502 52.0457L53.2016 56.2026L58.4038 53.6199L54.0502 52.0457ZM53.0962 56.3396L53.9934 51.9445L58.5966 53.6089L53.0962 56.3396Z" fill="#9AD51E"/>
<path id="Fill 91" fill-rule="evenodd" clip-rule="evenodd" d="M53.2077 56.2843L56.7733 60.7908L58.4447 53.6843L53.2077 56.2843ZM56.8112 60.9612L53.0901 56.258L58.5555 53.5446L56.8112 60.9612Z" fill="#9AD51E"/>
<path id="Fill 93" fill-rule="evenodd" clip-rule="evenodd" d="M52.8568 47.5042L54.0423 51.9254L58.9329 47.5042H52.8568ZM54.0011 52.065L52.7578 47.4283H59.13L54.0011 52.065Z" fill="#9AD51E"/>
<path id="Fill 95" fill-rule="evenodd" clip-rule="evenodd" d="M54.0941 51.981L58.4665 53.562L58.9854 47.5592L54.0941 51.981ZM58.5336 53.6669L53.9495 52.0093L59.0776 47.3733L58.5336 53.6669Z" fill="#9AD51E"/>
<path id="Fill 97" fill-rule="evenodd" clip-rule="evenodd" d="M51.1706 41.0853L52.8273 47.3925L55.2201 44.9996L51.1706 41.0853ZM52.7874 47.5397L51.0283 40.842L55.3284 44.9989L52.7874 47.5397Z" fill="#9AD51E"/>
<path id="Fill 99" fill-rule="evenodd" clip-rule="evenodd" d="M52.899 47.4282H58.9045L55.2792 45.048L52.899 47.4282ZM59.1584 47.504H52.7158L55.2693 44.9506L59.1584 47.504Z" fill="#9AD51E"/>
<path id="Fill 101" fill-rule="evenodd" clip-rule="evenodd" d="M51.9874 36.0418L51.1474 40.9092L56.892 39.1428L51.9874 36.0418ZM51.0515 41.0181L51.932 35.917L57.072 39.1667L51.0515 41.0181Z" fill="#9AD51E"/>
<path id="Fill 103" fill-rule="evenodd" clip-rule="evenodd" d="M51.1721 40.981L55.2554 44.9283L56.9258 39.2117L51.1721 40.981ZM55.2929 45.0702L51.0269 40.9462L57.0382 39.0975L55.2929 45.0702Z" fill="#9AD51E"/>
<path id="Fill 105" fill-rule="evenodd" clip-rule="evenodd" d="M55.3514 45.0045L59.0054 47.4036L59.9281 42.8269L55.3514 45.0045ZM59.0576 47.5286L55.197 44.9938L60.0324 42.6931L59.0576 47.5286Z" fill="#9AD51E"/>
<path id="Fill 107" fill-rule="evenodd" clip-rule="evenodd" d="M56.9985 39.2338L55.3345 44.9287L59.9198 42.7469L56.9985 39.2338ZM55.2141 45.07L56.9656 39.0756L60.0407 42.7734L55.2141 45.07Z" fill="#9AD51E"/>
<path id="Fill 109" fill-rule="evenodd" clip-rule="evenodd" d="M60.005 42.8298L59.086 47.3877L62.7618 45.1087L60.005 42.8298ZM58.9769 47.5445L59.9556 42.6906L62.8917 45.1176L58.9769 47.5445Z" fill="#9AD51E"/>
<path id="Fill 111" fill-rule="evenodd" clip-rule="evenodd" d="M57.0452 39.1713L59.9482 42.6624L60.2424 37.9585L57.0452 39.1713ZM60.0122 42.8578L56.9188 39.138L60.3254 37.8459L60.0122 42.8578Z" fill="#9AD51E"/>
<path id="Fill 113" fill-rule="evenodd" clip-rule="evenodd" d="M60.0193 42.7432L62.7452 44.9967L60.31 38.0908L60.0193 42.7432ZM62.908 45.2296L59.9412 42.777L59.9423 42.7578L60.2577 37.7136L62.908 45.2296Z" fill="#9AD51E"/>
<path id="Fill 115" fill-rule="evenodd" clip-rule="evenodd" d="M50.6839 29.0341L56.147 33.0453V29.0341H50.6839ZM56.2231 33.1952L50.4524 28.9583H56.2231V33.1952Z" fill="#9AD51E"/>
<path id="Fill 117" fill-rule="evenodd" clip-rule="evenodd" d="M50.6245 29.0846L51.9858 35.9158L56.1193 33.119L50.6245 29.0846ZM51.9337 36.0428L50.5117 28.9077L56.2509 33.1215L51.9337 36.0428Z" fill="#9AD51E"/>
<path id="Fill 119" fill-rule="evenodd" clip-rule="evenodd" d="M56.223 29.0341V32.8571L57.3489 29.0341H56.223ZM56.1472 33.3836V28.9583H57.4504L56.1472 33.3836Z" fill="#9AD51E"/>
<path id="Fill 121" fill-rule="evenodd" clip-rule="evenodd" d="M52.029 35.9783L56.9337 39.0792L56.1555 33.1861L52.029 35.9783ZM57.0302 39.2301L51.8904 35.9804L56.2146 33.0544L57.0302 39.2301Z" fill="#9AD51E"/>
<path id="Fill 123" fill-rule="evenodd" clip-rule="evenodd" d="M59.0273 33.8088L57.047 39.0895L60.2374 37.8793L59.0273 33.8088ZM56.9171 39.22L59.0357 33.5704L60.3303 37.9254L56.9171 39.22Z" fill="#9AD51E"/>
<path id="Fill 125" fill-rule="evenodd" clip-rule="evenodd" d="M56.2332 33.0912L58.9739 33.6392L57.4026 29.1202L56.2332 33.0912ZM59.0892 33.7397L56.137 33.1493L57.3966 28.8719L59.0892 33.7397Z" fill="#9AD51E"/>
<path id="Fill 127" fill-rule="evenodd" clip-rule="evenodd" d="M59.0991 47.4689L65.0922 51.8926L62.8062 45.1705L59.0991 47.4689ZM65.2421 52.0976L58.964 47.4634L62.8473 45.0558L62.8626 45.1009L65.2421 52.0976Z" fill="#9AD51E"/>
<path id="Fill 129" fill-rule="evenodd" clip-rule="evenodd" d="M59.0635 47.5369L58.5425 53.565L65.0791 51.9774L59.0635 47.5369ZM58.4579 53.6638L58.9995 47.3954L65.2551 52.0128L58.4579 53.6638Z" fill="#9AD51E"/>
<path id="Fill 131" fill-rule="evenodd" clip-rule="evenodd" d="M56.8389 60.899L57.9943 64.722L61.7374 59.0705L56.8389 60.899ZM57.9685 64.8986L56.7456 60.8528L61.9297 58.9177L57.9685 64.8986Z" fill="#9AD51E"/>
<path id="Fill 133" fill-rule="evenodd" clip-rule="evenodd" d="M58.5161 53.7123L56.8455 60.8155L61.7769 58.9747L58.5161 53.7123ZM56.7391 60.9362L58.4842 53.5165L61.8902 59.0134L56.7391 60.9362Z" fill="#9AD51E"/>
<path id="Fill 135" fill-rule="evenodd" clip-rule="evenodd" d="M58.6128 53.6261L66.9756 57.6156L65.1419 52.0403L58.6128 53.6261ZM67.1031 57.7604L58.3875 53.6028L65.1922 51.9501L65.2031 51.9833L67.1031 57.7604Z" fill="#9AD51E"/>
<path id="Fill 137" fill-rule="evenodd" clip-rule="evenodd" d="M58.6005 53.7044L61.8512 58.9507L66.9278 57.6769L58.6005 53.7044ZM61.816 59.0378L58.3999 53.5245L67.151 57.699L61.816 59.0378Z" fill="#9AD51E"/>
<path id="Fill 139" fill-rule="evenodd" clip-rule="evenodd" d="M58.0361 64.8571L59.3329 68.9408L63.605 65.7072L58.0361 64.8571ZM59.293 69.0662L57.9269 64.7635L63.7942 65.6592L59.293 69.0662Z" fill="#9AD51E"/>
<path id="Fill 141" fill-rule="evenodd" clip-rule="evenodd" d="M58.0459 64.7817L63.6472 65.6368L61.8193 59.0843L58.0459 64.7817ZM63.7518 65.7295L57.917 64.8389L61.8479 58.9039L63.7518 65.7295Z" fill="#9AD51E"/>
<path id="Fill 143" fill-rule="evenodd" clip-rule="evenodd" d="M61.9086 59.0144L66.8019 63.7994L66.9998 57.7369L61.9086 59.0144ZM66.8721 63.9742L61.7585 58.9738L67.0789 57.6389L66.8721 63.9742Z" fill="#9AD51E"/>
<path id="Fill 145" fill-rule="evenodd" clip-rule="evenodd" d="M61.9082 59.1201L63.723 65.6261L66.7746 63.8789L61.9082 59.1201ZM63.6762 65.7404L61.759 58.8682L66.8994 63.8948L63.6762 65.7404Z" fill="#9AD51E"/>
<path id="Fill 147" fill-rule="evenodd" clip-rule="evenodd" d="M66.8757 63.8631L69.5552 65.1175L67.0705 57.8953L66.8757 63.8631ZM69.6852 65.2621L66.7983 63.9105L67.0081 57.4806L69.6852 65.2621Z" fill="#9AD51E"/>
<path id="Fill 149" fill-rule="evenodd" clip-rule="evenodd" d="M59.4261 68.9655H66.4511L63.6941 65.735L59.4261 68.9655ZM66.6156 69.0413H59.2L63.7052 65.6312L66.6156 69.0413Z" fill="#9AD51E"/>
<path id="Fill 151" fill-rule="evenodd" clip-rule="evenodd" d="M63.7582 65.6933L66.5011 68.907L66.795 63.9545L63.7582 65.6933ZM66.5658 69.0997L63.641 65.6729L66.879 63.819L66.5658 69.0997Z" fill="#9AD51E"/>
<path id="Fill 153" fill-rule="evenodd" clip-rule="evenodd" d="M66.5737 68.9655H70.8325L69.5892 65.2173L66.8715 63.9449L66.5737 68.9655ZM70.9377 69.0413H66.4932L66.8025 63.8286L69.6511 65.1623L70.9377 69.0413Z" fill="#9AD51E"/>
<path id="Fill 155" fill-rule="evenodd" clip-rule="evenodd" d="M36.5638 64.8103C36.5638 65.0618 36.3599 65.2658 36.1083 65.2658C35.8569 65.2658 35.653 65.0618 35.653 64.8103C35.653 64.5587 35.8569 64.3547 36.1083 64.3547C36.3599 64.3547 36.5638 64.5587 36.5638 64.8103Z" fill="#9AD51E"/>
<path id="Fill 157" fill-rule="evenodd" clip-rule="evenodd" d="M53.7182 56.271C53.7182 56.5854 53.4633 56.8403 53.149 56.8403C52.8346 56.8403 52.5797 56.5854 52.5797 56.271C52.5797 55.9567 52.8346 55.7018 53.149 55.7018C53.4633 55.7018 53.7182 55.9567 53.7182 56.271Z" fill="#9AD51E"/>
<path id="Fill 159" fill-rule="evenodd" clip-rule="evenodd" d="M50.0748 60.8759C50.0748 61.1903 49.8199 61.4451 49.5055 61.4451C49.1912 61.4451 48.9363 61.1903 48.9363 60.8759C48.9363 60.5615 49.1912 60.3066 49.5055 60.3066C49.8199 60.3066 50.0748 60.5615 50.0748 60.8759Z" fill="#9AD51E"/>
<path id="Fill 161" fill-rule="evenodd" clip-rule="evenodd" d="M41.1181 58.5861C41.1181 58.9005 40.8632 59.1553 40.5489 59.1553C40.2345 59.1553 39.9796 58.9005 39.9796 58.5861C39.9796 58.2717 40.2345 58.0168 40.5489 58.0168C40.8632 58.0168 41.1181 58.2717 41.1181 58.5861Z" fill="#9AD51E"/>
<path id="Fill 163" fill-rule="evenodd" clip-rule="evenodd" d="M42.2187 65.1139C42.2187 65.4283 41.9638 65.6832 41.6495 65.6832C41.3351 65.6832 41.0802 65.4283 41.0802 65.1139C41.0802 64.7996 41.3351 64.5447 41.6495 64.5447C41.9638 64.5447 42.2187 64.7996 42.2187 65.1139Z" fill="#9AD51E"/>
<path id="Fill 165" fill-rule="evenodd" clip-rule="evenodd" d="M45.7735 57.1123C45.7735 57.4267 45.5186 57.6816 45.2043 57.6816C44.8899 57.6816 44.635 57.4267 44.635 57.1123C44.635 56.798 44.8899 56.5431 45.2043 56.5431C45.5186 56.5431 45.7735 56.798 45.7735 57.1123Z" fill="#9AD51E"/>
<path id="Fill 167" fill-rule="evenodd" clip-rule="evenodd" d="M67.6086 57.8145C67.6086 58.1289 67.3537 58.3837 67.0393 58.3837C66.725 58.3837 66.4701 58.1289 66.4701 57.8145C66.4701 57.5001 66.725 57.2452 67.0393 57.2452C67.3537 57.2452 67.6086 57.5001 67.6086 57.8145Z" fill="#9AD51E"/>
<path id="Fill 169" fill-rule="evenodd" clip-rule="evenodd" d="M38.9928 49.0602C38.9928 49.3746 38.7379 49.6295 38.4235 49.6295C38.1091 49.6295 37.8542 49.3746 37.8542 49.0602C37.8542 48.7458 38.1091 48.491 38.4235 48.491C38.7379 48.491 38.9928 48.7458 38.9928 49.0602Z" fill="#9AD51E"/>
<path id="Fill 171" fill-rule="evenodd" clip-rule="evenodd" d="M48.4049 51.9952C48.4049 52.3095 48.15 52.5644 47.8356 52.5644C47.5212 52.5644 47.2664 52.3095 47.2664 51.9952C47.2664 51.6808 47.5212 51.4259 47.8356 51.4259C48.15 51.4259 48.4049 51.6808 48.4049 51.9952Z" fill="#9AD51E"/>
<path id="Fill 173" fill-rule="evenodd" clip-rule="evenodd" d="M46.0518 39.8251C46.0518 40.1395 45.797 40.3944 45.4826 40.3944C45.1682 40.3944 44.9133 40.1395 44.9133 39.8251C44.9133 39.5107 45.1682 39.2559 45.4826 39.2559C45.797 39.2559 46.0518 39.5107 46.0518 39.8251Z" fill="#9AD51E"/>
<path id="Fill 175" fill-rule="evenodd" clip-rule="evenodd" d="M57.5513 39.1547C57.5513 39.4691 57.2965 39.724 56.9821 39.724C56.6677 39.724 56.4128 39.4691 56.4128 39.1547C56.4128 38.8403 56.6677 38.5854 56.9821 38.5854C57.2965 38.5854 57.5513 38.8403 57.5513 39.1547Z" fill="#9AD51E"/>
<path id="Fill 177" fill-rule="evenodd" clip-rule="evenodd" d="M51.1374 29.236C51.1374 29.5504 50.8825 29.8053 50.5682 29.8053C50.2538 29.8053 49.9989 29.5504 49.9989 29.236C49.9989 28.9216 50.2538 28.6667 50.5682 28.6667C50.8825 28.6667 51.1374 28.9216 51.1374 29.236Z" fill="#9AD51E"/>
<path id="Fill 179" fill-rule="evenodd" clip-rule="evenodd" d="M59.6008 47.4662C59.6008 47.7806 59.3459 48.0355 59.0315 48.0355C58.7172 48.0355 58.4623 47.7806 58.4623 47.4662C58.4623 47.1519 58.7172 46.897 59.0315 46.897C59.3459 46.897 59.6008 47.1519 59.6008 47.4662Z" fill="#9AD51E"/>
<path id="Fill 181" fill-rule="evenodd" clip-rule="evenodd" d="M62.4029 58.9941C62.4029 59.3084 62.148 59.5633 61.8337 59.5633C61.5193 59.5633 61.2644 59.3084 61.2644 58.9941C61.2644 58.6797 61.5193 58.4248 61.8337 58.4248C62.148 58.4248 62.4029 58.6797 62.4029 58.9941Z" fill="#9AD51E"/>
<path id="Fill 183" fill-rule="evenodd" clip-rule="evenodd" d="M56.7543 33.1203C56.7543 33.4346 56.4995 33.6895 56.1851 33.6895C55.8707 33.6895 55.6158 33.4346 55.6158 33.1203C55.6158 32.8059 55.8707 32.551 56.1851 32.551C56.4995 32.551 56.7543 32.8059 56.7543 33.1203Z" fill="#9AD51E"/>
<path id="Fill 185" fill-rule="evenodd" clip-rule="evenodd" d="M50.1254 56.4734C50.1254 56.704 49.9386 56.8909 49.708 56.8909C49.4774 56.8909 49.2904 56.704 49.2904 56.4734C49.2904 56.2429 49.4774 56.056 49.708 56.056C49.9386 56.056 50.1254 56.2429 50.1254 56.4734Z" fill="#9AD51E"/>
<path id="Fill 187" fill-rule="evenodd" clip-rule="evenodd" d="M64.117 65.6072C64.117 65.8378 63.9302 66.0246 63.6996 66.0246C63.469 66.0246 63.282 65.8378 63.282 65.6072C63.282 65.3767 63.469 65.1898 63.6996 65.1898C63.9302 65.1898 64.117 65.3767 64.117 65.6072Z" fill="#9AD51E"/>
<path id="Fill 189" fill-rule="evenodd" clip-rule="evenodd" d="M45.9001 48.3265C45.9001 48.557 45.7132 48.7439 45.4827 48.7439C45.2521 48.7439 45.0651 48.557 45.0651 48.3265C45.0651 48.0959 45.2521 47.9091 45.4827 47.9091C45.7132 47.9091 45.9001 48.0959 45.9001 48.3265Z" fill="#9AD51E"/>
<path id="Fill 191" fill-rule="evenodd" clip-rule="evenodd" d="M51.5169 40.9637C51.5169 41.1943 51.3301 41.3811 51.0995 41.3811C50.8689 41.3811 50.6819 41.1943 50.6819 40.9637C50.6819 40.7331 50.8689 40.5463 51.0995 40.5463C51.3301 40.5463 51.5169 40.7331 51.5169 40.9637Z" fill="#9AD51E"/>
<path id="Fill 193" fill-rule="evenodd" clip-rule="evenodd" d="M60.3978 42.7601C60.3978 42.9906 60.2109 43.1775 59.9804 43.1775C59.7498 43.1775 59.5627 42.9906 59.5627 42.7601C59.5627 42.5295 59.7498 42.3427 59.9804 42.3427C60.2109 42.3427 60.3978 42.5295 60.3978 42.7601Z" fill="#9AD51E"/>
<path id="Fill 195" fill-rule="evenodd" clip-rule="evenodd" d="M55.6917 44.8602C55.6917 45.0907 55.5049 45.2776 55.2743 45.2776C55.0437 45.2776 54.8567 45.0907 54.8567 44.8602C54.8567 44.6296 55.0437 44.4427 55.2743 44.4427C55.5049 44.4427 55.6917 44.6296 55.6917 44.8602Z" fill="#9AD51E"/>
<path id="Fill 197" fill-rule="evenodd" clip-rule="evenodd" d="M58.8797 53.6144C58.8797 53.845 58.6929 54.0318 58.4623 54.0318C58.2317 54.0318 58.0447 53.845 58.0447 53.6144C58.0447 53.3839 58.2317 53.197 58.4623 53.197C58.6929 53.197 58.8797 53.3839 58.8797 53.6144Z" fill="#9AD51E"/>
<path id="Fill 199" fill-rule="evenodd" clip-rule="evenodd" d="M60.7014 37.9782C60.7014 38.2088 60.5145 38.3956 60.2839 38.3956C60.0534 38.3956 59.8663 38.2088 59.8663 37.9782C59.8663 37.7476 60.0534 37.5608 60.2839 37.5608C60.5145 37.5608 60.7014 37.7476 60.7014 37.9782Z" fill="#9AD51E"/>
<path id="Fill 201" fill-rule="evenodd" clip-rule="evenodd" d="M41.7 52.9313C41.7 53.1619 41.5132 53.3487 41.2826 53.3487C41.052 53.3487 40.865 53.1619 40.865 52.9313C40.865 52.7008 41.052 52.5139 41.2826 52.5139C41.5132 52.5139 41.7 52.7008 41.7 52.9313Z" fill="#9AD51E"/>
<path id="Fill 203" fill-rule="evenodd" clip-rule="evenodd" d="M43.4205 45.3914C43.4205 45.622 43.2336 45.8088 43.0031 45.8088C42.7725 45.8088 42.5854 45.622 42.5854 45.3914C42.5854 45.1608 42.7725 44.974 43.0031 44.974C43.2336 44.974 43.4205 45.1608 43.4205 45.3914Z" fill="#9AD51E"/>
<path id="Fill 205" fill-rule="evenodd" clip-rule="evenodd" d="M35.5765 69.0035C35.5765 69.1359 35.4692 69.2434 35.3366 69.2434C35.2042 69.2434 35.0969 69.1359 35.0969 69.0035C35.0969 68.8711 35.2042 68.7635 35.3366 68.7635C35.4692 68.7635 35.5765 68.8711 35.5765 69.0035Z" fill="#9AD51E"/>
<path id="Fill 208" fill-rule="evenodd" clip-rule="evenodd" d="M40.4345 55.6385C40.4345 55.7709 40.3271 55.8784 40.1945 55.8784C40.0622 55.8784 39.9548 55.7709 39.9548 55.6385C39.9548 55.5061 40.0622 55.3986 40.1945 55.3986C40.3271 55.3986 40.4345 55.5061 40.4345 55.6385Z" fill="#9AD51E"/>
<path id="Fill 210" fill-rule="evenodd" clip-rule="evenodd" d="M57.0321 60.8759C57.0321 61.0083 56.9248 61.1158 56.7922 61.1158C56.6598 61.1158 56.5525 61.0083 56.5525 60.8759C56.5525 60.7435 56.6598 60.636 56.7922 60.636C56.9248 60.636 57.0321 60.7435 57.0321 60.8759Z" fill="#9AD51E"/>
<path id="Fill 212" fill-rule="evenodd" clip-rule="evenodd" d="M67.0768 63.8868C67.0768 64.0192 66.9695 64.1267 66.8369 64.1267C66.7045 64.1267 66.5972 64.0192 66.5972 63.8868C66.5972 63.7544 66.7045 63.6469 66.8369 63.6469C66.9695 63.6469 67.0768 63.7544 67.0768 63.8868Z" fill="#9AD51E"/>
<path id="Fill 214" fill-rule="evenodd" clip-rule="evenodd" d="M66.8369 68.9412C66.8369 69.0736 66.7296 69.1811 66.597 69.1811C66.4646 69.1811 66.3573 69.0736 66.3573 68.9412C66.3573 68.8088 66.4646 68.7013 66.597 68.7013C66.7296 68.7013 66.8369 68.8088 66.8369 68.9412Z" fill="#9AD51E"/>
<path id="Fill 216" fill-rule="evenodd" clip-rule="evenodd" d="M37.0693 53.3361C37.0693 53.4685 36.962 53.576 36.8294 53.576C36.697 53.576 36.5897 53.4685 36.5897 53.3361C36.5897 53.2037 36.697 53.0962 36.8294 53.0962C36.962 53.0962 37.0693 53.2037 37.0693 53.3361Z" fill="#9AD51E"/>
<path id="Fill 218" fill-rule="evenodd" clip-rule="evenodd" d="M60.5237 37.9782C60.5237 38.1106 60.4164 38.2181 60.2838 38.2181C60.1514 38.2181 60.0441 38.1106 60.0441 37.9782C60.0441 37.8458 60.1514 37.7383 60.2838 37.7383C60.4164 37.7383 60.5237 37.8458 60.5237 37.9782Z" fill="#9AD51E"/>
<path id="Fill 220" fill-rule="evenodd" clip-rule="evenodd" d="M54.2807 51.9952C54.2807 52.1276 54.1733 52.2351 54.0407 52.2351C53.9083 52.2351 53.801 52.1276 53.801 51.9952C53.801 51.8628 53.9083 51.7552 54.0407 51.7552C54.1733 51.7552 54.2807 51.8628 54.2807 51.9952Z" fill="#9AD51E"/>
<path id="Fill 222" fill-rule="evenodd" clip-rule="evenodd" d="M47.2152 36.1311C47.2152 36.2635 47.1079 36.3711 46.9753 36.3711C46.8429 36.3711 46.7356 36.2635 46.7356 36.1311C46.7356 35.9987 46.8429 35.8912 46.9753 35.8912C47.1079 35.8912 47.2152 35.9987 47.2152 36.1311Z" fill="#9AD51E"/>
<path id="Fill 224" fill-rule="evenodd" clip-rule="evenodd" d="M52.1996 35.9793C52.1996 36.1117 52.0923 36.2192 51.9597 36.2192C51.8273 36.2192 51.72 36.1117 51.72 35.9793C51.72 35.8469 51.8273 35.7394 51.9597 35.7394C52.0923 35.7394 52.1996 35.8469 52.1996 35.9793Z" fill="#9AD51E"/>
<path id="Fill 226" fill-rule="evenodd" clip-rule="evenodd" d="M43.8248 33.3733C43.8248 33.5057 43.7175 33.6132 43.5849 33.6132C43.4525 33.6132 43.3452 33.5057 43.3452 33.3733C43.3452 33.2409 43.4525 33.1334 43.5849 33.1334C43.7175 33.1334 43.8248 33.2409 43.8248 33.3733Z" fill="#9AD51E"/>
<path id="Fill 228" fill-rule="evenodd" clip-rule="evenodd" d="M45.267 28.9961C45.267 29.1285 45.1597 29.236 45.0271 29.236C44.8947 29.236 44.7874 29.1285 44.7874 28.9961C44.7874 28.8637 44.8947 28.7562 45.0271 28.7562C45.1597 28.7562 45.267 28.8637 45.267 28.9961Z" fill="#9AD51E"/>
<path id="Fill 230" fill-rule="evenodd" clip-rule="evenodd" d="M33.5525 63.8868C33.5525 64.0192 33.4452 64.1267 33.3126 64.1267C33.1802 64.1267 33.0729 64.0192 33.0729 63.8868C33.0729 63.7544 33.1802 63.6469 33.3126 63.6469C33.4452 63.6469 33.5525 63.7544 33.5525 63.8868Z" fill="#9AD51E"/>
<g id="Fill 232">
<path fill-rule="evenodd" clip-rule="evenodd" d="M48.0032 51.8491H53.8481L51.0872 41.5396L48.0032 51.8491ZM54.2437 52.1528H47.5955L51.1033 40.4264L54.2437 52.1528ZM59.4475 68.8516H70.6649L57.2329 29.1537H45.132L31.7859 68.8516H42.4819L45.0852 60.7299H56.7577L59.4475 68.8516ZM71.0882 69.1553H59.2282L56.5384 61.0335H45.3068L42.7036 69.1553H31.3636L44.9137 28.8502H57.4508L57.4856 28.9533L71.0882 69.1553Z" fill="#9AD51E"/>
<path d="M48.0032 51.8491L47.0451 51.5625L46.6602 52.8491H48.0032V51.8491ZM53.8481 51.8491V52.8491H55.1512L54.8141 51.5904L53.8481 51.8491ZM51.0872 41.5396L52.0532 41.2809L51.1404 37.8725L50.1292 41.253L51.0872 41.5396ZM54.2437 52.1528V53.1528H55.5468L55.2097 51.8941L54.2437 52.1528ZM47.5955 52.1528L46.6374 51.8662L46.2526 53.1528H47.5955V52.1528ZM51.1033 40.4264L52.0693 40.1677L51.1565 36.7593L50.1453 40.1398L51.1033 40.4264ZM59.4475 68.8516L58.4982 69.166L58.7253 69.8516H59.4475V68.8516ZM70.6649 68.8516V69.8516H72.059L71.6122 68.5311L70.6649 68.8516ZM57.2329 29.1537L58.1801 28.8332L57.9502 28.1537H57.2329V29.1537ZM45.132 29.1537V28.1537H44.4132L44.1842 28.835L45.132 29.1537ZM31.7859 68.8516L30.8381 68.5329L30.3947 69.8516H31.7859V68.8516ZM42.4819 68.8516V69.8516H43.2115L43.4342 69.1568L42.4819 68.8516ZM45.0852 60.7299V59.7299H44.3556L44.1329 60.4246L45.0852 60.7299ZM56.7577 60.7299L57.707 60.4155L57.48 59.7299H56.7577V60.7299ZM71.0882 69.1553V70.1553H72.4822L72.0354 68.8348L71.0882 69.1553ZM59.2282 69.1553L58.2789 69.4697L58.506 70.1553H59.2282V69.1553ZM56.5384 61.0335L57.4877 60.7192L57.2607 60.0335H56.5384V61.0335ZM45.3068 61.0335V60.0335H44.5772L44.3545 60.7283L45.3068 61.0335ZM42.7036 69.1553V70.1553H43.4332L43.6559 69.4605L42.7036 69.1553ZM31.3636 69.1553L30.4158 68.8366L29.9725 70.1553H31.3636V69.1553ZM44.9137 28.8502V27.8502H44.1949L43.9658 28.5316L44.9137 28.8502ZM57.4508 28.8502L58.3983 28.5302L58.1686 27.8502H57.4508V28.8502ZM57.4856 28.9533L56.5382 29.2732L56.5384 29.2738L57.4856 28.9533ZM48.0032 52.8491H53.8481V50.8491H48.0032V52.8491ZM54.8141 51.5904L52.0532 41.2809L50.1212 41.7983L52.8822 52.1078L54.8141 51.5904ZM50.1292 41.253L47.0451 51.5625L48.9612 52.1357L52.0453 41.8262L50.1292 41.253ZM54.2437 51.1528H47.5955V53.1528H54.2437V51.1528ZM48.5535 52.4394L52.0614 40.713L50.1453 40.1398L46.6374 51.8662L48.5535 52.4394ZM50.1374 40.6851L53.2778 52.4115L55.2097 51.8941L52.0693 40.1677L50.1374 40.6851ZM59.4475 69.8516H70.6649V67.8516H59.4475V69.8516ZM71.6122 68.5311L58.1801 28.8332L56.2857 29.4742L69.7177 69.1721L71.6122 68.5311ZM57.2329 28.1537H45.132V30.1537H57.2329V28.1537ZM44.1842 28.835L30.8381 68.5329L32.7338 69.1703L46.0799 29.4724L44.1842 28.835ZM31.7859 69.8516H42.4819V67.8516H31.7859V69.8516ZM43.4342 69.1568L46.0375 61.0351L44.1329 60.4246L41.5297 68.5464L43.4342 69.1568ZM45.0852 61.7299H56.7577V59.7299H45.0852V61.7299ZM55.8085 61.0443L58.4982 69.166L60.3968 68.5372L57.707 60.4155L55.8085 61.0443ZM71.0882 68.1553H59.2282V70.1553H71.0882V68.1553ZM60.1775 68.8409L57.4877 60.7192L55.5892 61.3479L58.2789 69.4697L60.1775 68.8409ZM56.5384 60.0335H45.3068V62.0335H56.5384V60.0335ZM44.3545 60.7283L41.7513 68.8501L43.6559 69.4605L46.2591 61.3388L44.3545 60.7283ZM42.7036 68.1553H31.3636V70.1553H42.7036V68.1553ZM32.3115 69.4739L45.8616 29.1689L43.9658 28.5316L30.4158 68.8366L32.3115 69.4739ZM44.9137 29.8502H57.4508V27.8502H44.9137V29.8502ZM56.5034 29.1702L56.5382 29.2732L58.4331 28.6333L58.3983 28.5302L56.5034 29.1702ZM56.5384 29.2738L70.1409 69.4758L72.0354 68.8348L58.4329 28.6328L56.5384 29.2738Z" fill="url(#paint1_linear)"/>
</g>
</g>
</g>
<path id="Oval_2" d="M51 87.3637C71.6354 87.3637 88.3636 70.6355 88.3636 50.0001C88.3636 29.3647 71.6354 12.6365 51 12.6365C30.3646 12.6365 13.6364 29.3647 13.6364 50.0001C13.6364 70.6355 30.3646 87.3637 51 87.3637Z" stroke="url(#paint2_linear)" stroke-width="2"/>
</g>
<defs>
<filter id="filter0_dd" x="0" y="0" width="102" height="102" filterUnits="userSpaceOnUse" color-interpolation-filters="sRGB">
<feFlood flood-opacity="0" result="BackgroundImageFix"/>
<feColorMatrix in="SourceAlpha" type="matrix" values="0 0 0 0 0 0 0 0 0 0 0 0 0 0 0 0 0 0 127 0"/>
<feOffset dy="2"/>
<feGaussianBlur stdDeviation="2"/>
<feColorMatrix type="matrix" values="0 0 0 0 0 0 0 0 0 0 0 0 0 0 0 0 0 0 0.0466486 0"/>
<feBlend mode="normal" in2="BackgroundImageFix" result="effect1_dropShadow"/>
<feColorMatrix in="SourceAlpha" type="matrix" values="0 0 0 0 0 0 0 0 0 0 0 0 0 0 0 0 0 0 127 0"/>
<feOffset dy="1"/>
<feGaussianBlur stdDeviation="5"/>
<feColorMatrix type="matrix" values="0 0 0 0 0 0 0 0 0 0 0 0 0 0 0 0 0 0 0.0829087 0"/>
<feBlend mode="normal" in2="effect1_dropShadow" result="effect2_dropShadow"/>
<feBlend mode="normal" in="SourceGraphic" in2="effect2_dropShadow" result="shape"/>
</filter>
<linearGradient id="paint0_linear" x1="11" y1="10" x2="11" y2="90" gradientUnits="userSpaceOnUse">
<stop stop-color="white"/>
<stop offset="1" stop-color="#E8E8E8"/>
</linearGradient>
<linearGradient id="paint1_linear" x1="31.3636" y1="28.8502" x2="31.3636" y2="69.1553" gradientUnits="userSpaceOnUse">
<stop stop-color="#90CC00"/>
<stop offset="1" stop-color="#5EC204"/>
</linearGradient>
<linearGradient id="paint2_linear" x1="14.6364" y1="13.6365" x2="14.6364" y2="86.3637" gradientUnits="userSpaceOnUse">
<stop stop-color="#90CC00"/>
<stop offset="1" stop-color="#5EC204"/>
</linearGradient>
</defs>
</svg>
