<svg width="26" height="26" viewBox="0 0 26 26" fill="none" xmlns="http://www.w3.org/2000/svg">
<path id="plus" fill-rule="evenodd" clip-rule="evenodd" d="M24.9687 11.1562C25.1015 11.1562 25.2232 11.2116 25.3339 11.3222C25.4446 11.4329 25.4999 11.5547 25.4999 11.6875V13.8125C25.4999 13.9453 25.4446 14.067 25.3339 14.1777C25.2232 14.2884 25.1015 14.3437 24.9687 14.3437H14.3437V24.9687C14.3437 25.1015 14.2884 25.2232 14.1777 25.3339C14.067 25.4446 13.9453 25.4999 13.8125 25.4999H11.6875C11.5547 25.4999 11.4329 25.4446 11.3222 25.3339C11.2116 25.2232 11.1562 25.1015 11.1562 24.9687V14.3437H0.531249C0.398437 14.3437 0.276692 14.2884 0.166015 14.1777C0.0553381 14.067 0 13.9453 0 13.8125V11.6875C0 11.5547 0.0553381 11.4329 0.166015 11.3222C0.276692 11.2116 0.398437 11.1562 0.531249 11.1562H11.1562V0.531249C11.1562 0.398437 11.2116 0.276692 11.3222 0.166015C11.4329 0.0553381 11.5547 0 11.6875 0H13.8125C13.9453 0 14.067 0.0553381 14.1777 0.166015C14.2884 0.276692 14.3437 0.398437 14.3437 0.531249V11.1562H24.9687Z" fill="#BDC7DB"/>
</svg>
