<svg width="58" height="34" viewBox="0 0 58 34" fill="none" xmlns="http://www.w3.org/2000/svg">
<g id="Group 6">
<g id="Rectangle" filter="url(#filter0_d)">
<rect x="2" y="1" width="54" height="30" rx="1.5" fill="white"/>
<rect x="2" y="1" width="54" height="30" rx="1.5" stroke="#E5E5E5"/>
</g>
<g id="finam">
<g id="XMLID_1_">
<path id="polygon5_1_" fill-rule="evenodd" clip-rule="evenodd" d="M19.8892 20.2791V26.9853H17.7969V20.2791H19.8892Z" fill="black"/>
<path id="path7_1_" fill-rule="evenodd" clip-rule="evenodd" d="M21.6892 20.2791H25.7129C26.8904 20.2791 27.7078 20.5078 28.1667 20.9652C28.5592 21.3577 28.7555 21.9789 28.7555 22.8627V26.9868H26.6632V22.6355C26.6632 21.9803 26.3356 21.6867 25.5846 21.6867H23.7505V26.9543H21.6582L21.6892 20.2791Z" fill="black"/>
<path id="path9_1_" fill-rule="evenodd" clip-rule="evenodd" d="M35.7272 22.7638V22.8951L35.7243 22.932H32.847C30.917 22.932 30.0332 23.6491 30.0332 25.0243C30.0332 25.7754 30.3283 26.2992 30.8846 26.6267C31.3435 26.8554 32.0296 26.9868 32.9459 26.9868H37.821V23.2242C37.821 21.9479 37.4285 21.064 36.6435 20.6391C36.2186 20.4104 35.5974 20.2791 34.746 20.2791H30.5909V21.6852H34.1248C35.3347 21.6852 35.7272 21.9449 35.7272 22.7638ZM32.9783 24.3353H35.7272L35.7258 25.5452H33.3059C32.5209 25.5452 32.1934 25.3814 32.1934 24.9565C32.1934 24.5315 32.4545 24.3353 32.9783 24.3353Z" fill="black"/>
<path id="path11_1_" fill-rule="evenodd" clip-rule="evenodd" d="M39.5527 20.2791H47.2417C48.4855 20.2791 49.3679 20.5078 49.8268 20.9652C50.2193 21.3252 50.448 21.9139 50.448 22.7004V26.9868H48.3542V22.994C48.3542 22.0128 48.0591 21.6852 47.1103 21.6852H45.9978V26.9528H43.9055V21.7192H41.648V26.9868H39.5557L39.5527 20.2791Z" fill="black"/>
<path id="path13_1_" fill-rule="evenodd" clip-rule="evenodd" d="M11.186 21.7192H15.8974V20.2791H11.0562C9.87873 20.2791 9.06129 20.5078 8.6024 20.9652C8.20992 21.3577 8.01367 21.9789 8.01367 22.8627V26.9868H10.106V24.5654H15.8959V23.1253H10.106V22.6355C10.1074 21.9789 10.4335 21.7192 11.186 21.7192Z" fill="black"/>
</g>
<g id="Group">
<path id="path15_1_" fill-rule="evenodd" clip-rule="evenodd" d="M24.7344 14.7871L25.3895 15.3434L26.0446 15.8997C26.0446 15.8997 26.142 15.4747 26.4371 14.9184L25.0959 13.8398C24.8318 14.3622 24.7344 14.7871 24.7344 14.7871Z" fill="#C76300"/>
<path id="path17_1_" fill-rule="evenodd" clip-rule="evenodd" d="M25.1914 13.6761L26.5327 14.7562C26.664 14.495 26.8602 14.1999 27.0889 13.9372L25.7477 12.8247C25.5175 13.1198 25.3552 13.381 25.1914 13.6761Z" fill="#D18212"/>
<path id="path19_1_" fill-rule="evenodd" clip-rule="evenodd" d="M25.8789 12.6949L27.2202 13.7735C27.4164 13.5448 27.679 13.2836 27.9402 13.0874L26.599 12.0088C26.3039 12.2036 26.0737 12.4647 25.8789 12.6949Z" fill="#D19429"/>
<path id="path21_1_" fill-rule="evenodd" clip-rule="evenodd" d="M31.0488 9.38972L32.3901 10.4698C32.6188 10.2411 32.815 10.0109 33.0452 9.71581L31.704 8.63721C31.5077 8.93231 31.2775 9.192 31.0488 9.38972Z" fill="#F5D145"/>
<path id="path23_1_" fill-rule="evenodd" clip-rule="evenodd" d="M27.875 11.3197L29.2162 12.3983C29.5438 12.267 29.8714 12.1372 30.2299 11.9394L28.9211 10.8948C28.5611 11.0586 28.2026 11.1899 27.875 11.3197Z" fill="#FADE6E"/>
<path id="path25_1_" fill-rule="evenodd" clip-rule="evenodd" d="M26.8591 11.8434C26.8266 11.8759 26.7942 11.9083 26.7617 11.9083L28.103 12.9869C28.1354 12.9545 28.1679 12.922 28.2004 12.922C28.4291 12.7597 28.7242 12.6269 29.0517 12.4971L27.7105 11.4185C27.3829 11.5483 27.0878 11.6796 26.8591 11.8434Z" fill="#FAAB00"/>
<path id="path27_1_" fill-rule="evenodd" clip-rule="evenodd" d="M32.9785 6.41359L34.3198 7.4922C34.4511 7.19709 34.5809 6.871 34.6798 6.51098L33.3385 5.43237C33.2072 5.79092 33.0759 6.11701 32.9785 6.41359Z" fill="#E39105"/>
<path id="path29_1_" fill-rule="evenodd" clip-rule="evenodd" d="M32.4551 7.5247L33.7963 8.6033C33.9586 8.3082 34.0914 8.01457 34.2552 7.687L32.914 6.6084C32.7487 6.93596 32.5864 7.22959 32.4551 7.5247Z" fill="#E3A30A"/>
<path id="path31_1_" fill-rule="evenodd" clip-rule="evenodd" d="M29.084 10.7958L30.4252 11.8744C30.7203 11.7121 31.0464 11.5468 31.3415 11.3506L30.0003 10.2734C29.6742 10.4697 29.3776 10.6645 29.084 10.7958Z" fill="#FFFABA"/>
<path id="path33_1_" fill-rule="evenodd" clip-rule="evenodd" d="M30.1641 10.1747L31.5053 11.2533C31.7665 11.057 32.0291 10.8608 32.2903 10.5981L30.949 9.51953C30.6879 9.78217 30.4252 9.97842 30.1641 10.1747Z" fill="#FFDB7D"/>
<path id="path35_1_" fill-rule="evenodd" clip-rule="evenodd" d="M31.832 8.50592L33.1733 9.58452C33.3695 9.32335 33.5333 9.06071 33.7295 8.73315L32.3883 7.65454C32.1935 7.98211 31.9973 8.24475 31.832 8.50592Z" fill="#EBB000"/>
<path id="path37_1_" fill-rule="evenodd" clip-rule="evenodd" d="M22.8027 13.1846L23.4579 13.7409L24.113 14.2972C24.113 14.2972 24.2104 13.8722 24.5055 13.3159L23.1628 12.2344C22.9016 12.7921 22.8027 13.1846 22.8027 13.1846Z" fill="#870012"/>
<path id="path39_1_" fill-rule="evenodd" clip-rule="evenodd" d="M23.2598 12.0721L24.601 13.1507C24.7323 12.8895 24.9286 12.5944 25.1573 12.3318L23.8146 11.2192C23.5873 11.5158 23.425 11.8109 23.2598 12.0721Z" fill="#B20A1C"/>
<path id="path41_1_" fill-rule="evenodd" clip-rule="evenodd" d="M23.9492 11.0909L25.258 12.2035C25.4542 11.9747 25.7169 11.7136 25.9781 11.5173L24.6353 10.4373C24.4066 10.632 24.1455 10.8622 23.9492 11.0909Z" fill="#BA001C"/>
<path id="path43_1_" fill-rule="evenodd" clip-rule="evenodd" d="M29.1191 7.81966L30.4604 8.89827C30.6891 8.66956 30.8853 8.43938 31.1155 8.14428L29.7743 7.06567C29.578 7.32832 29.3478 7.58948 29.1191 7.81966Z" fill="#D93636"/>
<path id="path45_1_" fill-rule="evenodd" clip-rule="evenodd" d="M25.9766 9.74966L27.3178 10.8283C27.6454 10.6969 27.9729 10.5671 28.3315 10.3694L26.9902 9.29077C26.6302 9.45603 26.2717 9.61834 25.9766 9.74966Z" fill="#FA8C8C"/>
<path id="path47_1_" fill-rule="evenodd" clip-rule="evenodd" d="M24.9294 10.2411C24.897 10.2736 24.8645 10.306 24.832 10.306L26.1733 11.3846C26.2057 11.3522 26.2382 11.3197 26.2707 11.3197C26.4994 11.1574 26.7945 11.0246 27.122 10.8948L25.7808 9.81616C25.4532 9.94601 25.1581 10.0773 24.9294 10.2411Z" fill="#E50000"/>
<path id="path49_1_" fill-rule="evenodd" clip-rule="evenodd" d="M30.5254 5.92216L31.8666 7.00076C32.0289 6.70566 32.1617 6.41203 32.3255 6.08446L30.9503 5.00586C30.819 5.33195 30.6892 5.62705 30.5254 5.92216Z" fill="#BD001C"/>
<path id="path51_1_" fill-rule="evenodd" clip-rule="evenodd" d="M27.1543 9.19202L28.4955 10.2721C28.7906 10.1098 29.1167 9.94454 29.4118 9.74829L28.0706 8.66821C27.7755 8.89839 27.4479 9.06218 27.1543 9.19202Z" fill="#FFCCCC"/>
<path id="path53_1_" fill-rule="evenodd" clip-rule="evenodd" d="M28.2344 8.57065L29.5756 9.64925C29.8368 9.45301 30.0994 9.25676 30.3606 8.99412L29.0194 7.91699C28.7582 8.17816 28.4955 8.37588 28.2344 8.57065Z" fill="#EB8A96"/>
<path id="path55_1_" fill-rule="evenodd" clip-rule="evenodd" d="M29.9023 6.93584L31.2436 8.01444C31.4398 7.75327 31.6036 7.49063 31.7999 7.16307L30.4586 6.08594C30.2638 6.37957 30.0676 6.67319 29.9023 6.93584Z" fill="#C90012"/>
<path id="path57_1_" fill-rule="evenodd" clip-rule="evenodd" d="M26.6641 16.3911L27.3192 16.9474L27.9743 17.5037C27.9743 17.5037 28.0717 17.0787 28.3668 16.5225L27.058 15.4099C26.7614 15.9662 26.6641 16.3911 26.6641 16.3911Z" fill="#870012"/>
<path id="path59_1_" fill-rule="evenodd" clip-rule="evenodd" d="M27.123 15.2459L28.4643 16.3245C28.5956 16.0634 28.7919 15.7682 29.0206 15.5056L27.6793 14.427C27.4491 14.6896 27.2868 14.9847 27.123 15.2459Z" fill="#B20A1C"/>
<path id="path61_1_" fill-rule="evenodd" clip-rule="evenodd" d="M27.8105 14.2972L29.1518 15.3758C29.348 15.1471 29.6107 14.8859 29.8718 14.6897L28.5306 13.6111C28.2355 13.8059 28.0053 14.036 27.8105 14.2972Z" fill="#BA001C"/>
<path id="path63_1_" fill-rule="evenodd" clip-rule="evenodd" d="M32.9785 10.9935L34.3198 12.0721C34.5485 11.8434 34.7447 11.6132 34.9749 11.3181L33.6336 10.2395C33.4374 10.5346 33.2072 10.7648 32.9785 10.9935Z" fill="#D93636"/>
<path id="path65_1_" fill-rule="evenodd" clip-rule="evenodd" d="M29.8047 12.9235L31.1459 14.0021C31.4735 13.8708 31.8011 13.7409 32.1596 13.5432L30.8184 12.4646C30.4923 12.6608 30.1323 12.7922 29.8047 12.9235Z" fill="#FA8C8C"/>
<path id="path67_1_" fill-rule="evenodd" clip-rule="evenodd" d="M28.7907 13.4135C28.7583 13.4459 28.7258 13.4784 28.6934 13.4784L30.0346 14.5585C30.0671 14.526 30.0995 14.4935 30.132 14.4935C30.3607 14.3312 30.6558 14.1984 30.9834 14.0686L29.6421 12.99C29.3131 13.1523 29.0194 13.2821 28.7907 13.4135Z" fill="#E50000"/>
<path id="path69_1_" fill-rule="evenodd" clip-rule="evenodd" d="M31.0137 12.3998L32.3549 13.4784C32.65 13.3161 32.9761 13.1508 33.2712 12.9546L31.93 11.876C31.6039 12.0722 31.3088 12.236 31.0137 12.3998Z" fill="#FFCCCC"/>
<path id="path71_1_" fill-rule="evenodd" clip-rule="evenodd" d="M32.0938 11.7445L33.435 12.8231C33.6962 12.6268 33.9588 12.4306 34.22 12.168L32.8787 11.0894C32.6176 11.352 32.3564 11.5807 32.0938 11.7445Z" fill="#EB8A96"/>
<path id="path73_1_" fill-rule="evenodd" clip-rule="evenodd" d="M33.7617 10.1082L35.103 11.1868C35.2992 10.9256 35.463 10.663 35.6592 10.3354L34.2841 9.25684C34.1232 9.5844 33.927 9.84852 33.7617 10.1082Z" fill="#C90012"/>
</g>
</g>
</g>
<defs>
<filter id="filter0_d" x="0.5" y="0.5" width="57" height="33" filterUnits="userSpaceOnUse" color-interpolation-filters="sRGB">
<feFlood flood-opacity="0" result="BackgroundImageFix"/>
<feColorMatrix in="SourceAlpha" type="matrix" values="0 0 0 0 0 0 0 0 0 0 0 0 0 0 0 0 0 0 127 0"/>
<feOffset dy="1"/>
<feGaussianBlur stdDeviation="0.5"/>
<feColorMatrix type="matrix" values="0 0 0 0 0 0 0 0 0 0 0 0 0 0 0 0 0 0 0.0636889 0"/>
<feBlend mode="normal" in2="BackgroundImageFix" result="effect1_dropShadow"/>
<feBlend mode="normal" in="SourceGraphic" in2="effect1_dropShadow" result="shape"/>
</filter>
</defs>
</svg>
