<svg width="11" height="8" viewBox="0 0 11 8" fill="none" xmlns="http://www.w3.org/2000/svg">
<path id="long-arrow-right" fill-rule="evenodd" clip-rule="evenodd" d="M5.97655 1.35937C5.86717 1.25 5.81249 1.12109 5.81249 0.972654C5.81249 0.824217 5.86717 0.687498 5.97655 0.562499L6.37498 0.1875C6.48436 0.0625 6.61327 0 6.7617 0C6.91014 0 7.03905 0.0625 7.14842 0.1875L10.3359 3.35155C10.4453 3.46093 10.5 3.59374 10.5 3.74999C10.5 3.90624 10.4453 4.03905 10.3359 4.14843L7.14842 7.31248C7.03905 7.43748 6.91014 7.49998 6.7617 7.49998C6.61327 7.49998 6.48436 7.43748 6.37498 7.31248L5.97655 6.93748C5.86717 6.81248 5.81249 6.67577 5.81249 6.52733C5.81249 6.37889 5.86717 6.24999 5.97655 6.14061L7.49998 4.59374H0.562499C0.406249 4.59374 0.273437 4.53905 0.164062 4.42968C0.0546873 4.3203 0 4.18749 0 4.03124V3.46874C0 3.31249 0.0546873 3.17968 0.164062 3.07031C0.273437 2.96093 0.406249 2.90624 0.562499 2.90624H7.49998L5.97655 1.35937Z" fill="#51A903"/>
</svg>
