<svg xmlns="http://www.w3.org/2000/svg" xmlns:xlink="http://www.w3.org/1999/xlink" width="13" height="11" viewBox="0 0 13 11">
    <defs>
        <path id="b" d="M28.363 25.852c-.071.229-.2.415-.386.558a.997.997 0 0 1-.624.215c-.701 0-1.432-.215-2.19-.645a5.792 5.792 0 0 1-1.73.13 4.945 4.945 0 0 1-1.665-.409 7.416 7.416 0 0 0 2.492-.623 4.896 4.896 0 0 0 1.052-.193c.745.472 1.426.709 2.041.709-.587-.315-.916-.738-.988-1.268.287-.215.516-.458.688-.73.2-.33.3-.666.3-1.01 0-.23-.05-.458-.15-.688a3.53 3.53 0 0 0 .108-1.59c.343.33.608.692.794 1.086.187.393.28.79.28 1.192 0 .716-.25 1.368-.752 1.955a.818.818 0 0 0 .215.15c.2.115.35.28.45.495.101.214.123.436.065.666zm-7.197-7.82c-.83 0-1.576.15-2.234.45-.602.273-1.075.63-1.418 1.075-.315.43-.473.859-.473 1.289 0 .386.115.759.344 1.117.215.315.494.594.838.838-.086.587-.48 1.06-1.182 1.418.745 0 1.561-.272 2.45-.817.53.172 1.088.258 1.675.258.83 0 1.576-.15 2.234-.451.602-.272 1.075-.63 1.418-1.074.315-.43.473-.86.473-1.29 0-.429-.158-.859-.473-1.288-.343-.444-.816-.802-1.418-1.075-.658-.3-1.403-.45-2.234-.45zm0-1.032c1.031 0 1.955.2 2.771.602.745.358 1.329.83 1.751 1.418.423.587.634 1.195.634 1.826 0 .501-.132.984-.397 1.45a4.207 4.207 0 0 1-1.085 1.235 5.258 5.258 0 0 1-1.59.838 6.55 6.55 0 0 1-2.084.322 6.64 6.64 0 0 1-1.525-.171c-.917.486-1.784.73-2.6.73a.996.996 0 0 1-.645-.226 1.038 1.038 0 0 1-.365-.569.973.973 0 0 1 .065-.666c.1-.215.258-.38.472-.494.158-.072.287-.15.387-.236-.157-.172-.3-.351-.43-.538a3.081 3.081 0 0 1-.515-1.708c0-.608.211-1.206.634-1.793.422-.588 1.006-1.06 1.75-1.418.817-.401 1.74-.602 2.772-.602z"/>
        <filter id="a" width="108.1%" height="120.8%" x="-4%" y="-5.2%" filterUnits="objectBoundingBox">
            <feOffset dy="1" in="SourceAlpha" result="shadowOffsetOuter1"/>
            <feColorMatrix in="shadowOffsetOuter1" values="0 0 0 0 1 0 0 0 0 1 0 0 0 0 1 0 0 0 0.612460371 0"/>
        </filter>
    </defs>
    <g fill="none" fill-rule="evenodd" transform="translate(-16 -17)">
        <use fill="#000" filter="url(#a)" xlink:href="#b"/>
        <use fill="#51A903" xlink:href="#b"/>
    </g>
</svg>
