<svg xmlns="http://www.w3.org/2000/svg" xmlns:xlink="http://www.w3.org/1999/xlink" width="7" height="12" viewBox="0 0 7 12">
    <defs>
        <path id="b" d="M23.558 37.2a2.23 2.23 0 0 1 1.322 1.041c.308.523.39 1.078.247 1.665a2.147 2.147 0 0 1-.838 1.246c-.43.315-.91.473-1.44.473h-.064v1.031c0 .1-.032.183-.097.247a.335.335 0 0 1-.247.097h-.687a.335.335 0 0 1-.247-.097.335.335 0 0 1-.097-.247v-1.031h-.064a2.967 2.967 0 0 1-1.848-.623.36.36 0 0 1-.14-.258.382.382 0 0 1 .097-.28l.494-.472a.265.265 0 0 1 .215-.107.45.45 0 0 1 .236.064c.287.2.602.301.946.301h1.59a.825.825 0 0 0 .665-.312.835.835 0 0 0 .194-.698.729.729 0 0 0-.204-.451 1.043 1.043 0 0 0-.462-.28l-2.492-.708a2.23 2.23 0 0 1-1.322-1.042 2.158 2.158 0 0 1-.247-1.665c.13-.516.408-.931.838-1.246.43-.315.917-.473 1.461-.473h.043v-1.031c0-.1.032-.183.097-.247a.335.335 0 0 1 .247-.097h.687c.1 0 .183.032.247.097a.335.335 0 0 1 .097.247v1.031h.064c.688 0 1.304.208 1.848.623a.36.36 0 0 1 .14.258.317.317 0 0 1-.097.258l-.494.494a.265.265 0 0 1-.215.107.45.45 0 0 1-.236-.064c-.287-.2-.602-.301-.946-.301h-1.59a.825.825 0 0 0-.665.312.835.835 0 0 0-.194.698.729.729 0 0 0 .204.45c.122.13.276.223.462.28l2.492.71z"/>
        <filter id="a" width="116.1%" height="118.2%" x="-8.1%" y="-4.5%" filterUnits="objectBoundingBox">
            <feOffset dy="1" in="SourceAlpha" result="shadowOffsetOuter1"/>
            <feColorMatrix in="shadowOffsetOuter1" values="0 0 0 0 1 0 0 0 0 1 0 0 0 0 1 0 0 0 0.612460371 0"/>
        </filter>
    </defs>
    <g fill="none" fill-rule="evenodd" transform="translate(-19 -32)">
        <use fill="#000" filter="url(#a)" xlink:href="#b"/>
        <use fill="#51A903" xlink:href="#b"/>
    </g>
</svg>
