<svg xmlns="http://www.w3.org/2000/svg" xmlns:xlink="http://www.w3.org/1999/xlink" width="10" height="11" viewBox="0 0 10 11">
    <defs>
        <path id="b" d="M23.25 33.937c-.508 0-.977.127-1.406.381-.43.254-.772.596-1.026 1.026-.254.43-.38.898-.38 1.406 0 .273.039.547.117.82l-2.618 2.617v1.875h1.875v-.937h.938v-.938h.625l.82-.82c.339.13.69.195 1.055.195.508 0 .977-.126 1.406-.38.43-.254.772-.596 1.026-1.026.254-.43.38-.898.38-1.406 0-.508-.126-.977-.38-1.406a2.866 2.866 0 0 0-1.026-1.026 2.715 2.715 0 0 0-1.406-.38zm0-.937c.677 0 1.302.17 1.875.508a3.822 3.822 0 0 1 1.367 1.367A3.62 3.62 0 0 1 27 36.75a3.62 3.62 0 0 1-.508 1.875 3.822 3.822 0 0 1-1.367 1.367 3.62 3.62 0 0 1-1.875.508c-.26 0-.52-.026-.781-.078l-.782.781v.39c0 .13-.045.242-.136.333a.452.452 0 0 1-.332.136h-.469v.47c0 .13-.046.24-.137.331a.452.452 0 0 1-.332.137H17.47a.452.452 0 0 1-.332-.137.452.452 0 0 1-.137-.332v-2.539c0-.13.046-.24.137-.332l2.402-2.402a3.62 3.62 0 0 1 .469-2.383 3.822 3.822 0 0 1 1.367-1.367A3.62 3.62 0 0 1 23.25 33zm0 2.812c0-.26.091-.481.273-.664a.904.904 0 0 1 .664-.273c.26 0 .482.091.665.273a.904.904 0 0 1 .273.664c0 .26-.091.482-.273.665a.904.904 0 0 1-.665.273.904.904 0 0 1-.664-.273.904.904 0 0 1-.273-.665z"/>
        <filter id="a" width="110%" x="-5%" y="-5%" filterUnits="objectBoundingBox">
            <feOffset dy="1" in="SourceAlpha" result="shadowOffsetOuter1"/>
            <feColorMatrix in="shadowOffsetOuter1" values="0 0 0 0 1 0 0 0 0 1 0 0 0 0 1 0 0 0 0.612460371 0"/>
        </filter>
    </defs>
    <g fill="none" fill-rule="evenodd" transform="translate(-17 -33)">
        <use fill="#000" filter="url(#a)" xlink:href="#b"/>
        <use fill="#51A903" xlink:href="#b"/>
    </g>
</svg>
