<svg xmlns="http://www.w3.org/2000/svg" width="18" height="13" viewBox="0 0 18 13">
    <path fill="#7FC908" fill-rule="evenodd" d="M5.937 11.969a.371.371 0 0 1-.312.156.371.371 0 0 1-.313-.156L.156 6.813A.371.371 0 0 1 0 6.5c0-.13.052-.234.156-.312L5.312 1.03a.371.371 0 0 1 .313-.156c.13 0 .234.052.312.156l.782.742a.486.486 0 0 1 .156.352c0 .13-.052.234-.156.313L3.555 5.484H17.03c.13 0 .241.046.332.137a.452.452 0 0 1 .137.332v1.094c0 .13-.046.24-.137.332a.452.452 0 0 1-.332.137H3.555l3.164 3.047a.371.371 0 0 1 .156.312c0 .13-.052.247-.156.352l-.782.742z"/>
</svg>
