<svg xmlns="http://www.w3.org/2000/svg" xmlns:xlink="http://www.w3.org/1999/xlink" width="10" height="11" viewBox="0 0 10 11">
    <defs>
        <path id="b" d="M26.324 33.457a.935.935 0 0 1 .488.312c.13.157.196.339.196.547a8.468 8.468 0 0 1-1.192 4.395 8.458 8.458 0 0 1-3.105 3.105 8.536 8.536 0 0 1-4.395 1.192.828.828 0 0 1-.547-.196.935.935 0 0 1-.312-.488l-.43-1.855a.852.852 0 0 1 .069-.606.814.814 0 0 1 .459-.41l1.972-.86a.846.846 0 0 1 .567-.038.935.935 0 0 1 .488.312l.625.781a5.96 5.96 0 0 0 2.441-2.441l-.781-.625a.935.935 0 0 1-.312-.488.846.846 0 0 1 .039-.567l.859-1.972a.814.814 0 0 1 .41-.46.852.852 0 0 1 .606-.068l1.855.43zm-7.969 8.613a7.545 7.545 0 0 0 3.887-1.055 7.86 7.86 0 0 0 2.773-2.773 7.545 7.545 0 0 0 1.055-3.887l-1.777-.41-.82 1.934 1.328 1.074c-.443.977-.954 1.751-1.534 2.324-.579.573-1.35 1.08-2.314 1.524l-1.074-1.329-1.934.82.41 1.778z"/>
        <filter id="a" width="110%" x="-5%" y="-5%" filterUnits="objectBoundingBox">
            <feOffset dy="1" in="SourceAlpha" result="shadowOffsetOuter1"/>
            <feColorMatrix in="shadowOffsetOuter1" values="0 0 0 0 1 0 0 0 0 1 0 0 0 0 1 0 0 0 0.612460371 0"/>
        </filter>
    </defs>
    <g fill="none" fill-rule="evenodd" transform="translate(-17 -33)">
        <use fill="#000" filter="url(#a)" xlink:href="#b"/>
        <use fill="#51A903" xlink:href="#b"/>
    </g>
</svg>
