<svg xmlns="http://www.w3.org/2000/svg" xmlns:xlink="http://www.w3.org/1999/xlink" width="10" height="15" viewBox="0 0 10 15">
    <defs>
        <path id="b" d="M302.531 16.25c.339 0 .627.119.864.355.236.237.355.525.355.864v8.937c0 .339-.119.627-.355.864a1.175 1.175 0 0 1-.864.355h-7.312c-.339 0-.627-.118-.864-.355a1.175 1.175 0 0 1-.355-.864V17.47c0-.339.118-.627.355-.864.237-.236.525-.355.864-.355h2.031c0-.44.16-.82.482-1.143a1.562 1.562 0 0 1 1.143-.482c.44 0 .82.16 1.143.482.321.322.482.703.482 1.143h2.031zm-.152 10.156c.034 0 .068-.017.101-.05.034-.034.051-.068.051-.102V17.62c0-.034-.017-.068-.05-.101-.034-.034-.068-.051-.102-.051h-1.067v.914c0 .084-.03.156-.088.216a.294.294 0 0 1-.216.089h-4.266a.294.294 0 0 1-.216-.09.294.294 0 0 1-.089-.215v-.914h-1.066c-.034 0-.068.017-.101.05-.034.034-.051.068-.051.102v8.633c0 .034.017.068.05.101.034.034.068.051.102.051h7.008zm-3.504-10.765c-.17 0-.313.059-.432.177a.588.588 0 0 0-.177.432c0 .17.059.313.177.432a.588.588 0 0 0 .432.177c.17 0 .313-.059.432-.177a.588.588 0 0 0 .177-.432c0-.17-.059-.313-.177-.432a.588.588 0 0 0-.432-.177z"/>
        <filter id="a" width="110.3%" height="115.4%" x="-5.1%" y="-3.8%" filterUnits="objectBoundingBox">
            <feOffset dy="1" in="SourceAlpha" result="shadowOffsetOuter1"/>
            <feColorMatrix in="shadowOffsetOuter1" values="0 0 0 0 1 0 0 0 0 1 0 0 0 0 1 0 0 0 0.612460371 0"/>
        </filter>
    </defs>
    <g fill="none" fill-rule="evenodd" transform="translate(-294 -14)">
        <use fill="#000" filter="url(#a)" xlink:href="#b"/>
        <use fill="#7E82A0" xlink:href="#b"/>
    </g>
</svg>
