<svg xmlns="http://www.w3.org/2000/svg" width="13" height="12" viewBox="0 0 13 12">
    <path fill="#5FA80D" fill-rule="evenodd" d="M11.917 6.75c.3 0 .556.11.767.328.21.219.316.484.316.797v3c0 .313-.105.578-.316.797-.21.219-.466.328-.767.328H1.083c-.3 0-.556-.11-.767-.328A1.106 1.106 0 0 1 0 10.875v-3c0-.313.105-.578.316-.797.21-.219.466-.328.767-.328H3.16L2.122 5.672a1.13 1.13 0 0 1-.305-.809c.007-.304.113-.566.316-.785a.99.99 0 0 1 .756-.328h1.444V1.125c0-.313.106-.578.316-.797C4.86.11 5.116 0 5.417 0h2.166c.301 0 .557.11.768.328.21.219.316.484.316.797V3.75h1.444c.316 0 .576.11.779.328.203.219.308.48.316.785a1.09 1.09 0 0 1-.328.809L9.84 6.75h2.077zM2.889 4.875L6.5 8.625l3.611-3.75H7.583v-3.75H5.417v3.75H2.889zm9.028 6v-3h-3.16l-1.49 1.547c-.21.219-.466.328-.767.328-.3 0-.557-.11-.767-.328l-1.49-1.547h-3.16v3h10.834zm-1.986-1.5c0-.156.052-.29.158-.398a.513.513 0 0 1 .383-.165c.15 0 .279.055.384.165.105.109.158.242.158.398 0 .156-.053.29-.158.398a.513.513 0 0 1-.384.165.513.513 0 0 1-.383-.165.553.553 0 0 1-.158-.398z"/>
</svg>
